G04 #@! TF.GenerationSoftware,KiCad,Pcbnew,5.0.2-bee76a0~70~ubuntu18.04.1*
G04 #@! TF.CreationDate,2019-09-12T15:25:54-07:00*
G04 #@! TF.ProjectId,potentiostat_featherwing,706f7465-6e74-4696-9f73-7461745f6665,rev?*
G04 #@! TF.SameCoordinates,Original*
G04 #@! TF.FileFunction,Legend,Bot*
G04 #@! TF.FilePolarity,Positive*
%FSLAX46Y46*%
G04 Gerber Fmt 4.6, Leading zero omitted, Abs format (unit mm)*
G04 Created by KiCad (PCBNEW 5.0.2-bee76a0~70~ubuntu18.04.1) date Thu 12 Sep 2019 03:25:54 PM PDT*
%MOMM*%
%LPD*%
G01*
G04 APERTURE LIST*
%ADD10C,0.203200*%
G04 APERTURE END LIST*
D10*
X51259619Y-35614428D02*
X50243619Y-35614428D01*
X50243619Y-36001476D01*
X50292000Y-36098238D01*
X50340380Y-36146619D01*
X50437142Y-36195000D01*
X50582285Y-36195000D01*
X50679047Y-36146619D01*
X50727428Y-36098238D01*
X50775809Y-36001476D01*
X50775809Y-35614428D01*
X51259619Y-36775571D02*
X51211238Y-36678809D01*
X51162857Y-36630428D01*
X51066095Y-36582047D01*
X50775809Y-36582047D01*
X50679047Y-36630428D01*
X50630666Y-36678809D01*
X50582285Y-36775571D01*
X50582285Y-36920714D01*
X50630666Y-37017476D01*
X50679047Y-37065857D01*
X50775809Y-37114238D01*
X51066095Y-37114238D01*
X51162857Y-37065857D01*
X51211238Y-37017476D01*
X51259619Y-36920714D01*
X51259619Y-36775571D01*
X50582285Y-37404523D02*
X50582285Y-37791571D01*
X50243619Y-37549666D02*
X51114476Y-37549666D01*
X51211238Y-37598047D01*
X51259619Y-37694809D01*
X51259619Y-37791571D01*
X51211238Y-38517285D02*
X51259619Y-38420523D01*
X51259619Y-38227000D01*
X51211238Y-38130238D01*
X51114476Y-38081857D01*
X50727428Y-38081857D01*
X50630666Y-38130238D01*
X50582285Y-38227000D01*
X50582285Y-38420523D01*
X50630666Y-38517285D01*
X50727428Y-38565666D01*
X50824190Y-38565666D01*
X50920952Y-38081857D01*
X50582285Y-39001095D02*
X51259619Y-39001095D01*
X50679047Y-39001095D02*
X50630666Y-39049476D01*
X50582285Y-39146238D01*
X50582285Y-39291380D01*
X50630666Y-39388142D01*
X50727428Y-39436523D01*
X51259619Y-39436523D01*
X50582285Y-39775190D02*
X50582285Y-40162238D01*
X50243619Y-39920333D02*
X51114476Y-39920333D01*
X51211238Y-39968714D01*
X51259619Y-40065476D01*
X51259619Y-40162238D01*
X51259619Y-40500904D02*
X50582285Y-40500904D01*
X50243619Y-40500904D02*
X50292000Y-40452523D01*
X50340380Y-40500904D01*
X50292000Y-40549285D01*
X50243619Y-40500904D01*
X50340380Y-40500904D01*
X51259619Y-41129857D02*
X51211238Y-41033095D01*
X51162857Y-40984714D01*
X51066095Y-40936333D01*
X50775809Y-40936333D01*
X50679047Y-40984714D01*
X50630666Y-41033095D01*
X50582285Y-41129857D01*
X50582285Y-41275000D01*
X50630666Y-41371761D01*
X50679047Y-41420142D01*
X50775809Y-41468523D01*
X51066095Y-41468523D01*
X51162857Y-41420142D01*
X51211238Y-41371761D01*
X51259619Y-41275000D01*
X51259619Y-41129857D01*
X51211238Y-41855571D02*
X51259619Y-41952333D01*
X51259619Y-42145857D01*
X51211238Y-42242619D01*
X51114476Y-42290999D01*
X51066095Y-42290999D01*
X50969333Y-42242619D01*
X50920952Y-42145857D01*
X50920952Y-42000714D01*
X50872571Y-41903952D01*
X50775809Y-41855571D01*
X50727428Y-41855571D01*
X50630666Y-41903952D01*
X50582285Y-42000714D01*
X50582285Y-42145857D01*
X50630666Y-42242619D01*
X50582285Y-42581285D02*
X50582285Y-42968333D01*
X50243619Y-42726428D02*
X51114476Y-42726428D01*
X51211238Y-42774809D01*
X51259619Y-42871571D01*
X51259619Y-42968333D01*
X51259619Y-43742428D02*
X50727428Y-43742428D01*
X50630666Y-43694047D01*
X50582285Y-43597285D01*
X50582285Y-43403761D01*
X50630666Y-43306999D01*
X51211238Y-43742428D02*
X51259619Y-43645666D01*
X51259619Y-43403761D01*
X51211238Y-43306999D01*
X51114476Y-43258619D01*
X51017714Y-43258619D01*
X50920952Y-43306999D01*
X50872571Y-43403761D01*
X50872571Y-43645666D01*
X50824190Y-43742428D01*
X50582285Y-44081095D02*
X50582285Y-44468142D01*
X50243619Y-44226238D02*
X51114476Y-44226238D01*
X51211238Y-44274619D01*
X51259619Y-44371380D01*
X51259619Y-44468142D01*
X50727428Y-45919571D02*
X50727428Y-45580904D01*
X51259619Y-45580904D02*
X50243619Y-45580904D01*
X50243619Y-46064714D01*
X51211238Y-46838809D02*
X51259619Y-46742047D01*
X51259619Y-46548523D01*
X51211238Y-46451761D01*
X51114476Y-46403380D01*
X50727428Y-46403380D01*
X50630666Y-46451761D01*
X50582285Y-46548523D01*
X50582285Y-46742047D01*
X50630666Y-46838809D01*
X50727428Y-46887190D01*
X50824190Y-46887190D01*
X50920952Y-46403380D01*
X51259619Y-47758047D02*
X50727428Y-47758047D01*
X50630666Y-47709666D01*
X50582285Y-47612904D01*
X50582285Y-47419380D01*
X50630666Y-47322619D01*
X51211238Y-47758047D02*
X51259619Y-47661285D01*
X51259619Y-47419380D01*
X51211238Y-47322619D01*
X51114476Y-47274238D01*
X51017714Y-47274238D01*
X50920952Y-47322619D01*
X50872571Y-47419380D01*
X50872571Y-47661285D01*
X50824190Y-47758047D01*
X50582285Y-48096714D02*
X50582285Y-48483761D01*
X50243619Y-48241857D02*
X51114476Y-48241857D01*
X51211238Y-48290238D01*
X51259619Y-48387000D01*
X51259619Y-48483761D01*
X51259619Y-48822428D02*
X50243619Y-48822428D01*
X51259619Y-49257857D02*
X50727428Y-49257857D01*
X50630666Y-49209476D01*
X50582285Y-49112714D01*
X50582285Y-48967571D01*
X50630666Y-48870809D01*
X50679047Y-48822428D01*
X51211238Y-50128714D02*
X51259619Y-50031952D01*
X51259619Y-49838428D01*
X51211238Y-49741666D01*
X51114476Y-49693285D01*
X50727428Y-49693285D01*
X50630666Y-49741666D01*
X50582285Y-49838428D01*
X50582285Y-50031952D01*
X50630666Y-50128714D01*
X50727428Y-50177095D01*
X50824190Y-50177095D01*
X50920952Y-49693285D01*
X51259619Y-50612523D02*
X50582285Y-50612523D01*
X50775809Y-50612523D02*
X50679047Y-50660904D01*
X50630666Y-50709285D01*
X50582285Y-50806047D01*
X50582285Y-50902809D01*
X50582285Y-51144714D02*
X51259619Y-51338238D01*
X50775809Y-51531761D01*
X51259619Y-51725285D01*
X50582285Y-51918809D01*
X51259619Y-52305857D02*
X50582285Y-52305857D01*
X50243619Y-52305857D02*
X50292000Y-52257476D01*
X50340380Y-52305857D01*
X50292000Y-52354238D01*
X50243619Y-52305857D01*
X50340380Y-52305857D01*
X50582285Y-52789666D02*
X51259619Y-52789666D01*
X50679047Y-52789666D02*
X50630666Y-52838047D01*
X50582285Y-52934809D01*
X50582285Y-53079952D01*
X50630666Y-53176714D01*
X50727428Y-53225095D01*
X51259619Y-53225095D01*
X50582285Y-54144333D02*
X51404761Y-54144333D01*
X51501523Y-54095952D01*
X51549904Y-54047571D01*
X51598285Y-53950809D01*
X51598285Y-53805666D01*
X51549904Y-53708904D01*
X51211238Y-54144333D02*
X51259619Y-54047571D01*
X51259619Y-53854047D01*
X51211238Y-53757285D01*
X51162857Y-53708904D01*
X51066095Y-53660523D01*
X50775809Y-53660523D01*
X50679047Y-53708904D01*
X50630666Y-53757285D01*
X50582285Y-53854047D01*
X50582285Y-54047571D01*
X50630666Y-54144333D01*
X50582285Y-55305476D02*
X51259619Y-55547380D01*
X50582285Y-55789285D01*
X50243619Y-56369857D02*
X50243619Y-56466619D01*
X50292000Y-56563380D01*
X50340380Y-56611761D01*
X50437142Y-56660142D01*
X50630666Y-56708523D01*
X50872571Y-56708523D01*
X51066095Y-56660142D01*
X51162857Y-56611761D01*
X51211238Y-56563380D01*
X51259619Y-56466619D01*
X51259619Y-56369857D01*
X51211238Y-56273095D01*
X51162857Y-56224714D01*
X51066095Y-56176333D01*
X50872571Y-56127952D01*
X50630666Y-56127952D01*
X50437142Y-56176333D01*
X50340380Y-56224714D01*
X50292000Y-56273095D01*
X50243619Y-56369857D01*
X51162857Y-57143952D02*
X51211238Y-57192333D01*
X51259619Y-57143952D01*
X51211238Y-57095571D01*
X51162857Y-57143952D01*
X51259619Y-57143952D01*
X51259619Y-58159952D02*
X51259619Y-57579380D01*
X51259619Y-57869666D02*
X50243619Y-57869666D01*
X50388761Y-57772904D01*
X50485523Y-57676142D01*
X50533904Y-57579380D01*
G04 #@! TO.C,U1*
X58976380Y-70309619D02*
X59315047Y-69825809D01*
X59556952Y-70309619D02*
X59556952Y-69293619D01*
X59169904Y-69293619D01*
X59073142Y-69342000D01*
X59024761Y-69390380D01*
X58976380Y-69487142D01*
X58976380Y-69632285D01*
X59024761Y-69729047D01*
X59073142Y-69777428D01*
X59169904Y-69825809D01*
X59556952Y-69825809D01*
X58589333Y-70261238D02*
X58444190Y-70309619D01*
X58202285Y-70309619D01*
X58105523Y-70261238D01*
X58057142Y-70212857D01*
X58008761Y-70116095D01*
X58008761Y-70019333D01*
X58057142Y-69922571D01*
X58105523Y-69874190D01*
X58202285Y-69825809D01*
X58395809Y-69777428D01*
X58492571Y-69729047D01*
X58540952Y-69680666D01*
X58589333Y-69583904D01*
X58589333Y-69487142D01*
X58540952Y-69390380D01*
X58492571Y-69342000D01*
X58395809Y-69293619D01*
X58153904Y-69293619D01*
X58008761Y-69342000D01*
X57718476Y-69293619D02*
X57137904Y-69293619D01*
X57428190Y-70309619D02*
X57428190Y-69293619D01*
X59448095Y-66753619D02*
X58819142Y-66753619D01*
X59157809Y-67140666D01*
X59012666Y-67140666D01*
X58915904Y-67189047D01*
X58867523Y-67237428D01*
X58819142Y-67334190D01*
X58819142Y-67576095D01*
X58867523Y-67672857D01*
X58915904Y-67721238D01*
X59012666Y-67769619D01*
X59302952Y-67769619D01*
X59399714Y-67721238D01*
X59448095Y-67672857D01*
X58528857Y-66753619D02*
X58190190Y-67769619D01*
X57851523Y-66753619D01*
X59556952Y-64939333D02*
X59073142Y-64939333D01*
X59653714Y-65229619D02*
X59315047Y-64213619D01*
X58976380Y-65229619D01*
X58057142Y-65229619D02*
X58395809Y-64745809D01*
X58637714Y-65229619D02*
X58637714Y-64213619D01*
X58250666Y-64213619D01*
X58153904Y-64262000D01*
X58105523Y-64310380D01*
X58057142Y-64407142D01*
X58057142Y-64552285D01*
X58105523Y-64649047D01*
X58153904Y-64697428D01*
X58250666Y-64745809D01*
X58637714Y-64745809D01*
X57621714Y-64697428D02*
X57283047Y-64697428D01*
X57137904Y-65229619D02*
X57621714Y-65229619D01*
X57621714Y-64213619D01*
X57137904Y-64213619D01*
X56363809Y-64697428D02*
X56702476Y-64697428D01*
X56702476Y-65229619D02*
X56702476Y-64213619D01*
X56218666Y-64213619D01*
X58940095Y-61722000D02*
X59036857Y-61673619D01*
X59182000Y-61673619D01*
X59327142Y-61722000D01*
X59423904Y-61818761D01*
X59472285Y-61915523D01*
X59520666Y-62109047D01*
X59520666Y-62254190D01*
X59472285Y-62447714D01*
X59423904Y-62544476D01*
X59327142Y-62641238D01*
X59182000Y-62689619D01*
X59085238Y-62689619D01*
X58940095Y-62641238D01*
X58891714Y-62592857D01*
X58891714Y-62254190D01*
X59085238Y-62254190D01*
X58456285Y-62689619D02*
X58456285Y-61673619D01*
X57875714Y-62689619D01*
X57875714Y-61673619D01*
X57391904Y-62689619D02*
X57391904Y-61673619D01*
X57150000Y-61673619D01*
X57004857Y-61722000D01*
X56908095Y-61818761D01*
X56859714Y-61915523D01*
X56811333Y-62109047D01*
X56811333Y-62254190D01*
X56859714Y-62447714D01*
X56908095Y-62544476D01*
X57004857Y-62641238D01*
X57150000Y-62689619D01*
X57391904Y-62689619D01*
X59399714Y-59859333D02*
X58915904Y-59859333D01*
X59496476Y-60149619D02*
X59157809Y-59133619D01*
X58819142Y-60149619D01*
X58286952Y-59133619D02*
X58190190Y-59133619D01*
X58093428Y-59182000D01*
X58045047Y-59230380D01*
X57996666Y-59327142D01*
X57948285Y-59520666D01*
X57948285Y-59762571D01*
X57996666Y-59956095D01*
X58045047Y-60052857D01*
X58093428Y-60101238D01*
X58190190Y-60149619D01*
X58286952Y-60149619D01*
X58383714Y-60101238D01*
X58432095Y-60052857D01*
X58480476Y-59956095D01*
X58528857Y-59762571D01*
X58528857Y-59520666D01*
X58480476Y-59327142D01*
X58432095Y-59230380D01*
X58383714Y-59182000D01*
X58286952Y-59133619D01*
X59399714Y-57319333D02*
X58915904Y-57319333D01*
X59496476Y-57609619D02*
X59157809Y-56593619D01*
X58819142Y-57609619D01*
X57948285Y-57609619D02*
X58528857Y-57609619D01*
X58238571Y-57609619D02*
X58238571Y-56593619D01*
X58335333Y-56738761D01*
X58432095Y-56835523D01*
X58528857Y-56883904D01*
X59399714Y-54779333D02*
X58915904Y-54779333D01*
X59496476Y-55069619D02*
X59157809Y-54053619D01*
X58819142Y-55069619D01*
X58528857Y-54150380D02*
X58480476Y-54102000D01*
X58383714Y-54053619D01*
X58141809Y-54053619D01*
X58045047Y-54102000D01*
X57996666Y-54150380D01*
X57948285Y-54247142D01*
X57948285Y-54343904D01*
X57996666Y-54489047D01*
X58577238Y-55069619D01*
X57948285Y-55069619D01*
X59399714Y-52239333D02*
X58915904Y-52239333D01*
X59496476Y-52529619D02*
X59157809Y-51513619D01*
X58819142Y-52529619D01*
X58577238Y-51513619D02*
X57948285Y-51513619D01*
X58286952Y-51900666D01*
X58141809Y-51900666D01*
X58045047Y-51949047D01*
X57996666Y-51997428D01*
X57948285Y-52094190D01*
X57948285Y-52336095D01*
X57996666Y-52432857D01*
X58045047Y-52481238D01*
X58141809Y-52529619D01*
X58432095Y-52529619D01*
X58528857Y-52481238D01*
X58577238Y-52432857D01*
X59399714Y-49699333D02*
X58915904Y-49699333D01*
X59496476Y-49989619D02*
X59157809Y-48973619D01*
X58819142Y-49989619D01*
X58045047Y-49312285D02*
X58045047Y-49989619D01*
X58286952Y-48925238D02*
X58528857Y-49650952D01*
X57899904Y-49650952D01*
X59399714Y-47159333D02*
X58915904Y-47159333D01*
X59496476Y-47449619D02*
X59157809Y-46433619D01*
X58819142Y-47449619D01*
X57996666Y-46433619D02*
X58480476Y-46433619D01*
X58528857Y-46917428D01*
X58480476Y-46869047D01*
X58383714Y-46820666D01*
X58141809Y-46820666D01*
X58045047Y-46869047D01*
X57996666Y-46917428D01*
X57948285Y-47014190D01*
X57948285Y-47256095D01*
X57996666Y-47352857D01*
X58045047Y-47401238D01*
X58141809Y-47449619D01*
X58383714Y-47449619D01*
X58480476Y-47401238D01*
X58528857Y-47352857D01*
X59726285Y-44861238D02*
X59581142Y-44909619D01*
X59339238Y-44909619D01*
X59242476Y-44861238D01*
X59194095Y-44812857D01*
X59145714Y-44716095D01*
X59145714Y-44619333D01*
X59194095Y-44522571D01*
X59242476Y-44474190D01*
X59339238Y-44425809D01*
X59532761Y-44377428D01*
X59629523Y-44329047D01*
X59677904Y-44280666D01*
X59726285Y-44183904D01*
X59726285Y-44087142D01*
X59677904Y-43990380D01*
X59629523Y-43942000D01*
X59532761Y-43893619D01*
X59290857Y-43893619D01*
X59145714Y-43942000D01*
X58129714Y-44812857D02*
X58178095Y-44861238D01*
X58323238Y-44909619D01*
X58420000Y-44909619D01*
X58565142Y-44861238D01*
X58661904Y-44764476D01*
X58710285Y-44667714D01*
X58758666Y-44474190D01*
X58758666Y-44329047D01*
X58710285Y-44135523D01*
X58661904Y-44038761D01*
X58565142Y-43942000D01*
X58420000Y-43893619D01*
X58323238Y-43893619D01*
X58178095Y-43942000D01*
X58129714Y-43990380D01*
X57694285Y-44909619D02*
X57694285Y-43893619D01*
X57113714Y-44909619D02*
X57549142Y-44329047D01*
X57113714Y-43893619D02*
X57694285Y-44474190D01*
X59508571Y-42623619D02*
X59508571Y-41607619D01*
X59169904Y-42333333D01*
X58831238Y-41607619D01*
X58831238Y-42623619D01*
X58153904Y-41607619D02*
X57960380Y-41607619D01*
X57863619Y-41656000D01*
X57766857Y-41752761D01*
X57718476Y-41946285D01*
X57718476Y-42284952D01*
X57766857Y-42478476D01*
X57863619Y-42575238D01*
X57960380Y-42623619D01*
X58153904Y-42623619D01*
X58250666Y-42575238D01*
X58347428Y-42478476D01*
X58395809Y-42284952D01*
X58395809Y-41946285D01*
X58347428Y-41752761D01*
X58250666Y-41656000D01*
X58153904Y-41607619D01*
X57331428Y-42575238D02*
X57186285Y-42623619D01*
X56944380Y-42623619D01*
X56847619Y-42575238D01*
X56799238Y-42526857D01*
X56750857Y-42430095D01*
X56750857Y-42333333D01*
X56799238Y-42236571D01*
X56847619Y-42188190D01*
X56944380Y-42139809D01*
X57137904Y-42091428D01*
X57234666Y-42043047D01*
X57283047Y-41994666D01*
X57331428Y-41897904D01*
X57331428Y-41801142D01*
X57283047Y-41704380D01*
X57234666Y-41656000D01*
X57137904Y-41607619D01*
X56895999Y-41607619D01*
X56750857Y-41656000D01*
X56315428Y-42623619D02*
X56315428Y-41607619D01*
X59508571Y-39829619D02*
X59508571Y-38813619D01*
X59169904Y-39539333D01*
X58831238Y-38813619D01*
X58831238Y-39829619D01*
X58347428Y-39829619D02*
X58347428Y-38813619D01*
X57911999Y-39781238D02*
X57766857Y-39829619D01*
X57524952Y-39829619D01*
X57428190Y-39781238D01*
X57379809Y-39732857D01*
X57331428Y-39636095D01*
X57331428Y-39539333D01*
X57379809Y-39442571D01*
X57428190Y-39394190D01*
X57524952Y-39345809D01*
X57718476Y-39297428D01*
X57815238Y-39249047D01*
X57863619Y-39200666D01*
X57911999Y-39103904D01*
X57911999Y-39007142D01*
X57863619Y-38910380D01*
X57815238Y-38862000D01*
X57718476Y-38813619D01*
X57476571Y-38813619D01*
X57331428Y-38862000D01*
X56702476Y-38813619D02*
X56508952Y-38813619D01*
X56412190Y-38862000D01*
X56315428Y-38958761D01*
X56267047Y-39152285D01*
X56267047Y-39490952D01*
X56315428Y-39684476D01*
X56412190Y-39781238D01*
X56508952Y-39829619D01*
X56702476Y-39829619D01*
X56799238Y-39781238D01*
X56895999Y-39684476D01*
X56944380Y-39490952D01*
X56944380Y-39152285D01*
X56895999Y-38958761D01*
X56799238Y-38862000D01*
X56702476Y-38813619D01*
X59097333Y-37543619D02*
X59436000Y-37059809D01*
X59677904Y-37543619D02*
X59677904Y-36527619D01*
X59290857Y-36527619D01*
X59194095Y-36576000D01*
X59145714Y-36624380D01*
X59097333Y-36721142D01*
X59097333Y-36866285D01*
X59145714Y-36963047D01*
X59194095Y-37011428D01*
X59290857Y-37059809D01*
X59677904Y-37059809D01*
X58758666Y-36527619D02*
X58081333Y-37543619D01*
X58081333Y-36527619D02*
X58758666Y-37543619D01*
X59702095Y-33733619D02*
X59121523Y-33733619D01*
X59411809Y-34749619D02*
X59411809Y-33733619D01*
X58879619Y-33733619D02*
X58202285Y-34749619D01*
X58202285Y-33733619D02*
X58879619Y-34749619D01*
X59290857Y-31677428D02*
X59145714Y-31725809D01*
X59097333Y-31774190D01*
X59048952Y-31870952D01*
X59048952Y-32016095D01*
X59097333Y-32112857D01*
X59145714Y-32161238D01*
X59242476Y-32209619D01*
X59629523Y-32209619D01*
X59629523Y-31193619D01*
X59290857Y-31193619D01*
X59194095Y-31242000D01*
X59145714Y-31290380D01*
X59097333Y-31387142D01*
X59097333Y-31483904D01*
X59145714Y-31580666D01*
X59194095Y-31629047D01*
X59290857Y-31677428D01*
X59629523Y-31677428D01*
X58661904Y-32161238D02*
X58516761Y-32209619D01*
X58274857Y-32209619D01*
X58178095Y-32161238D01*
X58129714Y-32112857D01*
X58081333Y-32016095D01*
X58081333Y-31919333D01*
X58129714Y-31822571D01*
X58178095Y-31774190D01*
X58274857Y-31725809D01*
X58468380Y-31677428D01*
X58565142Y-31629047D01*
X58613523Y-31580666D01*
X58661904Y-31483904D01*
X58661904Y-31387142D01*
X58613523Y-31290380D01*
X58565142Y-31242000D01*
X58468380Y-31193619D01*
X58226476Y-31193619D01*
X58081333Y-31242000D01*
X57645904Y-32209619D02*
X57645904Y-31193619D01*
X57258857Y-31193619D01*
X57162095Y-31242000D01*
X57113714Y-31290380D01*
X57065333Y-31387142D01*
X57065333Y-31532285D01*
X57113714Y-31629047D01*
X57162095Y-31677428D01*
X57258857Y-31725809D01*
X57645904Y-31725809D01*
X56629904Y-31677428D02*
X56291238Y-31677428D01*
X56146095Y-32209619D02*
X56629904Y-32209619D01*
X56629904Y-31193619D01*
X56146095Y-31193619D01*
X55130095Y-32112857D02*
X55178476Y-32161238D01*
X55323619Y-32209619D01*
X55420380Y-32209619D01*
X55565523Y-32161238D01*
X55662285Y-32064476D01*
X55710666Y-31967714D01*
X55759047Y-31774190D01*
X55759047Y-31629047D01*
X55710666Y-31435523D01*
X55662285Y-31338761D01*
X55565523Y-31242000D01*
X55420380Y-31193619D01*
X55323619Y-31193619D01*
X55178476Y-31242000D01*
X55130095Y-31290380D01*
X43929904Y-59617428D02*
X43784761Y-59665809D01*
X43736380Y-59714190D01*
X43688000Y-59810952D01*
X43688000Y-59956095D01*
X43736380Y-60052857D01*
X43784761Y-60101238D01*
X43881523Y-60149619D01*
X44268571Y-60149619D01*
X44268571Y-59133619D01*
X43929904Y-59133619D01*
X43833142Y-59182000D01*
X43784761Y-59230380D01*
X43736380Y-59327142D01*
X43736380Y-59423904D01*
X43784761Y-59520666D01*
X43833142Y-59569047D01*
X43929904Y-59617428D01*
X44268571Y-59617428D01*
X43300952Y-59859333D02*
X42817142Y-59859333D01*
X43397714Y-60149619D02*
X43059047Y-59133619D01*
X42720380Y-60149619D01*
X42526857Y-59133619D02*
X41946285Y-59133619D01*
X42236571Y-60149619D02*
X42236571Y-59133619D01*
X43421904Y-57077428D02*
X43083238Y-57077428D01*
X42938095Y-57609619D02*
X43421904Y-57609619D01*
X43421904Y-56593619D01*
X42938095Y-56593619D01*
X42502666Y-57609619D02*
X42502666Y-56593619D01*
X41922095Y-57609619D01*
X41922095Y-56593619D01*
X44462095Y-54053619D02*
X44462095Y-54876095D01*
X44413714Y-54972857D01*
X44365333Y-55021238D01*
X44268571Y-55069619D01*
X44075047Y-55069619D01*
X43978285Y-55021238D01*
X43929904Y-54972857D01*
X43881523Y-54876095D01*
X43881523Y-54053619D01*
X43446095Y-55021238D02*
X43300952Y-55069619D01*
X43059047Y-55069619D01*
X42962285Y-55021238D01*
X42913904Y-54972857D01*
X42865523Y-54876095D01*
X42865523Y-54779333D01*
X42913904Y-54682571D01*
X42962285Y-54634190D01*
X43059047Y-54585809D01*
X43252571Y-54537428D01*
X43349333Y-54489047D01*
X43397714Y-54440666D01*
X43446095Y-54343904D01*
X43446095Y-54247142D01*
X43397714Y-54150380D01*
X43349333Y-54102000D01*
X43252571Y-54053619D01*
X43010666Y-54053619D01*
X42865523Y-54102000D01*
X42091428Y-54537428D02*
X41946285Y-54585809D01*
X41897904Y-54634190D01*
X41849523Y-54730952D01*
X41849523Y-54876095D01*
X41897904Y-54972857D01*
X41946285Y-55021238D01*
X42043047Y-55069619D01*
X42430095Y-55069619D01*
X42430095Y-54053619D01*
X42091428Y-54053619D01*
X41994666Y-54102000D01*
X41946285Y-54150380D01*
X41897904Y-54247142D01*
X41897904Y-54343904D01*
X41946285Y-54440666D01*
X41994666Y-54489047D01*
X42091428Y-54537428D01*
X42430095Y-54537428D01*
X44413714Y-52529619D02*
X44413714Y-51513619D01*
X44171809Y-51513619D01*
X44026666Y-51562000D01*
X43929904Y-51658761D01*
X43881523Y-51755523D01*
X43833142Y-51949047D01*
X43833142Y-52094190D01*
X43881523Y-52287714D01*
X43929904Y-52384476D01*
X44026666Y-52481238D01*
X44171809Y-52529619D01*
X44413714Y-52529619D01*
X42865523Y-52529619D02*
X43446095Y-52529619D01*
X43155809Y-52529619D02*
X43155809Y-51513619D01*
X43252571Y-51658761D01*
X43349333Y-51755523D01*
X43446095Y-51803904D01*
X42526857Y-51513619D02*
X41897904Y-51513619D01*
X42236571Y-51900666D01*
X42091428Y-51900666D01*
X41994666Y-51949047D01*
X41946285Y-51997428D01*
X41897904Y-52094190D01*
X41897904Y-52336095D01*
X41946285Y-52432857D01*
X41994666Y-52481238D01*
X42091428Y-52529619D01*
X42381714Y-52529619D01*
X42478476Y-52481238D01*
X42526857Y-52432857D01*
X44413714Y-50243619D02*
X44413714Y-49227619D01*
X44171809Y-49227619D01*
X44026666Y-49276000D01*
X43929904Y-49372761D01*
X43881523Y-49469523D01*
X43833142Y-49663047D01*
X43833142Y-49808190D01*
X43881523Y-50001714D01*
X43929904Y-50098476D01*
X44026666Y-50195238D01*
X44171809Y-50243619D01*
X44413714Y-50243619D01*
X42865523Y-50243619D02*
X43446095Y-50243619D01*
X43155809Y-50243619D02*
X43155809Y-49227619D01*
X43252571Y-49372761D01*
X43349333Y-49469523D01*
X43446095Y-49517904D01*
X42478476Y-49324380D02*
X42430095Y-49276000D01*
X42333333Y-49227619D01*
X42091428Y-49227619D01*
X41994666Y-49276000D01*
X41946285Y-49324380D01*
X41897904Y-49421142D01*
X41897904Y-49517904D01*
X41946285Y-49663047D01*
X42526857Y-50243619D01*
X41897904Y-50243619D01*
X44413714Y-47449619D02*
X44413714Y-46433619D01*
X44171809Y-46433619D01*
X44026666Y-46482000D01*
X43929904Y-46578761D01*
X43881523Y-46675523D01*
X43833142Y-46869047D01*
X43833142Y-47014190D01*
X43881523Y-47207714D01*
X43929904Y-47304476D01*
X44026666Y-47401238D01*
X44171809Y-47449619D01*
X44413714Y-47449619D01*
X42865523Y-47449619D02*
X43446095Y-47449619D01*
X43155809Y-47449619D02*
X43155809Y-46433619D01*
X43252571Y-46578761D01*
X43349333Y-46675523D01*
X43446095Y-46723904D01*
X41897904Y-47449619D02*
X42478476Y-47449619D01*
X42188190Y-47449619D02*
X42188190Y-46433619D01*
X42284952Y-46578761D01*
X42381714Y-46675523D01*
X42478476Y-46723904D01*
X44413714Y-44909619D02*
X44413714Y-43893619D01*
X44171809Y-43893619D01*
X44026666Y-43942000D01*
X43929904Y-44038761D01*
X43881523Y-44135523D01*
X43833142Y-44329047D01*
X43833142Y-44474190D01*
X43881523Y-44667714D01*
X43929904Y-44764476D01*
X44026666Y-44861238D01*
X44171809Y-44909619D01*
X44413714Y-44909619D01*
X42865523Y-44909619D02*
X43446095Y-44909619D01*
X43155809Y-44909619D02*
X43155809Y-43893619D01*
X43252571Y-44038761D01*
X43349333Y-44135523D01*
X43446095Y-44183904D01*
X42236571Y-43893619D02*
X42139809Y-43893619D01*
X42043047Y-43942000D01*
X41994666Y-43990380D01*
X41946285Y-44087142D01*
X41897904Y-44280666D01*
X41897904Y-44522571D01*
X41946285Y-44716095D01*
X41994666Y-44812857D01*
X42043047Y-44861238D01*
X42139809Y-44909619D01*
X42236571Y-44909619D01*
X42333333Y-44861238D01*
X42381714Y-44812857D01*
X42430095Y-44716095D01*
X42478476Y-44522571D01*
X42478476Y-44280666D01*
X42430095Y-44087142D01*
X42381714Y-43990380D01*
X42333333Y-43942000D01*
X42236571Y-43893619D01*
X43421904Y-42369619D02*
X43421904Y-41353619D01*
X43180000Y-41353619D01*
X43034857Y-41402000D01*
X42938095Y-41498761D01*
X42889714Y-41595523D01*
X42841333Y-41789047D01*
X42841333Y-41934190D01*
X42889714Y-42127714D01*
X42938095Y-42224476D01*
X43034857Y-42321238D01*
X43180000Y-42369619D01*
X43421904Y-42369619D01*
X42357523Y-42369619D02*
X42164000Y-42369619D01*
X42067238Y-42321238D01*
X42018857Y-42272857D01*
X41922095Y-42127714D01*
X41873714Y-41934190D01*
X41873714Y-41547142D01*
X41922095Y-41450380D01*
X41970476Y-41402000D01*
X42067238Y-41353619D01*
X42260761Y-41353619D01*
X42357523Y-41402000D01*
X42405904Y-41450380D01*
X42454285Y-41547142D01*
X42454285Y-41789047D01*
X42405904Y-41885809D01*
X42357523Y-41934190D01*
X42260761Y-41982571D01*
X42067238Y-41982571D01*
X41970476Y-41934190D01*
X41922095Y-41885809D01*
X41873714Y-41789047D01*
X43421904Y-39829619D02*
X43421904Y-38813619D01*
X43180000Y-38813619D01*
X43034857Y-38862000D01*
X42938095Y-38958761D01*
X42889714Y-39055523D01*
X42841333Y-39249047D01*
X42841333Y-39394190D01*
X42889714Y-39587714D01*
X42938095Y-39684476D01*
X43034857Y-39781238D01*
X43180000Y-39829619D01*
X43421904Y-39829619D01*
X41970476Y-38813619D02*
X42164000Y-38813619D01*
X42260761Y-38862000D01*
X42309142Y-38910380D01*
X42405904Y-39055523D01*
X42454285Y-39249047D01*
X42454285Y-39636095D01*
X42405904Y-39732857D01*
X42357523Y-39781238D01*
X42260761Y-39829619D01*
X42067238Y-39829619D01*
X41970476Y-39781238D01*
X41922095Y-39732857D01*
X41873714Y-39636095D01*
X41873714Y-39394190D01*
X41922095Y-39297428D01*
X41970476Y-39249047D01*
X42067238Y-39200666D01*
X42260761Y-39200666D01*
X42357523Y-39249047D01*
X42405904Y-39297428D01*
X42454285Y-39394190D01*
X43421904Y-37416619D02*
X43421904Y-36400619D01*
X43180000Y-36400619D01*
X43034857Y-36449000D01*
X42938095Y-36545761D01*
X42889714Y-36642523D01*
X42841333Y-36836047D01*
X42841333Y-36981190D01*
X42889714Y-37174714D01*
X42938095Y-37271476D01*
X43034857Y-37368238D01*
X43180000Y-37416619D01*
X43421904Y-37416619D01*
X41922095Y-36400619D02*
X42405904Y-36400619D01*
X42454285Y-36884428D01*
X42405904Y-36836047D01*
X42309142Y-36787666D01*
X42067238Y-36787666D01*
X41970476Y-36836047D01*
X41922095Y-36884428D01*
X41873714Y-36981190D01*
X41873714Y-37223095D01*
X41922095Y-37319857D01*
X41970476Y-37368238D01*
X42067238Y-37416619D01*
X42309142Y-37416619D01*
X42405904Y-37368238D01*
X42454285Y-37319857D01*
X44389523Y-34701238D02*
X44244380Y-34749619D01*
X44002476Y-34749619D01*
X43905714Y-34701238D01*
X43857333Y-34652857D01*
X43808952Y-34556095D01*
X43808952Y-34459333D01*
X43857333Y-34362571D01*
X43905714Y-34314190D01*
X44002476Y-34265809D01*
X44196000Y-34217428D01*
X44292761Y-34169047D01*
X44341142Y-34120666D01*
X44389523Y-34023904D01*
X44389523Y-33927142D01*
X44341142Y-33830380D01*
X44292761Y-33782000D01*
X44196000Y-33733619D01*
X43954095Y-33733619D01*
X43808952Y-33782000D01*
X42792952Y-34652857D02*
X42841333Y-34701238D01*
X42986476Y-34749619D01*
X43083238Y-34749619D01*
X43228380Y-34701238D01*
X43325142Y-34604476D01*
X43373523Y-34507714D01*
X43421904Y-34314190D01*
X43421904Y-34169047D01*
X43373523Y-33975523D01*
X43325142Y-33878761D01*
X43228380Y-33782000D01*
X43083238Y-33733619D01*
X42986476Y-33733619D01*
X42841333Y-33782000D01*
X42792952Y-33830380D01*
X41873714Y-34749619D02*
X42357523Y-34749619D01*
X42357523Y-33733619D01*
X44413714Y-32161238D02*
X44268571Y-32209619D01*
X44026666Y-32209619D01*
X43929904Y-32161238D01*
X43881523Y-32112857D01*
X43833142Y-32016095D01*
X43833142Y-31919333D01*
X43881523Y-31822571D01*
X43929904Y-31774190D01*
X44026666Y-31725809D01*
X44220190Y-31677428D01*
X44316952Y-31629047D01*
X44365333Y-31580666D01*
X44413714Y-31483904D01*
X44413714Y-31387142D01*
X44365333Y-31290380D01*
X44316952Y-31242000D01*
X44220190Y-31193619D01*
X43978285Y-31193619D01*
X43833142Y-31242000D01*
X43397714Y-32209619D02*
X43397714Y-31193619D01*
X43155809Y-31193619D01*
X43010666Y-31242000D01*
X42913904Y-31338761D01*
X42865523Y-31435523D01*
X42817142Y-31629047D01*
X42817142Y-31774190D01*
X42865523Y-31967714D01*
X42913904Y-32064476D01*
X43010666Y-32161238D01*
X43155809Y-32209619D01*
X43397714Y-32209619D01*
X42430095Y-31919333D02*
X41946285Y-31919333D01*
X42526857Y-32209619D02*
X42188190Y-31193619D01*
X41849523Y-32209619D01*
G04 #@! TD*
M02*
