G04 #@! TF.GenerationSoftware,KiCad,Pcbnew,5.0.2-bee76a0~70~ubuntu18.04.1*
G04 #@! TF.CreationDate,2020-04-01T17:28:38-07:00*
G04 #@! TF.ProjectId,potentiostat_featherwing,706f7465-6e74-4696-9f73-7461745f6665,rev?*
G04 #@! TF.SameCoordinates,Original*
G04 #@! TF.FileFunction,Copper,L1,Top*
G04 #@! TF.FilePolarity,Positive*
%FSLAX46Y46*%
G04 Gerber Fmt 4.6, Leading zero omitted, Abs format (unit mm)*
G04 Created by KiCad (PCBNEW 5.0.2-bee76a0~70~ubuntu18.04.1) date Wed 01 Apr 2020 05:28:38 PM PDT*
%MOMM*%
%LPD*%
G01*
G04 APERTURE LIST*
G04 #@! TA.AperFunction,ComponentPad*
%ADD10C,1.778000*%
G04 #@! TD*
G04 #@! TA.AperFunction,ComponentPad*
%ADD11C,3.048000*%
G04 #@! TD*
G04 #@! TA.AperFunction,WasherPad*
%ADD12C,3.048000*%
G04 #@! TD*
G04 #@! TA.AperFunction,ComponentPad*
%ADD13C,2.000000*%
G04 #@! TD*
G04 #@! TA.AperFunction,ComponentPad*
%ADD14R,2.000000X2.000000*%
G04 #@! TD*
G04 #@! TA.AperFunction,Conductor*
%ADD15C,0.100000*%
G04 #@! TD*
G04 #@! TA.AperFunction,SMDPad,CuDef*
%ADD16C,0.950000*%
G04 #@! TD*
G04 #@! TA.AperFunction,ComponentPad*
%ADD17R,1.700000X1.700000*%
G04 #@! TD*
G04 #@! TA.AperFunction,ComponentPad*
%ADD18O,1.700000X1.700000*%
G04 #@! TD*
G04 #@! TA.AperFunction,SMDPad,CuDef*
%ADD19R,1.560000X0.650000*%
G04 #@! TD*
G04 #@! TA.AperFunction,SMDPad,CuDef*
%ADD20R,1.500000X0.600000*%
G04 #@! TD*
G04 #@! TA.AperFunction,ViaPad*
%ADD21C,0.800000*%
G04 #@! TD*
G04 #@! TA.AperFunction,Conductor*
%ADD22C,0.250000*%
G04 #@! TD*
G04 APERTURE END LIST*
D10*
G04 #@! TO.P,U1,28*
G04 #@! TO.N,Net-(U1-Pad28)*
X60960000Y-31750000D03*
G04 #@! TO.P,U1,27*
G04 #@! TO.N,Net-(U1-Pad27)*
X60960000Y-34290000D03*
G04 #@! TO.P,U1,26*
G04 #@! TO.N,Net-(U1-Pad26)*
X60960000Y-36830000D03*
G04 #@! TO.P,U1,25*
G04 #@! TO.N,Net-(U1-Pad25)*
X60960000Y-39370000D03*
G04 #@! TO.P,U1,24*
G04 #@! TO.N,Net-(U1-Pad24)*
X60960000Y-41910000D03*
G04 #@! TO.P,U1,23*
G04 #@! TO.N,Net-(U1-Pad23)*
X60960000Y-44450000D03*
G04 #@! TO.P,U1,22*
G04 #@! TO.N,Net-(U1-Pad22)*
X60960000Y-46990000D03*
G04 #@! TO.P,U1,21*
G04 #@! TO.N,/REF_ELECT_BUF*
X60960000Y-49530000D03*
G04 #@! TO.P,U1,20*
G04 #@! TO.N,Net-(U1-Pad20)*
X60960000Y-52070000D03*
G04 #@! TO.P,U1,19*
G04 #@! TO.N,/AIN_TIA*
X60960000Y-54610000D03*
G04 #@! TO.P,U1,18*
G04 #@! TO.N,Net-(U1-Pad18)*
X60960000Y-57150000D03*
G04 #@! TO.P,U1,17*
G04 #@! TO.N,/DAC_SETPT*
X60960000Y-59690000D03*
G04 #@! TO.P,U1,16*
G04 #@! TO.N,GND*
X60960000Y-62230000D03*
G04 #@! TO.P,U1,15*
G04 #@! TO.N,Net-(U1-Pad15)*
X60960000Y-64770000D03*
G04 #@! TO.P,U1,14*
G04 #@! TO.N,/3V3*
X60960000Y-67310000D03*
G04 #@! TO.P,U1,13*
G04 #@! TO.N,Net-(U1-Pad13)*
X60960000Y-69850000D03*
G04 #@! TO.P,U1,12*
G04 #@! TO.N,Net-(U1-Pad12)*
X40640000Y-59690000D03*
G04 #@! TO.P,U1,11*
G04 #@! TO.N,Net-(U1-Pad11)*
X40640000Y-57150000D03*
G04 #@! TO.P,U1,10*
G04 #@! TO.N,Net-(U1-Pad10)*
X40640000Y-54610000D03*
G04 #@! TO.P,U1,9*
G04 #@! TO.N,Net-(JP1-Pad2)*
X40640000Y-52070000D03*
G04 #@! TO.P,U1,8*
G04 #@! TO.N,Net-(JP2-Pad2)*
X40640000Y-49530000D03*
G04 #@! TO.P,U1,7*
G04 #@! TO.N,Net-(JP3-Pad2)*
X40640000Y-46990000D03*
G04 #@! TO.P,U1,6*
G04 #@! TO.N,Net-(JP4-Pad2)*
X40640000Y-44450000D03*
G04 #@! TO.P,U1,5*
G04 #@! TO.N,Net-(U1-Pad5)*
X40640000Y-41910000D03*
G04 #@! TO.P,U1,4*
G04 #@! TO.N,Net-(U1-Pad4)*
X40640000Y-39370000D03*
G04 #@! TO.P,U1,3*
G04 #@! TO.N,Net-(U1-Pad3)*
X40640000Y-36830000D03*
G04 #@! TO.P,U1,2*
G04 #@! TO.N,Net-(U1-Pad2)*
X40640000Y-34290000D03*
G04 #@! TO.P,U1,1*
G04 #@! TO.N,Net-(U1-Pad1)*
X40640000Y-31750000D03*
D11*
G04 #@! TO.P,U1,*
G04 #@! TO.N,*
X41910000Y-73660000D03*
X59690000Y-73660000D03*
D12*
X59690000Y-27940000D03*
X41910000Y-27940000D03*
G04 #@! TD*
D13*
G04 #@! TO.P,J1,2*
G04 #@! TO.N,/REF_ELECT*
X50800000Y-72644000D03*
D14*
G04 #@! TO.P,J1,1*
G04 #@! TO.N,/CTR_ELECT*
X47299880Y-72644000D03*
D13*
G04 #@! TO.P,J1,3*
G04 #@! TO.N,/WRK_ELECT*
X54300120Y-72644000D03*
G04 #@! TD*
D15*
G04 #@! TO.N,/3V3*
G04 #@! TO.C,C1*
G36*
X56013779Y-47877144D02*
X56036834Y-47880563D01*
X56059443Y-47886227D01*
X56081387Y-47894079D01*
X56102457Y-47904044D01*
X56122448Y-47916026D01*
X56141168Y-47929910D01*
X56158438Y-47945562D01*
X56174090Y-47962832D01*
X56187974Y-47981552D01*
X56199956Y-48001543D01*
X56209921Y-48022613D01*
X56217773Y-48044557D01*
X56223437Y-48067166D01*
X56226856Y-48090221D01*
X56228000Y-48113500D01*
X56228000Y-48688500D01*
X56226856Y-48711779D01*
X56223437Y-48734834D01*
X56217773Y-48757443D01*
X56209921Y-48779387D01*
X56199956Y-48800457D01*
X56187974Y-48820448D01*
X56174090Y-48839168D01*
X56158438Y-48856438D01*
X56141168Y-48872090D01*
X56122448Y-48885974D01*
X56102457Y-48897956D01*
X56081387Y-48907921D01*
X56059443Y-48915773D01*
X56036834Y-48921437D01*
X56013779Y-48924856D01*
X55990500Y-48926000D01*
X55515500Y-48926000D01*
X55492221Y-48924856D01*
X55469166Y-48921437D01*
X55446557Y-48915773D01*
X55424613Y-48907921D01*
X55403543Y-48897956D01*
X55383552Y-48885974D01*
X55364832Y-48872090D01*
X55347562Y-48856438D01*
X55331910Y-48839168D01*
X55318026Y-48820448D01*
X55306044Y-48800457D01*
X55296079Y-48779387D01*
X55288227Y-48757443D01*
X55282563Y-48734834D01*
X55279144Y-48711779D01*
X55278000Y-48688500D01*
X55278000Y-48113500D01*
X55279144Y-48090221D01*
X55282563Y-48067166D01*
X55288227Y-48044557D01*
X55296079Y-48022613D01*
X55306044Y-48001543D01*
X55318026Y-47981552D01*
X55331910Y-47962832D01*
X55347562Y-47945562D01*
X55364832Y-47929910D01*
X55383552Y-47916026D01*
X55403543Y-47904044D01*
X55424613Y-47894079D01*
X55446557Y-47886227D01*
X55469166Y-47880563D01*
X55492221Y-47877144D01*
X55515500Y-47876000D01*
X55990500Y-47876000D01*
X56013779Y-47877144D01*
X56013779Y-47877144D01*
G37*
D16*
G04 #@! TD*
G04 #@! TO.P,C1,1*
G04 #@! TO.N,/3V3*
X55753000Y-48401000D03*
D15*
G04 #@! TO.N,GND*
G04 #@! TO.C,C1*
G36*
X56013779Y-49627144D02*
X56036834Y-49630563D01*
X56059443Y-49636227D01*
X56081387Y-49644079D01*
X56102457Y-49654044D01*
X56122448Y-49666026D01*
X56141168Y-49679910D01*
X56158438Y-49695562D01*
X56174090Y-49712832D01*
X56187974Y-49731552D01*
X56199956Y-49751543D01*
X56209921Y-49772613D01*
X56217773Y-49794557D01*
X56223437Y-49817166D01*
X56226856Y-49840221D01*
X56228000Y-49863500D01*
X56228000Y-50438500D01*
X56226856Y-50461779D01*
X56223437Y-50484834D01*
X56217773Y-50507443D01*
X56209921Y-50529387D01*
X56199956Y-50550457D01*
X56187974Y-50570448D01*
X56174090Y-50589168D01*
X56158438Y-50606438D01*
X56141168Y-50622090D01*
X56122448Y-50635974D01*
X56102457Y-50647956D01*
X56081387Y-50657921D01*
X56059443Y-50665773D01*
X56036834Y-50671437D01*
X56013779Y-50674856D01*
X55990500Y-50676000D01*
X55515500Y-50676000D01*
X55492221Y-50674856D01*
X55469166Y-50671437D01*
X55446557Y-50665773D01*
X55424613Y-50657921D01*
X55403543Y-50647956D01*
X55383552Y-50635974D01*
X55364832Y-50622090D01*
X55347562Y-50606438D01*
X55331910Y-50589168D01*
X55318026Y-50570448D01*
X55306044Y-50550457D01*
X55296079Y-50529387D01*
X55288227Y-50507443D01*
X55282563Y-50484834D01*
X55279144Y-50461779D01*
X55278000Y-50438500D01*
X55278000Y-49863500D01*
X55279144Y-49840221D01*
X55282563Y-49817166D01*
X55288227Y-49794557D01*
X55296079Y-49772613D01*
X55306044Y-49751543D01*
X55318026Y-49731552D01*
X55331910Y-49712832D01*
X55347562Y-49695562D01*
X55364832Y-49679910D01*
X55383552Y-49666026D01*
X55403543Y-49654044D01*
X55424613Y-49644079D01*
X55446557Y-49636227D01*
X55469166Y-49630563D01*
X55492221Y-49627144D01*
X55515500Y-49626000D01*
X55990500Y-49626000D01*
X56013779Y-49627144D01*
X56013779Y-49627144D01*
G37*
D16*
G04 #@! TD*
G04 #@! TO.P,C1,2*
G04 #@! TO.N,GND*
X55753000Y-50151000D03*
D15*
G04 #@! TO.N,/3V3*
G04 #@! TO.C,C2*
G36*
X56013779Y-45309144D02*
X56036834Y-45312563D01*
X56059443Y-45318227D01*
X56081387Y-45326079D01*
X56102457Y-45336044D01*
X56122448Y-45348026D01*
X56141168Y-45361910D01*
X56158438Y-45377562D01*
X56174090Y-45394832D01*
X56187974Y-45413552D01*
X56199956Y-45433543D01*
X56209921Y-45454613D01*
X56217773Y-45476557D01*
X56223437Y-45499166D01*
X56226856Y-45522221D01*
X56228000Y-45545500D01*
X56228000Y-46120500D01*
X56226856Y-46143779D01*
X56223437Y-46166834D01*
X56217773Y-46189443D01*
X56209921Y-46211387D01*
X56199956Y-46232457D01*
X56187974Y-46252448D01*
X56174090Y-46271168D01*
X56158438Y-46288438D01*
X56141168Y-46304090D01*
X56122448Y-46317974D01*
X56102457Y-46329956D01*
X56081387Y-46339921D01*
X56059443Y-46347773D01*
X56036834Y-46353437D01*
X56013779Y-46356856D01*
X55990500Y-46358000D01*
X55515500Y-46358000D01*
X55492221Y-46356856D01*
X55469166Y-46353437D01*
X55446557Y-46347773D01*
X55424613Y-46339921D01*
X55403543Y-46329956D01*
X55383552Y-46317974D01*
X55364832Y-46304090D01*
X55347562Y-46288438D01*
X55331910Y-46271168D01*
X55318026Y-46252448D01*
X55306044Y-46232457D01*
X55296079Y-46211387D01*
X55288227Y-46189443D01*
X55282563Y-46166834D01*
X55279144Y-46143779D01*
X55278000Y-46120500D01*
X55278000Y-45545500D01*
X55279144Y-45522221D01*
X55282563Y-45499166D01*
X55288227Y-45476557D01*
X55296079Y-45454613D01*
X55306044Y-45433543D01*
X55318026Y-45413552D01*
X55331910Y-45394832D01*
X55347562Y-45377562D01*
X55364832Y-45361910D01*
X55383552Y-45348026D01*
X55403543Y-45336044D01*
X55424613Y-45326079D01*
X55446557Y-45318227D01*
X55469166Y-45312563D01*
X55492221Y-45309144D01*
X55515500Y-45308000D01*
X55990500Y-45308000D01*
X56013779Y-45309144D01*
X56013779Y-45309144D01*
G37*
D16*
G04 #@! TD*
G04 #@! TO.P,C2,1*
G04 #@! TO.N,/3V3*
X55753000Y-45833000D03*
D15*
G04 #@! TO.N,GND*
G04 #@! TO.C,C2*
G36*
X56013779Y-43559144D02*
X56036834Y-43562563D01*
X56059443Y-43568227D01*
X56081387Y-43576079D01*
X56102457Y-43586044D01*
X56122448Y-43598026D01*
X56141168Y-43611910D01*
X56158438Y-43627562D01*
X56174090Y-43644832D01*
X56187974Y-43663552D01*
X56199956Y-43683543D01*
X56209921Y-43704613D01*
X56217773Y-43726557D01*
X56223437Y-43749166D01*
X56226856Y-43772221D01*
X56228000Y-43795500D01*
X56228000Y-44370500D01*
X56226856Y-44393779D01*
X56223437Y-44416834D01*
X56217773Y-44439443D01*
X56209921Y-44461387D01*
X56199956Y-44482457D01*
X56187974Y-44502448D01*
X56174090Y-44521168D01*
X56158438Y-44538438D01*
X56141168Y-44554090D01*
X56122448Y-44567974D01*
X56102457Y-44579956D01*
X56081387Y-44589921D01*
X56059443Y-44597773D01*
X56036834Y-44603437D01*
X56013779Y-44606856D01*
X55990500Y-44608000D01*
X55515500Y-44608000D01*
X55492221Y-44606856D01*
X55469166Y-44603437D01*
X55446557Y-44597773D01*
X55424613Y-44589921D01*
X55403543Y-44579956D01*
X55383552Y-44567974D01*
X55364832Y-44554090D01*
X55347562Y-44538438D01*
X55331910Y-44521168D01*
X55318026Y-44502448D01*
X55306044Y-44482457D01*
X55296079Y-44461387D01*
X55288227Y-44439443D01*
X55282563Y-44416834D01*
X55279144Y-44393779D01*
X55278000Y-44370500D01*
X55278000Y-43795500D01*
X55279144Y-43772221D01*
X55282563Y-43749166D01*
X55288227Y-43726557D01*
X55296079Y-43704613D01*
X55306044Y-43683543D01*
X55318026Y-43663552D01*
X55331910Y-43644832D01*
X55347562Y-43627562D01*
X55364832Y-43611910D01*
X55383552Y-43598026D01*
X55403543Y-43586044D01*
X55424613Y-43576079D01*
X55446557Y-43568227D01*
X55469166Y-43562563D01*
X55492221Y-43559144D01*
X55515500Y-43558000D01*
X55990500Y-43558000D01*
X56013779Y-43559144D01*
X56013779Y-43559144D01*
G37*
D16*
G04 #@! TD*
G04 #@! TO.P,C2,2*
G04 #@! TO.N,GND*
X55753000Y-44083000D03*
D15*
G04 #@! TO.N,/AIN_TIA*
G04 #@! TO.C,C3*
G36*
X52902779Y-59089144D02*
X52925834Y-59092563D01*
X52948443Y-59098227D01*
X52970387Y-59106079D01*
X52991457Y-59116044D01*
X53011448Y-59128026D01*
X53030168Y-59141910D01*
X53047438Y-59157562D01*
X53063090Y-59174832D01*
X53076974Y-59193552D01*
X53088956Y-59213543D01*
X53098921Y-59234613D01*
X53106773Y-59256557D01*
X53112437Y-59279166D01*
X53115856Y-59302221D01*
X53117000Y-59325500D01*
X53117000Y-59800500D01*
X53115856Y-59823779D01*
X53112437Y-59846834D01*
X53106773Y-59869443D01*
X53098921Y-59891387D01*
X53088956Y-59912457D01*
X53076974Y-59932448D01*
X53063090Y-59951168D01*
X53047438Y-59968438D01*
X53030168Y-59984090D01*
X53011448Y-59997974D01*
X52991457Y-60009956D01*
X52970387Y-60019921D01*
X52948443Y-60027773D01*
X52925834Y-60033437D01*
X52902779Y-60036856D01*
X52879500Y-60038000D01*
X52304500Y-60038000D01*
X52281221Y-60036856D01*
X52258166Y-60033437D01*
X52235557Y-60027773D01*
X52213613Y-60019921D01*
X52192543Y-60009956D01*
X52172552Y-59997974D01*
X52153832Y-59984090D01*
X52136562Y-59968438D01*
X52120910Y-59951168D01*
X52107026Y-59932448D01*
X52095044Y-59912457D01*
X52085079Y-59891387D01*
X52077227Y-59869443D01*
X52071563Y-59846834D01*
X52068144Y-59823779D01*
X52067000Y-59800500D01*
X52067000Y-59325500D01*
X52068144Y-59302221D01*
X52071563Y-59279166D01*
X52077227Y-59256557D01*
X52085079Y-59234613D01*
X52095044Y-59213543D01*
X52107026Y-59193552D01*
X52120910Y-59174832D01*
X52136562Y-59157562D01*
X52153832Y-59141910D01*
X52172552Y-59128026D01*
X52192543Y-59116044D01*
X52213613Y-59106079D01*
X52235557Y-59098227D01*
X52258166Y-59092563D01*
X52281221Y-59089144D01*
X52304500Y-59088000D01*
X52879500Y-59088000D01*
X52902779Y-59089144D01*
X52902779Y-59089144D01*
G37*
D16*
G04 #@! TD*
G04 #@! TO.P,C3,2*
G04 #@! TO.N,/AIN_TIA*
X52592000Y-59563000D03*
D15*
G04 #@! TO.N,/WRK_ELECT*
G04 #@! TO.C,C3*
G36*
X54652779Y-59089144D02*
X54675834Y-59092563D01*
X54698443Y-59098227D01*
X54720387Y-59106079D01*
X54741457Y-59116044D01*
X54761448Y-59128026D01*
X54780168Y-59141910D01*
X54797438Y-59157562D01*
X54813090Y-59174832D01*
X54826974Y-59193552D01*
X54838956Y-59213543D01*
X54848921Y-59234613D01*
X54856773Y-59256557D01*
X54862437Y-59279166D01*
X54865856Y-59302221D01*
X54867000Y-59325500D01*
X54867000Y-59800500D01*
X54865856Y-59823779D01*
X54862437Y-59846834D01*
X54856773Y-59869443D01*
X54848921Y-59891387D01*
X54838956Y-59912457D01*
X54826974Y-59932448D01*
X54813090Y-59951168D01*
X54797438Y-59968438D01*
X54780168Y-59984090D01*
X54761448Y-59997974D01*
X54741457Y-60009956D01*
X54720387Y-60019921D01*
X54698443Y-60027773D01*
X54675834Y-60033437D01*
X54652779Y-60036856D01*
X54629500Y-60038000D01*
X54054500Y-60038000D01*
X54031221Y-60036856D01*
X54008166Y-60033437D01*
X53985557Y-60027773D01*
X53963613Y-60019921D01*
X53942543Y-60009956D01*
X53922552Y-59997974D01*
X53903832Y-59984090D01*
X53886562Y-59968438D01*
X53870910Y-59951168D01*
X53857026Y-59932448D01*
X53845044Y-59912457D01*
X53835079Y-59891387D01*
X53827227Y-59869443D01*
X53821563Y-59846834D01*
X53818144Y-59823779D01*
X53817000Y-59800500D01*
X53817000Y-59325500D01*
X53818144Y-59302221D01*
X53821563Y-59279166D01*
X53827227Y-59256557D01*
X53835079Y-59234613D01*
X53845044Y-59213543D01*
X53857026Y-59193552D01*
X53870910Y-59174832D01*
X53886562Y-59157562D01*
X53903832Y-59141910D01*
X53922552Y-59128026D01*
X53942543Y-59116044D01*
X53963613Y-59106079D01*
X53985557Y-59098227D01*
X54008166Y-59092563D01*
X54031221Y-59089144D01*
X54054500Y-59088000D01*
X54629500Y-59088000D01*
X54652779Y-59089144D01*
X54652779Y-59089144D01*
G37*
D16*
G04 #@! TD*
G04 #@! TO.P,C3,1*
G04 #@! TO.N,/WRK_ELECT*
X54342000Y-59563000D03*
D15*
G04 #@! TO.N,Net-(C5-Pad2)*
G04 #@! TO.C,C5*
G36*
X45790779Y-40674144D02*
X45813834Y-40677563D01*
X45836443Y-40683227D01*
X45858387Y-40691079D01*
X45879457Y-40701044D01*
X45899448Y-40713026D01*
X45918168Y-40726910D01*
X45935438Y-40742562D01*
X45951090Y-40759832D01*
X45964974Y-40778552D01*
X45976956Y-40798543D01*
X45986921Y-40819613D01*
X45994773Y-40841557D01*
X46000437Y-40864166D01*
X46003856Y-40887221D01*
X46005000Y-40910500D01*
X46005000Y-41385500D01*
X46003856Y-41408779D01*
X46000437Y-41431834D01*
X45994773Y-41454443D01*
X45986921Y-41476387D01*
X45976956Y-41497457D01*
X45964974Y-41517448D01*
X45951090Y-41536168D01*
X45935438Y-41553438D01*
X45918168Y-41569090D01*
X45899448Y-41582974D01*
X45879457Y-41594956D01*
X45858387Y-41604921D01*
X45836443Y-41612773D01*
X45813834Y-41618437D01*
X45790779Y-41621856D01*
X45767500Y-41623000D01*
X45192500Y-41623000D01*
X45169221Y-41621856D01*
X45146166Y-41618437D01*
X45123557Y-41612773D01*
X45101613Y-41604921D01*
X45080543Y-41594956D01*
X45060552Y-41582974D01*
X45041832Y-41569090D01*
X45024562Y-41553438D01*
X45008910Y-41536168D01*
X44995026Y-41517448D01*
X44983044Y-41497457D01*
X44973079Y-41476387D01*
X44965227Y-41454443D01*
X44959563Y-41431834D01*
X44956144Y-41408779D01*
X44955000Y-41385500D01*
X44955000Y-40910500D01*
X44956144Y-40887221D01*
X44959563Y-40864166D01*
X44965227Y-40841557D01*
X44973079Y-40819613D01*
X44983044Y-40798543D01*
X44995026Y-40778552D01*
X45008910Y-40759832D01*
X45024562Y-40742562D01*
X45041832Y-40726910D01*
X45060552Y-40713026D01*
X45080543Y-40701044D01*
X45101613Y-40691079D01*
X45123557Y-40683227D01*
X45146166Y-40677563D01*
X45169221Y-40674144D01*
X45192500Y-40673000D01*
X45767500Y-40673000D01*
X45790779Y-40674144D01*
X45790779Y-40674144D01*
G37*
D16*
G04 #@! TD*
G04 #@! TO.P,C5,2*
G04 #@! TO.N,Net-(C5-Pad2)*
X45480000Y-41148000D03*
D15*
G04 #@! TO.N,Net-(C5-Pad1)*
G04 #@! TO.C,C5*
G36*
X47540779Y-40674144D02*
X47563834Y-40677563D01*
X47586443Y-40683227D01*
X47608387Y-40691079D01*
X47629457Y-40701044D01*
X47649448Y-40713026D01*
X47668168Y-40726910D01*
X47685438Y-40742562D01*
X47701090Y-40759832D01*
X47714974Y-40778552D01*
X47726956Y-40798543D01*
X47736921Y-40819613D01*
X47744773Y-40841557D01*
X47750437Y-40864166D01*
X47753856Y-40887221D01*
X47755000Y-40910500D01*
X47755000Y-41385500D01*
X47753856Y-41408779D01*
X47750437Y-41431834D01*
X47744773Y-41454443D01*
X47736921Y-41476387D01*
X47726956Y-41497457D01*
X47714974Y-41517448D01*
X47701090Y-41536168D01*
X47685438Y-41553438D01*
X47668168Y-41569090D01*
X47649448Y-41582974D01*
X47629457Y-41594956D01*
X47608387Y-41604921D01*
X47586443Y-41612773D01*
X47563834Y-41618437D01*
X47540779Y-41621856D01*
X47517500Y-41623000D01*
X46942500Y-41623000D01*
X46919221Y-41621856D01*
X46896166Y-41618437D01*
X46873557Y-41612773D01*
X46851613Y-41604921D01*
X46830543Y-41594956D01*
X46810552Y-41582974D01*
X46791832Y-41569090D01*
X46774562Y-41553438D01*
X46758910Y-41536168D01*
X46745026Y-41517448D01*
X46733044Y-41497457D01*
X46723079Y-41476387D01*
X46715227Y-41454443D01*
X46709563Y-41431834D01*
X46706144Y-41408779D01*
X46705000Y-41385500D01*
X46705000Y-40910500D01*
X46706144Y-40887221D01*
X46709563Y-40864166D01*
X46715227Y-40841557D01*
X46723079Y-40819613D01*
X46733044Y-40798543D01*
X46745026Y-40778552D01*
X46758910Y-40759832D01*
X46774562Y-40742562D01*
X46791832Y-40726910D01*
X46810552Y-40713026D01*
X46830543Y-40701044D01*
X46851613Y-40691079D01*
X46873557Y-40683227D01*
X46896166Y-40677563D01*
X46919221Y-40674144D01*
X46942500Y-40673000D01*
X47517500Y-40673000D01*
X47540779Y-40674144D01*
X47540779Y-40674144D01*
G37*
D16*
G04 #@! TD*
G04 #@! TO.P,C5,1*
G04 #@! TO.N,Net-(C5-Pad1)*
X47230000Y-41148000D03*
D17*
G04 #@! TO.P,J2,1*
G04 #@! TO.N,/CTR_ELECT*
X48260000Y-64262000D03*
D18*
G04 #@! TO.P,J2,2*
G04 #@! TO.N,/REF_ELECT*
X50800000Y-64262000D03*
G04 #@! TO.P,J2,3*
G04 #@! TO.N,/WRK_ELECT*
X53340000Y-64262000D03*
G04 #@! TD*
D17*
G04 #@! TO.P,J3,1*
G04 #@! TO.N,GND*
X49530000Y-27686000D03*
D18*
G04 #@! TO.P,J3,2*
X52070000Y-27686000D03*
G04 #@! TD*
D15*
G04 #@! TO.N,Net-(C5-Pad2)*
G04 #@! TO.C,R1*
G36*
X46425779Y-55406144D02*
X46448834Y-55409563D01*
X46471443Y-55415227D01*
X46493387Y-55423079D01*
X46514457Y-55433044D01*
X46534448Y-55445026D01*
X46553168Y-55458910D01*
X46570438Y-55474562D01*
X46586090Y-55491832D01*
X46599974Y-55510552D01*
X46611956Y-55530543D01*
X46621921Y-55551613D01*
X46629773Y-55573557D01*
X46635437Y-55596166D01*
X46638856Y-55619221D01*
X46640000Y-55642500D01*
X46640000Y-56117500D01*
X46638856Y-56140779D01*
X46635437Y-56163834D01*
X46629773Y-56186443D01*
X46621921Y-56208387D01*
X46611956Y-56229457D01*
X46599974Y-56249448D01*
X46586090Y-56268168D01*
X46570438Y-56285438D01*
X46553168Y-56301090D01*
X46534448Y-56314974D01*
X46514457Y-56326956D01*
X46493387Y-56336921D01*
X46471443Y-56344773D01*
X46448834Y-56350437D01*
X46425779Y-56353856D01*
X46402500Y-56355000D01*
X45827500Y-56355000D01*
X45804221Y-56353856D01*
X45781166Y-56350437D01*
X45758557Y-56344773D01*
X45736613Y-56336921D01*
X45715543Y-56326956D01*
X45695552Y-56314974D01*
X45676832Y-56301090D01*
X45659562Y-56285438D01*
X45643910Y-56268168D01*
X45630026Y-56249448D01*
X45618044Y-56229457D01*
X45608079Y-56208387D01*
X45600227Y-56186443D01*
X45594563Y-56163834D01*
X45591144Y-56140779D01*
X45590000Y-56117500D01*
X45590000Y-55642500D01*
X45591144Y-55619221D01*
X45594563Y-55596166D01*
X45600227Y-55573557D01*
X45608079Y-55551613D01*
X45618044Y-55530543D01*
X45630026Y-55510552D01*
X45643910Y-55491832D01*
X45659562Y-55474562D01*
X45676832Y-55458910D01*
X45695552Y-55445026D01*
X45715543Y-55433044D01*
X45736613Y-55423079D01*
X45758557Y-55415227D01*
X45781166Y-55409563D01*
X45804221Y-55406144D01*
X45827500Y-55405000D01*
X46402500Y-55405000D01*
X46425779Y-55406144D01*
X46425779Y-55406144D01*
G37*
D16*
G04 #@! TD*
G04 #@! TO.P,R1,1*
G04 #@! TO.N,Net-(C5-Pad2)*
X46115000Y-55880000D03*
D15*
G04 #@! TO.N,/DAC_SETPT*
G04 #@! TO.C,R1*
G36*
X48175779Y-55406144D02*
X48198834Y-55409563D01*
X48221443Y-55415227D01*
X48243387Y-55423079D01*
X48264457Y-55433044D01*
X48284448Y-55445026D01*
X48303168Y-55458910D01*
X48320438Y-55474562D01*
X48336090Y-55491832D01*
X48349974Y-55510552D01*
X48361956Y-55530543D01*
X48371921Y-55551613D01*
X48379773Y-55573557D01*
X48385437Y-55596166D01*
X48388856Y-55619221D01*
X48390000Y-55642500D01*
X48390000Y-56117500D01*
X48388856Y-56140779D01*
X48385437Y-56163834D01*
X48379773Y-56186443D01*
X48371921Y-56208387D01*
X48361956Y-56229457D01*
X48349974Y-56249448D01*
X48336090Y-56268168D01*
X48320438Y-56285438D01*
X48303168Y-56301090D01*
X48284448Y-56314974D01*
X48264457Y-56326956D01*
X48243387Y-56336921D01*
X48221443Y-56344773D01*
X48198834Y-56350437D01*
X48175779Y-56353856D01*
X48152500Y-56355000D01*
X47577500Y-56355000D01*
X47554221Y-56353856D01*
X47531166Y-56350437D01*
X47508557Y-56344773D01*
X47486613Y-56336921D01*
X47465543Y-56326956D01*
X47445552Y-56314974D01*
X47426832Y-56301090D01*
X47409562Y-56285438D01*
X47393910Y-56268168D01*
X47380026Y-56249448D01*
X47368044Y-56229457D01*
X47358079Y-56208387D01*
X47350227Y-56186443D01*
X47344563Y-56163834D01*
X47341144Y-56140779D01*
X47340000Y-56117500D01*
X47340000Y-55642500D01*
X47341144Y-55619221D01*
X47344563Y-55596166D01*
X47350227Y-55573557D01*
X47358079Y-55551613D01*
X47368044Y-55530543D01*
X47380026Y-55510552D01*
X47393910Y-55491832D01*
X47409562Y-55474562D01*
X47426832Y-55458910D01*
X47445552Y-55445026D01*
X47465543Y-55433044D01*
X47486613Y-55423079D01*
X47508557Y-55415227D01*
X47531166Y-55409563D01*
X47554221Y-55406144D01*
X47577500Y-55405000D01*
X48152500Y-55405000D01*
X48175779Y-55406144D01*
X48175779Y-55406144D01*
G37*
D16*
G04 #@! TD*
G04 #@! TO.P,R1,2*
G04 #@! TO.N,/DAC_SETPT*
X47865000Y-55880000D03*
D15*
G04 #@! TO.N,Net-(C5-Pad2)*
G04 #@! TO.C,R2*
G36*
X46439779Y-58962144D02*
X46462834Y-58965563D01*
X46485443Y-58971227D01*
X46507387Y-58979079D01*
X46528457Y-58989044D01*
X46548448Y-59001026D01*
X46567168Y-59014910D01*
X46584438Y-59030562D01*
X46600090Y-59047832D01*
X46613974Y-59066552D01*
X46625956Y-59086543D01*
X46635921Y-59107613D01*
X46643773Y-59129557D01*
X46649437Y-59152166D01*
X46652856Y-59175221D01*
X46654000Y-59198500D01*
X46654000Y-59673500D01*
X46652856Y-59696779D01*
X46649437Y-59719834D01*
X46643773Y-59742443D01*
X46635921Y-59764387D01*
X46625956Y-59785457D01*
X46613974Y-59805448D01*
X46600090Y-59824168D01*
X46584438Y-59841438D01*
X46567168Y-59857090D01*
X46548448Y-59870974D01*
X46528457Y-59882956D01*
X46507387Y-59892921D01*
X46485443Y-59900773D01*
X46462834Y-59906437D01*
X46439779Y-59909856D01*
X46416500Y-59911000D01*
X45841500Y-59911000D01*
X45818221Y-59909856D01*
X45795166Y-59906437D01*
X45772557Y-59900773D01*
X45750613Y-59892921D01*
X45729543Y-59882956D01*
X45709552Y-59870974D01*
X45690832Y-59857090D01*
X45673562Y-59841438D01*
X45657910Y-59824168D01*
X45644026Y-59805448D01*
X45632044Y-59785457D01*
X45622079Y-59764387D01*
X45614227Y-59742443D01*
X45608563Y-59719834D01*
X45605144Y-59696779D01*
X45604000Y-59673500D01*
X45604000Y-59198500D01*
X45605144Y-59175221D01*
X45608563Y-59152166D01*
X45614227Y-59129557D01*
X45622079Y-59107613D01*
X45632044Y-59086543D01*
X45644026Y-59066552D01*
X45657910Y-59047832D01*
X45673562Y-59030562D01*
X45690832Y-59014910D01*
X45709552Y-59001026D01*
X45729543Y-58989044D01*
X45750613Y-58979079D01*
X45772557Y-58971227D01*
X45795166Y-58965563D01*
X45818221Y-58962144D01*
X45841500Y-58961000D01*
X46416500Y-58961000D01*
X46439779Y-58962144D01*
X46439779Y-58962144D01*
G37*
D16*
G04 #@! TD*
G04 #@! TO.P,R2,2*
G04 #@! TO.N,Net-(C5-Pad2)*
X46129000Y-59436000D03*
D15*
G04 #@! TO.N,/REF_ELECT_BUF*
G04 #@! TO.C,R2*
G36*
X48189779Y-58962144D02*
X48212834Y-58965563D01*
X48235443Y-58971227D01*
X48257387Y-58979079D01*
X48278457Y-58989044D01*
X48298448Y-59001026D01*
X48317168Y-59014910D01*
X48334438Y-59030562D01*
X48350090Y-59047832D01*
X48363974Y-59066552D01*
X48375956Y-59086543D01*
X48385921Y-59107613D01*
X48393773Y-59129557D01*
X48399437Y-59152166D01*
X48402856Y-59175221D01*
X48404000Y-59198500D01*
X48404000Y-59673500D01*
X48402856Y-59696779D01*
X48399437Y-59719834D01*
X48393773Y-59742443D01*
X48385921Y-59764387D01*
X48375956Y-59785457D01*
X48363974Y-59805448D01*
X48350090Y-59824168D01*
X48334438Y-59841438D01*
X48317168Y-59857090D01*
X48298448Y-59870974D01*
X48278457Y-59882956D01*
X48257387Y-59892921D01*
X48235443Y-59900773D01*
X48212834Y-59906437D01*
X48189779Y-59909856D01*
X48166500Y-59911000D01*
X47591500Y-59911000D01*
X47568221Y-59909856D01*
X47545166Y-59906437D01*
X47522557Y-59900773D01*
X47500613Y-59892921D01*
X47479543Y-59882956D01*
X47459552Y-59870974D01*
X47440832Y-59857090D01*
X47423562Y-59841438D01*
X47407910Y-59824168D01*
X47394026Y-59805448D01*
X47382044Y-59785457D01*
X47372079Y-59764387D01*
X47364227Y-59742443D01*
X47358563Y-59719834D01*
X47355144Y-59696779D01*
X47354000Y-59673500D01*
X47354000Y-59198500D01*
X47355144Y-59175221D01*
X47358563Y-59152166D01*
X47364227Y-59129557D01*
X47372079Y-59107613D01*
X47382044Y-59086543D01*
X47394026Y-59066552D01*
X47407910Y-59047832D01*
X47423562Y-59030562D01*
X47440832Y-59014910D01*
X47459552Y-59001026D01*
X47479543Y-58989044D01*
X47500613Y-58979079D01*
X47522557Y-58971227D01*
X47545166Y-58965563D01*
X47568221Y-58962144D01*
X47591500Y-58961000D01*
X48166500Y-58961000D01*
X48189779Y-58962144D01*
X48189779Y-58962144D01*
G37*
D16*
G04 #@! TD*
G04 #@! TO.P,R2,1*
G04 #@! TO.N,/REF_ELECT_BUF*
X47879000Y-59436000D03*
D15*
G04 #@! TO.N,/WRK_ELECT*
G04 #@! TO.C,R3*
G36*
X54652779Y-55406144D02*
X54675834Y-55409563D01*
X54698443Y-55415227D01*
X54720387Y-55423079D01*
X54741457Y-55433044D01*
X54761448Y-55445026D01*
X54780168Y-55458910D01*
X54797438Y-55474562D01*
X54813090Y-55491832D01*
X54826974Y-55510552D01*
X54838956Y-55530543D01*
X54848921Y-55551613D01*
X54856773Y-55573557D01*
X54862437Y-55596166D01*
X54865856Y-55619221D01*
X54867000Y-55642500D01*
X54867000Y-56117500D01*
X54865856Y-56140779D01*
X54862437Y-56163834D01*
X54856773Y-56186443D01*
X54848921Y-56208387D01*
X54838956Y-56229457D01*
X54826974Y-56249448D01*
X54813090Y-56268168D01*
X54797438Y-56285438D01*
X54780168Y-56301090D01*
X54761448Y-56314974D01*
X54741457Y-56326956D01*
X54720387Y-56336921D01*
X54698443Y-56344773D01*
X54675834Y-56350437D01*
X54652779Y-56353856D01*
X54629500Y-56355000D01*
X54054500Y-56355000D01*
X54031221Y-56353856D01*
X54008166Y-56350437D01*
X53985557Y-56344773D01*
X53963613Y-56336921D01*
X53942543Y-56326956D01*
X53922552Y-56314974D01*
X53903832Y-56301090D01*
X53886562Y-56285438D01*
X53870910Y-56268168D01*
X53857026Y-56249448D01*
X53845044Y-56229457D01*
X53835079Y-56208387D01*
X53827227Y-56186443D01*
X53821563Y-56163834D01*
X53818144Y-56140779D01*
X53817000Y-56117500D01*
X53817000Y-55642500D01*
X53818144Y-55619221D01*
X53821563Y-55596166D01*
X53827227Y-55573557D01*
X53835079Y-55551613D01*
X53845044Y-55530543D01*
X53857026Y-55510552D01*
X53870910Y-55491832D01*
X53886562Y-55474562D01*
X53903832Y-55458910D01*
X53922552Y-55445026D01*
X53942543Y-55433044D01*
X53963613Y-55423079D01*
X53985557Y-55415227D01*
X54008166Y-55409563D01*
X54031221Y-55406144D01*
X54054500Y-55405000D01*
X54629500Y-55405000D01*
X54652779Y-55406144D01*
X54652779Y-55406144D01*
G37*
D16*
G04 #@! TD*
G04 #@! TO.P,R3,1*
G04 #@! TO.N,/WRK_ELECT*
X54342000Y-55880000D03*
D15*
G04 #@! TO.N,/AIN_TIA*
G04 #@! TO.C,R3*
G36*
X52902779Y-55406144D02*
X52925834Y-55409563D01*
X52948443Y-55415227D01*
X52970387Y-55423079D01*
X52991457Y-55433044D01*
X53011448Y-55445026D01*
X53030168Y-55458910D01*
X53047438Y-55474562D01*
X53063090Y-55491832D01*
X53076974Y-55510552D01*
X53088956Y-55530543D01*
X53098921Y-55551613D01*
X53106773Y-55573557D01*
X53112437Y-55596166D01*
X53115856Y-55619221D01*
X53117000Y-55642500D01*
X53117000Y-56117500D01*
X53115856Y-56140779D01*
X53112437Y-56163834D01*
X53106773Y-56186443D01*
X53098921Y-56208387D01*
X53088956Y-56229457D01*
X53076974Y-56249448D01*
X53063090Y-56268168D01*
X53047438Y-56285438D01*
X53030168Y-56301090D01*
X53011448Y-56314974D01*
X52991457Y-56326956D01*
X52970387Y-56336921D01*
X52948443Y-56344773D01*
X52925834Y-56350437D01*
X52902779Y-56353856D01*
X52879500Y-56355000D01*
X52304500Y-56355000D01*
X52281221Y-56353856D01*
X52258166Y-56350437D01*
X52235557Y-56344773D01*
X52213613Y-56336921D01*
X52192543Y-56326956D01*
X52172552Y-56314974D01*
X52153832Y-56301090D01*
X52136562Y-56285438D01*
X52120910Y-56268168D01*
X52107026Y-56249448D01*
X52095044Y-56229457D01*
X52085079Y-56208387D01*
X52077227Y-56186443D01*
X52071563Y-56163834D01*
X52068144Y-56140779D01*
X52067000Y-56117500D01*
X52067000Y-55642500D01*
X52068144Y-55619221D01*
X52071563Y-55596166D01*
X52077227Y-55573557D01*
X52085079Y-55551613D01*
X52095044Y-55530543D01*
X52107026Y-55510552D01*
X52120910Y-55491832D01*
X52136562Y-55474562D01*
X52153832Y-55458910D01*
X52172552Y-55445026D01*
X52192543Y-55433044D01*
X52213613Y-55423079D01*
X52235557Y-55415227D01*
X52258166Y-55409563D01*
X52281221Y-55406144D01*
X52304500Y-55405000D01*
X52879500Y-55405000D01*
X52902779Y-55406144D01*
X52902779Y-55406144D01*
G37*
D16*
G04 #@! TD*
G04 #@! TO.P,R3,2*
G04 #@! TO.N,/AIN_TIA*
X52592000Y-55880000D03*
D15*
G04 #@! TO.N,/3V3*
G04 #@! TO.C,R4*
G36*
X55160779Y-35848144D02*
X55183834Y-35851563D01*
X55206443Y-35857227D01*
X55228387Y-35865079D01*
X55249457Y-35875044D01*
X55269448Y-35887026D01*
X55288168Y-35900910D01*
X55305438Y-35916562D01*
X55321090Y-35933832D01*
X55334974Y-35952552D01*
X55346956Y-35972543D01*
X55356921Y-35993613D01*
X55364773Y-36015557D01*
X55370437Y-36038166D01*
X55373856Y-36061221D01*
X55375000Y-36084500D01*
X55375000Y-36559500D01*
X55373856Y-36582779D01*
X55370437Y-36605834D01*
X55364773Y-36628443D01*
X55356921Y-36650387D01*
X55346956Y-36671457D01*
X55334974Y-36691448D01*
X55321090Y-36710168D01*
X55305438Y-36727438D01*
X55288168Y-36743090D01*
X55269448Y-36756974D01*
X55249457Y-36768956D01*
X55228387Y-36778921D01*
X55206443Y-36786773D01*
X55183834Y-36792437D01*
X55160779Y-36795856D01*
X55137500Y-36797000D01*
X54562500Y-36797000D01*
X54539221Y-36795856D01*
X54516166Y-36792437D01*
X54493557Y-36786773D01*
X54471613Y-36778921D01*
X54450543Y-36768956D01*
X54430552Y-36756974D01*
X54411832Y-36743090D01*
X54394562Y-36727438D01*
X54378910Y-36710168D01*
X54365026Y-36691448D01*
X54353044Y-36671457D01*
X54343079Y-36650387D01*
X54335227Y-36628443D01*
X54329563Y-36605834D01*
X54326144Y-36582779D01*
X54325000Y-36559500D01*
X54325000Y-36084500D01*
X54326144Y-36061221D01*
X54329563Y-36038166D01*
X54335227Y-36015557D01*
X54343079Y-35993613D01*
X54353044Y-35972543D01*
X54365026Y-35952552D01*
X54378910Y-35933832D01*
X54394562Y-35916562D01*
X54411832Y-35900910D01*
X54430552Y-35887026D01*
X54450543Y-35875044D01*
X54471613Y-35865079D01*
X54493557Y-35857227D01*
X54516166Y-35851563D01*
X54539221Y-35848144D01*
X54562500Y-35847000D01*
X55137500Y-35847000D01*
X55160779Y-35848144D01*
X55160779Y-35848144D01*
G37*
D16*
G04 #@! TD*
G04 #@! TO.P,R4,1*
G04 #@! TO.N,/3V3*
X54850000Y-36322000D03*
D15*
G04 #@! TO.N,Net-(R4-Pad2)*
G04 #@! TO.C,R4*
G36*
X53410779Y-35848144D02*
X53433834Y-35851563D01*
X53456443Y-35857227D01*
X53478387Y-35865079D01*
X53499457Y-35875044D01*
X53519448Y-35887026D01*
X53538168Y-35900910D01*
X53555438Y-35916562D01*
X53571090Y-35933832D01*
X53584974Y-35952552D01*
X53596956Y-35972543D01*
X53606921Y-35993613D01*
X53614773Y-36015557D01*
X53620437Y-36038166D01*
X53623856Y-36061221D01*
X53625000Y-36084500D01*
X53625000Y-36559500D01*
X53623856Y-36582779D01*
X53620437Y-36605834D01*
X53614773Y-36628443D01*
X53606921Y-36650387D01*
X53596956Y-36671457D01*
X53584974Y-36691448D01*
X53571090Y-36710168D01*
X53555438Y-36727438D01*
X53538168Y-36743090D01*
X53519448Y-36756974D01*
X53499457Y-36768956D01*
X53478387Y-36778921D01*
X53456443Y-36786773D01*
X53433834Y-36792437D01*
X53410779Y-36795856D01*
X53387500Y-36797000D01*
X52812500Y-36797000D01*
X52789221Y-36795856D01*
X52766166Y-36792437D01*
X52743557Y-36786773D01*
X52721613Y-36778921D01*
X52700543Y-36768956D01*
X52680552Y-36756974D01*
X52661832Y-36743090D01*
X52644562Y-36727438D01*
X52628910Y-36710168D01*
X52615026Y-36691448D01*
X52603044Y-36671457D01*
X52593079Y-36650387D01*
X52585227Y-36628443D01*
X52579563Y-36605834D01*
X52576144Y-36582779D01*
X52575000Y-36559500D01*
X52575000Y-36084500D01*
X52576144Y-36061221D01*
X52579563Y-36038166D01*
X52585227Y-36015557D01*
X52593079Y-35993613D01*
X52603044Y-35972543D01*
X52615026Y-35952552D01*
X52628910Y-35933832D01*
X52644562Y-35916562D01*
X52661832Y-35900910D01*
X52680552Y-35887026D01*
X52700543Y-35875044D01*
X52721613Y-35865079D01*
X52743557Y-35857227D01*
X52766166Y-35851563D01*
X52789221Y-35848144D01*
X52812500Y-35847000D01*
X53387500Y-35847000D01*
X53410779Y-35848144D01*
X53410779Y-35848144D01*
G37*
D16*
G04 #@! TD*
G04 #@! TO.P,R4,2*
G04 #@! TO.N,Net-(R4-Pad2)*
X53100000Y-36322000D03*
D15*
G04 #@! TO.N,GND*
G04 #@! TO.C,R5*
G36*
X55033779Y-38896144D02*
X55056834Y-38899563D01*
X55079443Y-38905227D01*
X55101387Y-38913079D01*
X55122457Y-38923044D01*
X55142448Y-38935026D01*
X55161168Y-38948910D01*
X55178438Y-38964562D01*
X55194090Y-38981832D01*
X55207974Y-39000552D01*
X55219956Y-39020543D01*
X55229921Y-39041613D01*
X55237773Y-39063557D01*
X55243437Y-39086166D01*
X55246856Y-39109221D01*
X55248000Y-39132500D01*
X55248000Y-39607500D01*
X55246856Y-39630779D01*
X55243437Y-39653834D01*
X55237773Y-39676443D01*
X55229921Y-39698387D01*
X55219956Y-39719457D01*
X55207974Y-39739448D01*
X55194090Y-39758168D01*
X55178438Y-39775438D01*
X55161168Y-39791090D01*
X55142448Y-39804974D01*
X55122457Y-39816956D01*
X55101387Y-39826921D01*
X55079443Y-39834773D01*
X55056834Y-39840437D01*
X55033779Y-39843856D01*
X55010500Y-39845000D01*
X54435500Y-39845000D01*
X54412221Y-39843856D01*
X54389166Y-39840437D01*
X54366557Y-39834773D01*
X54344613Y-39826921D01*
X54323543Y-39816956D01*
X54303552Y-39804974D01*
X54284832Y-39791090D01*
X54267562Y-39775438D01*
X54251910Y-39758168D01*
X54238026Y-39739448D01*
X54226044Y-39719457D01*
X54216079Y-39698387D01*
X54208227Y-39676443D01*
X54202563Y-39653834D01*
X54199144Y-39630779D01*
X54198000Y-39607500D01*
X54198000Y-39132500D01*
X54199144Y-39109221D01*
X54202563Y-39086166D01*
X54208227Y-39063557D01*
X54216079Y-39041613D01*
X54226044Y-39020543D01*
X54238026Y-39000552D01*
X54251910Y-38981832D01*
X54267562Y-38964562D01*
X54284832Y-38948910D01*
X54303552Y-38935026D01*
X54323543Y-38923044D01*
X54344613Y-38913079D01*
X54366557Y-38905227D01*
X54389166Y-38899563D01*
X54412221Y-38896144D01*
X54435500Y-38895000D01*
X55010500Y-38895000D01*
X55033779Y-38896144D01*
X55033779Y-38896144D01*
G37*
D16*
G04 #@! TD*
G04 #@! TO.P,R5,2*
G04 #@! TO.N,GND*
X54723000Y-39370000D03*
D15*
G04 #@! TO.N,Net-(R4-Pad2)*
G04 #@! TO.C,R5*
G36*
X53283779Y-38896144D02*
X53306834Y-38899563D01*
X53329443Y-38905227D01*
X53351387Y-38913079D01*
X53372457Y-38923044D01*
X53392448Y-38935026D01*
X53411168Y-38948910D01*
X53428438Y-38964562D01*
X53444090Y-38981832D01*
X53457974Y-39000552D01*
X53469956Y-39020543D01*
X53479921Y-39041613D01*
X53487773Y-39063557D01*
X53493437Y-39086166D01*
X53496856Y-39109221D01*
X53498000Y-39132500D01*
X53498000Y-39607500D01*
X53496856Y-39630779D01*
X53493437Y-39653834D01*
X53487773Y-39676443D01*
X53479921Y-39698387D01*
X53469956Y-39719457D01*
X53457974Y-39739448D01*
X53444090Y-39758168D01*
X53428438Y-39775438D01*
X53411168Y-39791090D01*
X53392448Y-39804974D01*
X53372457Y-39816956D01*
X53351387Y-39826921D01*
X53329443Y-39834773D01*
X53306834Y-39840437D01*
X53283779Y-39843856D01*
X53260500Y-39845000D01*
X52685500Y-39845000D01*
X52662221Y-39843856D01*
X52639166Y-39840437D01*
X52616557Y-39834773D01*
X52594613Y-39826921D01*
X52573543Y-39816956D01*
X52553552Y-39804974D01*
X52534832Y-39791090D01*
X52517562Y-39775438D01*
X52501910Y-39758168D01*
X52488026Y-39739448D01*
X52476044Y-39719457D01*
X52466079Y-39698387D01*
X52458227Y-39676443D01*
X52452563Y-39653834D01*
X52449144Y-39630779D01*
X52448000Y-39607500D01*
X52448000Y-39132500D01*
X52449144Y-39109221D01*
X52452563Y-39086166D01*
X52458227Y-39063557D01*
X52466079Y-39041613D01*
X52476044Y-39020543D01*
X52488026Y-39000552D01*
X52501910Y-38981832D01*
X52517562Y-38964562D01*
X52534832Y-38948910D01*
X52553552Y-38935026D01*
X52573543Y-38923044D01*
X52594613Y-38913079D01*
X52616557Y-38905227D01*
X52639166Y-38899563D01*
X52662221Y-38896144D01*
X52685500Y-38895000D01*
X53260500Y-38895000D01*
X53283779Y-38896144D01*
X53283779Y-38896144D01*
G37*
D16*
G04 #@! TD*
G04 #@! TO.P,R5,1*
G04 #@! TO.N,Net-(R4-Pad2)*
X52973000Y-39370000D03*
D19*
G04 #@! TO.P,U2,1*
G04 #@! TO.N,/CTR_ELECT*
X48594000Y-37780000D03*
G04 #@! TO.P,U2,2*
G04 #@! TO.N,Net-(C5-Pad1)*
X48594000Y-36830000D03*
G04 #@! TO.P,U2,3*
G04 #@! TO.N,GND*
X48594000Y-35880000D03*
G04 #@! TO.P,U2,4*
G04 #@! TO.N,/SWITCH*
X45894000Y-35880000D03*
G04 #@! TO.P,U2,6*
G04 #@! TO.N,/3V3*
X45894000Y-37780000D03*
G04 #@! TO.P,U2,5*
G04 #@! TO.N,Net-(U2-Pad5)*
X45894000Y-36830000D03*
G04 #@! TD*
D20*
G04 #@! TO.P,U3,14*
G04 #@! TO.N,/REF_ELECT_BUF*
X46830000Y-51816000D03*
G04 #@! TO.P,U3,13*
X46830000Y-50546000D03*
G04 #@! TO.P,U3,12*
G04 #@! TO.N,/REF_ELECT*
X46830000Y-49276000D03*
G04 #@! TO.P,U3,11*
G04 #@! TO.N,GND*
X46830000Y-48006000D03*
G04 #@! TO.P,U3,10*
G04 #@! TO.N,/VGND*
X46830000Y-46736000D03*
G04 #@! TO.P,U3,9*
G04 #@! TO.N,Net-(C5-Pad2)*
X46830000Y-45466000D03*
G04 #@! TO.P,U3,8*
G04 #@! TO.N,Net-(C5-Pad1)*
X46830000Y-44196000D03*
G04 #@! TO.P,U3,7*
G04 #@! TO.N,/VGND*
X52230000Y-44196000D03*
G04 #@! TO.P,U3,6*
X52230000Y-45466000D03*
G04 #@! TO.P,U3,5*
G04 #@! TO.N,Net-(R4-Pad2)*
X52230000Y-46736000D03*
G04 #@! TO.P,U3,4*
G04 #@! TO.N,/3V3*
X52230000Y-48006000D03*
G04 #@! TO.P,U3,3*
G04 #@! TO.N,/VGND*
X52230000Y-49276000D03*
G04 #@! TO.P,U3,2*
G04 #@! TO.N,/WRK_ELECT*
X52230000Y-50546000D03*
G04 #@! TO.P,U3,1*
G04 #@! TO.N,/AIN_TIA*
X52230000Y-51816000D03*
G04 #@! TD*
D15*
G04 #@! TO.N,/3V3*
G04 #@! TO.C,C4*
G36*
X46552779Y-31911144D02*
X46575834Y-31914563D01*
X46598443Y-31920227D01*
X46620387Y-31928079D01*
X46641457Y-31938044D01*
X46661448Y-31950026D01*
X46680168Y-31963910D01*
X46697438Y-31979562D01*
X46713090Y-31996832D01*
X46726974Y-32015552D01*
X46738956Y-32035543D01*
X46748921Y-32056613D01*
X46756773Y-32078557D01*
X46762437Y-32101166D01*
X46765856Y-32124221D01*
X46767000Y-32147500D01*
X46767000Y-32622500D01*
X46765856Y-32645779D01*
X46762437Y-32668834D01*
X46756773Y-32691443D01*
X46748921Y-32713387D01*
X46738956Y-32734457D01*
X46726974Y-32754448D01*
X46713090Y-32773168D01*
X46697438Y-32790438D01*
X46680168Y-32806090D01*
X46661448Y-32819974D01*
X46641457Y-32831956D01*
X46620387Y-32841921D01*
X46598443Y-32849773D01*
X46575834Y-32855437D01*
X46552779Y-32858856D01*
X46529500Y-32860000D01*
X45954500Y-32860000D01*
X45931221Y-32858856D01*
X45908166Y-32855437D01*
X45885557Y-32849773D01*
X45863613Y-32841921D01*
X45842543Y-32831956D01*
X45822552Y-32819974D01*
X45803832Y-32806090D01*
X45786562Y-32790438D01*
X45770910Y-32773168D01*
X45757026Y-32754448D01*
X45745044Y-32734457D01*
X45735079Y-32713387D01*
X45727227Y-32691443D01*
X45721563Y-32668834D01*
X45718144Y-32645779D01*
X45717000Y-32622500D01*
X45717000Y-32147500D01*
X45718144Y-32124221D01*
X45721563Y-32101166D01*
X45727227Y-32078557D01*
X45735079Y-32056613D01*
X45745044Y-32035543D01*
X45757026Y-32015552D01*
X45770910Y-31996832D01*
X45786562Y-31979562D01*
X45803832Y-31963910D01*
X45822552Y-31950026D01*
X45842543Y-31938044D01*
X45863613Y-31928079D01*
X45885557Y-31920227D01*
X45908166Y-31914563D01*
X45931221Y-31911144D01*
X45954500Y-31910000D01*
X46529500Y-31910000D01*
X46552779Y-31911144D01*
X46552779Y-31911144D01*
G37*
D16*
G04 #@! TD*
G04 #@! TO.P,C4,1*
G04 #@! TO.N,/3V3*
X46242000Y-32385000D03*
D15*
G04 #@! TO.N,GND*
G04 #@! TO.C,C4*
G36*
X48302779Y-31911144D02*
X48325834Y-31914563D01*
X48348443Y-31920227D01*
X48370387Y-31928079D01*
X48391457Y-31938044D01*
X48411448Y-31950026D01*
X48430168Y-31963910D01*
X48447438Y-31979562D01*
X48463090Y-31996832D01*
X48476974Y-32015552D01*
X48488956Y-32035543D01*
X48498921Y-32056613D01*
X48506773Y-32078557D01*
X48512437Y-32101166D01*
X48515856Y-32124221D01*
X48517000Y-32147500D01*
X48517000Y-32622500D01*
X48515856Y-32645779D01*
X48512437Y-32668834D01*
X48506773Y-32691443D01*
X48498921Y-32713387D01*
X48488956Y-32734457D01*
X48476974Y-32754448D01*
X48463090Y-32773168D01*
X48447438Y-32790438D01*
X48430168Y-32806090D01*
X48411448Y-32819974D01*
X48391457Y-32831956D01*
X48370387Y-32841921D01*
X48348443Y-32849773D01*
X48325834Y-32855437D01*
X48302779Y-32858856D01*
X48279500Y-32860000D01*
X47704500Y-32860000D01*
X47681221Y-32858856D01*
X47658166Y-32855437D01*
X47635557Y-32849773D01*
X47613613Y-32841921D01*
X47592543Y-32831956D01*
X47572552Y-32819974D01*
X47553832Y-32806090D01*
X47536562Y-32790438D01*
X47520910Y-32773168D01*
X47507026Y-32754448D01*
X47495044Y-32734457D01*
X47485079Y-32713387D01*
X47477227Y-32691443D01*
X47471563Y-32668834D01*
X47468144Y-32645779D01*
X47467000Y-32622500D01*
X47467000Y-32147500D01*
X47468144Y-32124221D01*
X47471563Y-32101166D01*
X47477227Y-32078557D01*
X47485079Y-32056613D01*
X47495044Y-32035543D01*
X47507026Y-32015552D01*
X47520910Y-31996832D01*
X47536562Y-31979562D01*
X47553832Y-31963910D01*
X47572552Y-31950026D01*
X47592543Y-31938044D01*
X47613613Y-31928079D01*
X47635557Y-31920227D01*
X47658166Y-31914563D01*
X47681221Y-31911144D01*
X47704500Y-31910000D01*
X48279500Y-31910000D01*
X48302779Y-31911144D01*
X48302779Y-31911144D01*
G37*
D16*
G04 #@! TD*
G04 #@! TO.P,C4,2*
G04 #@! TO.N,GND*
X47992000Y-32385000D03*
D21*
G04 #@! TO.N,GND*
X48308900Y-47493700D03*
G04 #@! TO.N,/AIN_TIA*
X53305300Y-53491300D03*
G04 #@! TO.N,/DAC_SETPT*
X48992800Y-55880000D03*
G04 #@! TO.N,/REF_ELECT_BUF*
X48249900Y-51816000D03*
G04 #@! TO.N,/SWITCH*
X46378700Y-42622300D03*
G04 #@! TD*
D22*
G04 #@! TO.N,GND*
X56174300Y-50151000D02*
X56174300Y-57444300D01*
X56174300Y-57444300D02*
X60960000Y-62230000D01*
X55753000Y-44083000D02*
X56595500Y-44925500D01*
X56595500Y-44925500D02*
X56595500Y-49729800D01*
X56595500Y-49729800D02*
X56174300Y-50151000D01*
X56174300Y-50151000D02*
X55753000Y-50151000D01*
X54723000Y-39370000D02*
X55753000Y-40400000D01*
X55753000Y-40400000D02*
X55753000Y-44083000D01*
X52070000Y-28861300D02*
X55751100Y-32542400D01*
X55751100Y-32542400D02*
X55751100Y-38341900D01*
X55751100Y-38341900D02*
X54723000Y-39370000D01*
X52070000Y-27686000D02*
X52070000Y-28861300D01*
X46830000Y-48006000D02*
X47905300Y-48006000D01*
X47905300Y-48006000D02*
X47905300Y-47897300D01*
X47905300Y-47897300D02*
X48308900Y-47493700D01*
X49530000Y-27686000D02*
X49530000Y-28861300D01*
X49530000Y-28861300D02*
X47992000Y-30399300D01*
X47992000Y-30399300D02*
X47992000Y-32385000D01*
X48594000Y-35880000D02*
X47488700Y-35880000D01*
X47488700Y-35880000D02*
X47488700Y-32888300D01*
X47488700Y-32888300D02*
X47992000Y-32385000D01*
G04 #@! TO.N,/3V3*
X46242000Y-32385000D02*
X44788700Y-33838300D01*
X44788700Y-33838300D02*
X44788700Y-37780000D01*
X54850000Y-36322000D02*
X50705400Y-32177400D01*
X50705400Y-32177400D02*
X50705400Y-26643400D01*
X50705400Y-26643400D02*
X50572600Y-26510600D01*
X50572600Y-26510600D02*
X48540400Y-26510600D01*
X48540400Y-26510600D02*
X46242000Y-28809000D01*
X46242000Y-28809000D02*
X46242000Y-32385000D01*
X45894000Y-37780000D02*
X44788700Y-37780000D01*
X55753000Y-45833000D02*
X55753000Y-48401000D01*
X54850000Y-36322000D02*
X53862400Y-37309600D01*
X53862400Y-37309600D02*
X53862400Y-43942400D01*
X53862400Y-43942400D02*
X55753000Y-45833000D01*
X54933800Y-48401000D02*
X54933800Y-52829700D01*
X54933800Y-52829700D02*
X55509900Y-53405800D01*
X55509900Y-53405800D02*
X55509900Y-61859900D01*
X55509900Y-61859900D02*
X60960000Y-67310000D01*
X52230000Y-48006000D02*
X54538800Y-48006000D01*
X54538800Y-48006000D02*
X54933800Y-48401000D01*
X54933800Y-48401000D02*
X55753000Y-48401000D01*
G04 #@! TO.N,Net-(C5-Pad2)*
X46115000Y-55880000D02*
X46129000Y-55894000D01*
X46129000Y-55894000D02*
X46129000Y-59436000D01*
X45754700Y-45466000D02*
X45249300Y-45971400D01*
X45249300Y-45971400D02*
X45249300Y-55014300D01*
X45249300Y-55014300D02*
X46115000Y-55880000D01*
X45754700Y-45466000D02*
X45480000Y-45191300D01*
X45480000Y-45191300D02*
X45480000Y-41148000D01*
X46830000Y-45466000D02*
X45754700Y-45466000D01*
G04 #@! TO.N,/CTR_ELECT*
X48260000Y-63674300D02*
X47299900Y-64634400D01*
X47299900Y-64634400D02*
X47299900Y-72644000D01*
X48260000Y-63674300D02*
X48260000Y-63086700D01*
X48260000Y-64262000D02*
X48260000Y-63674300D01*
X48594000Y-37780000D02*
X48594000Y-45243800D01*
X48594000Y-45243800D02*
X47734800Y-46103000D01*
X47734800Y-46103000D02*
X45878400Y-46103000D01*
X45878400Y-46103000D02*
X45754600Y-46226800D01*
X45754600Y-46226800D02*
X45754600Y-49781100D01*
X45754600Y-49781100D02*
X45886500Y-49913000D01*
X45886500Y-49913000D02*
X47707900Y-49913000D01*
X47707900Y-49913000D02*
X49723700Y-51928800D01*
X49723700Y-51928800D02*
X49723700Y-61623000D01*
X49723700Y-61623000D02*
X48260000Y-63086700D01*
G04 #@! TO.N,/WRK_ELECT*
X53340000Y-64262000D02*
X53340000Y-63086700D01*
X54342000Y-59563000D02*
X54342000Y-62084700D01*
X54342000Y-62084700D02*
X53340000Y-63086700D01*
X54342000Y-55880000D02*
X54342000Y-59563000D01*
X53340000Y-64262000D02*
X53340000Y-65437300D01*
X53340000Y-65437300D02*
X54300100Y-66397400D01*
X54300100Y-66397400D02*
X54300100Y-72644000D01*
X52230000Y-50546000D02*
X53305300Y-50546000D01*
X53305300Y-50546000D02*
X54342000Y-51582700D01*
X54342000Y-51582700D02*
X54342000Y-55880000D01*
G04 #@! TO.N,/AIN_TIA*
X53305300Y-53491300D02*
X53305300Y-55166700D01*
X53305300Y-55166700D02*
X52592000Y-55880000D01*
X53305300Y-51816000D02*
X53305300Y-53491300D01*
X52230000Y-51816000D02*
X53305300Y-51816000D01*
X52592000Y-59563000D02*
X52592000Y-55880000D01*
G04 #@! TO.N,/DAC_SETPT*
X47865000Y-55880000D02*
X48992800Y-55880000D01*
G04 #@! TO.N,/REF_ELECT_BUF*
X47013700Y-51816000D02*
X47013700Y-58570700D01*
X47013700Y-58570700D02*
X47879000Y-59436000D01*
X46830000Y-51816000D02*
X47013700Y-51816000D01*
X47034500Y-51816000D02*
X47013700Y-51816000D01*
X47034500Y-51816000D02*
X47367700Y-51816000D01*
X46830000Y-51816000D02*
X45754700Y-51816000D01*
X46830000Y-50546000D02*
X45754700Y-50546000D01*
X45754700Y-50546000D02*
X45754700Y-51816000D01*
X47367700Y-51816000D02*
X48249900Y-51816000D01*
G04 #@! TO.N,/VGND*
X51154700Y-46736000D02*
X51154700Y-46003700D01*
X51154700Y-46003700D02*
X51692400Y-45466000D01*
X51154700Y-49276000D02*
X51154700Y-46736000D01*
X51154700Y-46736000D02*
X46830000Y-46736000D01*
X52230000Y-49276000D02*
X51154700Y-49276000D01*
X51692400Y-45466000D02*
X51154700Y-44928300D01*
X51154700Y-44928300D02*
X51154700Y-44196000D01*
X52230000Y-44196000D02*
X51154700Y-44196000D01*
X52230000Y-45466000D02*
X51692400Y-45466000D01*
G04 #@! TO.N,/REF_ELECT*
X50800000Y-64262000D02*
X50800000Y-72644000D01*
X47905300Y-49276000D02*
X50800000Y-52170700D01*
X50800000Y-52170700D02*
X50800000Y-64262000D01*
X46830000Y-49276000D02*
X47905300Y-49276000D01*
G04 #@! TO.N,Net-(C5-Pad1)*
X48594000Y-36830000D02*
X47488700Y-36830000D01*
X47488700Y-36830000D02*
X47488700Y-40889300D01*
X47488700Y-40889300D02*
X47230000Y-41148000D01*
X47905300Y-44196000D02*
X47905300Y-41823300D01*
X47905300Y-41823300D02*
X47230000Y-41148000D01*
X46830000Y-44196000D02*
X47905300Y-44196000D01*
G04 #@! TO.N,/SWITCH*
X46999300Y-35880000D02*
X46999300Y-38867700D01*
X46999300Y-38867700D02*
X46378700Y-39488300D01*
X46378700Y-39488300D02*
X46378700Y-42622300D01*
X45894000Y-35880000D02*
X46999300Y-35880000D01*
G04 #@! TO.N,Net-(R4-Pad2)*
X53100000Y-36322000D02*
X52973000Y-36449000D01*
X52973000Y-36449000D02*
X52973000Y-39370000D01*
X52973000Y-39370000D02*
X53305300Y-39702300D01*
X53305300Y-39702300D02*
X53305300Y-46736000D01*
X52230000Y-46736000D02*
X53305300Y-46736000D01*
G04 #@! TD*
M02*
