G04 #@! TF.GenerationSoftware,KiCad,Pcbnew,5.0.2-bee76a0~70~ubuntu18.04.1*
G04 #@! TF.CreationDate,2020-04-01T17:28:38-07:00*
G04 #@! TF.ProjectId,potentiostat_featherwing,706f7465-6e74-4696-9f73-7461745f6665,rev?*
G04 #@! TF.SameCoordinates,Original*
G04 #@! TF.FileFunction,Soldermask,Bot*
G04 #@! TF.FilePolarity,Negative*
%FSLAX46Y46*%
G04 Gerber Fmt 4.6, Leading zero omitted, Abs format (unit mm)*
G04 Created by KiCad (PCBNEW 5.0.2-bee76a0~70~ubuntu18.04.1) date Wed 01 Apr 2020 05:28:38 PM PDT*
%MOMM*%
%LPD*%
G01*
G04 APERTURE LIST*
%ADD10C,0.100000*%
G04 APERTURE END LIST*
D10*
G36*
X60149411Y-72145526D02*
X60268137Y-72194704D01*
X60436041Y-72264252D01*
X60694007Y-72436619D01*
X60913381Y-72655993D01*
X61085748Y-72913959D01*
X61204474Y-73200590D01*
X61265000Y-73504875D01*
X61265000Y-73815125D01*
X61204474Y-74119410D01*
X61085748Y-74406041D01*
X60913381Y-74664007D01*
X60694007Y-74883381D01*
X60436041Y-75055748D01*
X60268137Y-75125296D01*
X60149411Y-75174474D01*
X59845125Y-75235000D01*
X59534875Y-75235000D01*
X59230589Y-75174474D01*
X59111863Y-75125296D01*
X58943959Y-75055748D01*
X58685993Y-74883381D01*
X58466619Y-74664007D01*
X58294252Y-74406041D01*
X58175526Y-74119410D01*
X58115000Y-73815125D01*
X58115000Y-73504875D01*
X58175526Y-73200590D01*
X58294252Y-72913959D01*
X58466619Y-72655993D01*
X58685993Y-72436619D01*
X58943959Y-72264252D01*
X59111863Y-72194704D01*
X59230589Y-72145526D01*
X59534875Y-72085000D01*
X59845125Y-72085000D01*
X60149411Y-72145526D01*
X60149411Y-72145526D01*
G37*
G36*
X42369411Y-72145526D02*
X42488137Y-72194704D01*
X42656041Y-72264252D01*
X42914007Y-72436619D01*
X43133381Y-72655993D01*
X43305748Y-72913959D01*
X43424474Y-73200590D01*
X43485000Y-73504875D01*
X43485000Y-73815125D01*
X43424474Y-74119410D01*
X43305748Y-74406041D01*
X43133381Y-74664007D01*
X42914007Y-74883381D01*
X42656041Y-75055748D01*
X42488137Y-75125296D01*
X42369411Y-75174474D01*
X42065125Y-75235000D01*
X41754875Y-75235000D01*
X41450589Y-75174474D01*
X41331863Y-75125296D01*
X41163959Y-75055748D01*
X40905993Y-74883381D01*
X40686619Y-74664007D01*
X40514252Y-74406041D01*
X40395526Y-74119410D01*
X40335000Y-73815125D01*
X40335000Y-73504875D01*
X40395526Y-73200590D01*
X40514252Y-72913959D01*
X40686619Y-72655993D01*
X40905993Y-72436619D01*
X41163959Y-72264252D01*
X41331863Y-72194704D01*
X41450589Y-72145526D01*
X41754875Y-72085000D01*
X42065125Y-72085000D01*
X42369411Y-72145526D01*
X42369411Y-72145526D01*
G37*
G36*
X48350880Y-73695000D02*
X46248880Y-73695000D01*
X46248880Y-71593000D01*
X48350880Y-71593000D01*
X48350880Y-73695000D01*
X48350880Y-73695000D01*
G37*
G36*
X51106565Y-71633389D02*
X51297834Y-71712615D01*
X51469976Y-71827637D01*
X51616363Y-71974024D01*
X51731385Y-72146166D01*
X51810611Y-72337435D01*
X51851000Y-72540484D01*
X51851000Y-72747516D01*
X51810611Y-72950565D01*
X51731385Y-73141834D01*
X51616363Y-73313976D01*
X51469976Y-73460363D01*
X51297834Y-73575385D01*
X51106565Y-73654611D01*
X50903516Y-73695000D01*
X50696484Y-73695000D01*
X50493435Y-73654611D01*
X50302166Y-73575385D01*
X50130024Y-73460363D01*
X49983637Y-73313976D01*
X49868615Y-73141834D01*
X49789389Y-72950565D01*
X49749000Y-72747516D01*
X49749000Y-72540484D01*
X49789389Y-72337435D01*
X49868615Y-72146166D01*
X49983637Y-71974024D01*
X50130024Y-71827637D01*
X50302166Y-71712615D01*
X50493435Y-71633389D01*
X50696484Y-71593000D01*
X50903516Y-71593000D01*
X51106565Y-71633389D01*
X51106565Y-71633389D01*
G37*
G36*
X54606685Y-71633389D02*
X54797954Y-71712615D01*
X54970096Y-71827637D01*
X55116483Y-71974024D01*
X55231505Y-72146166D01*
X55310731Y-72337435D01*
X55351120Y-72540484D01*
X55351120Y-72747516D01*
X55310731Y-72950565D01*
X55231505Y-73141834D01*
X55116483Y-73313976D01*
X54970096Y-73460363D01*
X54797954Y-73575385D01*
X54606685Y-73654611D01*
X54403636Y-73695000D01*
X54196604Y-73695000D01*
X53993555Y-73654611D01*
X53802286Y-73575385D01*
X53630144Y-73460363D01*
X53483757Y-73313976D01*
X53368735Y-73141834D01*
X53289509Y-72950565D01*
X53249120Y-72747516D01*
X53249120Y-72540484D01*
X53289509Y-72337435D01*
X53368735Y-72146166D01*
X53483757Y-71974024D01*
X53630144Y-71827637D01*
X53802286Y-71712615D01*
X53993555Y-71633389D01*
X54196604Y-71593000D01*
X54403636Y-71593000D01*
X54606685Y-71633389D01*
X54606685Y-71633389D01*
G37*
G36*
X61234188Y-68946123D02*
X61405257Y-69016983D01*
X61559216Y-69119855D01*
X61690145Y-69250784D01*
X61793017Y-69404743D01*
X61863877Y-69575812D01*
X61900000Y-69757417D01*
X61900000Y-69942583D01*
X61863877Y-70124188D01*
X61793017Y-70295257D01*
X61690145Y-70449216D01*
X61559216Y-70580145D01*
X61405257Y-70683017D01*
X61234188Y-70753877D01*
X61052583Y-70790000D01*
X60867417Y-70790000D01*
X60685812Y-70753877D01*
X60514743Y-70683017D01*
X60360784Y-70580145D01*
X60229855Y-70449216D01*
X60126983Y-70295257D01*
X60056123Y-70124188D01*
X60020000Y-69942583D01*
X60020000Y-69757417D01*
X60056123Y-69575812D01*
X60126983Y-69404743D01*
X60229855Y-69250784D01*
X60360784Y-69119855D01*
X60514743Y-69016983D01*
X60685812Y-68946123D01*
X60867417Y-68910000D01*
X61052583Y-68910000D01*
X61234188Y-68946123D01*
X61234188Y-68946123D01*
G37*
G36*
X61234188Y-66406123D02*
X61405257Y-66476983D01*
X61559216Y-66579855D01*
X61690145Y-66710784D01*
X61793017Y-66864743D01*
X61863877Y-67035812D01*
X61900000Y-67217417D01*
X61900000Y-67402583D01*
X61863877Y-67584188D01*
X61793017Y-67755257D01*
X61690145Y-67909216D01*
X61559216Y-68040145D01*
X61405257Y-68143017D01*
X61234188Y-68213877D01*
X61052583Y-68250000D01*
X60867417Y-68250000D01*
X60685812Y-68213877D01*
X60514743Y-68143017D01*
X60360784Y-68040145D01*
X60229855Y-67909216D01*
X60126983Y-67755257D01*
X60056123Y-67584188D01*
X60020000Y-67402583D01*
X60020000Y-67217417D01*
X60056123Y-67035812D01*
X60126983Y-66864743D01*
X60229855Y-66710784D01*
X60360784Y-66579855D01*
X60514743Y-66476983D01*
X60685812Y-66406123D01*
X60867417Y-66370000D01*
X61052583Y-66370000D01*
X61234188Y-66406123D01*
X61234188Y-66406123D01*
G37*
G36*
X61234188Y-63866123D02*
X61405257Y-63936983D01*
X61559216Y-64039855D01*
X61690145Y-64170784D01*
X61793017Y-64324743D01*
X61863877Y-64495812D01*
X61900000Y-64677417D01*
X61900000Y-64862583D01*
X61863877Y-65044188D01*
X61793017Y-65215257D01*
X61690145Y-65369216D01*
X61559216Y-65500145D01*
X61405257Y-65603017D01*
X61234188Y-65673877D01*
X61052583Y-65710000D01*
X60867417Y-65710000D01*
X60685812Y-65673877D01*
X60514743Y-65603017D01*
X60360784Y-65500145D01*
X60229855Y-65369216D01*
X60126983Y-65215257D01*
X60056123Y-65044188D01*
X60020000Y-64862583D01*
X60020000Y-64677417D01*
X60056123Y-64495812D01*
X60126983Y-64324743D01*
X60229855Y-64170784D01*
X60360784Y-64039855D01*
X60514743Y-63936983D01*
X60685812Y-63866123D01*
X60867417Y-63830000D01*
X61052583Y-63830000D01*
X61234188Y-63866123D01*
X61234188Y-63866123D01*
G37*
G36*
X53450442Y-63367518D02*
X53516627Y-63374037D01*
X53629853Y-63408384D01*
X53686467Y-63425557D01*
X53825087Y-63499652D01*
X53842991Y-63509222D01*
X53878729Y-63538552D01*
X53980186Y-63621814D01*
X54063448Y-63723271D01*
X54092778Y-63759009D01*
X54092779Y-63759011D01*
X54176443Y-63915533D01*
X54193616Y-63972147D01*
X54227963Y-64085373D01*
X54245359Y-64262000D01*
X54227963Y-64438627D01*
X54210616Y-64495812D01*
X54176443Y-64608467D01*
X54139588Y-64677417D01*
X54092778Y-64764991D01*
X54063448Y-64800729D01*
X53980186Y-64902186D01*
X53878729Y-64985448D01*
X53842991Y-65014778D01*
X53842989Y-65014779D01*
X53686467Y-65098443D01*
X53629853Y-65115616D01*
X53516627Y-65149963D01*
X53450443Y-65156481D01*
X53384260Y-65163000D01*
X53295740Y-65163000D01*
X53229557Y-65156481D01*
X53163373Y-65149963D01*
X53050147Y-65115616D01*
X52993533Y-65098443D01*
X52837011Y-65014779D01*
X52837009Y-65014778D01*
X52801271Y-64985448D01*
X52699814Y-64902186D01*
X52616552Y-64800729D01*
X52587222Y-64764991D01*
X52540412Y-64677417D01*
X52503557Y-64608467D01*
X52469384Y-64495812D01*
X52452037Y-64438627D01*
X52434641Y-64262000D01*
X52452037Y-64085373D01*
X52486384Y-63972147D01*
X52503557Y-63915533D01*
X52587221Y-63759011D01*
X52587222Y-63759009D01*
X52616552Y-63723271D01*
X52699814Y-63621814D01*
X52801271Y-63538552D01*
X52837009Y-63509222D01*
X52854913Y-63499652D01*
X52993533Y-63425557D01*
X53050147Y-63408384D01*
X53163373Y-63374037D01*
X53229558Y-63367518D01*
X53295740Y-63361000D01*
X53384260Y-63361000D01*
X53450442Y-63367518D01*
X53450442Y-63367518D01*
G37*
G36*
X50910442Y-63367518D02*
X50976627Y-63374037D01*
X51089853Y-63408384D01*
X51146467Y-63425557D01*
X51285087Y-63499652D01*
X51302991Y-63509222D01*
X51338729Y-63538552D01*
X51440186Y-63621814D01*
X51523448Y-63723271D01*
X51552778Y-63759009D01*
X51552779Y-63759011D01*
X51636443Y-63915533D01*
X51653616Y-63972147D01*
X51687963Y-64085373D01*
X51705359Y-64262000D01*
X51687963Y-64438627D01*
X51670616Y-64495812D01*
X51636443Y-64608467D01*
X51599588Y-64677417D01*
X51552778Y-64764991D01*
X51523448Y-64800729D01*
X51440186Y-64902186D01*
X51338729Y-64985448D01*
X51302991Y-65014778D01*
X51302989Y-65014779D01*
X51146467Y-65098443D01*
X51089853Y-65115616D01*
X50976627Y-65149963D01*
X50910443Y-65156481D01*
X50844260Y-65163000D01*
X50755740Y-65163000D01*
X50689557Y-65156481D01*
X50623373Y-65149963D01*
X50510147Y-65115616D01*
X50453533Y-65098443D01*
X50297011Y-65014779D01*
X50297009Y-65014778D01*
X50261271Y-64985448D01*
X50159814Y-64902186D01*
X50076552Y-64800729D01*
X50047222Y-64764991D01*
X50000412Y-64677417D01*
X49963557Y-64608467D01*
X49929384Y-64495812D01*
X49912037Y-64438627D01*
X49894641Y-64262000D01*
X49912037Y-64085373D01*
X49946384Y-63972147D01*
X49963557Y-63915533D01*
X50047221Y-63759011D01*
X50047222Y-63759009D01*
X50076552Y-63723271D01*
X50159814Y-63621814D01*
X50261271Y-63538552D01*
X50297009Y-63509222D01*
X50314913Y-63499652D01*
X50453533Y-63425557D01*
X50510147Y-63408384D01*
X50623373Y-63374037D01*
X50689558Y-63367518D01*
X50755740Y-63361000D01*
X50844260Y-63361000D01*
X50910442Y-63367518D01*
X50910442Y-63367518D01*
G37*
G36*
X49161000Y-65163000D02*
X47359000Y-65163000D01*
X47359000Y-63361000D01*
X49161000Y-63361000D01*
X49161000Y-65163000D01*
X49161000Y-65163000D01*
G37*
G36*
X61234188Y-61326123D02*
X61405257Y-61396983D01*
X61559216Y-61499855D01*
X61690145Y-61630784D01*
X61793017Y-61784743D01*
X61863877Y-61955812D01*
X61900000Y-62137417D01*
X61900000Y-62322583D01*
X61863877Y-62504188D01*
X61793017Y-62675257D01*
X61690145Y-62829216D01*
X61559216Y-62960145D01*
X61405257Y-63063017D01*
X61234188Y-63133877D01*
X61052583Y-63170000D01*
X60867417Y-63170000D01*
X60685812Y-63133877D01*
X60514743Y-63063017D01*
X60360784Y-62960145D01*
X60229855Y-62829216D01*
X60126983Y-62675257D01*
X60056123Y-62504188D01*
X60020000Y-62322583D01*
X60020000Y-62137417D01*
X60056123Y-61955812D01*
X60126983Y-61784743D01*
X60229855Y-61630784D01*
X60360784Y-61499855D01*
X60514743Y-61396983D01*
X60685812Y-61326123D01*
X60867417Y-61290000D01*
X61052583Y-61290000D01*
X61234188Y-61326123D01*
X61234188Y-61326123D01*
G37*
G36*
X61234188Y-58786123D02*
X61405257Y-58856983D01*
X61559216Y-58959855D01*
X61690145Y-59090784D01*
X61793017Y-59244743D01*
X61863877Y-59415812D01*
X61900000Y-59597417D01*
X61900000Y-59782583D01*
X61863877Y-59964188D01*
X61793017Y-60135257D01*
X61690145Y-60289216D01*
X61559216Y-60420145D01*
X61405257Y-60523017D01*
X61234188Y-60593877D01*
X61052583Y-60630000D01*
X60867417Y-60630000D01*
X60685812Y-60593877D01*
X60514743Y-60523017D01*
X60360784Y-60420145D01*
X60229855Y-60289216D01*
X60126983Y-60135257D01*
X60056123Y-59964188D01*
X60020000Y-59782583D01*
X60020000Y-59597417D01*
X60056123Y-59415812D01*
X60126983Y-59244743D01*
X60229855Y-59090784D01*
X60360784Y-58959855D01*
X60514743Y-58856983D01*
X60685812Y-58786123D01*
X60867417Y-58750000D01*
X61052583Y-58750000D01*
X61234188Y-58786123D01*
X61234188Y-58786123D01*
G37*
G36*
X40914188Y-58786123D02*
X41085257Y-58856983D01*
X41239216Y-58959855D01*
X41370145Y-59090784D01*
X41473017Y-59244743D01*
X41543877Y-59415812D01*
X41580000Y-59597417D01*
X41580000Y-59782583D01*
X41543877Y-59964188D01*
X41473017Y-60135257D01*
X41370145Y-60289216D01*
X41239216Y-60420145D01*
X41085257Y-60523017D01*
X40914188Y-60593877D01*
X40732583Y-60630000D01*
X40547417Y-60630000D01*
X40365812Y-60593877D01*
X40194743Y-60523017D01*
X40040784Y-60420145D01*
X39909855Y-60289216D01*
X39806983Y-60135257D01*
X39736123Y-59964188D01*
X39700000Y-59782583D01*
X39700000Y-59597417D01*
X39736123Y-59415812D01*
X39806983Y-59244743D01*
X39909855Y-59090784D01*
X40040784Y-58959855D01*
X40194743Y-58856983D01*
X40365812Y-58786123D01*
X40547417Y-58750000D01*
X40732583Y-58750000D01*
X40914188Y-58786123D01*
X40914188Y-58786123D01*
G37*
G36*
X61234188Y-56246123D02*
X61405257Y-56316983D01*
X61559216Y-56419855D01*
X61690145Y-56550784D01*
X61793017Y-56704743D01*
X61863877Y-56875812D01*
X61900000Y-57057417D01*
X61900000Y-57242583D01*
X61863877Y-57424188D01*
X61793017Y-57595257D01*
X61690145Y-57749216D01*
X61559216Y-57880145D01*
X61405257Y-57983017D01*
X61234188Y-58053877D01*
X61052583Y-58090000D01*
X60867417Y-58090000D01*
X60685812Y-58053877D01*
X60514743Y-57983017D01*
X60360784Y-57880145D01*
X60229855Y-57749216D01*
X60126983Y-57595257D01*
X60056123Y-57424188D01*
X60020000Y-57242583D01*
X60020000Y-57057417D01*
X60056123Y-56875812D01*
X60126983Y-56704743D01*
X60229855Y-56550784D01*
X60360784Y-56419855D01*
X60514743Y-56316983D01*
X60685812Y-56246123D01*
X60867417Y-56210000D01*
X61052583Y-56210000D01*
X61234188Y-56246123D01*
X61234188Y-56246123D01*
G37*
G36*
X40914188Y-56246123D02*
X41085257Y-56316983D01*
X41239216Y-56419855D01*
X41370145Y-56550784D01*
X41473017Y-56704743D01*
X41543877Y-56875812D01*
X41580000Y-57057417D01*
X41580000Y-57242583D01*
X41543877Y-57424188D01*
X41473017Y-57595257D01*
X41370145Y-57749216D01*
X41239216Y-57880145D01*
X41085257Y-57983017D01*
X40914188Y-58053877D01*
X40732583Y-58090000D01*
X40547417Y-58090000D01*
X40365812Y-58053877D01*
X40194743Y-57983017D01*
X40040784Y-57880145D01*
X39909855Y-57749216D01*
X39806983Y-57595257D01*
X39736123Y-57424188D01*
X39700000Y-57242583D01*
X39700000Y-57057417D01*
X39736123Y-56875812D01*
X39806983Y-56704743D01*
X39909855Y-56550784D01*
X40040784Y-56419855D01*
X40194743Y-56316983D01*
X40365812Y-56246123D01*
X40547417Y-56210000D01*
X40732583Y-56210000D01*
X40914188Y-56246123D01*
X40914188Y-56246123D01*
G37*
G36*
X61234188Y-53706123D02*
X61405257Y-53776983D01*
X61559216Y-53879855D01*
X61690145Y-54010784D01*
X61793017Y-54164743D01*
X61863877Y-54335812D01*
X61900000Y-54517417D01*
X61900000Y-54702583D01*
X61863877Y-54884188D01*
X61793017Y-55055257D01*
X61690145Y-55209216D01*
X61559216Y-55340145D01*
X61405257Y-55443017D01*
X61234188Y-55513877D01*
X61052583Y-55550000D01*
X60867417Y-55550000D01*
X60685812Y-55513877D01*
X60514743Y-55443017D01*
X60360784Y-55340145D01*
X60229855Y-55209216D01*
X60126983Y-55055257D01*
X60056123Y-54884188D01*
X60020000Y-54702583D01*
X60020000Y-54517417D01*
X60056123Y-54335812D01*
X60126983Y-54164743D01*
X60229855Y-54010784D01*
X60360784Y-53879855D01*
X60514743Y-53776983D01*
X60685812Y-53706123D01*
X60867417Y-53670000D01*
X61052583Y-53670000D01*
X61234188Y-53706123D01*
X61234188Y-53706123D01*
G37*
G36*
X40914188Y-53706123D02*
X41085257Y-53776983D01*
X41239216Y-53879855D01*
X41370145Y-54010784D01*
X41473017Y-54164743D01*
X41543877Y-54335812D01*
X41580000Y-54517417D01*
X41580000Y-54702583D01*
X41543877Y-54884188D01*
X41473017Y-55055257D01*
X41370145Y-55209216D01*
X41239216Y-55340145D01*
X41085257Y-55443017D01*
X40914188Y-55513877D01*
X40732583Y-55550000D01*
X40547417Y-55550000D01*
X40365812Y-55513877D01*
X40194743Y-55443017D01*
X40040784Y-55340145D01*
X39909855Y-55209216D01*
X39806983Y-55055257D01*
X39736123Y-54884188D01*
X39700000Y-54702583D01*
X39700000Y-54517417D01*
X39736123Y-54335812D01*
X39806983Y-54164743D01*
X39909855Y-54010784D01*
X40040784Y-53879855D01*
X40194743Y-53776983D01*
X40365812Y-53706123D01*
X40547417Y-53670000D01*
X40732583Y-53670000D01*
X40914188Y-53706123D01*
X40914188Y-53706123D01*
G37*
G36*
X40914188Y-51166123D02*
X41085257Y-51236983D01*
X41239216Y-51339855D01*
X41370145Y-51470784D01*
X41473017Y-51624743D01*
X41543877Y-51795812D01*
X41580000Y-51977417D01*
X41580000Y-52162583D01*
X41543877Y-52344188D01*
X41473017Y-52515257D01*
X41370145Y-52669216D01*
X41239216Y-52800145D01*
X41085257Y-52903017D01*
X40914188Y-52973877D01*
X40732583Y-53010000D01*
X40547417Y-53010000D01*
X40365812Y-52973877D01*
X40194743Y-52903017D01*
X40040784Y-52800145D01*
X39909855Y-52669216D01*
X39806983Y-52515257D01*
X39736123Y-52344188D01*
X39700000Y-52162583D01*
X39700000Y-51977417D01*
X39736123Y-51795812D01*
X39806983Y-51624743D01*
X39909855Y-51470784D01*
X40040784Y-51339855D01*
X40194743Y-51236983D01*
X40365812Y-51166123D01*
X40547417Y-51130000D01*
X40732583Y-51130000D01*
X40914188Y-51166123D01*
X40914188Y-51166123D01*
G37*
G36*
X61234188Y-51166123D02*
X61405257Y-51236983D01*
X61559216Y-51339855D01*
X61690145Y-51470784D01*
X61793017Y-51624743D01*
X61863877Y-51795812D01*
X61900000Y-51977417D01*
X61900000Y-52162583D01*
X61863877Y-52344188D01*
X61793017Y-52515257D01*
X61690145Y-52669216D01*
X61559216Y-52800145D01*
X61405257Y-52903017D01*
X61234188Y-52973877D01*
X61052583Y-53010000D01*
X60867417Y-53010000D01*
X60685812Y-52973877D01*
X60514743Y-52903017D01*
X60360784Y-52800145D01*
X60229855Y-52669216D01*
X60126983Y-52515257D01*
X60056123Y-52344188D01*
X60020000Y-52162583D01*
X60020000Y-51977417D01*
X60056123Y-51795812D01*
X60126983Y-51624743D01*
X60229855Y-51470784D01*
X60360784Y-51339855D01*
X60514743Y-51236983D01*
X60685812Y-51166123D01*
X60867417Y-51130000D01*
X61052583Y-51130000D01*
X61234188Y-51166123D01*
X61234188Y-51166123D01*
G37*
G36*
X47641999Y-51269737D02*
X47651611Y-51272653D01*
X47660469Y-51277388D01*
X47668237Y-51283763D01*
X47674612Y-51291531D01*
X47679347Y-51300389D01*
X47682263Y-51310001D01*
X47683852Y-51326140D01*
X47683852Y-52813860D01*
X47682263Y-52829999D01*
X47679347Y-52839611D01*
X47674612Y-52848469D01*
X47668237Y-52856237D01*
X47660469Y-52862612D01*
X47651611Y-52867347D01*
X47641999Y-52870263D01*
X47625860Y-52871852D01*
X46638140Y-52871852D01*
X46622001Y-52870263D01*
X46612389Y-52867347D01*
X46603531Y-52862612D01*
X46587301Y-52849292D01*
X46566927Y-52835678D01*
X46544288Y-52826300D01*
X46520254Y-52821519D01*
X46495750Y-52821519D01*
X46471717Y-52826299D01*
X46449077Y-52835676D01*
X46428703Y-52849289D01*
X46411375Y-52866616D01*
X46408446Y-52871000D01*
X45281000Y-52871000D01*
X45281000Y-51269000D01*
X46408556Y-51269000D01*
X46419612Y-51282471D01*
X46438554Y-51298017D01*
X46460165Y-51309568D01*
X46483614Y-51316681D01*
X46508000Y-51319083D01*
X46532386Y-51316681D01*
X46555835Y-51309568D01*
X46577446Y-51298017D01*
X46587301Y-51290708D01*
X46597338Y-51282471D01*
X46603529Y-51277390D01*
X46603531Y-51277388D01*
X46612389Y-51272653D01*
X46622001Y-51269737D01*
X46638140Y-51268148D01*
X47625860Y-51268148D01*
X47641999Y-51269737D01*
X47641999Y-51269737D01*
G37*
G36*
X40914188Y-48626123D02*
X41085257Y-48696983D01*
X41239216Y-48799855D01*
X41370145Y-48930784D01*
X41473017Y-49084743D01*
X41543877Y-49255812D01*
X41580000Y-49437417D01*
X41580000Y-49622583D01*
X41543877Y-49804188D01*
X41473017Y-49975257D01*
X41370145Y-50129216D01*
X41239216Y-50260145D01*
X41085257Y-50363017D01*
X40914188Y-50433877D01*
X40732583Y-50470000D01*
X40547417Y-50470000D01*
X40365812Y-50433877D01*
X40194743Y-50363017D01*
X40040784Y-50260145D01*
X39909855Y-50129216D01*
X39806983Y-49975257D01*
X39736123Y-49804188D01*
X39700000Y-49622583D01*
X39700000Y-49437417D01*
X39736123Y-49255812D01*
X39806983Y-49084743D01*
X39909855Y-48930784D01*
X40040784Y-48799855D01*
X40194743Y-48696983D01*
X40365812Y-48626123D01*
X40547417Y-48590000D01*
X40732583Y-48590000D01*
X40914188Y-48626123D01*
X40914188Y-48626123D01*
G37*
G36*
X61234188Y-48626123D02*
X61405257Y-48696983D01*
X61559216Y-48799855D01*
X61690145Y-48930784D01*
X61793017Y-49084743D01*
X61863877Y-49255812D01*
X61900000Y-49437417D01*
X61900000Y-49622583D01*
X61863877Y-49804188D01*
X61793017Y-49975257D01*
X61690145Y-50129216D01*
X61559216Y-50260145D01*
X61405257Y-50363017D01*
X61234188Y-50433877D01*
X61052583Y-50470000D01*
X60867417Y-50470000D01*
X60685812Y-50433877D01*
X60514743Y-50363017D01*
X60360784Y-50260145D01*
X60229855Y-50129216D01*
X60126983Y-49975257D01*
X60056123Y-49804188D01*
X60020000Y-49622583D01*
X60020000Y-49437417D01*
X60056123Y-49255812D01*
X60126983Y-49084743D01*
X60229855Y-48930784D01*
X60360784Y-48799855D01*
X60514743Y-48696983D01*
X60685812Y-48626123D01*
X60867417Y-48590000D01*
X61052583Y-48590000D01*
X61234188Y-48626123D01*
X61234188Y-48626123D01*
G37*
G36*
X46416999Y-48729737D02*
X46426611Y-48732653D01*
X46435469Y-48737388D01*
X46443237Y-48743763D01*
X46453884Y-48756736D01*
X46460046Y-48765959D01*
X46477373Y-48783287D01*
X46497747Y-48796901D01*
X46520386Y-48806279D01*
X46544419Y-48811061D01*
X46568923Y-48811061D01*
X46592957Y-48806282D01*
X46615596Y-48796905D01*
X46635971Y-48783292D01*
X46653299Y-48765965D01*
X46660183Y-48756673D01*
X46670721Y-48743805D01*
X46670725Y-48743801D01*
X46678484Y-48737419D01*
X46687339Y-48732674D01*
X46696950Y-48729748D01*
X46707000Y-48728753D01*
X46707066Y-48728753D01*
X46713175Y-48728148D01*
X47700860Y-48728148D01*
X47716999Y-48729737D01*
X47726611Y-48732653D01*
X47735469Y-48737388D01*
X47743237Y-48743763D01*
X47749612Y-48751531D01*
X47754347Y-48760389D01*
X47757263Y-48770001D01*
X47758852Y-48786140D01*
X47758852Y-50273860D01*
X47757263Y-50289999D01*
X47754347Y-50299611D01*
X47749612Y-50308469D01*
X47743237Y-50316237D01*
X47735469Y-50322612D01*
X47726611Y-50327347D01*
X47716999Y-50330263D01*
X47700860Y-50331852D01*
X46713140Y-50331852D01*
X46697001Y-50330263D01*
X46687389Y-50327347D01*
X46678531Y-50322612D01*
X46670786Y-50316256D01*
X46670763Y-50316237D01*
X46664360Y-50308427D01*
X46664327Y-50308378D01*
X46656516Y-50298850D01*
X46656486Y-50298875D01*
X46645143Y-50285026D01*
X46626217Y-50269462D01*
X46604618Y-50257889D01*
X46581176Y-50250752D01*
X46556792Y-50248326D01*
X46532403Y-50250704D01*
X46508947Y-50257793D01*
X46487324Y-50269323D01*
X46468367Y-50284850D01*
X46457676Y-50299234D01*
X46457400Y-50299007D01*
X46449584Y-50308511D01*
X46449581Y-50308516D01*
X46443199Y-50316275D01*
X46443195Y-50316279D01*
X46435428Y-50322640D01*
X46427543Y-50326844D01*
X46426600Y-50327347D01*
X46426560Y-50327368D01*
X46416918Y-50330282D01*
X46400888Y-50331852D01*
X45263140Y-50331852D01*
X45247001Y-50330263D01*
X45237389Y-50327347D01*
X45228531Y-50322612D01*
X45220763Y-50316237D01*
X45214388Y-50308469D01*
X45209653Y-50299611D01*
X45206737Y-50289999D01*
X45205148Y-50273860D01*
X45205148Y-48786140D01*
X45206737Y-48770001D01*
X45209653Y-48760389D01*
X45214388Y-48751531D01*
X45220763Y-48743763D01*
X45228531Y-48737388D01*
X45237389Y-48732653D01*
X45247001Y-48729737D01*
X45263140Y-48728148D01*
X46400860Y-48728148D01*
X46416999Y-48729737D01*
X46416999Y-48729737D01*
G37*
G36*
X40914188Y-46086123D02*
X41085257Y-46156983D01*
X41239216Y-46259855D01*
X41370145Y-46390784D01*
X41473017Y-46544743D01*
X41543877Y-46715812D01*
X41580000Y-46897417D01*
X41580000Y-47082583D01*
X41543877Y-47264188D01*
X41473017Y-47435257D01*
X41370145Y-47589216D01*
X41239216Y-47720145D01*
X41085257Y-47823017D01*
X40914188Y-47893877D01*
X40732583Y-47930000D01*
X40547417Y-47930000D01*
X40365812Y-47893877D01*
X40194743Y-47823017D01*
X40040784Y-47720145D01*
X39909855Y-47589216D01*
X39806983Y-47435257D01*
X39736123Y-47264188D01*
X39700000Y-47082583D01*
X39700000Y-46897417D01*
X39736123Y-46715812D01*
X39806983Y-46544743D01*
X39909855Y-46390784D01*
X40040784Y-46259855D01*
X40194743Y-46156983D01*
X40365812Y-46086123D01*
X40547417Y-46050000D01*
X40732583Y-46050000D01*
X40914188Y-46086123D01*
X40914188Y-46086123D01*
G37*
G36*
X61234188Y-46086123D02*
X61405257Y-46156983D01*
X61559216Y-46259855D01*
X61690145Y-46390784D01*
X61793017Y-46544743D01*
X61863877Y-46715812D01*
X61900000Y-46897417D01*
X61900000Y-47082583D01*
X61863877Y-47264188D01*
X61793017Y-47435257D01*
X61690145Y-47589216D01*
X61559216Y-47720145D01*
X61405257Y-47823017D01*
X61234188Y-47893877D01*
X61052583Y-47930000D01*
X60867417Y-47930000D01*
X60685812Y-47893877D01*
X60514743Y-47823017D01*
X60360784Y-47720145D01*
X60229855Y-47589216D01*
X60126983Y-47435257D01*
X60056123Y-47264188D01*
X60020000Y-47082583D01*
X60020000Y-46897417D01*
X60056123Y-46715812D01*
X60126983Y-46544743D01*
X60229855Y-46390784D01*
X60360784Y-46259855D01*
X60514743Y-46156983D01*
X60685812Y-46086123D01*
X60867417Y-46050000D01*
X61052583Y-46050000D01*
X61234188Y-46086123D01*
X61234188Y-46086123D01*
G37*
G36*
X46416999Y-46189737D02*
X46426611Y-46192653D01*
X46435469Y-46197388D01*
X46443237Y-46203763D01*
X46453884Y-46216736D01*
X46460046Y-46225959D01*
X46477373Y-46243287D01*
X46497747Y-46256901D01*
X46520386Y-46266279D01*
X46544419Y-46271061D01*
X46568923Y-46271061D01*
X46592957Y-46266282D01*
X46615596Y-46256905D01*
X46635971Y-46243292D01*
X46653299Y-46225965D01*
X46660183Y-46216673D01*
X46670721Y-46203805D01*
X46670725Y-46203801D01*
X46678484Y-46197419D01*
X46687339Y-46192674D01*
X46696950Y-46189748D01*
X46707000Y-46188753D01*
X46707066Y-46188753D01*
X46713175Y-46188148D01*
X47700860Y-46188148D01*
X47716999Y-46189737D01*
X47726611Y-46192653D01*
X47735469Y-46197388D01*
X47743237Y-46203763D01*
X47749612Y-46211531D01*
X47754347Y-46220389D01*
X47757263Y-46230001D01*
X47758852Y-46246140D01*
X47758852Y-47733860D01*
X47757263Y-47749999D01*
X47754347Y-47759611D01*
X47749612Y-47768469D01*
X47743237Y-47776237D01*
X47735469Y-47782612D01*
X47726611Y-47787347D01*
X47716999Y-47790263D01*
X47700860Y-47791852D01*
X46713140Y-47791852D01*
X46697001Y-47790263D01*
X46687389Y-47787347D01*
X46678531Y-47782612D01*
X46670786Y-47776256D01*
X46670763Y-47776237D01*
X46664360Y-47768427D01*
X46664327Y-47768378D01*
X46656516Y-47758850D01*
X46656486Y-47758875D01*
X46645143Y-47745026D01*
X46626217Y-47729462D01*
X46604618Y-47717889D01*
X46581176Y-47710752D01*
X46556792Y-47708326D01*
X46532403Y-47710704D01*
X46508947Y-47717793D01*
X46487324Y-47729323D01*
X46468367Y-47744850D01*
X46457676Y-47759234D01*
X46457400Y-47759007D01*
X46449584Y-47768511D01*
X46449581Y-47768516D01*
X46443199Y-47776275D01*
X46443195Y-47776279D01*
X46435428Y-47782640D01*
X46427543Y-47786844D01*
X46426600Y-47787347D01*
X46426560Y-47787368D01*
X46416918Y-47790282D01*
X46400888Y-47791852D01*
X45263140Y-47791852D01*
X45247001Y-47790263D01*
X45237389Y-47787347D01*
X45228531Y-47782612D01*
X45220763Y-47776237D01*
X45214388Y-47768469D01*
X45209653Y-47759611D01*
X45206737Y-47749999D01*
X45205148Y-47733860D01*
X45205148Y-46246140D01*
X45206737Y-46230001D01*
X45209653Y-46220389D01*
X45214388Y-46211531D01*
X45220763Y-46203763D01*
X45228531Y-46197388D01*
X45237389Y-46192653D01*
X45247001Y-46189737D01*
X45263140Y-46188148D01*
X46400860Y-46188148D01*
X46416999Y-46189737D01*
X46416999Y-46189737D01*
G37*
G36*
X61234188Y-43546123D02*
X61405257Y-43616983D01*
X61559216Y-43719855D01*
X61690145Y-43850784D01*
X61793017Y-44004743D01*
X61863877Y-44175812D01*
X61900000Y-44357417D01*
X61900000Y-44542583D01*
X61863877Y-44724188D01*
X61793017Y-44895257D01*
X61690145Y-45049216D01*
X61559216Y-45180145D01*
X61405257Y-45283017D01*
X61234188Y-45353877D01*
X61052583Y-45390000D01*
X60867417Y-45390000D01*
X60685812Y-45353877D01*
X60514743Y-45283017D01*
X60360784Y-45180145D01*
X60229855Y-45049216D01*
X60126983Y-44895257D01*
X60056123Y-44724188D01*
X60020000Y-44542583D01*
X60020000Y-44357417D01*
X60056123Y-44175812D01*
X60126983Y-44004743D01*
X60229855Y-43850784D01*
X60360784Y-43719855D01*
X60514743Y-43616983D01*
X60685812Y-43546123D01*
X60867417Y-43510000D01*
X61052583Y-43510000D01*
X61234188Y-43546123D01*
X61234188Y-43546123D01*
G37*
G36*
X40914188Y-43546123D02*
X41085257Y-43616983D01*
X41239216Y-43719855D01*
X41370145Y-43850784D01*
X41473017Y-44004743D01*
X41543877Y-44175812D01*
X41580000Y-44357417D01*
X41580000Y-44542583D01*
X41543877Y-44724188D01*
X41473017Y-44895257D01*
X41370145Y-45049216D01*
X41239216Y-45180145D01*
X41085257Y-45283017D01*
X40914188Y-45353877D01*
X40732583Y-45390000D01*
X40547417Y-45390000D01*
X40365812Y-45353877D01*
X40194743Y-45283017D01*
X40040784Y-45180145D01*
X39909855Y-45049216D01*
X39806983Y-44895257D01*
X39736123Y-44724188D01*
X39700000Y-44542583D01*
X39700000Y-44357417D01*
X39736123Y-44175812D01*
X39806983Y-44004743D01*
X39909855Y-43850784D01*
X40040784Y-43719855D01*
X40194743Y-43616983D01*
X40365812Y-43546123D01*
X40547417Y-43510000D01*
X40732583Y-43510000D01*
X40914188Y-43546123D01*
X40914188Y-43546123D01*
G37*
G36*
X46416999Y-43649737D02*
X46426611Y-43652653D01*
X46435469Y-43657388D01*
X46443237Y-43663763D01*
X46453884Y-43676736D01*
X46460046Y-43685959D01*
X46477373Y-43703287D01*
X46497747Y-43716901D01*
X46520386Y-43726279D01*
X46544419Y-43731061D01*
X46568923Y-43731061D01*
X46592957Y-43726282D01*
X46615596Y-43716905D01*
X46635971Y-43703292D01*
X46653299Y-43685965D01*
X46660183Y-43676673D01*
X46670721Y-43663805D01*
X46670725Y-43663801D01*
X46678484Y-43657419D01*
X46687339Y-43652674D01*
X46696950Y-43649748D01*
X46707000Y-43648753D01*
X46707066Y-43648753D01*
X46713175Y-43648148D01*
X47700860Y-43648148D01*
X47716999Y-43649737D01*
X47726611Y-43652653D01*
X47735469Y-43657388D01*
X47743237Y-43663763D01*
X47749612Y-43671531D01*
X47754347Y-43680389D01*
X47757263Y-43690001D01*
X47758852Y-43706140D01*
X47758852Y-45193860D01*
X47757263Y-45209999D01*
X47754347Y-45219611D01*
X47749612Y-45228469D01*
X47743237Y-45236237D01*
X47735469Y-45242612D01*
X47726611Y-45247347D01*
X47716999Y-45250263D01*
X47700860Y-45251852D01*
X46713140Y-45251852D01*
X46697001Y-45250263D01*
X46687389Y-45247347D01*
X46678531Y-45242612D01*
X46670786Y-45236256D01*
X46670763Y-45236237D01*
X46664360Y-45228427D01*
X46664327Y-45228378D01*
X46656516Y-45218850D01*
X46656486Y-45218875D01*
X46645143Y-45205026D01*
X46626217Y-45189462D01*
X46604618Y-45177889D01*
X46581176Y-45170752D01*
X46556792Y-45168326D01*
X46532403Y-45170704D01*
X46508947Y-45177793D01*
X46487324Y-45189323D01*
X46468367Y-45204850D01*
X46457676Y-45219234D01*
X46457400Y-45219007D01*
X46449584Y-45228511D01*
X46449581Y-45228516D01*
X46443199Y-45236275D01*
X46443195Y-45236279D01*
X46435428Y-45242640D01*
X46427543Y-45246844D01*
X46426600Y-45247347D01*
X46426560Y-45247368D01*
X46416918Y-45250282D01*
X46400888Y-45251852D01*
X45263140Y-45251852D01*
X45247001Y-45250263D01*
X45237389Y-45247347D01*
X45228531Y-45242612D01*
X45220763Y-45236237D01*
X45214388Y-45228469D01*
X45209653Y-45219611D01*
X45206737Y-45209999D01*
X45205148Y-45193860D01*
X45205148Y-43706140D01*
X45206737Y-43690001D01*
X45209653Y-43680389D01*
X45214388Y-43671531D01*
X45220763Y-43663763D01*
X45228531Y-43657388D01*
X45237389Y-43652653D01*
X45247001Y-43649737D01*
X45263140Y-43648148D01*
X46400860Y-43648148D01*
X46416999Y-43649737D01*
X46416999Y-43649737D01*
G37*
G36*
X61234188Y-41006123D02*
X61405257Y-41076983D01*
X61559216Y-41179855D01*
X61690145Y-41310784D01*
X61793017Y-41464743D01*
X61863877Y-41635812D01*
X61900000Y-41817417D01*
X61900000Y-42002583D01*
X61863877Y-42184188D01*
X61793017Y-42355257D01*
X61690145Y-42509216D01*
X61559216Y-42640145D01*
X61405257Y-42743017D01*
X61234188Y-42813877D01*
X61052583Y-42850000D01*
X60867417Y-42850000D01*
X60685812Y-42813877D01*
X60514743Y-42743017D01*
X60360784Y-42640145D01*
X60229855Y-42509216D01*
X60126983Y-42355257D01*
X60056123Y-42184188D01*
X60020000Y-42002583D01*
X60020000Y-41817417D01*
X60056123Y-41635812D01*
X60126983Y-41464743D01*
X60229855Y-41310784D01*
X60360784Y-41179855D01*
X60514743Y-41076983D01*
X60685812Y-41006123D01*
X60867417Y-40970000D01*
X61052583Y-40970000D01*
X61234188Y-41006123D01*
X61234188Y-41006123D01*
G37*
G36*
X40914188Y-41006123D02*
X41085257Y-41076983D01*
X41239216Y-41179855D01*
X41370145Y-41310784D01*
X41473017Y-41464743D01*
X41543877Y-41635812D01*
X41580000Y-41817417D01*
X41580000Y-42002583D01*
X41543877Y-42184188D01*
X41473017Y-42355257D01*
X41370145Y-42509216D01*
X41239216Y-42640145D01*
X41085257Y-42743017D01*
X40914188Y-42813877D01*
X40732583Y-42850000D01*
X40547417Y-42850000D01*
X40365812Y-42813877D01*
X40194743Y-42743017D01*
X40040784Y-42640145D01*
X39909855Y-42509216D01*
X39806983Y-42355257D01*
X39736123Y-42184188D01*
X39700000Y-42002583D01*
X39700000Y-41817417D01*
X39736123Y-41635812D01*
X39806983Y-41464743D01*
X39909855Y-41310784D01*
X40040784Y-41179855D01*
X40194743Y-41076983D01*
X40365812Y-41006123D01*
X40547417Y-40970000D01*
X40732583Y-40970000D01*
X40914188Y-41006123D01*
X40914188Y-41006123D01*
G37*
G36*
X61234188Y-38466123D02*
X61405257Y-38536983D01*
X61559216Y-38639855D01*
X61690145Y-38770784D01*
X61793017Y-38924743D01*
X61863877Y-39095812D01*
X61900000Y-39277417D01*
X61900000Y-39462583D01*
X61863877Y-39644188D01*
X61793017Y-39815257D01*
X61690145Y-39969216D01*
X61559216Y-40100145D01*
X61405257Y-40203017D01*
X61234188Y-40273877D01*
X61052583Y-40310000D01*
X60867417Y-40310000D01*
X60685812Y-40273877D01*
X60514743Y-40203017D01*
X60360784Y-40100145D01*
X60229855Y-39969216D01*
X60126983Y-39815257D01*
X60056123Y-39644188D01*
X60020000Y-39462583D01*
X60020000Y-39277417D01*
X60056123Y-39095812D01*
X60126983Y-38924743D01*
X60229855Y-38770784D01*
X60360784Y-38639855D01*
X60514743Y-38536983D01*
X60685812Y-38466123D01*
X60867417Y-38430000D01*
X61052583Y-38430000D01*
X61234188Y-38466123D01*
X61234188Y-38466123D01*
G37*
G36*
X40914188Y-38466123D02*
X41085257Y-38536983D01*
X41239216Y-38639855D01*
X41370145Y-38770784D01*
X41473017Y-38924743D01*
X41543877Y-39095812D01*
X41580000Y-39277417D01*
X41580000Y-39462583D01*
X41543877Y-39644188D01*
X41473017Y-39815257D01*
X41370145Y-39969216D01*
X41239216Y-40100145D01*
X41085257Y-40203017D01*
X40914188Y-40273877D01*
X40732583Y-40310000D01*
X40547417Y-40310000D01*
X40365812Y-40273877D01*
X40194743Y-40203017D01*
X40040784Y-40100145D01*
X39909855Y-39969216D01*
X39806983Y-39815257D01*
X39736123Y-39644188D01*
X39700000Y-39462583D01*
X39700000Y-39277417D01*
X39736123Y-39095812D01*
X39806983Y-38924743D01*
X39909855Y-38770784D01*
X40040784Y-38639855D01*
X40194743Y-38536983D01*
X40365812Y-38466123D01*
X40547417Y-38430000D01*
X40732583Y-38430000D01*
X40914188Y-38466123D01*
X40914188Y-38466123D01*
G37*
G36*
X40914188Y-35926123D02*
X41085257Y-35996983D01*
X41239216Y-36099855D01*
X41370145Y-36230784D01*
X41473017Y-36384743D01*
X41543877Y-36555812D01*
X41580000Y-36737417D01*
X41580000Y-36922583D01*
X41543877Y-37104188D01*
X41473017Y-37275257D01*
X41370145Y-37429216D01*
X41239216Y-37560145D01*
X41085257Y-37663017D01*
X40914188Y-37733877D01*
X40732583Y-37770000D01*
X40547417Y-37770000D01*
X40365812Y-37733877D01*
X40194743Y-37663017D01*
X40040784Y-37560145D01*
X39909855Y-37429216D01*
X39806983Y-37275257D01*
X39736123Y-37104188D01*
X39700000Y-36922583D01*
X39700000Y-36737417D01*
X39736123Y-36555812D01*
X39806983Y-36384743D01*
X39909855Y-36230784D01*
X40040784Y-36099855D01*
X40194743Y-35996983D01*
X40365812Y-35926123D01*
X40547417Y-35890000D01*
X40732583Y-35890000D01*
X40914188Y-35926123D01*
X40914188Y-35926123D01*
G37*
G36*
X61234188Y-35926123D02*
X61405257Y-35996983D01*
X61559216Y-36099855D01*
X61690145Y-36230784D01*
X61793017Y-36384743D01*
X61863877Y-36555812D01*
X61900000Y-36737417D01*
X61900000Y-36922583D01*
X61863877Y-37104188D01*
X61793017Y-37275257D01*
X61690145Y-37429216D01*
X61559216Y-37560145D01*
X61405257Y-37663017D01*
X61234188Y-37733877D01*
X61052583Y-37770000D01*
X60867417Y-37770000D01*
X60685812Y-37733877D01*
X60514743Y-37663017D01*
X60360784Y-37560145D01*
X60229855Y-37429216D01*
X60126983Y-37275257D01*
X60056123Y-37104188D01*
X60020000Y-36922583D01*
X60020000Y-36737417D01*
X60056123Y-36555812D01*
X60126983Y-36384743D01*
X60229855Y-36230784D01*
X60360784Y-36099855D01*
X60514743Y-35996983D01*
X60685812Y-35926123D01*
X60867417Y-35890000D01*
X61052583Y-35890000D01*
X61234188Y-35926123D01*
X61234188Y-35926123D01*
G37*
G36*
X40914188Y-33386123D02*
X41085257Y-33456983D01*
X41239216Y-33559855D01*
X41370145Y-33690784D01*
X41473017Y-33844743D01*
X41543877Y-34015812D01*
X41580000Y-34197417D01*
X41580000Y-34382583D01*
X41543877Y-34564188D01*
X41473017Y-34735257D01*
X41370145Y-34889216D01*
X41239216Y-35020145D01*
X41085257Y-35123017D01*
X40914188Y-35193877D01*
X40732583Y-35230000D01*
X40547417Y-35230000D01*
X40365812Y-35193877D01*
X40194743Y-35123017D01*
X40040784Y-35020145D01*
X39909855Y-34889216D01*
X39806983Y-34735257D01*
X39736123Y-34564188D01*
X39700000Y-34382583D01*
X39700000Y-34197417D01*
X39736123Y-34015812D01*
X39806983Y-33844743D01*
X39909855Y-33690784D01*
X40040784Y-33559855D01*
X40194743Y-33456983D01*
X40365812Y-33386123D01*
X40547417Y-33350000D01*
X40732583Y-33350000D01*
X40914188Y-33386123D01*
X40914188Y-33386123D01*
G37*
G36*
X61234188Y-33386123D02*
X61405257Y-33456983D01*
X61559216Y-33559855D01*
X61690145Y-33690784D01*
X61793017Y-33844743D01*
X61863877Y-34015812D01*
X61900000Y-34197417D01*
X61900000Y-34382583D01*
X61863877Y-34564188D01*
X61793017Y-34735257D01*
X61690145Y-34889216D01*
X61559216Y-35020145D01*
X61405257Y-35123017D01*
X61234188Y-35193877D01*
X61052583Y-35230000D01*
X60867417Y-35230000D01*
X60685812Y-35193877D01*
X60514743Y-35123017D01*
X60360784Y-35020145D01*
X60229855Y-34889216D01*
X60126983Y-34735257D01*
X60056123Y-34564188D01*
X60020000Y-34382583D01*
X60020000Y-34197417D01*
X60056123Y-34015812D01*
X60126983Y-33844743D01*
X60229855Y-33690784D01*
X60360784Y-33559855D01*
X60514743Y-33456983D01*
X60685812Y-33386123D01*
X60867417Y-33350000D01*
X61052583Y-33350000D01*
X61234188Y-33386123D01*
X61234188Y-33386123D01*
G37*
G36*
X40914188Y-30846123D02*
X41085257Y-30916983D01*
X41239216Y-31019855D01*
X41370145Y-31150784D01*
X41473017Y-31304743D01*
X41543877Y-31475812D01*
X41580000Y-31657417D01*
X41580000Y-31842583D01*
X41543877Y-32024188D01*
X41473017Y-32195257D01*
X41370145Y-32349216D01*
X41239216Y-32480145D01*
X41085257Y-32583017D01*
X40914188Y-32653877D01*
X40732583Y-32690000D01*
X40547417Y-32690000D01*
X40365812Y-32653877D01*
X40194743Y-32583017D01*
X40040784Y-32480145D01*
X39909855Y-32349216D01*
X39806983Y-32195257D01*
X39736123Y-32024188D01*
X39700000Y-31842583D01*
X39700000Y-31657417D01*
X39736123Y-31475812D01*
X39806983Y-31304743D01*
X39909855Y-31150784D01*
X40040784Y-31019855D01*
X40194743Y-30916983D01*
X40365812Y-30846123D01*
X40547417Y-30810000D01*
X40732583Y-30810000D01*
X40914188Y-30846123D01*
X40914188Y-30846123D01*
G37*
G36*
X61234188Y-30846123D02*
X61405257Y-30916983D01*
X61559216Y-31019855D01*
X61690145Y-31150784D01*
X61793017Y-31304743D01*
X61863877Y-31475812D01*
X61900000Y-31657417D01*
X61900000Y-31842583D01*
X61863877Y-32024188D01*
X61793017Y-32195257D01*
X61690145Y-32349216D01*
X61559216Y-32480145D01*
X61405257Y-32583017D01*
X61234188Y-32653877D01*
X61052583Y-32690000D01*
X60867417Y-32690000D01*
X60685812Y-32653877D01*
X60514743Y-32583017D01*
X60360784Y-32480145D01*
X60229855Y-32349216D01*
X60126983Y-32195257D01*
X60056123Y-32024188D01*
X60020000Y-31842583D01*
X60020000Y-31657417D01*
X60056123Y-31475812D01*
X60126983Y-31304743D01*
X60229855Y-31150784D01*
X60360784Y-31019855D01*
X60514743Y-30916983D01*
X60685812Y-30846123D01*
X60867417Y-30810000D01*
X61052583Y-30810000D01*
X61234188Y-30846123D01*
X61234188Y-30846123D01*
G37*
G36*
X60149411Y-26425526D02*
X60268137Y-26474704D01*
X60436041Y-26544252D01*
X60694007Y-26716619D01*
X60913381Y-26935993D01*
X61085748Y-27193959D01*
X61204474Y-27480590D01*
X61245333Y-27686000D01*
X61265000Y-27784876D01*
X61265000Y-28095124D01*
X61204474Y-28399411D01*
X61188167Y-28438779D01*
X61085748Y-28686041D01*
X60913381Y-28944007D01*
X60694007Y-29163381D01*
X60436041Y-29335748D01*
X60268137Y-29405296D01*
X60149411Y-29454474D01*
X59997267Y-29484737D01*
X59845125Y-29515000D01*
X59534875Y-29515000D01*
X59382733Y-29484737D01*
X59230589Y-29454474D01*
X59111863Y-29405296D01*
X58943959Y-29335748D01*
X58685993Y-29163381D01*
X58466619Y-28944007D01*
X58294252Y-28686041D01*
X58191833Y-28438779D01*
X58175526Y-28399411D01*
X58115000Y-28095124D01*
X58115000Y-27784876D01*
X58134668Y-27686000D01*
X58175526Y-27480590D01*
X58294252Y-27193959D01*
X58466619Y-26935993D01*
X58685993Y-26716619D01*
X58943959Y-26544252D01*
X59111863Y-26474704D01*
X59230589Y-26425526D01*
X59534875Y-26365000D01*
X59845125Y-26365000D01*
X60149411Y-26425526D01*
X60149411Y-26425526D01*
G37*
G36*
X42369411Y-26425526D02*
X42488137Y-26474704D01*
X42656041Y-26544252D01*
X42914007Y-26716619D01*
X43133381Y-26935993D01*
X43305748Y-27193959D01*
X43424474Y-27480590D01*
X43465333Y-27686000D01*
X43485000Y-27784876D01*
X43485000Y-28095124D01*
X43424474Y-28399411D01*
X43408167Y-28438779D01*
X43305748Y-28686041D01*
X43133381Y-28944007D01*
X42914007Y-29163381D01*
X42656041Y-29335748D01*
X42488137Y-29405296D01*
X42369411Y-29454474D01*
X42217267Y-29484737D01*
X42065125Y-29515000D01*
X41754875Y-29515000D01*
X41602733Y-29484737D01*
X41450589Y-29454474D01*
X41331863Y-29405296D01*
X41163959Y-29335748D01*
X40905993Y-29163381D01*
X40686619Y-28944007D01*
X40514252Y-28686041D01*
X40411833Y-28438779D01*
X40395526Y-28399411D01*
X40335000Y-28095124D01*
X40335000Y-27784876D01*
X40354668Y-27686000D01*
X40395526Y-27480590D01*
X40514252Y-27193959D01*
X40686619Y-26935993D01*
X40905993Y-26716619D01*
X41163959Y-26544252D01*
X41331863Y-26474704D01*
X41450589Y-26425526D01*
X41754875Y-26365000D01*
X42065125Y-26365000D01*
X42369411Y-26425526D01*
X42369411Y-26425526D01*
G37*
G36*
X50431000Y-28587000D02*
X48629000Y-28587000D01*
X48629000Y-26785000D01*
X50431000Y-26785000D01*
X50431000Y-28587000D01*
X50431000Y-28587000D01*
G37*
G36*
X52180442Y-26791518D02*
X52246627Y-26798037D01*
X52359853Y-26832384D01*
X52416467Y-26849557D01*
X52555087Y-26923652D01*
X52572991Y-26933222D01*
X52608729Y-26962552D01*
X52710186Y-27045814D01*
X52793448Y-27147271D01*
X52822778Y-27183009D01*
X52822779Y-27183011D01*
X52906443Y-27339533D01*
X52906443Y-27339534D01*
X52957963Y-27509373D01*
X52975359Y-27686000D01*
X52957963Y-27862627D01*
X52923616Y-27975853D01*
X52906443Y-28032467D01*
X52872951Y-28095125D01*
X52822778Y-28188991D01*
X52793448Y-28224729D01*
X52710186Y-28326186D01*
X52608729Y-28409448D01*
X52572991Y-28438778D01*
X52572989Y-28438779D01*
X52416467Y-28522443D01*
X52359853Y-28539616D01*
X52246627Y-28573963D01*
X52180443Y-28580481D01*
X52114260Y-28587000D01*
X52025740Y-28587000D01*
X51959557Y-28580481D01*
X51893373Y-28573963D01*
X51780147Y-28539616D01*
X51723533Y-28522443D01*
X51567011Y-28438779D01*
X51567009Y-28438778D01*
X51531271Y-28409448D01*
X51429814Y-28326186D01*
X51346552Y-28224729D01*
X51317222Y-28188991D01*
X51267049Y-28095125D01*
X51233557Y-28032467D01*
X51216384Y-27975853D01*
X51182037Y-27862627D01*
X51164641Y-27686000D01*
X51182037Y-27509373D01*
X51233557Y-27339534D01*
X51233557Y-27339533D01*
X51317221Y-27183011D01*
X51317222Y-27183009D01*
X51346552Y-27147271D01*
X51429814Y-27045814D01*
X51531271Y-26962552D01*
X51567009Y-26933222D01*
X51584913Y-26923652D01*
X51723533Y-26849557D01*
X51780147Y-26832384D01*
X51893373Y-26798037D01*
X51959558Y-26791518D01*
X52025740Y-26785000D01*
X52114260Y-26785000D01*
X52180442Y-26791518D01*
X52180442Y-26791518D01*
G37*
M02*
