G04 #@! TF.GenerationSoftware,KiCad,Pcbnew,5.0.2-bee76a0~70~ubuntu18.04.1*
G04 #@! TF.CreationDate,2020-04-01T17:28:38-07:00*
G04 #@! TF.ProjectId,potentiostat_featherwing,706f7465-6e74-4696-9f73-7461745f6665,rev?*
G04 #@! TF.SameCoordinates,Original*
G04 #@! TF.FileFunction,Legend,Top*
G04 #@! TF.FilePolarity,Positive*
%FSLAX46Y46*%
G04 Gerber Fmt 4.6, Leading zero omitted, Abs format (unit mm)*
G04 Created by KiCad (PCBNEW 5.0.2-bee76a0~70~ubuntu18.04.1) date Wed 01 Apr 2020 05:28:38 PM PDT*
%MOMM*%
%LPD*%
G01*
G04 APERTURE LIST*
%ADD10C,0.203200*%
%ADD11C,0.150000*%
%ADD12C,0.381000*%
%ADD13C,0.120000*%
%ADD14C,0.152400*%
G04 APERTURE END LIST*
D10*
X53031571Y-67642619D02*
X53273476Y-68658619D01*
X53467000Y-67932904D01*
X53660523Y-68658619D01*
X53902428Y-67642619D01*
X54870047Y-68658619D02*
X54531380Y-68174809D01*
X54289476Y-68658619D02*
X54289476Y-67642619D01*
X54676523Y-67642619D01*
X54773285Y-67691000D01*
X54821666Y-67739380D01*
X54870047Y-67836142D01*
X54870047Y-67981285D01*
X54821666Y-68078047D01*
X54773285Y-68126428D01*
X54676523Y-68174809D01*
X54289476Y-68174809D01*
X55305476Y-68658619D02*
X55305476Y-67642619D01*
X55886047Y-68658619D02*
X55450619Y-68078047D01*
X55886047Y-67642619D02*
X55305476Y-68223190D01*
X50219428Y-68658619D02*
X49880761Y-68174809D01*
X49638857Y-68658619D02*
X49638857Y-67642619D01*
X50025904Y-67642619D01*
X50122666Y-67691000D01*
X50171047Y-67739380D01*
X50219428Y-67836142D01*
X50219428Y-67981285D01*
X50171047Y-68078047D01*
X50122666Y-68126428D01*
X50025904Y-68174809D01*
X49638857Y-68174809D01*
X50654857Y-68126428D02*
X50993523Y-68126428D01*
X51138666Y-68658619D02*
X50654857Y-68658619D01*
X50654857Y-67642619D01*
X51138666Y-67642619D01*
X51912761Y-68126428D02*
X51574095Y-68126428D01*
X51574095Y-68658619D02*
X51574095Y-67642619D01*
X52057904Y-67642619D01*
X46663428Y-68561857D02*
X46615047Y-68610238D01*
X46469904Y-68658619D01*
X46373142Y-68658619D01*
X46228000Y-68610238D01*
X46131238Y-68513476D01*
X46082857Y-68416714D01*
X46034476Y-68223190D01*
X46034476Y-68078047D01*
X46082857Y-67884523D01*
X46131238Y-67787761D01*
X46228000Y-67691000D01*
X46373142Y-67642619D01*
X46469904Y-67642619D01*
X46615047Y-67691000D01*
X46663428Y-67739380D01*
X46953714Y-67642619D02*
X47534285Y-67642619D01*
X47244000Y-68658619D02*
X47244000Y-67642619D01*
X48453523Y-68658619D02*
X48114857Y-68174809D01*
X47872952Y-68658619D02*
X47872952Y-67642619D01*
X48260000Y-67642619D01*
X48356761Y-67691000D01*
X48405142Y-67739380D01*
X48453523Y-67836142D01*
X48453523Y-67981285D01*
X48405142Y-68078047D01*
X48356761Y-68126428D01*
X48260000Y-68174809D01*
X47872952Y-68174809D01*
D11*
G04 #@! TO.C,U1*
X39370000Y-27940000D02*
X39370000Y-73660000D01*
X59690000Y-76200000D02*
X41910000Y-76200000D01*
X62230000Y-27940000D02*
X62230000Y-73660000D01*
X59690000Y-25400000D02*
X41910000Y-25400000D01*
X41910000Y-76200000D02*
G75*
G02X39370000Y-73660000I0J2540000D01*
G01*
X62230000Y-73660000D02*
G75*
G02X59690000Y-76200000I-2540000J0D01*
G01*
X59690000Y-25400000D02*
G75*
G02X62230000Y-27940000I0J-2540000D01*
G01*
X39370000Y-27940000D02*
G75*
G02X41910000Y-25400000I2540000J0D01*
G01*
D12*
G04 #@! TO.C,J1*
X45001180Y-69242940D02*
X45001180Y-76045060D01*
X45001180Y-76045060D02*
X56598820Y-76045060D01*
X56598820Y-76045060D02*
X56598820Y-69242940D01*
X56598820Y-69242940D02*
X45001180Y-69242940D01*
D13*
G04 #@! TO.C,C1*
X56263000Y-49104733D02*
X56263000Y-49447267D01*
X55243000Y-49104733D02*
X55243000Y-49447267D01*
G04 #@! TO.C,C2*
X55243000Y-45129267D02*
X55243000Y-44786733D01*
X56263000Y-45129267D02*
X56263000Y-44786733D01*
G04 #@! TO.C,C3*
X53638267Y-59053000D02*
X53295733Y-59053000D01*
X53638267Y-60073000D02*
X53295733Y-60073000D01*
G04 #@! TO.C,C5*
X46526267Y-40638000D02*
X46183733Y-40638000D01*
X46526267Y-41658000D02*
X46183733Y-41658000D01*
G04 #@! TO.C,J2*
X54670000Y-65592000D02*
X54670000Y-62932000D01*
X49530000Y-65592000D02*
X54670000Y-65592000D01*
X49530000Y-62932000D02*
X54670000Y-62932000D01*
X49530000Y-65592000D02*
X49530000Y-62932000D01*
X48260000Y-65592000D02*
X46930000Y-65592000D01*
X46930000Y-65592000D02*
X46930000Y-64262000D01*
G04 #@! TO.C,J3*
X53400000Y-29016000D02*
X53400000Y-26356000D01*
X50800000Y-29016000D02*
X53400000Y-29016000D01*
X50800000Y-26356000D02*
X53400000Y-26356000D01*
X50800000Y-29016000D02*
X50800000Y-26356000D01*
X49530000Y-29016000D02*
X48200000Y-29016000D01*
X48200000Y-29016000D02*
X48200000Y-27686000D01*
G04 #@! TO.C,R1*
X46818733Y-55370000D02*
X47161267Y-55370000D01*
X46818733Y-56390000D02*
X47161267Y-56390000D01*
G04 #@! TO.C,R2*
X47175267Y-58926000D02*
X46832733Y-58926000D01*
X47175267Y-59946000D02*
X46832733Y-59946000D01*
G04 #@! TO.C,R3*
X53638267Y-56390000D02*
X53295733Y-56390000D01*
X53638267Y-55370000D02*
X53295733Y-55370000D01*
G04 #@! TO.C,R4*
X54146267Y-36832000D02*
X53803733Y-36832000D01*
X54146267Y-35812000D02*
X53803733Y-35812000D01*
G04 #@! TO.C,R5*
X53676733Y-39880000D02*
X54019267Y-39880000D01*
X53676733Y-38860000D02*
X54019267Y-38860000D01*
G04 #@! TO.C,U2*
X48144000Y-35220000D02*
X46344000Y-35220000D01*
X46344000Y-38440000D02*
X49294000Y-38440000D01*
D11*
G04 #@! TO.C,U3*
X51605000Y-52431000D02*
X52980000Y-52431000D01*
X51605000Y-43556000D02*
X47455000Y-43556000D01*
X51605000Y-52456000D02*
X47455000Y-52456000D01*
X51605000Y-43556000D02*
X51605000Y-43671000D01*
X47455000Y-43556000D02*
X47455000Y-43671000D01*
X47455000Y-52456000D02*
X47455000Y-52341000D01*
X51605000Y-52456000D02*
X51605000Y-52431000D01*
D13*
G04 #@! TO.C,C4*
X46945733Y-31875000D02*
X47288267Y-31875000D01*
X46945733Y-32895000D02*
X47288267Y-32895000D01*
G04 #@! TO.C,U1*
D10*
X57863619Y-70309619D02*
X57524952Y-69825809D01*
X57283047Y-70309619D02*
X57283047Y-69293619D01*
X57670095Y-69293619D01*
X57766857Y-69342000D01*
X57815238Y-69390380D01*
X57863619Y-69487142D01*
X57863619Y-69632285D01*
X57815238Y-69729047D01*
X57766857Y-69777428D01*
X57670095Y-69825809D01*
X57283047Y-69825809D01*
X58250666Y-70261238D02*
X58395809Y-70309619D01*
X58637714Y-70309619D01*
X58734476Y-70261238D01*
X58782857Y-70212857D01*
X58831238Y-70116095D01*
X58831238Y-70019333D01*
X58782857Y-69922571D01*
X58734476Y-69874190D01*
X58637714Y-69825809D01*
X58444190Y-69777428D01*
X58347428Y-69729047D01*
X58299047Y-69680666D01*
X58250666Y-69583904D01*
X58250666Y-69487142D01*
X58299047Y-69390380D01*
X58347428Y-69342000D01*
X58444190Y-69293619D01*
X58686095Y-69293619D01*
X58831238Y-69342000D01*
X59121523Y-69293619D02*
X59702095Y-69293619D01*
X59411809Y-70309619D02*
X59411809Y-69293619D01*
X57899904Y-66753619D02*
X58528857Y-66753619D01*
X58190190Y-67140666D01*
X58335333Y-67140666D01*
X58432095Y-67189047D01*
X58480476Y-67237428D01*
X58528857Y-67334190D01*
X58528857Y-67576095D01*
X58480476Y-67672857D01*
X58432095Y-67721238D01*
X58335333Y-67769619D01*
X58045047Y-67769619D01*
X57948285Y-67721238D01*
X57899904Y-67672857D01*
X58819142Y-66753619D02*
X59157809Y-67769619D01*
X59496476Y-66753619D01*
X56267047Y-64939333D02*
X56750857Y-64939333D01*
X56170285Y-65229619D02*
X56508952Y-64213619D01*
X56847619Y-65229619D01*
X57766857Y-65229619D02*
X57428190Y-64745809D01*
X57186285Y-65229619D02*
X57186285Y-64213619D01*
X57573333Y-64213619D01*
X57670095Y-64262000D01*
X57718476Y-64310380D01*
X57766857Y-64407142D01*
X57766857Y-64552285D01*
X57718476Y-64649047D01*
X57670095Y-64697428D01*
X57573333Y-64745809D01*
X57186285Y-64745809D01*
X58202285Y-64697428D02*
X58540952Y-64697428D01*
X58686095Y-65229619D02*
X58202285Y-65229619D01*
X58202285Y-64213619D01*
X58686095Y-64213619D01*
X59460190Y-64697428D02*
X59121523Y-64697428D01*
X59121523Y-65229619D02*
X59121523Y-64213619D01*
X59605333Y-64213619D01*
X57391904Y-61722000D02*
X57295142Y-61673619D01*
X57150000Y-61673619D01*
X57004857Y-61722000D01*
X56908095Y-61818761D01*
X56859714Y-61915523D01*
X56811333Y-62109047D01*
X56811333Y-62254190D01*
X56859714Y-62447714D01*
X56908095Y-62544476D01*
X57004857Y-62641238D01*
X57150000Y-62689619D01*
X57246761Y-62689619D01*
X57391904Y-62641238D01*
X57440285Y-62592857D01*
X57440285Y-62254190D01*
X57246761Y-62254190D01*
X57875714Y-62689619D02*
X57875714Y-61673619D01*
X58456285Y-62689619D01*
X58456285Y-61673619D01*
X58940095Y-62689619D02*
X58940095Y-61673619D01*
X59182000Y-61673619D01*
X59327142Y-61722000D01*
X59423904Y-61818761D01*
X59472285Y-61915523D01*
X59520666Y-62109047D01*
X59520666Y-62254190D01*
X59472285Y-62447714D01*
X59423904Y-62544476D01*
X59327142Y-62641238D01*
X59182000Y-62689619D01*
X58940095Y-62689619D01*
X57948285Y-59859333D02*
X58432095Y-59859333D01*
X57851523Y-60149619D02*
X58190190Y-59133619D01*
X58528857Y-60149619D01*
X59061047Y-59133619D02*
X59157809Y-59133619D01*
X59254571Y-59182000D01*
X59302952Y-59230380D01*
X59351333Y-59327142D01*
X59399714Y-59520666D01*
X59399714Y-59762571D01*
X59351333Y-59956095D01*
X59302952Y-60052857D01*
X59254571Y-60101238D01*
X59157809Y-60149619D01*
X59061047Y-60149619D01*
X58964285Y-60101238D01*
X58915904Y-60052857D01*
X58867523Y-59956095D01*
X58819142Y-59762571D01*
X58819142Y-59520666D01*
X58867523Y-59327142D01*
X58915904Y-59230380D01*
X58964285Y-59182000D01*
X59061047Y-59133619D01*
X57948285Y-57319333D02*
X58432095Y-57319333D01*
X57851523Y-57609619D02*
X58190190Y-56593619D01*
X58528857Y-57609619D01*
X59399714Y-57609619D02*
X58819142Y-57609619D01*
X59109428Y-57609619D02*
X59109428Y-56593619D01*
X59012666Y-56738761D01*
X58915904Y-56835523D01*
X58819142Y-56883904D01*
X57948285Y-54779333D02*
X58432095Y-54779333D01*
X57851523Y-55069619D02*
X58190190Y-54053619D01*
X58528857Y-55069619D01*
X58819142Y-54150380D02*
X58867523Y-54102000D01*
X58964285Y-54053619D01*
X59206190Y-54053619D01*
X59302952Y-54102000D01*
X59351333Y-54150380D01*
X59399714Y-54247142D01*
X59399714Y-54343904D01*
X59351333Y-54489047D01*
X58770761Y-55069619D01*
X59399714Y-55069619D01*
X57948285Y-52239333D02*
X58432095Y-52239333D01*
X57851523Y-52529619D02*
X58190190Y-51513619D01*
X58528857Y-52529619D01*
X58770761Y-51513619D02*
X59399714Y-51513619D01*
X59061047Y-51900666D01*
X59206190Y-51900666D01*
X59302952Y-51949047D01*
X59351333Y-51997428D01*
X59399714Y-52094190D01*
X59399714Y-52336095D01*
X59351333Y-52432857D01*
X59302952Y-52481238D01*
X59206190Y-52529619D01*
X58915904Y-52529619D01*
X58819142Y-52481238D01*
X58770761Y-52432857D01*
X57948285Y-49699333D02*
X58432095Y-49699333D01*
X57851523Y-49989619D02*
X58190190Y-48973619D01*
X58528857Y-49989619D01*
X59302952Y-49312285D02*
X59302952Y-49989619D01*
X59061047Y-48925238D02*
X58819142Y-49650952D01*
X59448095Y-49650952D01*
X57948285Y-47159333D02*
X58432095Y-47159333D01*
X57851523Y-47449619D02*
X58190190Y-46433619D01*
X58528857Y-47449619D01*
X59351333Y-46433619D02*
X58867523Y-46433619D01*
X58819142Y-46917428D01*
X58867523Y-46869047D01*
X58964285Y-46820666D01*
X59206190Y-46820666D01*
X59302952Y-46869047D01*
X59351333Y-46917428D01*
X59399714Y-47014190D01*
X59399714Y-47256095D01*
X59351333Y-47352857D01*
X59302952Y-47401238D01*
X59206190Y-47449619D01*
X58964285Y-47449619D01*
X58867523Y-47401238D01*
X58819142Y-47352857D01*
X57113714Y-44861238D02*
X57258857Y-44909619D01*
X57500761Y-44909619D01*
X57597523Y-44861238D01*
X57645904Y-44812857D01*
X57694285Y-44716095D01*
X57694285Y-44619333D01*
X57645904Y-44522571D01*
X57597523Y-44474190D01*
X57500761Y-44425809D01*
X57307238Y-44377428D01*
X57210476Y-44329047D01*
X57162095Y-44280666D01*
X57113714Y-44183904D01*
X57113714Y-44087142D01*
X57162095Y-43990380D01*
X57210476Y-43942000D01*
X57307238Y-43893619D01*
X57549142Y-43893619D01*
X57694285Y-43942000D01*
X58710285Y-44812857D02*
X58661904Y-44861238D01*
X58516761Y-44909619D01*
X58420000Y-44909619D01*
X58274857Y-44861238D01*
X58178095Y-44764476D01*
X58129714Y-44667714D01*
X58081333Y-44474190D01*
X58081333Y-44329047D01*
X58129714Y-44135523D01*
X58178095Y-44038761D01*
X58274857Y-43942000D01*
X58420000Y-43893619D01*
X58516761Y-43893619D01*
X58661904Y-43942000D01*
X58710285Y-43990380D01*
X59145714Y-44909619D02*
X59145714Y-43893619D01*
X59726285Y-44909619D02*
X59290857Y-44329047D01*
X59726285Y-43893619D02*
X59145714Y-44474190D01*
X56315428Y-42623619D02*
X56315428Y-41607619D01*
X56654095Y-42333333D01*
X56992761Y-41607619D01*
X56992761Y-42623619D01*
X57670095Y-41607619D02*
X57863619Y-41607619D01*
X57960380Y-41656000D01*
X58057142Y-41752761D01*
X58105523Y-41946285D01*
X58105523Y-42284952D01*
X58057142Y-42478476D01*
X57960380Y-42575238D01*
X57863619Y-42623619D01*
X57670095Y-42623619D01*
X57573333Y-42575238D01*
X57476571Y-42478476D01*
X57428190Y-42284952D01*
X57428190Y-41946285D01*
X57476571Y-41752761D01*
X57573333Y-41656000D01*
X57670095Y-41607619D01*
X58492571Y-42575238D02*
X58637714Y-42623619D01*
X58879619Y-42623619D01*
X58976380Y-42575238D01*
X59024761Y-42526857D01*
X59073142Y-42430095D01*
X59073142Y-42333333D01*
X59024761Y-42236571D01*
X58976380Y-42188190D01*
X58879619Y-42139809D01*
X58686095Y-42091428D01*
X58589333Y-42043047D01*
X58540952Y-41994666D01*
X58492571Y-41897904D01*
X58492571Y-41801142D01*
X58540952Y-41704380D01*
X58589333Y-41656000D01*
X58686095Y-41607619D01*
X58928000Y-41607619D01*
X59073142Y-41656000D01*
X59508571Y-42623619D02*
X59508571Y-41607619D01*
X56315428Y-39829619D02*
X56315428Y-38813619D01*
X56654095Y-39539333D01*
X56992761Y-38813619D01*
X56992761Y-39829619D01*
X57476571Y-39829619D02*
X57476571Y-38813619D01*
X57912000Y-39781238D02*
X58057142Y-39829619D01*
X58299047Y-39829619D01*
X58395809Y-39781238D01*
X58444190Y-39732857D01*
X58492571Y-39636095D01*
X58492571Y-39539333D01*
X58444190Y-39442571D01*
X58395809Y-39394190D01*
X58299047Y-39345809D01*
X58105523Y-39297428D01*
X58008761Y-39249047D01*
X57960380Y-39200666D01*
X57912000Y-39103904D01*
X57912000Y-39007142D01*
X57960380Y-38910380D01*
X58008761Y-38862000D01*
X58105523Y-38813619D01*
X58347428Y-38813619D01*
X58492571Y-38862000D01*
X59121523Y-38813619D02*
X59315047Y-38813619D01*
X59411809Y-38862000D01*
X59508571Y-38958761D01*
X59556952Y-39152285D01*
X59556952Y-39490952D01*
X59508571Y-39684476D01*
X59411809Y-39781238D01*
X59315047Y-39829619D01*
X59121523Y-39829619D01*
X59024761Y-39781238D01*
X58927999Y-39684476D01*
X58879619Y-39490952D01*
X58879619Y-39152285D01*
X58927999Y-38958761D01*
X59024761Y-38862000D01*
X59121523Y-38813619D01*
X58758666Y-37543619D02*
X58420000Y-37059809D01*
X58178095Y-37543619D02*
X58178095Y-36527619D01*
X58565142Y-36527619D01*
X58661904Y-36576000D01*
X58710285Y-36624380D01*
X58758666Y-36721142D01*
X58758666Y-36866285D01*
X58710285Y-36963047D01*
X58661904Y-37011428D01*
X58565142Y-37059809D01*
X58178095Y-37059809D01*
X59097333Y-36527619D02*
X59774666Y-37543619D01*
X59774666Y-36527619D02*
X59097333Y-37543619D01*
X58153904Y-33733619D02*
X58734476Y-33733619D01*
X58444190Y-34749619D02*
X58444190Y-33733619D01*
X58976380Y-33733619D02*
X59653714Y-34749619D01*
X59653714Y-33733619D02*
X58976380Y-34749619D01*
X55517142Y-31677428D02*
X55662285Y-31725809D01*
X55710666Y-31774190D01*
X55759047Y-31870952D01*
X55759047Y-32016095D01*
X55710666Y-32112857D01*
X55662285Y-32161238D01*
X55565523Y-32209619D01*
X55178476Y-32209619D01*
X55178476Y-31193619D01*
X55517142Y-31193619D01*
X55613904Y-31242000D01*
X55662285Y-31290380D01*
X55710666Y-31387142D01*
X55710666Y-31483904D01*
X55662285Y-31580666D01*
X55613904Y-31629047D01*
X55517142Y-31677428D01*
X55178476Y-31677428D01*
X56146095Y-32161238D02*
X56291238Y-32209619D01*
X56533142Y-32209619D01*
X56629904Y-32161238D01*
X56678285Y-32112857D01*
X56726666Y-32016095D01*
X56726666Y-31919333D01*
X56678285Y-31822571D01*
X56629904Y-31774190D01*
X56533142Y-31725809D01*
X56339619Y-31677428D01*
X56242857Y-31629047D01*
X56194476Y-31580666D01*
X56146095Y-31483904D01*
X56146095Y-31387142D01*
X56194476Y-31290380D01*
X56242857Y-31242000D01*
X56339619Y-31193619D01*
X56581523Y-31193619D01*
X56726666Y-31242000D01*
X57162095Y-32209619D02*
X57162095Y-31193619D01*
X57549142Y-31193619D01*
X57645904Y-31242000D01*
X57694285Y-31290380D01*
X57742666Y-31387142D01*
X57742666Y-31532285D01*
X57694285Y-31629047D01*
X57645904Y-31677428D01*
X57549142Y-31725809D01*
X57162095Y-31725809D01*
X58178095Y-31677428D02*
X58516761Y-31677428D01*
X58661904Y-32209619D02*
X58178095Y-32209619D01*
X58178095Y-31193619D01*
X58661904Y-31193619D01*
X59677904Y-32112857D02*
X59629523Y-32161238D01*
X59484380Y-32209619D01*
X59387619Y-32209619D01*
X59242476Y-32161238D01*
X59145714Y-32064476D01*
X59097333Y-31967714D01*
X59048952Y-31774190D01*
X59048952Y-31629047D01*
X59097333Y-31435523D01*
X59145714Y-31338761D01*
X59242476Y-31242000D01*
X59387619Y-31193619D01*
X59484380Y-31193619D01*
X59629523Y-31242000D01*
X59677904Y-31290380D01*
X42303095Y-59617428D02*
X42448238Y-59665809D01*
X42496619Y-59714190D01*
X42545000Y-59810952D01*
X42545000Y-59956095D01*
X42496619Y-60052857D01*
X42448238Y-60101238D01*
X42351476Y-60149619D01*
X41964428Y-60149619D01*
X41964428Y-59133619D01*
X42303095Y-59133619D01*
X42399857Y-59182000D01*
X42448238Y-59230380D01*
X42496619Y-59327142D01*
X42496619Y-59423904D01*
X42448238Y-59520666D01*
X42399857Y-59569047D01*
X42303095Y-59617428D01*
X41964428Y-59617428D01*
X42932047Y-59859333D02*
X43415857Y-59859333D01*
X42835285Y-60149619D02*
X43173952Y-59133619D01*
X43512619Y-60149619D01*
X43706142Y-59133619D02*
X44286714Y-59133619D01*
X43996428Y-60149619D02*
X43996428Y-59133619D01*
X41922095Y-57077428D02*
X42260761Y-57077428D01*
X42405904Y-57609619D02*
X41922095Y-57609619D01*
X41922095Y-56593619D01*
X42405904Y-56593619D01*
X42841333Y-57609619D02*
X42841333Y-56593619D01*
X43421904Y-57609619D01*
X43421904Y-56593619D01*
X41897904Y-54053619D02*
X41897904Y-54876095D01*
X41946285Y-54972857D01*
X41994666Y-55021238D01*
X42091428Y-55069619D01*
X42284952Y-55069619D01*
X42381714Y-55021238D01*
X42430095Y-54972857D01*
X42478476Y-54876095D01*
X42478476Y-54053619D01*
X42913904Y-55021238D02*
X43059047Y-55069619D01*
X43300952Y-55069619D01*
X43397714Y-55021238D01*
X43446095Y-54972857D01*
X43494476Y-54876095D01*
X43494476Y-54779333D01*
X43446095Y-54682571D01*
X43397714Y-54634190D01*
X43300952Y-54585809D01*
X43107428Y-54537428D01*
X43010666Y-54489047D01*
X42962285Y-54440666D01*
X42913904Y-54343904D01*
X42913904Y-54247142D01*
X42962285Y-54150380D01*
X43010666Y-54102000D01*
X43107428Y-54053619D01*
X43349333Y-54053619D01*
X43494476Y-54102000D01*
X44268571Y-54537428D02*
X44413714Y-54585809D01*
X44462095Y-54634190D01*
X44510476Y-54730952D01*
X44510476Y-54876095D01*
X44462095Y-54972857D01*
X44413714Y-55021238D01*
X44316952Y-55069619D01*
X43929904Y-55069619D01*
X43929904Y-54053619D01*
X44268571Y-54053619D01*
X44365333Y-54102000D01*
X44413714Y-54150380D01*
X44462095Y-54247142D01*
X44462095Y-54343904D01*
X44413714Y-54440666D01*
X44365333Y-54489047D01*
X44268571Y-54537428D01*
X43929904Y-54537428D01*
X41946285Y-52529619D02*
X41946285Y-51513619D01*
X42188190Y-51513619D01*
X42333333Y-51562000D01*
X42430095Y-51658761D01*
X42478476Y-51755523D01*
X42526857Y-51949047D01*
X42526857Y-52094190D01*
X42478476Y-52287714D01*
X42430095Y-52384476D01*
X42333333Y-52481238D01*
X42188190Y-52529619D01*
X41946285Y-52529619D01*
X43494476Y-52529619D02*
X42913904Y-52529619D01*
X43204190Y-52529619D02*
X43204190Y-51513619D01*
X43107428Y-51658761D01*
X43010666Y-51755523D01*
X42913904Y-51803904D01*
X43833142Y-51513619D02*
X44462095Y-51513619D01*
X44123428Y-51900666D01*
X44268571Y-51900666D01*
X44365333Y-51949047D01*
X44413714Y-51997428D01*
X44462095Y-52094190D01*
X44462095Y-52336095D01*
X44413714Y-52432857D01*
X44365333Y-52481238D01*
X44268571Y-52529619D01*
X43978285Y-52529619D01*
X43881523Y-52481238D01*
X43833142Y-52432857D01*
X41946285Y-50243619D02*
X41946285Y-49227619D01*
X42188190Y-49227619D01*
X42333333Y-49276000D01*
X42430095Y-49372761D01*
X42478476Y-49469523D01*
X42526857Y-49663047D01*
X42526857Y-49808190D01*
X42478476Y-50001714D01*
X42430095Y-50098476D01*
X42333333Y-50195238D01*
X42188190Y-50243619D01*
X41946285Y-50243619D01*
X43494476Y-50243619D02*
X42913904Y-50243619D01*
X43204190Y-50243619D02*
X43204190Y-49227619D01*
X43107428Y-49372761D01*
X43010666Y-49469523D01*
X42913904Y-49517904D01*
X43881523Y-49324380D02*
X43929904Y-49276000D01*
X44026666Y-49227619D01*
X44268571Y-49227619D01*
X44365333Y-49276000D01*
X44413714Y-49324380D01*
X44462095Y-49421142D01*
X44462095Y-49517904D01*
X44413714Y-49663047D01*
X43833142Y-50243619D01*
X44462095Y-50243619D01*
X41946285Y-47449619D02*
X41946285Y-46433619D01*
X42188190Y-46433619D01*
X42333333Y-46482000D01*
X42430095Y-46578761D01*
X42478476Y-46675523D01*
X42526857Y-46869047D01*
X42526857Y-47014190D01*
X42478476Y-47207714D01*
X42430095Y-47304476D01*
X42333333Y-47401238D01*
X42188190Y-47449619D01*
X41946285Y-47449619D01*
X43494476Y-47449619D02*
X42913904Y-47449619D01*
X43204190Y-47449619D02*
X43204190Y-46433619D01*
X43107428Y-46578761D01*
X43010666Y-46675523D01*
X42913904Y-46723904D01*
X44462095Y-47449619D02*
X43881523Y-47449619D01*
X44171809Y-47449619D02*
X44171809Y-46433619D01*
X44075047Y-46578761D01*
X43978285Y-46675523D01*
X43881523Y-46723904D01*
X41946285Y-44909619D02*
X41946285Y-43893619D01*
X42188190Y-43893619D01*
X42333333Y-43942000D01*
X42430095Y-44038761D01*
X42478476Y-44135523D01*
X42526857Y-44329047D01*
X42526857Y-44474190D01*
X42478476Y-44667714D01*
X42430095Y-44764476D01*
X42333333Y-44861238D01*
X42188190Y-44909619D01*
X41946285Y-44909619D01*
X43494476Y-44909619D02*
X42913904Y-44909619D01*
X43204190Y-44909619D02*
X43204190Y-43893619D01*
X43107428Y-44038761D01*
X43010666Y-44135523D01*
X42913904Y-44183904D01*
X44123428Y-43893619D02*
X44220190Y-43893619D01*
X44316952Y-43942000D01*
X44365333Y-43990380D01*
X44413714Y-44087142D01*
X44462095Y-44280666D01*
X44462095Y-44522571D01*
X44413714Y-44716095D01*
X44365333Y-44812857D01*
X44316952Y-44861238D01*
X44220190Y-44909619D01*
X44123428Y-44909619D01*
X44026666Y-44861238D01*
X43978285Y-44812857D01*
X43929904Y-44716095D01*
X43881523Y-44522571D01*
X43881523Y-44280666D01*
X43929904Y-44087142D01*
X43978285Y-43990380D01*
X44026666Y-43942000D01*
X44123428Y-43893619D01*
X41922095Y-42369619D02*
X41922095Y-41353619D01*
X42164000Y-41353619D01*
X42309142Y-41402000D01*
X42405904Y-41498761D01*
X42454285Y-41595523D01*
X42502666Y-41789047D01*
X42502666Y-41934190D01*
X42454285Y-42127714D01*
X42405904Y-42224476D01*
X42309142Y-42321238D01*
X42164000Y-42369619D01*
X41922095Y-42369619D01*
X42986476Y-42369619D02*
X43180000Y-42369619D01*
X43276761Y-42321238D01*
X43325142Y-42272857D01*
X43421904Y-42127714D01*
X43470285Y-41934190D01*
X43470285Y-41547142D01*
X43421904Y-41450380D01*
X43373523Y-41402000D01*
X43276761Y-41353619D01*
X43083238Y-41353619D01*
X42986476Y-41402000D01*
X42938095Y-41450380D01*
X42889714Y-41547142D01*
X42889714Y-41789047D01*
X42938095Y-41885809D01*
X42986476Y-41934190D01*
X43083238Y-41982571D01*
X43276761Y-41982571D01*
X43373523Y-41934190D01*
X43421904Y-41885809D01*
X43470285Y-41789047D01*
X41922095Y-39829619D02*
X41922095Y-38813619D01*
X42164000Y-38813619D01*
X42309142Y-38862000D01*
X42405904Y-38958761D01*
X42454285Y-39055523D01*
X42502666Y-39249047D01*
X42502666Y-39394190D01*
X42454285Y-39587714D01*
X42405904Y-39684476D01*
X42309142Y-39781238D01*
X42164000Y-39829619D01*
X41922095Y-39829619D01*
X43373523Y-38813619D02*
X43180000Y-38813619D01*
X43083238Y-38862000D01*
X43034857Y-38910380D01*
X42938095Y-39055523D01*
X42889714Y-39249047D01*
X42889714Y-39636095D01*
X42938095Y-39732857D01*
X42986476Y-39781238D01*
X43083238Y-39829619D01*
X43276761Y-39829619D01*
X43373523Y-39781238D01*
X43421904Y-39732857D01*
X43470285Y-39636095D01*
X43470285Y-39394190D01*
X43421904Y-39297428D01*
X43373523Y-39249047D01*
X43276761Y-39200666D01*
X43083238Y-39200666D01*
X42986476Y-39249047D01*
X42938095Y-39297428D01*
X42889714Y-39394190D01*
X41922095Y-37416619D02*
X41922095Y-36400619D01*
X42164000Y-36400619D01*
X42309142Y-36449000D01*
X42405904Y-36545761D01*
X42454285Y-36642523D01*
X42502666Y-36836047D01*
X42502666Y-36981190D01*
X42454285Y-37174714D01*
X42405904Y-37271476D01*
X42309142Y-37368238D01*
X42164000Y-37416619D01*
X41922095Y-37416619D01*
X43421904Y-36400619D02*
X42938095Y-36400619D01*
X42889714Y-36884428D01*
X42938095Y-36836047D01*
X43034857Y-36787666D01*
X43276761Y-36787666D01*
X43373523Y-36836047D01*
X43421904Y-36884428D01*
X43470285Y-36981190D01*
X43470285Y-37223095D01*
X43421904Y-37319857D01*
X43373523Y-37368238D01*
X43276761Y-37416619D01*
X43034857Y-37416619D01*
X42938095Y-37368238D01*
X42889714Y-37319857D01*
X41970476Y-34701238D02*
X42115619Y-34749619D01*
X42357523Y-34749619D01*
X42454285Y-34701238D01*
X42502666Y-34652857D01*
X42551047Y-34556095D01*
X42551047Y-34459333D01*
X42502666Y-34362571D01*
X42454285Y-34314190D01*
X42357523Y-34265809D01*
X42164000Y-34217428D01*
X42067238Y-34169047D01*
X42018857Y-34120666D01*
X41970476Y-34023904D01*
X41970476Y-33927142D01*
X42018857Y-33830380D01*
X42067238Y-33782000D01*
X42164000Y-33733619D01*
X42405904Y-33733619D01*
X42551047Y-33782000D01*
X43567047Y-34652857D02*
X43518666Y-34701238D01*
X43373523Y-34749619D01*
X43276761Y-34749619D01*
X43131619Y-34701238D01*
X43034857Y-34604476D01*
X42986476Y-34507714D01*
X42938095Y-34314190D01*
X42938095Y-34169047D01*
X42986476Y-33975523D01*
X43034857Y-33878761D01*
X43131619Y-33782000D01*
X43276761Y-33733619D01*
X43373523Y-33733619D01*
X43518666Y-33782000D01*
X43567047Y-33830380D01*
X44486285Y-34749619D02*
X44002476Y-34749619D01*
X44002476Y-33733619D01*
X41946285Y-32161238D02*
X42091428Y-32209619D01*
X42333333Y-32209619D01*
X42430095Y-32161238D01*
X42478476Y-32112857D01*
X42526857Y-32016095D01*
X42526857Y-31919333D01*
X42478476Y-31822571D01*
X42430095Y-31774190D01*
X42333333Y-31725809D01*
X42139809Y-31677428D01*
X42043047Y-31629047D01*
X41994666Y-31580666D01*
X41946285Y-31483904D01*
X41946285Y-31387142D01*
X41994666Y-31290380D01*
X42043047Y-31242000D01*
X42139809Y-31193619D01*
X42381714Y-31193619D01*
X42526857Y-31242000D01*
X42962285Y-32209619D02*
X42962285Y-31193619D01*
X43204190Y-31193619D01*
X43349333Y-31242000D01*
X43446095Y-31338761D01*
X43494476Y-31435523D01*
X43542857Y-31629047D01*
X43542857Y-31774190D01*
X43494476Y-31967714D01*
X43446095Y-32064476D01*
X43349333Y-32161238D01*
X43204190Y-32209619D01*
X42962285Y-32209619D01*
X43929904Y-31919333D02*
X44413714Y-31919333D01*
X43833142Y-32209619D02*
X44171809Y-31193619D01*
X44510476Y-32209619D01*
G04 #@! TO.C,J1*
D14*
X43815000Y-70702714D02*
X43815000Y-71247000D01*
X43778714Y-71355857D01*
X43706142Y-71428428D01*
X43597285Y-71464714D01*
X43524714Y-71464714D01*
X44577000Y-71464714D02*
X44141571Y-71464714D01*
X44359285Y-71464714D02*
X44359285Y-70702714D01*
X44286714Y-70811571D01*
X44214142Y-70884142D01*
X44141571Y-70920428D01*
G04 #@! TO.C,C1*
X56025142Y-51816000D02*
X56061428Y-51852285D01*
X56097714Y-51961142D01*
X56097714Y-52033714D01*
X56061428Y-52142571D01*
X55988857Y-52215142D01*
X55916285Y-52251428D01*
X55771142Y-52287714D01*
X55662285Y-52287714D01*
X55517142Y-52251428D01*
X55444571Y-52215142D01*
X55372000Y-52142571D01*
X55335714Y-52033714D01*
X55335714Y-51961142D01*
X55372000Y-51852285D01*
X55408285Y-51816000D01*
X56097714Y-51090285D02*
X56097714Y-51525714D01*
X56097714Y-51308000D02*
X55335714Y-51308000D01*
X55444571Y-51380571D01*
X55517142Y-51453142D01*
X55553428Y-51525714D01*
X54065714Y-50527857D02*
X54065714Y-50455285D01*
X54102000Y-50382714D01*
X54138285Y-50346428D01*
X54210857Y-50310142D01*
X54356000Y-50273857D01*
X54537428Y-50273857D01*
X54682571Y-50310142D01*
X54755142Y-50346428D01*
X54791428Y-50382714D01*
X54827714Y-50455285D01*
X54827714Y-50527857D01*
X54791428Y-50600428D01*
X54755142Y-50636714D01*
X54682571Y-50673000D01*
X54537428Y-50709285D01*
X54356000Y-50709285D01*
X54210857Y-50673000D01*
X54138285Y-50636714D01*
X54102000Y-50600428D01*
X54065714Y-50527857D01*
X54755142Y-49947285D02*
X54791428Y-49911000D01*
X54827714Y-49947285D01*
X54791428Y-49983571D01*
X54755142Y-49947285D01*
X54827714Y-49947285D01*
X54827714Y-49185285D02*
X54827714Y-49620714D01*
X54827714Y-49403000D02*
X54065714Y-49403000D01*
X54174571Y-49475571D01*
X54247142Y-49548142D01*
X54283428Y-49620714D01*
X54319714Y-48532142D02*
X54827714Y-48532142D01*
X54319714Y-48858714D02*
X54718857Y-48858714D01*
X54791428Y-48822428D01*
X54827714Y-48749857D01*
X54827714Y-48641000D01*
X54791428Y-48568428D01*
X54755142Y-48532142D01*
X54428571Y-47915285D02*
X54428571Y-48169285D01*
X54827714Y-48169285D02*
X54065714Y-48169285D01*
X54065714Y-47806428D01*
G04 #@! TO.C,C2*
X55263142Y-42672000D02*
X55299428Y-42708285D01*
X55335714Y-42817142D01*
X55335714Y-42889714D01*
X55299428Y-42998571D01*
X55226857Y-43071142D01*
X55154285Y-43107428D01*
X55009142Y-43143714D01*
X54900285Y-43143714D01*
X54755142Y-43107428D01*
X54682571Y-43071142D01*
X54610000Y-42998571D01*
X54573714Y-42889714D01*
X54573714Y-42817142D01*
X54610000Y-42708285D01*
X54646285Y-42672000D01*
X54646285Y-42381714D02*
X54610000Y-42345428D01*
X54573714Y-42272857D01*
X54573714Y-42091428D01*
X54610000Y-42018857D01*
X54646285Y-41982571D01*
X54718857Y-41946285D01*
X54791428Y-41946285D01*
X54900285Y-41982571D01*
X55335714Y-42418000D01*
X55335714Y-41946285D01*
X54827714Y-45411571D02*
X54827714Y-45847000D01*
X54827714Y-45629285D02*
X54065714Y-45629285D01*
X54174571Y-45701857D01*
X54247142Y-45774428D01*
X54283428Y-45847000D01*
X54319714Y-44758428D02*
X54827714Y-44758428D01*
X54319714Y-45085000D02*
X54718857Y-45085000D01*
X54791428Y-45048714D01*
X54827714Y-44976142D01*
X54827714Y-44867285D01*
X54791428Y-44794714D01*
X54755142Y-44758428D01*
X54428571Y-44141571D02*
X54428571Y-44395571D01*
X54827714Y-44395571D02*
X54065714Y-44395571D01*
X54065714Y-44032714D01*
G04 #@! TO.C,C3*
X55753000Y-59835142D02*
X55716714Y-59871428D01*
X55607857Y-59907714D01*
X55535285Y-59907714D01*
X55426428Y-59871428D01*
X55353857Y-59798857D01*
X55317571Y-59726285D01*
X55281285Y-59581142D01*
X55281285Y-59472285D01*
X55317571Y-59327142D01*
X55353857Y-59254571D01*
X55426428Y-59182000D01*
X55535285Y-59145714D01*
X55607857Y-59145714D01*
X55716714Y-59182000D01*
X55753000Y-59218285D01*
X56007000Y-59145714D02*
X56478714Y-59145714D01*
X56224714Y-59436000D01*
X56333571Y-59436000D01*
X56406142Y-59472285D01*
X56442428Y-59508571D01*
X56478714Y-59581142D01*
X56478714Y-59762571D01*
X56442428Y-59835142D01*
X56406142Y-59871428D01*
X56333571Y-59907714D01*
X56115857Y-59907714D01*
X56043285Y-59871428D01*
X56007000Y-59835142D01*
G04 #@! TO.C,C5*
X48641000Y-41420142D02*
X48604714Y-41456428D01*
X48495857Y-41492714D01*
X48423285Y-41492714D01*
X48314428Y-41456428D01*
X48241857Y-41383857D01*
X48205571Y-41311285D01*
X48169285Y-41166142D01*
X48169285Y-41057285D01*
X48205571Y-40912142D01*
X48241857Y-40839571D01*
X48314428Y-40767000D01*
X48423285Y-40730714D01*
X48495857Y-40730714D01*
X48604714Y-40767000D01*
X48641000Y-40803285D01*
X49330428Y-40730714D02*
X48967571Y-40730714D01*
X48931285Y-41093571D01*
X48967571Y-41057285D01*
X49040142Y-41021000D01*
X49221571Y-41021000D01*
X49294142Y-41057285D01*
X49330428Y-41093571D01*
X49366714Y-41166142D01*
X49366714Y-41347571D01*
X49330428Y-41420142D01*
X49294142Y-41456428D01*
X49221571Y-41492714D01*
X49040142Y-41492714D01*
X48967571Y-41456428D01*
X48931285Y-41420142D01*
X45538571Y-40222714D02*
X45103142Y-40222714D01*
X45320857Y-40222714D02*
X45320857Y-39460714D01*
X45248285Y-39569571D01*
X45175714Y-39642142D01*
X45103142Y-39678428D01*
X46010285Y-39460714D02*
X46082857Y-39460714D01*
X46155428Y-39497000D01*
X46191714Y-39533285D01*
X46228000Y-39605857D01*
X46264285Y-39751000D01*
X46264285Y-39932428D01*
X46228000Y-40077571D01*
X46191714Y-40150142D01*
X46155428Y-40186428D01*
X46082857Y-40222714D01*
X46010285Y-40222714D01*
X45937714Y-40186428D01*
X45901428Y-40150142D01*
X45865142Y-40077571D01*
X45828857Y-39932428D01*
X45828857Y-39751000D01*
X45865142Y-39605857D01*
X45901428Y-39533285D01*
X45937714Y-39497000D01*
X46010285Y-39460714D01*
X46590857Y-39714714D02*
X46590857Y-40222714D01*
X46590857Y-39787285D02*
X46627142Y-39751000D01*
X46699714Y-39714714D01*
X46808571Y-39714714D01*
X46881142Y-39751000D01*
X46917428Y-39823571D01*
X46917428Y-40222714D01*
X47534285Y-39823571D02*
X47280285Y-39823571D01*
X47280285Y-40222714D02*
X47280285Y-39460714D01*
X47643142Y-39460714D01*
G04 #@! TO.C,J2*
X45302714Y-64643000D02*
X45847000Y-64643000D01*
X45955857Y-64679285D01*
X46028428Y-64751857D01*
X46064714Y-64860714D01*
X46064714Y-64933285D01*
X45375285Y-64316428D02*
X45339000Y-64280142D01*
X45302714Y-64207571D01*
X45302714Y-64026142D01*
X45339000Y-63953571D01*
X45375285Y-63917285D01*
X45447857Y-63881000D01*
X45520428Y-63881000D01*
X45629285Y-63917285D01*
X46064714Y-64352714D01*
X46064714Y-63881000D01*
G04 #@! TO.C,J3*
X46782714Y-27940000D02*
X47327000Y-27940000D01*
X47435857Y-27976285D01*
X47508428Y-28048857D01*
X47544714Y-28157714D01*
X47544714Y-28230285D01*
X46782714Y-27649714D02*
X46782714Y-27178000D01*
X47073000Y-27432000D01*
X47073000Y-27323142D01*
X47109285Y-27250571D01*
X47145571Y-27214285D01*
X47218142Y-27178000D01*
X47399571Y-27178000D01*
X47472142Y-27214285D01*
X47508428Y-27250571D01*
X47544714Y-27323142D01*
X47544714Y-27540857D01*
X47508428Y-27613428D01*
X47472142Y-27649714D01*
G04 #@! TO.C,R1*
X49276000Y-56224714D02*
X49022000Y-55861857D01*
X48840571Y-56224714D02*
X48840571Y-55462714D01*
X49130857Y-55462714D01*
X49203428Y-55499000D01*
X49239714Y-55535285D01*
X49276000Y-55607857D01*
X49276000Y-55716714D01*
X49239714Y-55789285D01*
X49203428Y-55825571D01*
X49130857Y-55861857D01*
X48840571Y-55861857D01*
X50001714Y-56224714D02*
X49566285Y-56224714D01*
X49784000Y-56224714D02*
X49784000Y-55462714D01*
X49711428Y-55571571D01*
X49638857Y-55644142D01*
X49566285Y-55680428D01*
X46536428Y-54954714D02*
X46101000Y-54954714D01*
X46318714Y-54954714D02*
X46318714Y-54192714D01*
X46246142Y-54301571D01*
X46173571Y-54374142D01*
X46101000Y-54410428D01*
X47008142Y-54192714D02*
X47080714Y-54192714D01*
X47153285Y-54229000D01*
X47189571Y-54265285D01*
X47225857Y-54337857D01*
X47262142Y-54483000D01*
X47262142Y-54664428D01*
X47225857Y-54809571D01*
X47189571Y-54882142D01*
X47153285Y-54918428D01*
X47080714Y-54954714D01*
X47008142Y-54954714D01*
X46935571Y-54918428D01*
X46899285Y-54882142D01*
X46863000Y-54809571D01*
X46826714Y-54664428D01*
X46826714Y-54483000D01*
X46863000Y-54337857D01*
X46899285Y-54265285D01*
X46935571Y-54229000D01*
X47008142Y-54192714D01*
X47588714Y-54954714D02*
X47588714Y-54192714D01*
X47661285Y-54664428D02*
X47879000Y-54954714D01*
X47879000Y-54446714D02*
X47588714Y-54737000D01*
G04 #@! TO.C,R2*
X49276000Y-59780714D02*
X49022000Y-59417857D01*
X48840571Y-59780714D02*
X48840571Y-59018714D01*
X49130857Y-59018714D01*
X49203428Y-59055000D01*
X49239714Y-59091285D01*
X49276000Y-59163857D01*
X49276000Y-59272714D01*
X49239714Y-59345285D01*
X49203428Y-59381571D01*
X49130857Y-59417857D01*
X48840571Y-59417857D01*
X49566285Y-59091285D02*
X49602571Y-59055000D01*
X49675142Y-59018714D01*
X49856571Y-59018714D01*
X49929142Y-59055000D01*
X49965428Y-59091285D01*
X50001714Y-59163857D01*
X50001714Y-59236428D01*
X49965428Y-59345285D01*
X49530000Y-59780714D01*
X50001714Y-59780714D01*
X46550428Y-58350714D02*
X46115000Y-58350714D01*
X46332714Y-58350714D02*
X46332714Y-57588714D01*
X46260142Y-57697571D01*
X46187571Y-57770142D01*
X46115000Y-57806428D01*
X47022142Y-57588714D02*
X47094714Y-57588714D01*
X47167285Y-57625000D01*
X47203571Y-57661285D01*
X47239857Y-57733857D01*
X47276142Y-57879000D01*
X47276142Y-58060428D01*
X47239857Y-58205571D01*
X47203571Y-58278142D01*
X47167285Y-58314428D01*
X47094714Y-58350714D01*
X47022142Y-58350714D01*
X46949571Y-58314428D01*
X46913285Y-58278142D01*
X46877000Y-58205571D01*
X46840714Y-58060428D01*
X46840714Y-57879000D01*
X46877000Y-57733857D01*
X46913285Y-57661285D01*
X46949571Y-57625000D01*
X47022142Y-57588714D01*
X47602714Y-58350714D02*
X47602714Y-57588714D01*
X47675285Y-58060428D02*
X47893000Y-58350714D01*
X47893000Y-57842714D02*
X47602714Y-58133000D01*
G04 #@! TO.C,R3*
X55753000Y-56224714D02*
X55499000Y-55861857D01*
X55317571Y-56224714D02*
X55317571Y-55462714D01*
X55607857Y-55462714D01*
X55680428Y-55499000D01*
X55716714Y-55535285D01*
X55753000Y-55607857D01*
X55753000Y-55716714D01*
X55716714Y-55789285D01*
X55680428Y-55825571D01*
X55607857Y-55861857D01*
X55317571Y-55861857D01*
X56007000Y-55462714D02*
X56478714Y-55462714D01*
X56224714Y-55753000D01*
X56333571Y-55753000D01*
X56406142Y-55789285D01*
X56442428Y-55825571D01*
X56478714Y-55898142D01*
X56478714Y-56079571D01*
X56442428Y-56152142D01*
X56406142Y-56188428D01*
X56333571Y-56224714D01*
X56115857Y-56224714D01*
X56043285Y-56188428D01*
X56007000Y-56152142D01*
G04 #@! TO.C,R4*
X51435000Y-36666714D02*
X51181000Y-36303857D01*
X50999571Y-36666714D02*
X50999571Y-35904714D01*
X51289857Y-35904714D01*
X51362428Y-35941000D01*
X51398714Y-35977285D01*
X51435000Y-36049857D01*
X51435000Y-36158714D01*
X51398714Y-36231285D01*
X51362428Y-36267571D01*
X51289857Y-36303857D01*
X50999571Y-36303857D01*
X52088142Y-36158714D02*
X52088142Y-36666714D01*
X51906714Y-35868428D02*
X51725285Y-36412714D01*
X52197000Y-36412714D01*
X53448857Y-35396714D02*
X53013428Y-35396714D01*
X53231142Y-35396714D02*
X53231142Y-34634714D01*
X53158571Y-34743571D01*
X53086000Y-34816142D01*
X53013428Y-34852428D01*
X53920571Y-34634714D02*
X53993142Y-34634714D01*
X54065714Y-34671000D01*
X54102000Y-34707285D01*
X54138285Y-34779857D01*
X54174571Y-34925000D01*
X54174571Y-35106428D01*
X54138285Y-35251571D01*
X54102000Y-35324142D01*
X54065714Y-35360428D01*
X53993142Y-35396714D01*
X53920571Y-35396714D01*
X53848000Y-35360428D01*
X53811714Y-35324142D01*
X53775428Y-35251571D01*
X53739142Y-35106428D01*
X53739142Y-34925000D01*
X53775428Y-34779857D01*
X53811714Y-34707285D01*
X53848000Y-34671000D01*
X53920571Y-34634714D01*
X54501142Y-35396714D02*
X54501142Y-34634714D01*
X54936571Y-35396714D02*
X54610000Y-34961285D01*
X54936571Y-34634714D02*
X54501142Y-35070142D01*
G04 #@! TO.C,R5*
X51308000Y-39714714D02*
X51054000Y-39351857D01*
X50872571Y-39714714D02*
X50872571Y-38952714D01*
X51162857Y-38952714D01*
X51235428Y-38989000D01*
X51271714Y-39025285D01*
X51308000Y-39097857D01*
X51308000Y-39206714D01*
X51271714Y-39279285D01*
X51235428Y-39315571D01*
X51162857Y-39351857D01*
X50872571Y-39351857D01*
X51997428Y-38952714D02*
X51634571Y-38952714D01*
X51598285Y-39315571D01*
X51634571Y-39279285D01*
X51707142Y-39243000D01*
X51888571Y-39243000D01*
X51961142Y-39279285D01*
X51997428Y-39315571D01*
X52033714Y-39388142D01*
X52033714Y-39569571D01*
X51997428Y-39642142D01*
X51961142Y-39678428D01*
X51888571Y-39714714D01*
X51707142Y-39714714D01*
X51634571Y-39678428D01*
X51598285Y-39642142D01*
X53321857Y-38444714D02*
X52886428Y-38444714D01*
X53104142Y-38444714D02*
X53104142Y-37682714D01*
X53031571Y-37791571D01*
X52959000Y-37864142D01*
X52886428Y-37900428D01*
X53793571Y-37682714D02*
X53866142Y-37682714D01*
X53938714Y-37719000D01*
X53975000Y-37755285D01*
X54011285Y-37827857D01*
X54047571Y-37973000D01*
X54047571Y-38154428D01*
X54011285Y-38299571D01*
X53975000Y-38372142D01*
X53938714Y-38408428D01*
X53866142Y-38444714D01*
X53793571Y-38444714D01*
X53721000Y-38408428D01*
X53684714Y-38372142D01*
X53648428Y-38299571D01*
X53612142Y-38154428D01*
X53612142Y-37973000D01*
X53648428Y-37827857D01*
X53684714Y-37755285D01*
X53721000Y-37719000D01*
X53793571Y-37682714D01*
X54374142Y-38444714D02*
X54374142Y-37682714D01*
X54809571Y-38444714D02*
X54483000Y-38009285D01*
X54809571Y-37682714D02*
X54374142Y-38118142D01*
G04 #@! TO.C,U2*
X48568428Y-38952714D02*
X48568428Y-39569571D01*
X48604714Y-39642142D01*
X48641000Y-39678428D01*
X48713571Y-39714714D01*
X48858714Y-39714714D01*
X48931285Y-39678428D01*
X48967571Y-39642142D01*
X49003857Y-39569571D01*
X49003857Y-38952714D01*
X49330428Y-39025285D02*
X49366714Y-38989000D01*
X49439285Y-38952714D01*
X49620714Y-38952714D01*
X49693285Y-38989000D01*
X49729571Y-39025285D01*
X49765857Y-39097857D01*
X49765857Y-39170428D01*
X49729571Y-39279285D01*
X49294142Y-39714714D01*
X49765857Y-39714714D01*
X45212000Y-34671000D02*
X45574857Y-34671000D01*
X45139428Y-34888714D02*
X45393428Y-34126714D01*
X45647428Y-34888714D01*
X45901428Y-34888714D02*
X45901428Y-34126714D01*
X46082857Y-34126714D01*
X46191714Y-34163000D01*
X46264285Y-34235571D01*
X46300571Y-34308142D01*
X46336857Y-34453285D01*
X46336857Y-34562142D01*
X46300571Y-34707285D01*
X46264285Y-34779857D01*
X46191714Y-34852428D01*
X46082857Y-34888714D01*
X45901428Y-34888714D01*
X47062571Y-34163000D02*
X46990000Y-34126714D01*
X46881142Y-34126714D01*
X46772285Y-34163000D01*
X46699714Y-34235571D01*
X46663428Y-34308142D01*
X46627142Y-34453285D01*
X46627142Y-34562142D01*
X46663428Y-34707285D01*
X46699714Y-34779857D01*
X46772285Y-34852428D01*
X46881142Y-34888714D01*
X46953714Y-34888714D01*
X47062571Y-34852428D01*
X47098857Y-34816142D01*
X47098857Y-34562142D01*
X46953714Y-34562142D01*
X47352857Y-34126714D02*
X47860857Y-34126714D01*
X47534285Y-34888714D01*
X48296285Y-34126714D02*
X48368857Y-34126714D01*
X48441428Y-34163000D01*
X48477714Y-34199285D01*
X48514000Y-34271857D01*
X48550285Y-34417000D01*
X48550285Y-34598428D01*
X48514000Y-34743571D01*
X48477714Y-34816142D01*
X48441428Y-34852428D01*
X48368857Y-34888714D01*
X48296285Y-34888714D01*
X48223714Y-34852428D01*
X48187428Y-34816142D01*
X48151142Y-34743571D01*
X48114857Y-34598428D01*
X48114857Y-34417000D01*
X48151142Y-34271857D01*
X48187428Y-34199285D01*
X48223714Y-34163000D01*
X48296285Y-34126714D01*
X48840571Y-34199285D02*
X48876857Y-34163000D01*
X48949428Y-34126714D01*
X49130857Y-34126714D01*
X49203428Y-34163000D01*
X49239714Y-34199285D01*
X49276000Y-34271857D01*
X49276000Y-34344428D01*
X49239714Y-34453285D01*
X48804285Y-34888714D01*
X49276000Y-34888714D01*
G04 #@! TO.C,U3*
X48949428Y-52922714D02*
X48949428Y-53539571D01*
X48985714Y-53612142D01*
X49022000Y-53648428D01*
X49094571Y-53684714D01*
X49239714Y-53684714D01*
X49312285Y-53648428D01*
X49348571Y-53612142D01*
X49384857Y-53539571D01*
X49384857Y-52922714D01*
X49675142Y-52922714D02*
X50146857Y-52922714D01*
X49892857Y-53213000D01*
X50001714Y-53213000D01*
X50074285Y-53249285D01*
X50110571Y-53285571D01*
X50146857Y-53358142D01*
X50146857Y-53539571D01*
X50110571Y-53612142D01*
X50074285Y-53648428D01*
X50001714Y-53684714D01*
X49784000Y-53684714D01*
X49711428Y-53648428D01*
X49675142Y-53612142D01*
X47316571Y-43270714D02*
X47316571Y-42508714D01*
X47570571Y-43053000D01*
X47824571Y-42508714D01*
X47824571Y-43270714D01*
X48622857Y-43198142D02*
X48586571Y-43234428D01*
X48477714Y-43270714D01*
X48405142Y-43270714D01*
X48296285Y-43234428D01*
X48223714Y-43161857D01*
X48187428Y-43089285D01*
X48151142Y-42944142D01*
X48151142Y-42835285D01*
X48187428Y-42690142D01*
X48223714Y-42617571D01*
X48296285Y-42545000D01*
X48405142Y-42508714D01*
X48477714Y-42508714D01*
X48586571Y-42545000D01*
X48622857Y-42581285D01*
X48949428Y-43270714D02*
X48949428Y-42508714D01*
X49239714Y-42508714D01*
X49312285Y-42545000D01*
X49348571Y-42581285D01*
X49384857Y-42653857D01*
X49384857Y-42762714D01*
X49348571Y-42835285D01*
X49312285Y-42871571D01*
X49239714Y-42907857D01*
X48949428Y-42907857D01*
X50038000Y-42508714D02*
X49892857Y-42508714D01*
X49820285Y-42545000D01*
X49784000Y-42581285D01*
X49711428Y-42690142D01*
X49675142Y-42835285D01*
X49675142Y-43125571D01*
X49711428Y-43198142D01*
X49747714Y-43234428D01*
X49820285Y-43270714D01*
X49965428Y-43270714D01*
X50038000Y-43234428D01*
X50074285Y-43198142D01*
X50110571Y-43125571D01*
X50110571Y-42944142D01*
X50074285Y-42871571D01*
X50038000Y-42835285D01*
X49965428Y-42799000D01*
X49820285Y-42799000D01*
X49747714Y-42835285D01*
X49711428Y-42871571D01*
X49675142Y-42944142D01*
X50582285Y-42508714D02*
X50654857Y-42508714D01*
X50727428Y-42545000D01*
X50763714Y-42581285D01*
X50800000Y-42653857D01*
X50836285Y-42799000D01*
X50836285Y-42980428D01*
X50800000Y-43125571D01*
X50763714Y-43198142D01*
X50727428Y-43234428D01*
X50654857Y-43270714D01*
X50582285Y-43270714D01*
X50509714Y-43234428D01*
X50473428Y-43198142D01*
X50437142Y-43125571D01*
X50400857Y-42980428D01*
X50400857Y-42799000D01*
X50437142Y-42653857D01*
X50473428Y-42581285D01*
X50509714Y-42545000D01*
X50582285Y-42508714D01*
X51308000Y-42508714D02*
X51380571Y-42508714D01*
X51453142Y-42545000D01*
X51489428Y-42581285D01*
X51525714Y-42653857D01*
X51562000Y-42799000D01*
X51562000Y-42980428D01*
X51525714Y-43125571D01*
X51489428Y-43198142D01*
X51453142Y-43234428D01*
X51380571Y-43270714D01*
X51308000Y-43270714D01*
X51235428Y-43234428D01*
X51199142Y-43198142D01*
X51162857Y-43125571D01*
X51126571Y-42980428D01*
X51126571Y-42799000D01*
X51162857Y-42653857D01*
X51199142Y-42581285D01*
X51235428Y-42545000D01*
X51308000Y-42508714D01*
X52215142Y-42762714D02*
X52215142Y-43270714D01*
X52033714Y-42472428D02*
X51852285Y-43016714D01*
X52324000Y-43016714D01*
G04 #@! TO.C,C4*
X49403000Y-32657142D02*
X49366714Y-32693428D01*
X49257857Y-32729714D01*
X49185285Y-32729714D01*
X49076428Y-32693428D01*
X49003857Y-32620857D01*
X48967571Y-32548285D01*
X48931285Y-32403142D01*
X48931285Y-32294285D01*
X48967571Y-32149142D01*
X49003857Y-32076571D01*
X49076428Y-32004000D01*
X49185285Y-31967714D01*
X49257857Y-31967714D01*
X49366714Y-32004000D01*
X49403000Y-32040285D01*
X50056142Y-32221714D02*
X50056142Y-32729714D01*
X49874714Y-31931428D02*
X49693285Y-32475714D01*
X50165000Y-32475714D01*
G04 #@! TD*
M02*
