M48
;DRILL file {KiCad 5.0.2-bee76a0~70~ubuntu18.04.1} date Wed 01 Apr 2020 05:28:42 PM PDT
;FORMAT={-:-/ absolute / inch / decimal}
FMAT,2
INCH,TZ
T1C0.0157
T2C0.0394
T3C0.0420
T4C0.0472
T5C0.1000
%
G90
G05
T1
X1.8259Y-1.678
X1.8996Y-2.04
X1.9019Y-1.8698
X1.9289Y-2.2
X2.0986Y-2.106
T2
X1.9Y-2.53
X2.Y-2.53
X2.1Y-2.53
X1.95Y-1.09
X2.05Y-1.09
T3
X1.6Y-1.25
X1.6Y-1.35
X1.6Y-1.45
X1.6Y-1.55
X1.6Y-1.65
X1.6Y-1.75
X1.6Y-1.85
X1.6Y-1.95
X1.6Y-2.05
X1.6Y-2.15
X1.6Y-2.25
X1.6Y-2.35
X2.4Y-1.25
X2.4Y-1.35
X2.4Y-1.45
X2.4Y-1.55
X2.4Y-1.65
X2.4Y-1.75
X2.4Y-1.85
X2.4Y-1.95
X2.4Y-2.05
X2.4Y-2.15
X2.4Y-2.25
X2.4Y-2.35
X2.4Y-2.45
X2.4Y-2.55
X2.4Y-2.65
X2.4Y-2.75
T4
X1.8622Y-2.86
X2.Y-2.86
X2.1378Y-2.86
T5
X1.65Y-2.9
X2.35Y-2.9
T0
M30
