G04 #@! TF.GenerationSoftware,KiCad,Pcbnew,5.1.7-a382d34a8~87~ubuntu18.04.1*
G04 #@! TF.CreationDate,2021-10-03T14:58:42-07:00*
G04 #@! TF.ProjectId,potentiostat_featherwing,706f7465-6e74-4696-9f73-7461745f6665,rev?*
G04 #@! TF.SameCoordinates,Original*
G04 #@! TF.FileFunction,Legend,Bot*
G04 #@! TF.FilePolarity,Positive*
%FSLAX46Y46*%
G04 Gerber Fmt 4.6, Leading zero omitted, Abs format (unit mm)*
G04 Created by KiCad (PCBNEW 5.1.7-a382d34a8~87~ubuntu18.04.1) date 2021-10-03 14:58:42*
%MOMM*%
%LPD*%
G01*
G04 APERTURE LIST*
%ADD10C,0.203200*%
%ADD11C,0.120000*%
G04 APERTURE END LIST*
D10*
X52914247Y-42529276D02*
X52914247Y-43303371D01*
X53301295Y-42916323D02*
X52527200Y-42916323D01*
X53494819Y-43303371D02*
X53494819Y-42529276D01*
X53494819Y-44319371D02*
X53494819Y-43738800D01*
X53494819Y-44029085D02*
X52478819Y-44029085D01*
X52623961Y-43932323D01*
X52720723Y-43835561D01*
X52769104Y-43738800D01*
X52478819Y-44948323D02*
X52478819Y-45045085D01*
X52527200Y-45141847D01*
X52575580Y-45190228D01*
X52672342Y-45238609D01*
X52865866Y-45286990D01*
X53107771Y-45286990D01*
X53301295Y-45238609D01*
X53398057Y-45190228D01*
X53446438Y-45141847D01*
X53494819Y-45045085D01*
X53494819Y-44948323D01*
X53446438Y-44851561D01*
X53398057Y-44803180D01*
X53301295Y-44754800D01*
X53107771Y-44706419D01*
X52865866Y-44706419D01*
X52672342Y-44754800D01*
X52575580Y-44803180D01*
X52527200Y-44851561D01*
X52478819Y-44948323D01*
X52478819Y-45915942D02*
X52478819Y-46012704D01*
X52527200Y-46109466D01*
X52575580Y-46157847D01*
X52672342Y-46206228D01*
X52865866Y-46254609D01*
X53107771Y-46254609D01*
X53301295Y-46206228D01*
X53398057Y-46157847D01*
X53446438Y-46109466D01*
X53494819Y-46012704D01*
X53494819Y-45915942D01*
X53446438Y-45819180D01*
X53398057Y-45770800D01*
X53301295Y-45722419D01*
X53107771Y-45674038D01*
X52865866Y-45674038D01*
X52672342Y-45722419D01*
X52575580Y-45770800D01*
X52527200Y-45819180D01*
X52478819Y-45915942D01*
X52817485Y-47125466D02*
X53494819Y-47125466D01*
X52817485Y-46690038D02*
X53349676Y-46690038D01*
X53446438Y-46738419D01*
X53494819Y-46835180D01*
X53494819Y-46980323D01*
X53446438Y-47077085D01*
X53398057Y-47125466D01*
X53204533Y-47560895D02*
X53204533Y-48044704D01*
X53494819Y-47464133D02*
X52478819Y-47802800D01*
X53494819Y-48141466D01*
X49964219Y-33634438D02*
X49480409Y-33295771D01*
X49964219Y-33053866D02*
X48948219Y-33053866D01*
X48948219Y-33440914D01*
X48996600Y-33537676D01*
X49044980Y-33586057D01*
X49141742Y-33634438D01*
X49286885Y-33634438D01*
X49383647Y-33586057D01*
X49432028Y-33537676D01*
X49480409Y-33440914D01*
X49480409Y-33053866D01*
X49964219Y-34215009D02*
X49915838Y-34118247D01*
X49867457Y-34069866D01*
X49770695Y-34021485D01*
X49480409Y-34021485D01*
X49383647Y-34069866D01*
X49335266Y-34118247D01*
X49286885Y-34215009D01*
X49286885Y-34360152D01*
X49335266Y-34456914D01*
X49383647Y-34505295D01*
X49480409Y-34553676D01*
X49770695Y-34553676D01*
X49867457Y-34505295D01*
X49915838Y-34456914D01*
X49964219Y-34360152D01*
X49964219Y-34215009D01*
X49964219Y-35424533D02*
X48948219Y-35424533D01*
X49915838Y-35424533D02*
X49964219Y-35327771D01*
X49964219Y-35134247D01*
X49915838Y-35037485D01*
X49867457Y-34989104D01*
X49770695Y-34940723D01*
X49480409Y-34940723D01*
X49383647Y-34989104D01*
X49335266Y-35037485D01*
X49286885Y-35134247D01*
X49286885Y-35327771D01*
X49335266Y-35424533D01*
X49915838Y-36295390D02*
X49964219Y-36198628D01*
X49964219Y-36005104D01*
X49915838Y-35908342D01*
X49819076Y-35859961D01*
X49432028Y-35859961D01*
X49335266Y-35908342D01*
X49286885Y-36005104D01*
X49286885Y-36198628D01*
X49335266Y-36295390D01*
X49432028Y-36343771D01*
X49528790Y-36343771D01*
X49625552Y-35859961D01*
X49964219Y-36924342D02*
X49915838Y-36827580D01*
X49867457Y-36779200D01*
X49770695Y-36730819D01*
X49480409Y-36730819D01*
X49383647Y-36779200D01*
X49335266Y-36827580D01*
X49286885Y-36924342D01*
X49286885Y-37069485D01*
X49335266Y-37166247D01*
X49383647Y-37214628D01*
X49480409Y-37263009D01*
X49770695Y-37263009D01*
X49867457Y-37214628D01*
X49915838Y-37166247D01*
X49964219Y-37069485D01*
X49964219Y-36924342D01*
X49915838Y-37650057D02*
X49964219Y-37746819D01*
X49964219Y-37940342D01*
X49915838Y-38037104D01*
X49819076Y-38085485D01*
X49770695Y-38085485D01*
X49673933Y-38037104D01*
X49625552Y-37940342D01*
X49625552Y-37795200D01*
X49577171Y-37698438D01*
X49480409Y-37650057D01*
X49432028Y-37650057D01*
X49335266Y-37698438D01*
X49286885Y-37795200D01*
X49286885Y-37940342D01*
X49335266Y-38037104D01*
X49286885Y-38375771D02*
X49286885Y-38762819D01*
X48948219Y-38520914D02*
X49819076Y-38520914D01*
X49915838Y-38569295D01*
X49964219Y-38666057D01*
X49964219Y-38762819D01*
X49964219Y-39536914D02*
X49432028Y-39536914D01*
X49335266Y-39488533D01*
X49286885Y-39391771D01*
X49286885Y-39198247D01*
X49335266Y-39101485D01*
X49915838Y-39536914D02*
X49964219Y-39440152D01*
X49964219Y-39198247D01*
X49915838Y-39101485D01*
X49819076Y-39053104D01*
X49722314Y-39053104D01*
X49625552Y-39101485D01*
X49577171Y-39198247D01*
X49577171Y-39440152D01*
X49528790Y-39536914D01*
X49286885Y-39875580D02*
X49286885Y-40262628D01*
X48948219Y-40020723D02*
X49819076Y-40020723D01*
X49915838Y-40069104D01*
X49964219Y-40165866D01*
X49964219Y-40262628D01*
X49432028Y-41714057D02*
X49432028Y-41375390D01*
X49964219Y-41375390D02*
X48948219Y-41375390D01*
X48948219Y-41859200D01*
X49915838Y-42633295D02*
X49964219Y-42536533D01*
X49964219Y-42343009D01*
X49915838Y-42246247D01*
X49819076Y-42197866D01*
X49432028Y-42197866D01*
X49335266Y-42246247D01*
X49286885Y-42343009D01*
X49286885Y-42536533D01*
X49335266Y-42633295D01*
X49432028Y-42681676D01*
X49528790Y-42681676D01*
X49625552Y-42197866D01*
X49964219Y-43552533D02*
X49432028Y-43552533D01*
X49335266Y-43504152D01*
X49286885Y-43407390D01*
X49286885Y-43213866D01*
X49335266Y-43117104D01*
X49915838Y-43552533D02*
X49964219Y-43455771D01*
X49964219Y-43213866D01*
X49915838Y-43117104D01*
X49819076Y-43068723D01*
X49722314Y-43068723D01*
X49625552Y-43117104D01*
X49577171Y-43213866D01*
X49577171Y-43455771D01*
X49528790Y-43552533D01*
X49286885Y-43891200D02*
X49286885Y-44278247D01*
X48948219Y-44036342D02*
X49819076Y-44036342D01*
X49915838Y-44084723D01*
X49964219Y-44181485D01*
X49964219Y-44278247D01*
X49964219Y-44616914D02*
X48948219Y-44616914D01*
X49964219Y-45052342D02*
X49432028Y-45052342D01*
X49335266Y-45003961D01*
X49286885Y-44907200D01*
X49286885Y-44762057D01*
X49335266Y-44665295D01*
X49383647Y-44616914D01*
X49915838Y-45923200D02*
X49964219Y-45826438D01*
X49964219Y-45632914D01*
X49915838Y-45536152D01*
X49819076Y-45487771D01*
X49432028Y-45487771D01*
X49335266Y-45536152D01*
X49286885Y-45632914D01*
X49286885Y-45826438D01*
X49335266Y-45923200D01*
X49432028Y-45971580D01*
X49528790Y-45971580D01*
X49625552Y-45487771D01*
X49964219Y-46407009D02*
X49286885Y-46407009D01*
X49480409Y-46407009D02*
X49383647Y-46455390D01*
X49335266Y-46503771D01*
X49286885Y-46600533D01*
X49286885Y-46697295D01*
X49286885Y-46939200D02*
X49964219Y-47132723D01*
X49480409Y-47326247D01*
X49964219Y-47519771D01*
X49286885Y-47713295D01*
X49964219Y-48100342D02*
X49286885Y-48100342D01*
X48948219Y-48100342D02*
X48996600Y-48051961D01*
X49044980Y-48100342D01*
X48996600Y-48148723D01*
X48948219Y-48100342D01*
X49044980Y-48100342D01*
X49286885Y-48584152D02*
X49964219Y-48584152D01*
X49383647Y-48584152D02*
X49335266Y-48632533D01*
X49286885Y-48729295D01*
X49286885Y-48874438D01*
X49335266Y-48971200D01*
X49432028Y-49019580D01*
X49964219Y-49019580D01*
X49286885Y-49938819D02*
X50109361Y-49938819D01*
X50206123Y-49890438D01*
X50254504Y-49842057D01*
X50302885Y-49745295D01*
X50302885Y-49600152D01*
X50254504Y-49503390D01*
X49915838Y-49938819D02*
X49964219Y-49842057D01*
X49964219Y-49648533D01*
X49915838Y-49551771D01*
X49867457Y-49503390D01*
X49770695Y-49455009D01*
X49480409Y-49455009D01*
X49383647Y-49503390D01*
X49335266Y-49551771D01*
X49286885Y-49648533D01*
X49286885Y-49842057D01*
X49335266Y-49938819D01*
X48948219Y-51051580D02*
X49964219Y-51390247D01*
X48948219Y-51728914D01*
X48948219Y-52261104D02*
X48948219Y-52357866D01*
X48996600Y-52454628D01*
X49044980Y-52503009D01*
X49141742Y-52551390D01*
X49335266Y-52599771D01*
X49577171Y-52599771D01*
X49770695Y-52551390D01*
X49867457Y-52503009D01*
X49915838Y-52454628D01*
X49964219Y-52357866D01*
X49964219Y-52261104D01*
X49915838Y-52164342D01*
X49867457Y-52115961D01*
X49770695Y-52067580D01*
X49577171Y-52019200D01*
X49335266Y-52019200D01*
X49141742Y-52067580D01*
X49044980Y-52115961D01*
X48996600Y-52164342D01*
X48948219Y-52261104D01*
X49867457Y-53035200D02*
X49915838Y-53083580D01*
X49964219Y-53035200D01*
X49915838Y-52986819D01*
X49867457Y-53035200D01*
X49964219Y-53035200D01*
X48948219Y-53422247D02*
X48948219Y-54051200D01*
X49335266Y-53712533D01*
X49335266Y-53857676D01*
X49383647Y-53954438D01*
X49432028Y-54002819D01*
X49528790Y-54051200D01*
X49770695Y-54051200D01*
X49867457Y-54002819D01*
X49915838Y-53954438D01*
X49964219Y-53857676D01*
X49964219Y-53567390D01*
X49915838Y-53470628D01*
X49867457Y-53422247D01*
X49964219Y-55841295D02*
X49480409Y-55502628D01*
X49964219Y-55260723D02*
X48948219Y-55260723D01*
X48948219Y-55647771D01*
X48996600Y-55744533D01*
X49044980Y-55792914D01*
X49141742Y-55841295D01*
X49286885Y-55841295D01*
X49383647Y-55792914D01*
X49432028Y-55744533D01*
X49480409Y-55647771D01*
X49480409Y-55260723D01*
X49964219Y-56808914D02*
X49964219Y-56228342D01*
X49964219Y-56518628D02*
X48948219Y-56518628D01*
X49093361Y-56421866D01*
X49190123Y-56325104D01*
X49238504Y-56228342D01*
X51014085Y-38569295D02*
X51691419Y-38762819D01*
X51207609Y-38956342D01*
X51691419Y-39149866D01*
X51014085Y-39343390D01*
X51014085Y-39633676D02*
X51691419Y-39827200D01*
X51207609Y-40020723D01*
X51691419Y-40214247D01*
X51014085Y-40407771D01*
X51014085Y-40698057D02*
X51691419Y-40891580D01*
X51207609Y-41085104D01*
X51691419Y-41278628D01*
X51014085Y-41472152D01*
X51594657Y-41859199D02*
X51643038Y-41907580D01*
X51691419Y-41859199D01*
X51643038Y-41810819D01*
X51594657Y-41859199D01*
X51691419Y-41859199D01*
X51691419Y-42343009D02*
X51014085Y-42343009D01*
X50675419Y-42343009D02*
X50723800Y-42294628D01*
X50772180Y-42343009D01*
X50723800Y-42391390D01*
X50675419Y-42343009D01*
X50772180Y-42343009D01*
X51691419Y-42971961D02*
X51643038Y-42875200D01*
X51594657Y-42826819D01*
X51497895Y-42778438D01*
X51207609Y-42778438D01*
X51110847Y-42826819D01*
X51062466Y-42875200D01*
X51014085Y-42971961D01*
X51014085Y-43117104D01*
X51062466Y-43213866D01*
X51110847Y-43262247D01*
X51207609Y-43310628D01*
X51497895Y-43310628D01*
X51594657Y-43262247D01*
X51643038Y-43213866D01*
X51691419Y-43117104D01*
X51691419Y-42971961D01*
X51691419Y-43746057D02*
X51014085Y-43746057D01*
X51207609Y-43746057D02*
X51110847Y-43794438D01*
X51062466Y-43842819D01*
X51014085Y-43939580D01*
X51014085Y-44036342D01*
X51691419Y-44520152D02*
X51643038Y-44423390D01*
X51594657Y-44375009D01*
X51497895Y-44326628D01*
X51207609Y-44326628D01*
X51110847Y-44375009D01*
X51062466Y-44423390D01*
X51014085Y-44520152D01*
X51014085Y-44665295D01*
X51062466Y-44762057D01*
X51110847Y-44810438D01*
X51207609Y-44858819D01*
X51497895Y-44858819D01*
X51594657Y-44810438D01*
X51643038Y-44762057D01*
X51691419Y-44665295D01*
X51691419Y-44520152D01*
X51691419Y-45729676D02*
X50675419Y-45729676D01*
X51643038Y-45729676D02*
X51691419Y-45632914D01*
X51691419Y-45439390D01*
X51643038Y-45342628D01*
X51594657Y-45294247D01*
X51497895Y-45245866D01*
X51207609Y-45245866D01*
X51110847Y-45294247D01*
X51062466Y-45342628D01*
X51014085Y-45439390D01*
X51014085Y-45632914D01*
X51062466Y-45729676D01*
X51643038Y-46600533D02*
X51691419Y-46503771D01*
X51691419Y-46310247D01*
X51643038Y-46213485D01*
X51546276Y-46165104D01*
X51159228Y-46165104D01*
X51062466Y-46213485D01*
X51014085Y-46310247D01*
X51014085Y-46503771D01*
X51062466Y-46600533D01*
X51159228Y-46648914D01*
X51255990Y-46648914D01*
X51352752Y-46165104D01*
X51691419Y-47229485D02*
X51643038Y-47132723D01*
X51594657Y-47084342D01*
X51497895Y-47035961D01*
X51207609Y-47035961D01*
X51110847Y-47084342D01*
X51062466Y-47132723D01*
X51014085Y-47229485D01*
X51014085Y-47374628D01*
X51062466Y-47471390D01*
X51110847Y-47519771D01*
X51207609Y-47568152D01*
X51497895Y-47568152D01*
X51594657Y-47519771D01*
X51643038Y-47471390D01*
X51691419Y-47374628D01*
X51691419Y-47229485D01*
X51594657Y-48003580D02*
X51643038Y-48051961D01*
X51691419Y-48003580D01*
X51643038Y-47955199D01*
X51594657Y-48003580D01*
X51691419Y-48003580D01*
X51643038Y-48922819D02*
X51691419Y-48826057D01*
X51691419Y-48632533D01*
X51643038Y-48535771D01*
X51594657Y-48487390D01*
X51497895Y-48439009D01*
X51207609Y-48439009D01*
X51110847Y-48487390D01*
X51062466Y-48535771D01*
X51014085Y-48632533D01*
X51014085Y-48826057D01*
X51062466Y-48922819D01*
X51691419Y-49503390D02*
X51643038Y-49406628D01*
X51594657Y-49358247D01*
X51497895Y-49309866D01*
X51207609Y-49309866D01*
X51110847Y-49358247D01*
X51062466Y-49406628D01*
X51014085Y-49503390D01*
X51014085Y-49648533D01*
X51062466Y-49745295D01*
X51110847Y-49793676D01*
X51207609Y-49842057D01*
X51497895Y-49842057D01*
X51594657Y-49793676D01*
X51643038Y-49745295D01*
X51691419Y-49648533D01*
X51691419Y-49503390D01*
X51691419Y-50277485D02*
X51014085Y-50277485D01*
X51110847Y-50277485D02*
X51062466Y-50325866D01*
X51014085Y-50422628D01*
X51014085Y-50567771D01*
X51062466Y-50664533D01*
X51159228Y-50712914D01*
X51691419Y-50712914D01*
X51159228Y-50712914D02*
X51062466Y-50761295D01*
X51014085Y-50858057D01*
X51014085Y-51003199D01*
X51062466Y-51099961D01*
X51159228Y-51148342D01*
X51691419Y-51148342D01*
D11*
X47882000Y-51070000D02*
X45082000Y-51070000D01*
X45082000Y-51070000D02*
X45082000Y-53070000D01*
X45082000Y-53070000D02*
X47882000Y-53070000D01*
X47882000Y-53070000D02*
X47882000Y-51070000D01*
X47882000Y-50530000D02*
X47882000Y-48530000D01*
X45082000Y-50530000D02*
X47882000Y-50530000D01*
X45082000Y-48530000D02*
X45082000Y-50530000D01*
X47882000Y-48530000D02*
X45082000Y-48530000D01*
X47882000Y-45990000D02*
X45082000Y-45990000D01*
X45082000Y-45990000D02*
X45082000Y-47990000D01*
X45082000Y-47990000D02*
X47882000Y-47990000D01*
X47882000Y-47990000D02*
X47882000Y-45990000D01*
X47882000Y-43450000D02*
X45082000Y-43450000D01*
X45082000Y-43450000D02*
X45082000Y-45450000D01*
X45082000Y-45450000D02*
X47882000Y-45450000D01*
X47882000Y-45450000D02*
X47882000Y-43450000D01*
D10*
X58976380Y-70309619D02*
X59315047Y-69825809D01*
X59556952Y-70309619D02*
X59556952Y-69293619D01*
X59169904Y-69293619D01*
X59073142Y-69342000D01*
X59024761Y-69390380D01*
X58976380Y-69487142D01*
X58976380Y-69632285D01*
X59024761Y-69729047D01*
X59073142Y-69777428D01*
X59169904Y-69825809D01*
X59556952Y-69825809D01*
X58589333Y-70261238D02*
X58444190Y-70309619D01*
X58202285Y-70309619D01*
X58105523Y-70261238D01*
X58057142Y-70212857D01*
X58008761Y-70116095D01*
X58008761Y-70019333D01*
X58057142Y-69922571D01*
X58105523Y-69874190D01*
X58202285Y-69825809D01*
X58395809Y-69777428D01*
X58492571Y-69729047D01*
X58540952Y-69680666D01*
X58589333Y-69583904D01*
X58589333Y-69487142D01*
X58540952Y-69390380D01*
X58492571Y-69342000D01*
X58395809Y-69293619D01*
X58153904Y-69293619D01*
X58008761Y-69342000D01*
X57718476Y-69293619D02*
X57137904Y-69293619D01*
X57428190Y-70309619D02*
X57428190Y-69293619D01*
X59448095Y-66753619D02*
X58819142Y-66753619D01*
X59157809Y-67140666D01*
X59012666Y-67140666D01*
X58915904Y-67189047D01*
X58867523Y-67237428D01*
X58819142Y-67334190D01*
X58819142Y-67576095D01*
X58867523Y-67672857D01*
X58915904Y-67721238D01*
X59012666Y-67769619D01*
X59302952Y-67769619D01*
X59399714Y-67721238D01*
X59448095Y-67672857D01*
X58528857Y-66753619D02*
X58190190Y-67769619D01*
X57851523Y-66753619D01*
X59556952Y-64939333D02*
X59073142Y-64939333D01*
X59653714Y-65229619D02*
X59315047Y-64213619D01*
X58976380Y-65229619D01*
X58057142Y-65229619D02*
X58395809Y-64745809D01*
X58637714Y-65229619D02*
X58637714Y-64213619D01*
X58250666Y-64213619D01*
X58153904Y-64262000D01*
X58105523Y-64310380D01*
X58057142Y-64407142D01*
X58057142Y-64552285D01*
X58105523Y-64649047D01*
X58153904Y-64697428D01*
X58250666Y-64745809D01*
X58637714Y-64745809D01*
X57621714Y-64697428D02*
X57283047Y-64697428D01*
X57137904Y-65229619D02*
X57621714Y-65229619D01*
X57621714Y-64213619D01*
X57137904Y-64213619D01*
X56363809Y-64697428D02*
X56702476Y-64697428D01*
X56702476Y-65229619D02*
X56702476Y-64213619D01*
X56218666Y-64213619D01*
X58940095Y-61722000D02*
X59036857Y-61673619D01*
X59182000Y-61673619D01*
X59327142Y-61722000D01*
X59423904Y-61818761D01*
X59472285Y-61915523D01*
X59520666Y-62109047D01*
X59520666Y-62254190D01*
X59472285Y-62447714D01*
X59423904Y-62544476D01*
X59327142Y-62641238D01*
X59182000Y-62689619D01*
X59085238Y-62689619D01*
X58940095Y-62641238D01*
X58891714Y-62592857D01*
X58891714Y-62254190D01*
X59085238Y-62254190D01*
X58456285Y-62689619D02*
X58456285Y-61673619D01*
X57875714Y-62689619D01*
X57875714Y-61673619D01*
X57391904Y-62689619D02*
X57391904Y-61673619D01*
X57150000Y-61673619D01*
X57004857Y-61722000D01*
X56908095Y-61818761D01*
X56859714Y-61915523D01*
X56811333Y-62109047D01*
X56811333Y-62254190D01*
X56859714Y-62447714D01*
X56908095Y-62544476D01*
X57004857Y-62641238D01*
X57150000Y-62689619D01*
X57391904Y-62689619D01*
X59399714Y-59859333D02*
X58915904Y-59859333D01*
X59496476Y-60149619D02*
X59157809Y-59133619D01*
X58819142Y-60149619D01*
X58286952Y-59133619D02*
X58190190Y-59133619D01*
X58093428Y-59182000D01*
X58045047Y-59230380D01*
X57996666Y-59327142D01*
X57948285Y-59520666D01*
X57948285Y-59762571D01*
X57996666Y-59956095D01*
X58045047Y-60052857D01*
X58093428Y-60101238D01*
X58190190Y-60149619D01*
X58286952Y-60149619D01*
X58383714Y-60101238D01*
X58432095Y-60052857D01*
X58480476Y-59956095D01*
X58528857Y-59762571D01*
X58528857Y-59520666D01*
X58480476Y-59327142D01*
X58432095Y-59230380D01*
X58383714Y-59182000D01*
X58286952Y-59133619D01*
X59399714Y-57319333D02*
X58915904Y-57319333D01*
X59496476Y-57609619D02*
X59157809Y-56593619D01*
X58819142Y-57609619D01*
X57948285Y-57609619D02*
X58528857Y-57609619D01*
X58238571Y-57609619D02*
X58238571Y-56593619D01*
X58335333Y-56738761D01*
X58432095Y-56835523D01*
X58528857Y-56883904D01*
X59399714Y-54779333D02*
X58915904Y-54779333D01*
X59496476Y-55069619D02*
X59157809Y-54053619D01*
X58819142Y-55069619D01*
X58528857Y-54150380D02*
X58480476Y-54102000D01*
X58383714Y-54053619D01*
X58141809Y-54053619D01*
X58045047Y-54102000D01*
X57996666Y-54150380D01*
X57948285Y-54247142D01*
X57948285Y-54343904D01*
X57996666Y-54489047D01*
X58577238Y-55069619D01*
X57948285Y-55069619D01*
X59399714Y-52239333D02*
X58915904Y-52239333D01*
X59496476Y-52529619D02*
X59157809Y-51513619D01*
X58819142Y-52529619D01*
X58577238Y-51513619D02*
X57948285Y-51513619D01*
X58286952Y-51900666D01*
X58141809Y-51900666D01*
X58045047Y-51949047D01*
X57996666Y-51997428D01*
X57948285Y-52094190D01*
X57948285Y-52336095D01*
X57996666Y-52432857D01*
X58045047Y-52481238D01*
X58141809Y-52529619D01*
X58432095Y-52529619D01*
X58528857Y-52481238D01*
X58577238Y-52432857D01*
X59399714Y-49699333D02*
X58915904Y-49699333D01*
X59496476Y-49989619D02*
X59157809Y-48973619D01*
X58819142Y-49989619D01*
X58045047Y-49312285D02*
X58045047Y-49989619D01*
X58286952Y-48925238D02*
X58528857Y-49650952D01*
X57899904Y-49650952D01*
X59399714Y-47159333D02*
X58915904Y-47159333D01*
X59496476Y-47449619D02*
X59157809Y-46433619D01*
X58819142Y-47449619D01*
X57996666Y-46433619D02*
X58480476Y-46433619D01*
X58528857Y-46917428D01*
X58480476Y-46869047D01*
X58383714Y-46820666D01*
X58141809Y-46820666D01*
X58045047Y-46869047D01*
X57996666Y-46917428D01*
X57948285Y-47014190D01*
X57948285Y-47256095D01*
X57996666Y-47352857D01*
X58045047Y-47401238D01*
X58141809Y-47449619D01*
X58383714Y-47449619D01*
X58480476Y-47401238D01*
X58528857Y-47352857D01*
X59726285Y-44861238D02*
X59581142Y-44909619D01*
X59339238Y-44909619D01*
X59242476Y-44861238D01*
X59194095Y-44812857D01*
X59145714Y-44716095D01*
X59145714Y-44619333D01*
X59194095Y-44522571D01*
X59242476Y-44474190D01*
X59339238Y-44425809D01*
X59532761Y-44377428D01*
X59629523Y-44329047D01*
X59677904Y-44280666D01*
X59726285Y-44183904D01*
X59726285Y-44087142D01*
X59677904Y-43990380D01*
X59629523Y-43942000D01*
X59532761Y-43893619D01*
X59290857Y-43893619D01*
X59145714Y-43942000D01*
X58129714Y-44812857D02*
X58178095Y-44861238D01*
X58323238Y-44909619D01*
X58420000Y-44909619D01*
X58565142Y-44861238D01*
X58661904Y-44764476D01*
X58710285Y-44667714D01*
X58758666Y-44474190D01*
X58758666Y-44329047D01*
X58710285Y-44135523D01*
X58661904Y-44038761D01*
X58565142Y-43942000D01*
X58420000Y-43893619D01*
X58323238Y-43893619D01*
X58178095Y-43942000D01*
X58129714Y-43990380D01*
X57694285Y-44909619D02*
X57694285Y-43893619D01*
X57113714Y-44909619D02*
X57549142Y-44329047D01*
X57113714Y-43893619D02*
X57694285Y-44474190D01*
X59508571Y-42623619D02*
X59508571Y-41607619D01*
X59169904Y-42333333D01*
X58831238Y-41607619D01*
X58831238Y-42623619D01*
X58153904Y-41607619D02*
X57960380Y-41607619D01*
X57863619Y-41656000D01*
X57766857Y-41752761D01*
X57718476Y-41946285D01*
X57718476Y-42284952D01*
X57766857Y-42478476D01*
X57863619Y-42575238D01*
X57960380Y-42623619D01*
X58153904Y-42623619D01*
X58250666Y-42575238D01*
X58347428Y-42478476D01*
X58395809Y-42284952D01*
X58395809Y-41946285D01*
X58347428Y-41752761D01*
X58250666Y-41656000D01*
X58153904Y-41607619D01*
X57331428Y-42575238D02*
X57186285Y-42623619D01*
X56944380Y-42623619D01*
X56847619Y-42575238D01*
X56799238Y-42526857D01*
X56750857Y-42430095D01*
X56750857Y-42333333D01*
X56799238Y-42236571D01*
X56847619Y-42188190D01*
X56944380Y-42139809D01*
X57137904Y-42091428D01*
X57234666Y-42043047D01*
X57283047Y-41994666D01*
X57331428Y-41897904D01*
X57331428Y-41801142D01*
X57283047Y-41704380D01*
X57234666Y-41656000D01*
X57137904Y-41607619D01*
X56895999Y-41607619D01*
X56750857Y-41656000D01*
X56315428Y-42623619D02*
X56315428Y-41607619D01*
X59508571Y-39829619D02*
X59508571Y-38813619D01*
X59169904Y-39539333D01*
X58831238Y-38813619D01*
X58831238Y-39829619D01*
X58347428Y-39829619D02*
X58347428Y-38813619D01*
X57911999Y-39781238D02*
X57766857Y-39829619D01*
X57524952Y-39829619D01*
X57428190Y-39781238D01*
X57379809Y-39732857D01*
X57331428Y-39636095D01*
X57331428Y-39539333D01*
X57379809Y-39442571D01*
X57428190Y-39394190D01*
X57524952Y-39345809D01*
X57718476Y-39297428D01*
X57815238Y-39249047D01*
X57863619Y-39200666D01*
X57911999Y-39103904D01*
X57911999Y-39007142D01*
X57863619Y-38910380D01*
X57815238Y-38862000D01*
X57718476Y-38813619D01*
X57476571Y-38813619D01*
X57331428Y-38862000D01*
X56702476Y-38813619D02*
X56508952Y-38813619D01*
X56412190Y-38862000D01*
X56315428Y-38958761D01*
X56267047Y-39152285D01*
X56267047Y-39490952D01*
X56315428Y-39684476D01*
X56412190Y-39781238D01*
X56508952Y-39829619D01*
X56702476Y-39829619D01*
X56799238Y-39781238D01*
X56895999Y-39684476D01*
X56944380Y-39490952D01*
X56944380Y-39152285D01*
X56895999Y-38958761D01*
X56799238Y-38862000D01*
X56702476Y-38813619D01*
X59097333Y-37543619D02*
X59436000Y-37059809D01*
X59677904Y-37543619D02*
X59677904Y-36527619D01*
X59290857Y-36527619D01*
X59194095Y-36576000D01*
X59145714Y-36624380D01*
X59097333Y-36721142D01*
X59097333Y-36866285D01*
X59145714Y-36963047D01*
X59194095Y-37011428D01*
X59290857Y-37059809D01*
X59677904Y-37059809D01*
X58758666Y-36527619D02*
X58081333Y-37543619D01*
X58081333Y-36527619D02*
X58758666Y-37543619D01*
X59702095Y-33733619D02*
X59121523Y-33733619D01*
X59411809Y-34749619D02*
X59411809Y-33733619D01*
X58879619Y-33733619D02*
X58202285Y-34749619D01*
X58202285Y-33733619D02*
X58879619Y-34749619D01*
X59290857Y-31677428D02*
X59145714Y-31725809D01*
X59097333Y-31774190D01*
X59048952Y-31870952D01*
X59048952Y-32016095D01*
X59097333Y-32112857D01*
X59145714Y-32161238D01*
X59242476Y-32209619D01*
X59629523Y-32209619D01*
X59629523Y-31193619D01*
X59290857Y-31193619D01*
X59194095Y-31242000D01*
X59145714Y-31290380D01*
X59097333Y-31387142D01*
X59097333Y-31483904D01*
X59145714Y-31580666D01*
X59194095Y-31629047D01*
X59290857Y-31677428D01*
X59629523Y-31677428D01*
X58661904Y-32161238D02*
X58516761Y-32209619D01*
X58274857Y-32209619D01*
X58178095Y-32161238D01*
X58129714Y-32112857D01*
X58081333Y-32016095D01*
X58081333Y-31919333D01*
X58129714Y-31822571D01*
X58178095Y-31774190D01*
X58274857Y-31725809D01*
X58468380Y-31677428D01*
X58565142Y-31629047D01*
X58613523Y-31580666D01*
X58661904Y-31483904D01*
X58661904Y-31387142D01*
X58613523Y-31290380D01*
X58565142Y-31242000D01*
X58468380Y-31193619D01*
X58226476Y-31193619D01*
X58081333Y-31242000D01*
X57645904Y-32209619D02*
X57645904Y-31193619D01*
X57258857Y-31193619D01*
X57162095Y-31242000D01*
X57113714Y-31290380D01*
X57065333Y-31387142D01*
X57065333Y-31532285D01*
X57113714Y-31629047D01*
X57162095Y-31677428D01*
X57258857Y-31725809D01*
X57645904Y-31725809D01*
X56629904Y-31677428D02*
X56291238Y-31677428D01*
X56146095Y-32209619D02*
X56629904Y-32209619D01*
X56629904Y-31193619D01*
X56146095Y-31193619D01*
X55130095Y-32112857D02*
X55178476Y-32161238D01*
X55323619Y-32209619D01*
X55420380Y-32209619D01*
X55565523Y-32161238D01*
X55662285Y-32064476D01*
X55710666Y-31967714D01*
X55759047Y-31774190D01*
X55759047Y-31629047D01*
X55710666Y-31435523D01*
X55662285Y-31338761D01*
X55565523Y-31242000D01*
X55420380Y-31193619D01*
X55323619Y-31193619D01*
X55178476Y-31242000D01*
X55130095Y-31290380D01*
X43929904Y-59617428D02*
X43784761Y-59665809D01*
X43736380Y-59714190D01*
X43688000Y-59810952D01*
X43688000Y-59956095D01*
X43736380Y-60052857D01*
X43784761Y-60101238D01*
X43881523Y-60149619D01*
X44268571Y-60149619D01*
X44268571Y-59133619D01*
X43929904Y-59133619D01*
X43833142Y-59182000D01*
X43784761Y-59230380D01*
X43736380Y-59327142D01*
X43736380Y-59423904D01*
X43784761Y-59520666D01*
X43833142Y-59569047D01*
X43929904Y-59617428D01*
X44268571Y-59617428D01*
X43300952Y-59859333D02*
X42817142Y-59859333D01*
X43397714Y-60149619D02*
X43059047Y-59133619D01*
X42720380Y-60149619D01*
X42526857Y-59133619D02*
X41946285Y-59133619D01*
X42236571Y-60149619D02*
X42236571Y-59133619D01*
X43421904Y-57077428D02*
X43083238Y-57077428D01*
X42938095Y-57609619D02*
X43421904Y-57609619D01*
X43421904Y-56593619D01*
X42938095Y-56593619D01*
X42502666Y-57609619D02*
X42502666Y-56593619D01*
X41922095Y-57609619D01*
X41922095Y-56593619D01*
X44462095Y-54053619D02*
X44462095Y-54876095D01*
X44413714Y-54972857D01*
X44365333Y-55021238D01*
X44268571Y-55069619D01*
X44075047Y-55069619D01*
X43978285Y-55021238D01*
X43929904Y-54972857D01*
X43881523Y-54876095D01*
X43881523Y-54053619D01*
X43446095Y-55021238D02*
X43300952Y-55069619D01*
X43059047Y-55069619D01*
X42962285Y-55021238D01*
X42913904Y-54972857D01*
X42865523Y-54876095D01*
X42865523Y-54779333D01*
X42913904Y-54682571D01*
X42962285Y-54634190D01*
X43059047Y-54585809D01*
X43252571Y-54537428D01*
X43349333Y-54489047D01*
X43397714Y-54440666D01*
X43446095Y-54343904D01*
X43446095Y-54247142D01*
X43397714Y-54150380D01*
X43349333Y-54102000D01*
X43252571Y-54053619D01*
X43010666Y-54053619D01*
X42865523Y-54102000D01*
X42091428Y-54537428D02*
X41946285Y-54585809D01*
X41897904Y-54634190D01*
X41849523Y-54730952D01*
X41849523Y-54876095D01*
X41897904Y-54972857D01*
X41946285Y-55021238D01*
X42043047Y-55069619D01*
X42430095Y-55069619D01*
X42430095Y-54053619D01*
X42091428Y-54053619D01*
X41994666Y-54102000D01*
X41946285Y-54150380D01*
X41897904Y-54247142D01*
X41897904Y-54343904D01*
X41946285Y-54440666D01*
X41994666Y-54489047D01*
X42091428Y-54537428D01*
X42430095Y-54537428D01*
X44413714Y-52529619D02*
X44413714Y-51513619D01*
X44171809Y-51513619D01*
X44026666Y-51562000D01*
X43929904Y-51658761D01*
X43881523Y-51755523D01*
X43833142Y-51949047D01*
X43833142Y-52094190D01*
X43881523Y-52287714D01*
X43929904Y-52384476D01*
X44026666Y-52481238D01*
X44171809Y-52529619D01*
X44413714Y-52529619D01*
X42865523Y-52529619D02*
X43446095Y-52529619D01*
X43155809Y-52529619D02*
X43155809Y-51513619D01*
X43252571Y-51658761D01*
X43349333Y-51755523D01*
X43446095Y-51803904D01*
X42526857Y-51513619D02*
X41897904Y-51513619D01*
X42236571Y-51900666D01*
X42091428Y-51900666D01*
X41994666Y-51949047D01*
X41946285Y-51997428D01*
X41897904Y-52094190D01*
X41897904Y-52336095D01*
X41946285Y-52432857D01*
X41994666Y-52481238D01*
X42091428Y-52529619D01*
X42381714Y-52529619D01*
X42478476Y-52481238D01*
X42526857Y-52432857D01*
X44413714Y-50243619D02*
X44413714Y-49227619D01*
X44171809Y-49227619D01*
X44026666Y-49276000D01*
X43929904Y-49372761D01*
X43881523Y-49469523D01*
X43833142Y-49663047D01*
X43833142Y-49808190D01*
X43881523Y-50001714D01*
X43929904Y-50098476D01*
X44026666Y-50195238D01*
X44171809Y-50243619D01*
X44413714Y-50243619D01*
X42865523Y-50243619D02*
X43446095Y-50243619D01*
X43155809Y-50243619D02*
X43155809Y-49227619D01*
X43252571Y-49372761D01*
X43349333Y-49469523D01*
X43446095Y-49517904D01*
X42478476Y-49324380D02*
X42430095Y-49276000D01*
X42333333Y-49227619D01*
X42091428Y-49227619D01*
X41994666Y-49276000D01*
X41946285Y-49324380D01*
X41897904Y-49421142D01*
X41897904Y-49517904D01*
X41946285Y-49663047D01*
X42526857Y-50243619D01*
X41897904Y-50243619D01*
X44413714Y-47449619D02*
X44413714Y-46433619D01*
X44171809Y-46433619D01*
X44026666Y-46482000D01*
X43929904Y-46578761D01*
X43881523Y-46675523D01*
X43833142Y-46869047D01*
X43833142Y-47014190D01*
X43881523Y-47207714D01*
X43929904Y-47304476D01*
X44026666Y-47401238D01*
X44171809Y-47449619D01*
X44413714Y-47449619D01*
X42865523Y-47449619D02*
X43446095Y-47449619D01*
X43155809Y-47449619D02*
X43155809Y-46433619D01*
X43252571Y-46578761D01*
X43349333Y-46675523D01*
X43446095Y-46723904D01*
X41897904Y-47449619D02*
X42478476Y-47449619D01*
X42188190Y-47449619D02*
X42188190Y-46433619D01*
X42284952Y-46578761D01*
X42381714Y-46675523D01*
X42478476Y-46723904D01*
X44413714Y-44909619D02*
X44413714Y-43893619D01*
X44171809Y-43893619D01*
X44026666Y-43942000D01*
X43929904Y-44038761D01*
X43881523Y-44135523D01*
X43833142Y-44329047D01*
X43833142Y-44474190D01*
X43881523Y-44667714D01*
X43929904Y-44764476D01*
X44026666Y-44861238D01*
X44171809Y-44909619D01*
X44413714Y-44909619D01*
X42865523Y-44909619D02*
X43446095Y-44909619D01*
X43155809Y-44909619D02*
X43155809Y-43893619D01*
X43252571Y-44038761D01*
X43349333Y-44135523D01*
X43446095Y-44183904D01*
X42236571Y-43893619D02*
X42139809Y-43893619D01*
X42043047Y-43942000D01*
X41994666Y-43990380D01*
X41946285Y-44087142D01*
X41897904Y-44280666D01*
X41897904Y-44522571D01*
X41946285Y-44716095D01*
X41994666Y-44812857D01*
X42043047Y-44861238D01*
X42139809Y-44909619D01*
X42236571Y-44909619D01*
X42333333Y-44861238D01*
X42381714Y-44812857D01*
X42430095Y-44716095D01*
X42478476Y-44522571D01*
X42478476Y-44280666D01*
X42430095Y-44087142D01*
X42381714Y-43990380D01*
X42333333Y-43942000D01*
X42236571Y-43893619D01*
X43421904Y-42369619D02*
X43421904Y-41353619D01*
X43180000Y-41353619D01*
X43034857Y-41402000D01*
X42938095Y-41498761D01*
X42889714Y-41595523D01*
X42841333Y-41789047D01*
X42841333Y-41934190D01*
X42889714Y-42127714D01*
X42938095Y-42224476D01*
X43034857Y-42321238D01*
X43180000Y-42369619D01*
X43421904Y-42369619D01*
X42357523Y-42369619D02*
X42164000Y-42369619D01*
X42067238Y-42321238D01*
X42018857Y-42272857D01*
X41922095Y-42127714D01*
X41873714Y-41934190D01*
X41873714Y-41547142D01*
X41922095Y-41450380D01*
X41970476Y-41402000D01*
X42067238Y-41353619D01*
X42260761Y-41353619D01*
X42357523Y-41402000D01*
X42405904Y-41450380D01*
X42454285Y-41547142D01*
X42454285Y-41789047D01*
X42405904Y-41885809D01*
X42357523Y-41934190D01*
X42260761Y-41982571D01*
X42067238Y-41982571D01*
X41970476Y-41934190D01*
X41922095Y-41885809D01*
X41873714Y-41789047D01*
X43421904Y-39829619D02*
X43421904Y-38813619D01*
X43180000Y-38813619D01*
X43034857Y-38862000D01*
X42938095Y-38958761D01*
X42889714Y-39055523D01*
X42841333Y-39249047D01*
X42841333Y-39394190D01*
X42889714Y-39587714D01*
X42938095Y-39684476D01*
X43034857Y-39781238D01*
X43180000Y-39829619D01*
X43421904Y-39829619D01*
X41970476Y-38813619D02*
X42164000Y-38813619D01*
X42260761Y-38862000D01*
X42309142Y-38910380D01*
X42405904Y-39055523D01*
X42454285Y-39249047D01*
X42454285Y-39636095D01*
X42405904Y-39732857D01*
X42357523Y-39781238D01*
X42260761Y-39829619D01*
X42067238Y-39829619D01*
X41970476Y-39781238D01*
X41922095Y-39732857D01*
X41873714Y-39636095D01*
X41873714Y-39394190D01*
X41922095Y-39297428D01*
X41970476Y-39249047D01*
X42067238Y-39200666D01*
X42260761Y-39200666D01*
X42357523Y-39249047D01*
X42405904Y-39297428D01*
X42454285Y-39394190D01*
X43421904Y-37416619D02*
X43421904Y-36400619D01*
X43180000Y-36400619D01*
X43034857Y-36449000D01*
X42938095Y-36545761D01*
X42889714Y-36642523D01*
X42841333Y-36836047D01*
X42841333Y-36981190D01*
X42889714Y-37174714D01*
X42938095Y-37271476D01*
X43034857Y-37368238D01*
X43180000Y-37416619D01*
X43421904Y-37416619D01*
X41922095Y-36400619D02*
X42405904Y-36400619D01*
X42454285Y-36884428D01*
X42405904Y-36836047D01*
X42309142Y-36787666D01*
X42067238Y-36787666D01*
X41970476Y-36836047D01*
X41922095Y-36884428D01*
X41873714Y-36981190D01*
X41873714Y-37223095D01*
X41922095Y-37319857D01*
X41970476Y-37368238D01*
X42067238Y-37416619D01*
X42309142Y-37416619D01*
X42405904Y-37368238D01*
X42454285Y-37319857D01*
X44389523Y-34701238D02*
X44244380Y-34749619D01*
X44002476Y-34749619D01*
X43905714Y-34701238D01*
X43857333Y-34652857D01*
X43808952Y-34556095D01*
X43808952Y-34459333D01*
X43857333Y-34362571D01*
X43905714Y-34314190D01*
X44002476Y-34265809D01*
X44196000Y-34217428D01*
X44292761Y-34169047D01*
X44341142Y-34120666D01*
X44389523Y-34023904D01*
X44389523Y-33927142D01*
X44341142Y-33830380D01*
X44292761Y-33782000D01*
X44196000Y-33733619D01*
X43954095Y-33733619D01*
X43808952Y-33782000D01*
X42792952Y-34652857D02*
X42841333Y-34701238D01*
X42986476Y-34749619D01*
X43083238Y-34749619D01*
X43228380Y-34701238D01*
X43325142Y-34604476D01*
X43373523Y-34507714D01*
X43421904Y-34314190D01*
X43421904Y-34169047D01*
X43373523Y-33975523D01*
X43325142Y-33878761D01*
X43228380Y-33782000D01*
X43083238Y-33733619D01*
X42986476Y-33733619D01*
X42841333Y-33782000D01*
X42792952Y-33830380D01*
X41873714Y-34749619D02*
X42357523Y-34749619D01*
X42357523Y-33733619D01*
X44413714Y-32161238D02*
X44268571Y-32209619D01*
X44026666Y-32209619D01*
X43929904Y-32161238D01*
X43881523Y-32112857D01*
X43833142Y-32016095D01*
X43833142Y-31919333D01*
X43881523Y-31822571D01*
X43929904Y-31774190D01*
X44026666Y-31725809D01*
X44220190Y-31677428D01*
X44316952Y-31629047D01*
X44365333Y-31580666D01*
X44413714Y-31483904D01*
X44413714Y-31387142D01*
X44365333Y-31290380D01*
X44316952Y-31242000D01*
X44220190Y-31193619D01*
X43978285Y-31193619D01*
X43833142Y-31242000D01*
X43397714Y-32209619D02*
X43397714Y-31193619D01*
X43155809Y-31193619D01*
X43010666Y-31242000D01*
X42913904Y-31338761D01*
X42865523Y-31435523D01*
X42817142Y-31629047D01*
X42817142Y-31774190D01*
X42865523Y-31967714D01*
X42913904Y-32064476D01*
X43010666Y-32161238D01*
X43155809Y-32209619D01*
X43397714Y-32209619D01*
X42430095Y-31919333D02*
X41946285Y-31919333D01*
X42526857Y-32209619D02*
X42188190Y-31193619D01*
X41849523Y-32209619D01*
M02*
