G04 #@! TF.GenerationSoftware,KiCad,Pcbnew,5.1.7-a382d34a8~87~ubuntu18.04.1*
G04 #@! TF.CreationDate,2021-10-03T14:58:42-07:00*
G04 #@! TF.ProjectId,potentiostat_featherwing,706f7465-6e74-4696-9f73-7461745f6665,rev?*
G04 #@! TF.SameCoordinates,Original*
G04 #@! TF.FileFunction,Legend,Top*
G04 #@! TF.FilePolarity,Positive*
%FSLAX46Y46*%
G04 Gerber Fmt 4.6, Leading zero omitted, Abs format (unit mm)*
G04 Created by KiCad (PCBNEW 5.1.7-a382d34a8~87~ubuntu18.04.1) date 2021-10-03 14:58:42*
%MOMM*%
%LPD*%
G01*
G04 APERTURE LIST*
%ADD10C,0.203200*%
%ADD11C,0.150000*%
%ADD12C,0.381000*%
%ADD13C,0.120000*%
%ADD14C,0.152400*%
G04 APERTURE END LIST*
D10*
X53031571Y-67642619D02*
X53273476Y-68658619D01*
X53467000Y-67932904D01*
X53660523Y-68658619D01*
X53902428Y-67642619D01*
X54870047Y-68658619D02*
X54531380Y-68174809D01*
X54289476Y-68658619D02*
X54289476Y-67642619D01*
X54676523Y-67642619D01*
X54773285Y-67691000D01*
X54821666Y-67739380D01*
X54870047Y-67836142D01*
X54870047Y-67981285D01*
X54821666Y-68078047D01*
X54773285Y-68126428D01*
X54676523Y-68174809D01*
X54289476Y-68174809D01*
X55305476Y-68658619D02*
X55305476Y-67642619D01*
X55886047Y-68658619D02*
X55450619Y-68078047D01*
X55886047Y-67642619D02*
X55305476Y-68223190D01*
X50219428Y-68658619D02*
X49880761Y-68174809D01*
X49638857Y-68658619D02*
X49638857Y-67642619D01*
X50025904Y-67642619D01*
X50122666Y-67691000D01*
X50171047Y-67739380D01*
X50219428Y-67836142D01*
X50219428Y-67981285D01*
X50171047Y-68078047D01*
X50122666Y-68126428D01*
X50025904Y-68174809D01*
X49638857Y-68174809D01*
X50654857Y-68126428D02*
X50993523Y-68126428D01*
X51138666Y-68658619D02*
X50654857Y-68658619D01*
X50654857Y-67642619D01*
X51138666Y-67642619D01*
X51912761Y-68126428D02*
X51574095Y-68126428D01*
X51574095Y-68658619D02*
X51574095Y-67642619D01*
X52057904Y-67642619D01*
X46663428Y-68561857D02*
X46615047Y-68610238D01*
X46469904Y-68658619D01*
X46373142Y-68658619D01*
X46228000Y-68610238D01*
X46131238Y-68513476D01*
X46082857Y-68416714D01*
X46034476Y-68223190D01*
X46034476Y-68078047D01*
X46082857Y-67884523D01*
X46131238Y-67787761D01*
X46228000Y-67691000D01*
X46373142Y-67642619D01*
X46469904Y-67642619D01*
X46615047Y-67691000D01*
X46663428Y-67739380D01*
X46953714Y-67642619D02*
X47534285Y-67642619D01*
X47244000Y-68658619D02*
X47244000Y-67642619D01*
X48453523Y-68658619D02*
X48114857Y-68174809D01*
X47872952Y-68658619D02*
X47872952Y-67642619D01*
X48260000Y-67642619D01*
X48356761Y-67691000D01*
X48405142Y-67739380D01*
X48453523Y-67836142D01*
X48453523Y-67981285D01*
X48405142Y-68078047D01*
X48356761Y-68126428D01*
X48260000Y-68174809D01*
X47872952Y-68174809D01*
D11*
X59690000Y-25400000D02*
X41910000Y-25400000D01*
X62230000Y-27940000D02*
X62230000Y-73660000D01*
X59690000Y-76200000D02*
X41910000Y-76200000D01*
X39370000Y-27940000D02*
X39370000Y-73660000D01*
X41910000Y-76200000D02*
G75*
G02*
X39370000Y-73660000I0J2540000D01*
G01*
X62230000Y-73660000D02*
G75*
G02*
X59690000Y-76200000I-2540000J0D01*
G01*
X59690000Y-25400000D02*
G75*
G02*
X62230000Y-27940000I0J-2540000D01*
G01*
X39370000Y-27940000D02*
G75*
G02*
X41910000Y-25400000I2540000J0D01*
G01*
D12*
X56598820Y-69242940D02*
X45001180Y-69242940D01*
X56598820Y-76045060D02*
X56598820Y-69242940D01*
X45001180Y-76045060D02*
X56598820Y-76045060D01*
X45001180Y-69242940D02*
X45001180Y-76045060D01*
D13*
X46930000Y-65592000D02*
X46930000Y-64262000D01*
X48260000Y-65592000D02*
X46930000Y-65592000D01*
X49530000Y-65592000D02*
X49530000Y-62932000D01*
X49530000Y-62932000D02*
X54670000Y-62932000D01*
X49530000Y-65592000D02*
X54670000Y-65592000D01*
X54670000Y-65592000D02*
X54670000Y-62932000D01*
X48200000Y-29016000D02*
X48200000Y-27686000D01*
X49530000Y-29016000D02*
X48200000Y-29016000D01*
X50800000Y-29016000D02*
X50800000Y-26356000D01*
X50800000Y-26356000D02*
X53400000Y-26356000D01*
X50800000Y-29016000D02*
X53400000Y-29016000D01*
X53400000Y-29016000D02*
X53400000Y-26356000D01*
D11*
X51605000Y-52456000D02*
X51605000Y-52431000D01*
X47455000Y-52456000D02*
X47455000Y-52341000D01*
X47455000Y-43556000D02*
X47455000Y-43671000D01*
X51605000Y-43556000D02*
X51605000Y-43671000D01*
X51605000Y-52456000D02*
X47455000Y-52456000D01*
X51605000Y-43556000D02*
X47455000Y-43556000D01*
X51605000Y-52431000D02*
X52980000Y-52431000D01*
D13*
X55243000Y-49135420D02*
X55243000Y-49416580D01*
X56263000Y-49135420D02*
X56263000Y-49416580D01*
X55243000Y-45098580D02*
X55243000Y-44817420D01*
X56263000Y-45098580D02*
X56263000Y-44817420D01*
X53607580Y-60073000D02*
X53326420Y-60073000D01*
X53607580Y-59053000D02*
X53326420Y-59053000D01*
X48273580Y-32256000D02*
X47992420Y-32256000D01*
X48273580Y-33276000D02*
X47992420Y-33276000D01*
X46495580Y-40638000D02*
X46214420Y-40638000D01*
X46495580Y-41658000D02*
X46214420Y-41658000D01*
X46752742Y-56402500D02*
X47227258Y-56402500D01*
X46752742Y-55357500D02*
X47227258Y-55357500D01*
X47241258Y-59958500D02*
X46766742Y-59958500D01*
X47241258Y-58913500D02*
X46766742Y-58913500D01*
X53721724Y-55357500D02*
X53212276Y-55357500D01*
X53721724Y-56402500D02*
X53212276Y-56402500D01*
X53737742Y-35799500D02*
X54212258Y-35799500D01*
X53737742Y-36844500D02*
X54212258Y-36844500D01*
X53737742Y-39892500D02*
X54212258Y-39892500D01*
X53737742Y-38847500D02*
X54212258Y-38847500D01*
X46979000Y-38440000D02*
X48779000Y-38440000D01*
X48779000Y-35220000D02*
X46329000Y-35220000D01*
D10*
X57863619Y-70309619D02*
X57524952Y-69825809D01*
X57283047Y-70309619D02*
X57283047Y-69293619D01*
X57670095Y-69293619D01*
X57766857Y-69342000D01*
X57815238Y-69390380D01*
X57863619Y-69487142D01*
X57863619Y-69632285D01*
X57815238Y-69729047D01*
X57766857Y-69777428D01*
X57670095Y-69825809D01*
X57283047Y-69825809D01*
X58250666Y-70261238D02*
X58395809Y-70309619D01*
X58637714Y-70309619D01*
X58734476Y-70261238D01*
X58782857Y-70212857D01*
X58831238Y-70116095D01*
X58831238Y-70019333D01*
X58782857Y-69922571D01*
X58734476Y-69874190D01*
X58637714Y-69825809D01*
X58444190Y-69777428D01*
X58347428Y-69729047D01*
X58299047Y-69680666D01*
X58250666Y-69583904D01*
X58250666Y-69487142D01*
X58299047Y-69390380D01*
X58347428Y-69342000D01*
X58444190Y-69293619D01*
X58686095Y-69293619D01*
X58831238Y-69342000D01*
X59121523Y-69293619D02*
X59702095Y-69293619D01*
X59411809Y-70309619D02*
X59411809Y-69293619D01*
X57899904Y-66753619D02*
X58528857Y-66753619D01*
X58190190Y-67140666D01*
X58335333Y-67140666D01*
X58432095Y-67189047D01*
X58480476Y-67237428D01*
X58528857Y-67334190D01*
X58528857Y-67576095D01*
X58480476Y-67672857D01*
X58432095Y-67721238D01*
X58335333Y-67769619D01*
X58045047Y-67769619D01*
X57948285Y-67721238D01*
X57899904Y-67672857D01*
X58819142Y-66753619D02*
X59157809Y-67769619D01*
X59496476Y-66753619D01*
X56267047Y-64939333D02*
X56750857Y-64939333D01*
X56170285Y-65229619D02*
X56508952Y-64213619D01*
X56847619Y-65229619D01*
X57766857Y-65229619D02*
X57428190Y-64745809D01*
X57186285Y-65229619D02*
X57186285Y-64213619D01*
X57573333Y-64213619D01*
X57670095Y-64262000D01*
X57718476Y-64310380D01*
X57766857Y-64407142D01*
X57766857Y-64552285D01*
X57718476Y-64649047D01*
X57670095Y-64697428D01*
X57573333Y-64745809D01*
X57186285Y-64745809D01*
X58202285Y-64697428D02*
X58540952Y-64697428D01*
X58686095Y-65229619D02*
X58202285Y-65229619D01*
X58202285Y-64213619D01*
X58686095Y-64213619D01*
X59460190Y-64697428D02*
X59121523Y-64697428D01*
X59121523Y-65229619D02*
X59121523Y-64213619D01*
X59605333Y-64213619D01*
X57391904Y-61722000D02*
X57295142Y-61673619D01*
X57150000Y-61673619D01*
X57004857Y-61722000D01*
X56908095Y-61818761D01*
X56859714Y-61915523D01*
X56811333Y-62109047D01*
X56811333Y-62254190D01*
X56859714Y-62447714D01*
X56908095Y-62544476D01*
X57004857Y-62641238D01*
X57150000Y-62689619D01*
X57246761Y-62689619D01*
X57391904Y-62641238D01*
X57440285Y-62592857D01*
X57440285Y-62254190D01*
X57246761Y-62254190D01*
X57875714Y-62689619D02*
X57875714Y-61673619D01*
X58456285Y-62689619D01*
X58456285Y-61673619D01*
X58940095Y-62689619D02*
X58940095Y-61673619D01*
X59182000Y-61673619D01*
X59327142Y-61722000D01*
X59423904Y-61818761D01*
X59472285Y-61915523D01*
X59520666Y-62109047D01*
X59520666Y-62254190D01*
X59472285Y-62447714D01*
X59423904Y-62544476D01*
X59327142Y-62641238D01*
X59182000Y-62689619D01*
X58940095Y-62689619D01*
X57948285Y-59859333D02*
X58432095Y-59859333D01*
X57851523Y-60149619D02*
X58190190Y-59133619D01*
X58528857Y-60149619D01*
X59061047Y-59133619D02*
X59157809Y-59133619D01*
X59254571Y-59182000D01*
X59302952Y-59230380D01*
X59351333Y-59327142D01*
X59399714Y-59520666D01*
X59399714Y-59762571D01*
X59351333Y-59956095D01*
X59302952Y-60052857D01*
X59254571Y-60101238D01*
X59157809Y-60149619D01*
X59061047Y-60149619D01*
X58964285Y-60101238D01*
X58915904Y-60052857D01*
X58867523Y-59956095D01*
X58819142Y-59762571D01*
X58819142Y-59520666D01*
X58867523Y-59327142D01*
X58915904Y-59230380D01*
X58964285Y-59182000D01*
X59061047Y-59133619D01*
X57948285Y-57319333D02*
X58432095Y-57319333D01*
X57851523Y-57609619D02*
X58190190Y-56593619D01*
X58528857Y-57609619D01*
X59399714Y-57609619D02*
X58819142Y-57609619D01*
X59109428Y-57609619D02*
X59109428Y-56593619D01*
X59012666Y-56738761D01*
X58915904Y-56835523D01*
X58819142Y-56883904D01*
X57948285Y-54779333D02*
X58432095Y-54779333D01*
X57851523Y-55069619D02*
X58190190Y-54053619D01*
X58528857Y-55069619D01*
X58819142Y-54150380D02*
X58867523Y-54102000D01*
X58964285Y-54053619D01*
X59206190Y-54053619D01*
X59302952Y-54102000D01*
X59351333Y-54150380D01*
X59399714Y-54247142D01*
X59399714Y-54343904D01*
X59351333Y-54489047D01*
X58770761Y-55069619D01*
X59399714Y-55069619D01*
X57948285Y-52239333D02*
X58432095Y-52239333D01*
X57851523Y-52529619D02*
X58190190Y-51513619D01*
X58528857Y-52529619D01*
X58770761Y-51513619D02*
X59399714Y-51513619D01*
X59061047Y-51900666D01*
X59206190Y-51900666D01*
X59302952Y-51949047D01*
X59351333Y-51997428D01*
X59399714Y-52094190D01*
X59399714Y-52336095D01*
X59351333Y-52432857D01*
X59302952Y-52481238D01*
X59206190Y-52529619D01*
X58915904Y-52529619D01*
X58819142Y-52481238D01*
X58770761Y-52432857D01*
X57948285Y-49699333D02*
X58432095Y-49699333D01*
X57851523Y-49989619D02*
X58190190Y-48973619D01*
X58528857Y-49989619D01*
X59302952Y-49312285D02*
X59302952Y-49989619D01*
X59061047Y-48925238D02*
X58819142Y-49650952D01*
X59448095Y-49650952D01*
X57948285Y-47159333D02*
X58432095Y-47159333D01*
X57851523Y-47449619D02*
X58190190Y-46433619D01*
X58528857Y-47449619D01*
X59351333Y-46433619D02*
X58867523Y-46433619D01*
X58819142Y-46917428D01*
X58867523Y-46869047D01*
X58964285Y-46820666D01*
X59206190Y-46820666D01*
X59302952Y-46869047D01*
X59351333Y-46917428D01*
X59399714Y-47014190D01*
X59399714Y-47256095D01*
X59351333Y-47352857D01*
X59302952Y-47401238D01*
X59206190Y-47449619D01*
X58964285Y-47449619D01*
X58867523Y-47401238D01*
X58819142Y-47352857D01*
X57113714Y-44861238D02*
X57258857Y-44909619D01*
X57500761Y-44909619D01*
X57597523Y-44861238D01*
X57645904Y-44812857D01*
X57694285Y-44716095D01*
X57694285Y-44619333D01*
X57645904Y-44522571D01*
X57597523Y-44474190D01*
X57500761Y-44425809D01*
X57307238Y-44377428D01*
X57210476Y-44329047D01*
X57162095Y-44280666D01*
X57113714Y-44183904D01*
X57113714Y-44087142D01*
X57162095Y-43990380D01*
X57210476Y-43942000D01*
X57307238Y-43893619D01*
X57549142Y-43893619D01*
X57694285Y-43942000D01*
X58710285Y-44812857D02*
X58661904Y-44861238D01*
X58516761Y-44909619D01*
X58420000Y-44909619D01*
X58274857Y-44861238D01*
X58178095Y-44764476D01*
X58129714Y-44667714D01*
X58081333Y-44474190D01*
X58081333Y-44329047D01*
X58129714Y-44135523D01*
X58178095Y-44038761D01*
X58274857Y-43942000D01*
X58420000Y-43893619D01*
X58516761Y-43893619D01*
X58661904Y-43942000D01*
X58710285Y-43990380D01*
X59145714Y-44909619D02*
X59145714Y-43893619D01*
X59726285Y-44909619D02*
X59290857Y-44329047D01*
X59726285Y-43893619D02*
X59145714Y-44474190D01*
X56315428Y-42623619D02*
X56315428Y-41607619D01*
X56654095Y-42333333D01*
X56992761Y-41607619D01*
X56992761Y-42623619D01*
X57670095Y-41607619D02*
X57863619Y-41607619D01*
X57960380Y-41656000D01*
X58057142Y-41752761D01*
X58105523Y-41946285D01*
X58105523Y-42284952D01*
X58057142Y-42478476D01*
X57960380Y-42575238D01*
X57863619Y-42623619D01*
X57670095Y-42623619D01*
X57573333Y-42575238D01*
X57476571Y-42478476D01*
X57428190Y-42284952D01*
X57428190Y-41946285D01*
X57476571Y-41752761D01*
X57573333Y-41656000D01*
X57670095Y-41607619D01*
X58492571Y-42575238D02*
X58637714Y-42623619D01*
X58879619Y-42623619D01*
X58976380Y-42575238D01*
X59024761Y-42526857D01*
X59073142Y-42430095D01*
X59073142Y-42333333D01*
X59024761Y-42236571D01*
X58976380Y-42188190D01*
X58879619Y-42139809D01*
X58686095Y-42091428D01*
X58589333Y-42043047D01*
X58540952Y-41994666D01*
X58492571Y-41897904D01*
X58492571Y-41801142D01*
X58540952Y-41704380D01*
X58589333Y-41656000D01*
X58686095Y-41607619D01*
X58928000Y-41607619D01*
X59073142Y-41656000D01*
X59508571Y-42623619D02*
X59508571Y-41607619D01*
X56315428Y-39829619D02*
X56315428Y-38813619D01*
X56654095Y-39539333D01*
X56992761Y-38813619D01*
X56992761Y-39829619D01*
X57476571Y-39829619D02*
X57476571Y-38813619D01*
X57912000Y-39781238D02*
X58057142Y-39829619D01*
X58299047Y-39829619D01*
X58395809Y-39781238D01*
X58444190Y-39732857D01*
X58492571Y-39636095D01*
X58492571Y-39539333D01*
X58444190Y-39442571D01*
X58395809Y-39394190D01*
X58299047Y-39345809D01*
X58105523Y-39297428D01*
X58008761Y-39249047D01*
X57960380Y-39200666D01*
X57912000Y-39103904D01*
X57912000Y-39007142D01*
X57960380Y-38910380D01*
X58008761Y-38862000D01*
X58105523Y-38813619D01*
X58347428Y-38813619D01*
X58492571Y-38862000D01*
X59121523Y-38813619D02*
X59315047Y-38813619D01*
X59411809Y-38862000D01*
X59508571Y-38958761D01*
X59556952Y-39152285D01*
X59556952Y-39490952D01*
X59508571Y-39684476D01*
X59411809Y-39781238D01*
X59315047Y-39829619D01*
X59121523Y-39829619D01*
X59024761Y-39781238D01*
X58927999Y-39684476D01*
X58879619Y-39490952D01*
X58879619Y-39152285D01*
X58927999Y-38958761D01*
X59024761Y-38862000D01*
X59121523Y-38813619D01*
X58758666Y-37543619D02*
X58420000Y-37059809D01*
X58178095Y-37543619D02*
X58178095Y-36527619D01*
X58565142Y-36527619D01*
X58661904Y-36576000D01*
X58710285Y-36624380D01*
X58758666Y-36721142D01*
X58758666Y-36866285D01*
X58710285Y-36963047D01*
X58661904Y-37011428D01*
X58565142Y-37059809D01*
X58178095Y-37059809D01*
X59097333Y-36527619D02*
X59774666Y-37543619D01*
X59774666Y-36527619D02*
X59097333Y-37543619D01*
X58153904Y-33733619D02*
X58734476Y-33733619D01*
X58444190Y-34749619D02*
X58444190Y-33733619D01*
X58976380Y-33733619D02*
X59653714Y-34749619D01*
X59653714Y-33733619D02*
X58976380Y-34749619D01*
X55517142Y-31677428D02*
X55662285Y-31725809D01*
X55710666Y-31774190D01*
X55759047Y-31870952D01*
X55759047Y-32016095D01*
X55710666Y-32112857D01*
X55662285Y-32161238D01*
X55565523Y-32209619D01*
X55178476Y-32209619D01*
X55178476Y-31193619D01*
X55517142Y-31193619D01*
X55613904Y-31242000D01*
X55662285Y-31290380D01*
X55710666Y-31387142D01*
X55710666Y-31483904D01*
X55662285Y-31580666D01*
X55613904Y-31629047D01*
X55517142Y-31677428D01*
X55178476Y-31677428D01*
X56146095Y-32161238D02*
X56291238Y-32209619D01*
X56533142Y-32209619D01*
X56629904Y-32161238D01*
X56678285Y-32112857D01*
X56726666Y-32016095D01*
X56726666Y-31919333D01*
X56678285Y-31822571D01*
X56629904Y-31774190D01*
X56533142Y-31725809D01*
X56339619Y-31677428D01*
X56242857Y-31629047D01*
X56194476Y-31580666D01*
X56146095Y-31483904D01*
X56146095Y-31387142D01*
X56194476Y-31290380D01*
X56242857Y-31242000D01*
X56339619Y-31193619D01*
X56581523Y-31193619D01*
X56726666Y-31242000D01*
X57162095Y-32209619D02*
X57162095Y-31193619D01*
X57549142Y-31193619D01*
X57645904Y-31242000D01*
X57694285Y-31290380D01*
X57742666Y-31387142D01*
X57742666Y-31532285D01*
X57694285Y-31629047D01*
X57645904Y-31677428D01*
X57549142Y-31725809D01*
X57162095Y-31725809D01*
X58178095Y-31677428D02*
X58516761Y-31677428D01*
X58661904Y-32209619D02*
X58178095Y-32209619D01*
X58178095Y-31193619D01*
X58661904Y-31193619D01*
X59677904Y-32112857D02*
X59629523Y-32161238D01*
X59484380Y-32209619D01*
X59387619Y-32209619D01*
X59242476Y-32161238D01*
X59145714Y-32064476D01*
X59097333Y-31967714D01*
X59048952Y-31774190D01*
X59048952Y-31629047D01*
X59097333Y-31435523D01*
X59145714Y-31338761D01*
X59242476Y-31242000D01*
X59387619Y-31193619D01*
X59484380Y-31193619D01*
X59629523Y-31242000D01*
X59677904Y-31290380D01*
X42303095Y-59617428D02*
X42448238Y-59665809D01*
X42496619Y-59714190D01*
X42545000Y-59810952D01*
X42545000Y-59956095D01*
X42496619Y-60052857D01*
X42448238Y-60101238D01*
X42351476Y-60149619D01*
X41964428Y-60149619D01*
X41964428Y-59133619D01*
X42303095Y-59133619D01*
X42399857Y-59182000D01*
X42448238Y-59230380D01*
X42496619Y-59327142D01*
X42496619Y-59423904D01*
X42448238Y-59520666D01*
X42399857Y-59569047D01*
X42303095Y-59617428D01*
X41964428Y-59617428D01*
X42932047Y-59859333D02*
X43415857Y-59859333D01*
X42835285Y-60149619D02*
X43173952Y-59133619D01*
X43512619Y-60149619D01*
X43706142Y-59133619D02*
X44286714Y-59133619D01*
X43996428Y-60149619D02*
X43996428Y-59133619D01*
X41922095Y-57077428D02*
X42260761Y-57077428D01*
X42405904Y-57609619D02*
X41922095Y-57609619D01*
X41922095Y-56593619D01*
X42405904Y-56593619D01*
X42841333Y-57609619D02*
X42841333Y-56593619D01*
X43421904Y-57609619D01*
X43421904Y-56593619D01*
X41897904Y-54053619D02*
X41897904Y-54876095D01*
X41946285Y-54972857D01*
X41994666Y-55021238D01*
X42091428Y-55069619D01*
X42284952Y-55069619D01*
X42381714Y-55021238D01*
X42430095Y-54972857D01*
X42478476Y-54876095D01*
X42478476Y-54053619D01*
X42913904Y-55021238D02*
X43059047Y-55069619D01*
X43300952Y-55069619D01*
X43397714Y-55021238D01*
X43446095Y-54972857D01*
X43494476Y-54876095D01*
X43494476Y-54779333D01*
X43446095Y-54682571D01*
X43397714Y-54634190D01*
X43300952Y-54585809D01*
X43107428Y-54537428D01*
X43010666Y-54489047D01*
X42962285Y-54440666D01*
X42913904Y-54343904D01*
X42913904Y-54247142D01*
X42962285Y-54150380D01*
X43010666Y-54102000D01*
X43107428Y-54053619D01*
X43349333Y-54053619D01*
X43494476Y-54102000D01*
X44268571Y-54537428D02*
X44413714Y-54585809D01*
X44462095Y-54634190D01*
X44510476Y-54730952D01*
X44510476Y-54876095D01*
X44462095Y-54972857D01*
X44413714Y-55021238D01*
X44316952Y-55069619D01*
X43929904Y-55069619D01*
X43929904Y-54053619D01*
X44268571Y-54053619D01*
X44365333Y-54102000D01*
X44413714Y-54150380D01*
X44462095Y-54247142D01*
X44462095Y-54343904D01*
X44413714Y-54440666D01*
X44365333Y-54489047D01*
X44268571Y-54537428D01*
X43929904Y-54537428D01*
X41946285Y-52529619D02*
X41946285Y-51513619D01*
X42188190Y-51513619D01*
X42333333Y-51562000D01*
X42430095Y-51658761D01*
X42478476Y-51755523D01*
X42526857Y-51949047D01*
X42526857Y-52094190D01*
X42478476Y-52287714D01*
X42430095Y-52384476D01*
X42333333Y-52481238D01*
X42188190Y-52529619D01*
X41946285Y-52529619D01*
X43494476Y-52529619D02*
X42913904Y-52529619D01*
X43204190Y-52529619D02*
X43204190Y-51513619D01*
X43107428Y-51658761D01*
X43010666Y-51755523D01*
X42913904Y-51803904D01*
X43833142Y-51513619D02*
X44462095Y-51513619D01*
X44123428Y-51900666D01*
X44268571Y-51900666D01*
X44365333Y-51949047D01*
X44413714Y-51997428D01*
X44462095Y-52094190D01*
X44462095Y-52336095D01*
X44413714Y-52432857D01*
X44365333Y-52481238D01*
X44268571Y-52529619D01*
X43978285Y-52529619D01*
X43881523Y-52481238D01*
X43833142Y-52432857D01*
X41946285Y-50243619D02*
X41946285Y-49227619D01*
X42188190Y-49227619D01*
X42333333Y-49276000D01*
X42430095Y-49372761D01*
X42478476Y-49469523D01*
X42526857Y-49663047D01*
X42526857Y-49808190D01*
X42478476Y-50001714D01*
X42430095Y-50098476D01*
X42333333Y-50195238D01*
X42188190Y-50243619D01*
X41946285Y-50243619D01*
X43494476Y-50243619D02*
X42913904Y-50243619D01*
X43204190Y-50243619D02*
X43204190Y-49227619D01*
X43107428Y-49372761D01*
X43010666Y-49469523D01*
X42913904Y-49517904D01*
X43881523Y-49324380D02*
X43929904Y-49276000D01*
X44026666Y-49227619D01*
X44268571Y-49227619D01*
X44365333Y-49276000D01*
X44413714Y-49324380D01*
X44462095Y-49421142D01*
X44462095Y-49517904D01*
X44413714Y-49663047D01*
X43833142Y-50243619D01*
X44462095Y-50243619D01*
X41946285Y-47449619D02*
X41946285Y-46433619D01*
X42188190Y-46433619D01*
X42333333Y-46482000D01*
X42430095Y-46578761D01*
X42478476Y-46675523D01*
X42526857Y-46869047D01*
X42526857Y-47014190D01*
X42478476Y-47207714D01*
X42430095Y-47304476D01*
X42333333Y-47401238D01*
X42188190Y-47449619D01*
X41946285Y-47449619D01*
X43494476Y-47449619D02*
X42913904Y-47449619D01*
X43204190Y-47449619D02*
X43204190Y-46433619D01*
X43107428Y-46578761D01*
X43010666Y-46675523D01*
X42913904Y-46723904D01*
X44462095Y-47449619D02*
X43881523Y-47449619D01*
X44171809Y-47449619D02*
X44171809Y-46433619D01*
X44075047Y-46578761D01*
X43978285Y-46675523D01*
X43881523Y-46723904D01*
X41946285Y-44909619D02*
X41946285Y-43893619D01*
X42188190Y-43893619D01*
X42333333Y-43942000D01*
X42430095Y-44038761D01*
X42478476Y-44135523D01*
X42526857Y-44329047D01*
X42526857Y-44474190D01*
X42478476Y-44667714D01*
X42430095Y-44764476D01*
X42333333Y-44861238D01*
X42188190Y-44909619D01*
X41946285Y-44909619D01*
X43494476Y-44909619D02*
X42913904Y-44909619D01*
X43204190Y-44909619D02*
X43204190Y-43893619D01*
X43107428Y-44038761D01*
X43010666Y-44135523D01*
X42913904Y-44183904D01*
X44123428Y-43893619D02*
X44220190Y-43893619D01*
X44316952Y-43942000D01*
X44365333Y-43990380D01*
X44413714Y-44087142D01*
X44462095Y-44280666D01*
X44462095Y-44522571D01*
X44413714Y-44716095D01*
X44365333Y-44812857D01*
X44316952Y-44861238D01*
X44220190Y-44909619D01*
X44123428Y-44909619D01*
X44026666Y-44861238D01*
X43978285Y-44812857D01*
X43929904Y-44716095D01*
X43881523Y-44522571D01*
X43881523Y-44280666D01*
X43929904Y-44087142D01*
X43978285Y-43990380D01*
X44026666Y-43942000D01*
X44123428Y-43893619D01*
X41922095Y-42369619D02*
X41922095Y-41353619D01*
X42164000Y-41353619D01*
X42309142Y-41402000D01*
X42405904Y-41498761D01*
X42454285Y-41595523D01*
X42502666Y-41789047D01*
X42502666Y-41934190D01*
X42454285Y-42127714D01*
X42405904Y-42224476D01*
X42309142Y-42321238D01*
X42164000Y-42369619D01*
X41922095Y-42369619D01*
X42986476Y-42369619D02*
X43180000Y-42369619D01*
X43276761Y-42321238D01*
X43325142Y-42272857D01*
X43421904Y-42127714D01*
X43470285Y-41934190D01*
X43470285Y-41547142D01*
X43421904Y-41450380D01*
X43373523Y-41402000D01*
X43276761Y-41353619D01*
X43083238Y-41353619D01*
X42986476Y-41402000D01*
X42938095Y-41450380D01*
X42889714Y-41547142D01*
X42889714Y-41789047D01*
X42938095Y-41885809D01*
X42986476Y-41934190D01*
X43083238Y-41982571D01*
X43276761Y-41982571D01*
X43373523Y-41934190D01*
X43421904Y-41885809D01*
X43470285Y-41789047D01*
X41922095Y-39829619D02*
X41922095Y-38813619D01*
X42164000Y-38813619D01*
X42309142Y-38862000D01*
X42405904Y-38958761D01*
X42454285Y-39055523D01*
X42502666Y-39249047D01*
X42502666Y-39394190D01*
X42454285Y-39587714D01*
X42405904Y-39684476D01*
X42309142Y-39781238D01*
X42164000Y-39829619D01*
X41922095Y-39829619D01*
X43373523Y-38813619D02*
X43180000Y-38813619D01*
X43083238Y-38862000D01*
X43034857Y-38910380D01*
X42938095Y-39055523D01*
X42889714Y-39249047D01*
X42889714Y-39636095D01*
X42938095Y-39732857D01*
X42986476Y-39781238D01*
X43083238Y-39829619D01*
X43276761Y-39829619D01*
X43373523Y-39781238D01*
X43421904Y-39732857D01*
X43470285Y-39636095D01*
X43470285Y-39394190D01*
X43421904Y-39297428D01*
X43373523Y-39249047D01*
X43276761Y-39200666D01*
X43083238Y-39200666D01*
X42986476Y-39249047D01*
X42938095Y-39297428D01*
X42889714Y-39394190D01*
X41922095Y-37416619D02*
X41922095Y-36400619D01*
X42164000Y-36400619D01*
X42309142Y-36449000D01*
X42405904Y-36545761D01*
X42454285Y-36642523D01*
X42502666Y-36836047D01*
X42502666Y-36981190D01*
X42454285Y-37174714D01*
X42405904Y-37271476D01*
X42309142Y-37368238D01*
X42164000Y-37416619D01*
X41922095Y-37416619D01*
X43421904Y-36400619D02*
X42938095Y-36400619D01*
X42889714Y-36884428D01*
X42938095Y-36836047D01*
X43034857Y-36787666D01*
X43276761Y-36787666D01*
X43373523Y-36836047D01*
X43421904Y-36884428D01*
X43470285Y-36981190D01*
X43470285Y-37223095D01*
X43421904Y-37319857D01*
X43373523Y-37368238D01*
X43276761Y-37416619D01*
X43034857Y-37416619D01*
X42938095Y-37368238D01*
X42889714Y-37319857D01*
X41970476Y-34701238D02*
X42115619Y-34749619D01*
X42357523Y-34749619D01*
X42454285Y-34701238D01*
X42502666Y-34652857D01*
X42551047Y-34556095D01*
X42551047Y-34459333D01*
X42502666Y-34362571D01*
X42454285Y-34314190D01*
X42357523Y-34265809D01*
X42164000Y-34217428D01*
X42067238Y-34169047D01*
X42018857Y-34120666D01*
X41970476Y-34023904D01*
X41970476Y-33927142D01*
X42018857Y-33830380D01*
X42067238Y-33782000D01*
X42164000Y-33733619D01*
X42405904Y-33733619D01*
X42551047Y-33782000D01*
X43567047Y-34652857D02*
X43518666Y-34701238D01*
X43373523Y-34749619D01*
X43276761Y-34749619D01*
X43131619Y-34701238D01*
X43034857Y-34604476D01*
X42986476Y-34507714D01*
X42938095Y-34314190D01*
X42938095Y-34169047D01*
X42986476Y-33975523D01*
X43034857Y-33878761D01*
X43131619Y-33782000D01*
X43276761Y-33733619D01*
X43373523Y-33733619D01*
X43518666Y-33782000D01*
X43567047Y-33830380D01*
X44486285Y-34749619D02*
X44002476Y-34749619D01*
X44002476Y-33733619D01*
X41946285Y-32161238D02*
X42091428Y-32209619D01*
X42333333Y-32209619D01*
X42430095Y-32161238D01*
X42478476Y-32112857D01*
X42526857Y-32016095D01*
X42526857Y-31919333D01*
X42478476Y-31822571D01*
X42430095Y-31774190D01*
X42333333Y-31725809D01*
X42139809Y-31677428D01*
X42043047Y-31629047D01*
X41994666Y-31580666D01*
X41946285Y-31483904D01*
X41946285Y-31387142D01*
X41994666Y-31290380D01*
X42043047Y-31242000D01*
X42139809Y-31193619D01*
X42381714Y-31193619D01*
X42526857Y-31242000D01*
X42962285Y-32209619D02*
X42962285Y-31193619D01*
X43204190Y-31193619D01*
X43349333Y-31242000D01*
X43446095Y-31338761D01*
X43494476Y-31435523D01*
X43542857Y-31629047D01*
X43542857Y-31774190D01*
X43494476Y-31967714D01*
X43446095Y-32064476D01*
X43349333Y-32161238D01*
X43204190Y-32209619D01*
X42962285Y-32209619D01*
X43929904Y-31919333D02*
X44413714Y-31919333D01*
X43833142Y-32209619D02*
X44171809Y-31193619D01*
X44510476Y-32209619D01*
D14*
X43815000Y-70702714D02*
X43815000Y-71247000D01*
X43778714Y-71355857D01*
X43706142Y-71428428D01*
X43597285Y-71464714D01*
X43524714Y-71464714D01*
X44577000Y-71464714D02*
X44141571Y-71464714D01*
X44359285Y-71464714D02*
X44359285Y-70702714D01*
X44286714Y-70811571D01*
X44214142Y-70884142D01*
X44141571Y-70920428D01*
X45302714Y-64643000D02*
X45847000Y-64643000D01*
X45955857Y-64679285D01*
X46028428Y-64751857D01*
X46064714Y-64860714D01*
X46064714Y-64933285D01*
X45375285Y-64316428D02*
X45339000Y-64280142D01*
X45302714Y-64207571D01*
X45302714Y-64026142D01*
X45339000Y-63953571D01*
X45375285Y-63917285D01*
X45447857Y-63881000D01*
X45520428Y-63881000D01*
X45629285Y-63917285D01*
X46064714Y-64352714D01*
X46064714Y-63881000D01*
X46782714Y-27940000D02*
X47327000Y-27940000D01*
X47435857Y-27976285D01*
X47508428Y-28048857D01*
X47544714Y-28157714D01*
X47544714Y-28230285D01*
X46782714Y-27649714D02*
X46782714Y-27178000D01*
X47073000Y-27432000D01*
X47073000Y-27323142D01*
X47109285Y-27250571D01*
X47145571Y-27214285D01*
X47218142Y-27178000D01*
X47399571Y-27178000D01*
X47472142Y-27214285D01*
X47508428Y-27250571D01*
X47544714Y-27323142D01*
X47544714Y-27540857D01*
X47508428Y-27613428D01*
X47472142Y-27649714D01*
X48949428Y-52795714D02*
X48949428Y-53412571D01*
X48985714Y-53485142D01*
X49022000Y-53521428D01*
X49094571Y-53557714D01*
X49239714Y-53557714D01*
X49312285Y-53521428D01*
X49348571Y-53485142D01*
X49384857Y-53412571D01*
X49384857Y-52795714D01*
X49675142Y-52795714D02*
X50146857Y-52795714D01*
X49892857Y-53086000D01*
X50001714Y-53086000D01*
X50074285Y-53122285D01*
X50110571Y-53158571D01*
X50146857Y-53231142D01*
X50146857Y-53412571D01*
X50110571Y-53485142D01*
X50074285Y-53521428D01*
X50001714Y-53557714D01*
X49784000Y-53557714D01*
X49711428Y-53521428D01*
X49675142Y-53485142D01*
X47316571Y-43270714D02*
X47316571Y-42508714D01*
X47570571Y-43053000D01*
X47824571Y-42508714D01*
X47824571Y-43270714D01*
X48622857Y-43198142D02*
X48586571Y-43234428D01*
X48477714Y-43270714D01*
X48405142Y-43270714D01*
X48296285Y-43234428D01*
X48223714Y-43161857D01*
X48187428Y-43089285D01*
X48151142Y-42944142D01*
X48151142Y-42835285D01*
X48187428Y-42690142D01*
X48223714Y-42617571D01*
X48296285Y-42545000D01*
X48405142Y-42508714D01*
X48477714Y-42508714D01*
X48586571Y-42545000D01*
X48622857Y-42581285D01*
X48949428Y-43270714D02*
X48949428Y-42508714D01*
X49239714Y-42508714D01*
X49312285Y-42545000D01*
X49348571Y-42581285D01*
X49384857Y-42653857D01*
X49384857Y-42762714D01*
X49348571Y-42835285D01*
X49312285Y-42871571D01*
X49239714Y-42907857D01*
X48949428Y-42907857D01*
X50038000Y-42508714D02*
X49892857Y-42508714D01*
X49820285Y-42545000D01*
X49784000Y-42581285D01*
X49711428Y-42690142D01*
X49675142Y-42835285D01*
X49675142Y-43125571D01*
X49711428Y-43198142D01*
X49747714Y-43234428D01*
X49820285Y-43270714D01*
X49965428Y-43270714D01*
X50038000Y-43234428D01*
X50074285Y-43198142D01*
X50110571Y-43125571D01*
X50110571Y-42944142D01*
X50074285Y-42871571D01*
X50038000Y-42835285D01*
X49965428Y-42799000D01*
X49820285Y-42799000D01*
X49747714Y-42835285D01*
X49711428Y-42871571D01*
X49675142Y-42944142D01*
X50582285Y-42508714D02*
X50654857Y-42508714D01*
X50727428Y-42545000D01*
X50763714Y-42581285D01*
X50800000Y-42653857D01*
X50836285Y-42799000D01*
X50836285Y-42980428D01*
X50800000Y-43125571D01*
X50763714Y-43198142D01*
X50727428Y-43234428D01*
X50654857Y-43270714D01*
X50582285Y-43270714D01*
X50509714Y-43234428D01*
X50473428Y-43198142D01*
X50437142Y-43125571D01*
X50400857Y-42980428D01*
X50400857Y-42799000D01*
X50437142Y-42653857D01*
X50473428Y-42581285D01*
X50509714Y-42545000D01*
X50582285Y-42508714D01*
X51308000Y-42508714D02*
X51380571Y-42508714D01*
X51453142Y-42545000D01*
X51489428Y-42581285D01*
X51525714Y-42653857D01*
X51562000Y-42799000D01*
X51562000Y-42980428D01*
X51525714Y-43125571D01*
X51489428Y-43198142D01*
X51453142Y-43234428D01*
X51380571Y-43270714D01*
X51308000Y-43270714D01*
X51235428Y-43234428D01*
X51199142Y-43198142D01*
X51162857Y-43125571D01*
X51126571Y-42980428D01*
X51126571Y-42799000D01*
X51162857Y-42653857D01*
X51199142Y-42581285D01*
X51235428Y-42545000D01*
X51308000Y-42508714D01*
X52215142Y-42762714D02*
X52215142Y-43270714D01*
X52033714Y-42472428D02*
X51852285Y-43016714D01*
X52324000Y-43016714D01*
X56025142Y-51562000D02*
X56061428Y-51598285D01*
X56097714Y-51707142D01*
X56097714Y-51779714D01*
X56061428Y-51888571D01*
X55988857Y-51961142D01*
X55916285Y-51997428D01*
X55771142Y-52033714D01*
X55662285Y-52033714D01*
X55517142Y-51997428D01*
X55444571Y-51961142D01*
X55372000Y-51888571D01*
X55335714Y-51779714D01*
X55335714Y-51707142D01*
X55372000Y-51598285D01*
X55408285Y-51562000D01*
X56097714Y-50836285D02*
X56097714Y-51271714D01*
X56097714Y-51054000D02*
X55335714Y-51054000D01*
X55444571Y-51126571D01*
X55517142Y-51199142D01*
X55553428Y-51271714D01*
X54192714Y-50527857D02*
X54192714Y-50455285D01*
X54229000Y-50382714D01*
X54265285Y-50346428D01*
X54337857Y-50310142D01*
X54483000Y-50273857D01*
X54664428Y-50273857D01*
X54809571Y-50310142D01*
X54882142Y-50346428D01*
X54918428Y-50382714D01*
X54954714Y-50455285D01*
X54954714Y-50527857D01*
X54918428Y-50600428D01*
X54882142Y-50636714D01*
X54809571Y-50673000D01*
X54664428Y-50709285D01*
X54483000Y-50709285D01*
X54337857Y-50673000D01*
X54265285Y-50636714D01*
X54229000Y-50600428D01*
X54192714Y-50527857D01*
X54882142Y-49947285D02*
X54918428Y-49911000D01*
X54954714Y-49947285D01*
X54918428Y-49983571D01*
X54882142Y-49947285D01*
X54954714Y-49947285D01*
X54954714Y-49185285D02*
X54954714Y-49620714D01*
X54954714Y-49403000D02*
X54192714Y-49403000D01*
X54301571Y-49475571D01*
X54374142Y-49548142D01*
X54410428Y-49620714D01*
X54446714Y-48532142D02*
X54954714Y-48532142D01*
X54446714Y-48858714D02*
X54845857Y-48858714D01*
X54918428Y-48822428D01*
X54954714Y-48749857D01*
X54954714Y-48641000D01*
X54918428Y-48568428D01*
X54882142Y-48532142D01*
X54555571Y-47915285D02*
X54555571Y-48169285D01*
X54954714Y-48169285D02*
X54192714Y-48169285D01*
X54192714Y-47806428D01*
X55517142Y-42926000D02*
X55553428Y-42962285D01*
X55589714Y-43071142D01*
X55589714Y-43143714D01*
X55553428Y-43252571D01*
X55480857Y-43325142D01*
X55408285Y-43361428D01*
X55263142Y-43397714D01*
X55154285Y-43397714D01*
X55009142Y-43361428D01*
X54936571Y-43325142D01*
X54864000Y-43252571D01*
X54827714Y-43143714D01*
X54827714Y-43071142D01*
X54864000Y-42962285D01*
X54900285Y-42926000D01*
X54900285Y-42635714D02*
X54864000Y-42599428D01*
X54827714Y-42526857D01*
X54827714Y-42345428D01*
X54864000Y-42272857D01*
X54900285Y-42236571D01*
X54972857Y-42200285D01*
X55045428Y-42200285D01*
X55154285Y-42236571D01*
X55589714Y-42672000D01*
X55589714Y-42200285D01*
X54954714Y-45411571D02*
X54954714Y-45847000D01*
X54954714Y-45629285D02*
X54192714Y-45629285D01*
X54301571Y-45701857D01*
X54374142Y-45774428D01*
X54410428Y-45847000D01*
X54446714Y-44758428D02*
X54954714Y-44758428D01*
X54446714Y-45085000D02*
X54845857Y-45085000D01*
X54918428Y-45048714D01*
X54954714Y-44976142D01*
X54954714Y-44867285D01*
X54918428Y-44794714D01*
X54882142Y-44758428D01*
X54555571Y-44141571D02*
X54555571Y-44395571D01*
X54954714Y-44395571D02*
X54192714Y-44395571D01*
X54192714Y-44032714D01*
X55499000Y-59835142D02*
X55462714Y-59871428D01*
X55353857Y-59907714D01*
X55281285Y-59907714D01*
X55172428Y-59871428D01*
X55099857Y-59798857D01*
X55063571Y-59726285D01*
X55027285Y-59581142D01*
X55027285Y-59472285D01*
X55063571Y-59327142D01*
X55099857Y-59254571D01*
X55172428Y-59182000D01*
X55281285Y-59145714D01*
X55353857Y-59145714D01*
X55462714Y-59182000D01*
X55499000Y-59218285D01*
X55753000Y-59145714D02*
X56224714Y-59145714D01*
X55970714Y-59436000D01*
X56079571Y-59436000D01*
X56152142Y-59472285D01*
X56188428Y-59508571D01*
X56224714Y-59581142D01*
X56224714Y-59762571D01*
X56188428Y-59835142D01*
X56152142Y-59871428D01*
X56079571Y-59907714D01*
X55861857Y-59907714D01*
X55789285Y-59871428D01*
X55753000Y-59835142D01*
X45847000Y-33038142D02*
X45810714Y-33074428D01*
X45701857Y-33110714D01*
X45629285Y-33110714D01*
X45520428Y-33074428D01*
X45447857Y-33001857D01*
X45411571Y-32929285D01*
X45375285Y-32784142D01*
X45375285Y-32675285D01*
X45411571Y-32530142D01*
X45447857Y-32457571D01*
X45520428Y-32385000D01*
X45629285Y-32348714D01*
X45701857Y-32348714D01*
X45810714Y-32385000D01*
X45847000Y-32421285D01*
X46500142Y-32602714D02*
X46500142Y-33110714D01*
X46318714Y-32312428D02*
X46137285Y-32856714D01*
X46609000Y-32856714D01*
X47008142Y-31078714D02*
X47080714Y-31078714D01*
X47153285Y-31115000D01*
X47189571Y-31151285D01*
X47225857Y-31223857D01*
X47262142Y-31369000D01*
X47262142Y-31550428D01*
X47225857Y-31695571D01*
X47189571Y-31768142D01*
X47153285Y-31804428D01*
X47080714Y-31840714D01*
X47008142Y-31840714D01*
X46935571Y-31804428D01*
X46899285Y-31768142D01*
X46863000Y-31695571D01*
X46826714Y-31550428D01*
X46826714Y-31369000D01*
X46863000Y-31223857D01*
X46899285Y-31151285D01*
X46935571Y-31115000D01*
X47008142Y-31078714D01*
X47588714Y-31768142D02*
X47625000Y-31804428D01*
X47588714Y-31840714D01*
X47552428Y-31804428D01*
X47588714Y-31768142D01*
X47588714Y-31840714D01*
X48350714Y-31840714D02*
X47915285Y-31840714D01*
X48133000Y-31840714D02*
X48133000Y-31078714D01*
X48060428Y-31187571D01*
X47987857Y-31260142D01*
X47915285Y-31296428D01*
X49003857Y-31332714D02*
X49003857Y-31840714D01*
X48677285Y-31332714D02*
X48677285Y-31731857D01*
X48713571Y-31804428D01*
X48786142Y-31840714D01*
X48895000Y-31840714D01*
X48967571Y-31804428D01*
X49003857Y-31768142D01*
X49620714Y-31441571D02*
X49366714Y-31441571D01*
X49366714Y-31840714D02*
X49366714Y-31078714D01*
X49729571Y-31078714D01*
X48514000Y-41420142D02*
X48477714Y-41456428D01*
X48368857Y-41492714D01*
X48296285Y-41492714D01*
X48187428Y-41456428D01*
X48114857Y-41383857D01*
X48078571Y-41311285D01*
X48042285Y-41166142D01*
X48042285Y-41057285D01*
X48078571Y-40912142D01*
X48114857Y-40839571D01*
X48187428Y-40767000D01*
X48296285Y-40730714D01*
X48368857Y-40730714D01*
X48477714Y-40767000D01*
X48514000Y-40803285D01*
X49203428Y-40730714D02*
X48840571Y-40730714D01*
X48804285Y-41093571D01*
X48840571Y-41057285D01*
X48913142Y-41021000D01*
X49094571Y-41021000D01*
X49167142Y-41057285D01*
X49203428Y-41093571D01*
X49239714Y-41166142D01*
X49239714Y-41347571D01*
X49203428Y-41420142D01*
X49167142Y-41456428D01*
X49094571Y-41492714D01*
X48913142Y-41492714D01*
X48840571Y-41456428D01*
X48804285Y-41420142D01*
X45538571Y-40349714D02*
X45103142Y-40349714D01*
X45320857Y-40349714D02*
X45320857Y-39587714D01*
X45248285Y-39696571D01*
X45175714Y-39769142D01*
X45103142Y-39805428D01*
X46010285Y-39587714D02*
X46082857Y-39587714D01*
X46155428Y-39624000D01*
X46191714Y-39660285D01*
X46228000Y-39732857D01*
X46264285Y-39878000D01*
X46264285Y-40059428D01*
X46228000Y-40204571D01*
X46191714Y-40277142D01*
X46155428Y-40313428D01*
X46082857Y-40349714D01*
X46010285Y-40349714D01*
X45937714Y-40313428D01*
X45901428Y-40277142D01*
X45865142Y-40204571D01*
X45828857Y-40059428D01*
X45828857Y-39878000D01*
X45865142Y-39732857D01*
X45901428Y-39660285D01*
X45937714Y-39624000D01*
X46010285Y-39587714D01*
X46590857Y-39841714D02*
X46590857Y-40349714D01*
X46590857Y-39914285D02*
X46627142Y-39878000D01*
X46699714Y-39841714D01*
X46808571Y-39841714D01*
X46881142Y-39878000D01*
X46917428Y-39950571D01*
X46917428Y-40349714D01*
X47534285Y-39950571D02*
X47280285Y-39950571D01*
X47280285Y-40349714D02*
X47280285Y-39587714D01*
X47643142Y-39587714D01*
X49022000Y-56224714D02*
X48768000Y-55861857D01*
X48586571Y-56224714D02*
X48586571Y-55462714D01*
X48876857Y-55462714D01*
X48949428Y-55499000D01*
X48985714Y-55535285D01*
X49022000Y-55607857D01*
X49022000Y-55716714D01*
X48985714Y-55789285D01*
X48949428Y-55825571D01*
X48876857Y-55861857D01*
X48586571Y-55861857D01*
X49747714Y-56224714D02*
X49312285Y-56224714D01*
X49530000Y-56224714D02*
X49530000Y-55462714D01*
X49457428Y-55571571D01*
X49384857Y-55644142D01*
X49312285Y-55680428D01*
X46536428Y-55081714D02*
X46101000Y-55081714D01*
X46318714Y-55081714D02*
X46318714Y-54319714D01*
X46246142Y-54428571D01*
X46173571Y-54501142D01*
X46101000Y-54537428D01*
X47008142Y-54319714D02*
X47080714Y-54319714D01*
X47153285Y-54356000D01*
X47189571Y-54392285D01*
X47225857Y-54464857D01*
X47262142Y-54610000D01*
X47262142Y-54791428D01*
X47225857Y-54936571D01*
X47189571Y-55009142D01*
X47153285Y-55045428D01*
X47080714Y-55081714D01*
X47008142Y-55081714D01*
X46935571Y-55045428D01*
X46899285Y-55009142D01*
X46863000Y-54936571D01*
X46826714Y-54791428D01*
X46826714Y-54610000D01*
X46863000Y-54464857D01*
X46899285Y-54392285D01*
X46935571Y-54356000D01*
X47008142Y-54319714D01*
X47588714Y-55081714D02*
X47588714Y-54319714D01*
X47661285Y-54791428D02*
X47879000Y-55081714D01*
X47879000Y-54573714D02*
X47588714Y-54864000D01*
X49022000Y-59780714D02*
X48768000Y-59417857D01*
X48586571Y-59780714D02*
X48586571Y-59018714D01*
X48876857Y-59018714D01*
X48949428Y-59055000D01*
X48985714Y-59091285D01*
X49022000Y-59163857D01*
X49022000Y-59272714D01*
X48985714Y-59345285D01*
X48949428Y-59381571D01*
X48876857Y-59417857D01*
X48586571Y-59417857D01*
X49312285Y-59091285D02*
X49348571Y-59055000D01*
X49421142Y-59018714D01*
X49602571Y-59018714D01*
X49675142Y-59055000D01*
X49711428Y-59091285D01*
X49747714Y-59163857D01*
X49747714Y-59236428D01*
X49711428Y-59345285D01*
X49276000Y-59780714D01*
X49747714Y-59780714D01*
X46536428Y-58637714D02*
X46101000Y-58637714D01*
X46318714Y-58637714D02*
X46318714Y-57875714D01*
X46246142Y-57984571D01*
X46173571Y-58057142D01*
X46101000Y-58093428D01*
X47008142Y-57875714D02*
X47080714Y-57875714D01*
X47153285Y-57912000D01*
X47189571Y-57948285D01*
X47225857Y-58020857D01*
X47262142Y-58166000D01*
X47262142Y-58347428D01*
X47225857Y-58492571D01*
X47189571Y-58565142D01*
X47153285Y-58601428D01*
X47080714Y-58637714D01*
X47008142Y-58637714D01*
X46935571Y-58601428D01*
X46899285Y-58565142D01*
X46863000Y-58492571D01*
X46826714Y-58347428D01*
X46826714Y-58166000D01*
X46863000Y-58020857D01*
X46899285Y-57948285D01*
X46935571Y-57912000D01*
X47008142Y-57875714D01*
X47588714Y-58637714D02*
X47588714Y-57875714D01*
X47661285Y-58347428D02*
X47879000Y-58637714D01*
X47879000Y-58129714D02*
X47588714Y-58420000D01*
X55626000Y-56224714D02*
X55372000Y-55861857D01*
X55190571Y-56224714D02*
X55190571Y-55462714D01*
X55480857Y-55462714D01*
X55553428Y-55499000D01*
X55589714Y-55535285D01*
X55626000Y-55607857D01*
X55626000Y-55716714D01*
X55589714Y-55789285D01*
X55553428Y-55825571D01*
X55480857Y-55861857D01*
X55190571Y-55861857D01*
X55880000Y-55462714D02*
X56351714Y-55462714D01*
X56097714Y-55753000D01*
X56206571Y-55753000D01*
X56279142Y-55789285D01*
X56315428Y-55825571D01*
X56351714Y-55898142D01*
X56351714Y-56079571D01*
X56315428Y-56152142D01*
X56279142Y-56188428D01*
X56206571Y-56224714D01*
X55988857Y-56224714D01*
X55916285Y-56188428D01*
X55880000Y-56152142D01*
X51689000Y-36793714D02*
X51435000Y-36430857D01*
X51253571Y-36793714D02*
X51253571Y-36031714D01*
X51543857Y-36031714D01*
X51616428Y-36068000D01*
X51652714Y-36104285D01*
X51689000Y-36176857D01*
X51689000Y-36285714D01*
X51652714Y-36358285D01*
X51616428Y-36394571D01*
X51543857Y-36430857D01*
X51253571Y-36430857D01*
X52342142Y-36285714D02*
X52342142Y-36793714D01*
X52160714Y-35995428D02*
X51979285Y-36539714D01*
X52451000Y-36539714D01*
X53521428Y-35396714D02*
X53086000Y-35396714D01*
X53303714Y-35396714D02*
X53303714Y-34634714D01*
X53231142Y-34743571D01*
X53158571Y-34816142D01*
X53086000Y-34852428D01*
X53993142Y-34634714D02*
X54065714Y-34634714D01*
X54138285Y-34671000D01*
X54174571Y-34707285D01*
X54210857Y-34779857D01*
X54247142Y-34925000D01*
X54247142Y-35106428D01*
X54210857Y-35251571D01*
X54174571Y-35324142D01*
X54138285Y-35360428D01*
X54065714Y-35396714D01*
X53993142Y-35396714D01*
X53920571Y-35360428D01*
X53884285Y-35324142D01*
X53848000Y-35251571D01*
X53811714Y-35106428D01*
X53811714Y-34925000D01*
X53848000Y-34779857D01*
X53884285Y-34707285D01*
X53920571Y-34671000D01*
X53993142Y-34634714D01*
X54573714Y-35396714D02*
X54573714Y-34634714D01*
X54646285Y-35106428D02*
X54864000Y-35396714D01*
X54864000Y-34888714D02*
X54573714Y-35179000D01*
X51689000Y-39714714D02*
X51435000Y-39351857D01*
X51253571Y-39714714D02*
X51253571Y-38952714D01*
X51543857Y-38952714D01*
X51616428Y-38989000D01*
X51652714Y-39025285D01*
X51689000Y-39097857D01*
X51689000Y-39206714D01*
X51652714Y-39279285D01*
X51616428Y-39315571D01*
X51543857Y-39351857D01*
X51253571Y-39351857D01*
X52378428Y-38952714D02*
X52015571Y-38952714D01*
X51979285Y-39315571D01*
X52015571Y-39279285D01*
X52088142Y-39243000D01*
X52269571Y-39243000D01*
X52342142Y-39279285D01*
X52378428Y-39315571D01*
X52414714Y-39388142D01*
X52414714Y-39569571D01*
X52378428Y-39642142D01*
X52342142Y-39678428D01*
X52269571Y-39714714D01*
X52088142Y-39714714D01*
X52015571Y-39678428D01*
X51979285Y-39642142D01*
X53521428Y-38571714D02*
X53086000Y-38571714D01*
X53303714Y-38571714D02*
X53303714Y-37809714D01*
X53231142Y-37918571D01*
X53158571Y-37991142D01*
X53086000Y-38027428D01*
X53993142Y-37809714D02*
X54065714Y-37809714D01*
X54138285Y-37846000D01*
X54174571Y-37882285D01*
X54210857Y-37954857D01*
X54247142Y-38100000D01*
X54247142Y-38281428D01*
X54210857Y-38426571D01*
X54174571Y-38499142D01*
X54138285Y-38535428D01*
X54065714Y-38571714D01*
X53993142Y-38571714D01*
X53920571Y-38535428D01*
X53884285Y-38499142D01*
X53848000Y-38426571D01*
X53811714Y-38281428D01*
X53811714Y-38100000D01*
X53848000Y-37954857D01*
X53884285Y-37882285D01*
X53920571Y-37846000D01*
X53993142Y-37809714D01*
X54573714Y-38571714D02*
X54573714Y-37809714D01*
X54646285Y-38281428D02*
X54864000Y-38571714D01*
X54864000Y-38063714D02*
X54573714Y-38354000D01*
X48695428Y-38698714D02*
X48695428Y-39315571D01*
X48731714Y-39388142D01*
X48768000Y-39424428D01*
X48840571Y-39460714D01*
X48985714Y-39460714D01*
X49058285Y-39424428D01*
X49094571Y-39388142D01*
X49130857Y-39315571D01*
X49130857Y-38698714D01*
X49457428Y-38771285D02*
X49493714Y-38735000D01*
X49566285Y-38698714D01*
X49747714Y-38698714D01*
X49820285Y-38735000D01*
X49856571Y-38771285D01*
X49892857Y-38843857D01*
X49892857Y-38916428D01*
X49856571Y-39025285D01*
X49421142Y-39460714D01*
X49892857Y-39460714D01*
X45411571Y-34126714D02*
X45847000Y-34126714D01*
X45629285Y-34888714D02*
X45629285Y-34126714D01*
X46064714Y-34852428D02*
X46173571Y-34888714D01*
X46355000Y-34888714D01*
X46427571Y-34852428D01*
X46463857Y-34816142D01*
X46500142Y-34743571D01*
X46500142Y-34671000D01*
X46463857Y-34598428D01*
X46427571Y-34562142D01*
X46355000Y-34525857D01*
X46209857Y-34489571D01*
X46137285Y-34453285D01*
X46101000Y-34417000D01*
X46064714Y-34344428D01*
X46064714Y-34271857D01*
X46101000Y-34199285D01*
X46137285Y-34163000D01*
X46209857Y-34126714D01*
X46391285Y-34126714D01*
X46500142Y-34163000D01*
X47189571Y-34126714D02*
X46826714Y-34126714D01*
X46790428Y-34489571D01*
X46826714Y-34453285D01*
X46899285Y-34417000D01*
X47080714Y-34417000D01*
X47153285Y-34453285D01*
X47189571Y-34489571D01*
X47225857Y-34562142D01*
X47225857Y-34743571D01*
X47189571Y-34816142D01*
X47153285Y-34852428D01*
X47080714Y-34888714D01*
X46899285Y-34888714D01*
X46826714Y-34852428D01*
X46790428Y-34816142D01*
X47516142Y-34671000D02*
X47879000Y-34671000D01*
X47443571Y-34888714D02*
X47697571Y-34126714D01*
X47951571Y-34888714D01*
X48133000Y-34126714D02*
X48604714Y-34126714D01*
X48350714Y-34417000D01*
X48459571Y-34417000D01*
X48532142Y-34453285D01*
X48568428Y-34489571D01*
X48604714Y-34562142D01*
X48604714Y-34743571D01*
X48568428Y-34816142D01*
X48532142Y-34852428D01*
X48459571Y-34888714D01*
X48241857Y-34888714D01*
X48169285Y-34852428D01*
X48133000Y-34816142D01*
X49330428Y-34888714D02*
X48895000Y-34888714D01*
X49112714Y-34888714D02*
X49112714Y-34126714D01*
X49040142Y-34235571D01*
X48967571Y-34308142D01*
X48895000Y-34344428D01*
X49983571Y-34126714D02*
X49838428Y-34126714D01*
X49765857Y-34163000D01*
X49729571Y-34199285D01*
X49657000Y-34308142D01*
X49620714Y-34453285D01*
X49620714Y-34743571D01*
X49657000Y-34816142D01*
X49693285Y-34852428D01*
X49765857Y-34888714D01*
X49911000Y-34888714D01*
X49983571Y-34852428D01*
X50019857Y-34816142D01*
X50056142Y-34743571D01*
X50056142Y-34562142D01*
X50019857Y-34489571D01*
X49983571Y-34453285D01*
X49911000Y-34417000D01*
X49765857Y-34417000D01*
X49693285Y-34453285D01*
X49657000Y-34489571D01*
X49620714Y-34562142D01*
X50527857Y-34126714D02*
X50600428Y-34126714D01*
X50673000Y-34163000D01*
X50709285Y-34199285D01*
X50745571Y-34271857D01*
X50781857Y-34417000D01*
X50781857Y-34598428D01*
X50745571Y-34743571D01*
X50709285Y-34816142D01*
X50673000Y-34852428D01*
X50600428Y-34888714D01*
X50527857Y-34888714D01*
X50455285Y-34852428D01*
X50419000Y-34816142D01*
X50382714Y-34743571D01*
X50346428Y-34598428D01*
X50346428Y-34417000D01*
X50382714Y-34271857D01*
X50419000Y-34199285D01*
X50455285Y-34163000D01*
X50527857Y-34126714D01*
M02*
