G04 #@! TF.GenerationSoftware,KiCad,Pcbnew,5.1.7-a382d34a8~87~ubuntu18.04.1*
G04 #@! TF.CreationDate,2020-12-12T16:07:48-08:00*
G04 #@! TF.ProjectId,potentiostat_featherwing,706f7465-6e74-4696-9f73-7461745f6665,rev?*
G04 #@! TF.SameCoordinates,Original*
G04 #@! TF.FileFunction,Paste,Top*
G04 #@! TF.FilePolarity,Positive*
%FSLAX46Y46*%
G04 Gerber Fmt 4.6, Leading zero omitted, Abs format (unit mm)*
G04 Created by KiCad (PCBNEW 5.1.7-a382d34a8~87~ubuntu18.04.1) date 2020-12-12 16:07:48*
%MOMM*%
%LPD*%
G01*
G04 APERTURE LIST*
%ADD10R,1.500000X0.600000*%
%ADD11R,1.060000X0.650000*%
G04 APERTURE END LIST*
D10*
X46830000Y-51816000D03*
X46830000Y-50546000D03*
X46830000Y-49276000D03*
X46830000Y-48006000D03*
X46830000Y-46736000D03*
X46830000Y-45466000D03*
X46830000Y-44196000D03*
X52230000Y-44196000D03*
X52230000Y-45466000D03*
X52230000Y-46736000D03*
X52230000Y-48006000D03*
X52230000Y-49276000D03*
X52230000Y-50546000D03*
X52230000Y-51816000D03*
G36*
G01*
X55503000Y-48051000D02*
X56003000Y-48051000D01*
G75*
G02*
X56228000Y-48276000I0J-225000D01*
G01*
X56228000Y-48726000D01*
G75*
G02*
X56003000Y-48951000I-225000J0D01*
G01*
X55503000Y-48951000D01*
G75*
G02*
X55278000Y-48726000I0J225000D01*
G01*
X55278000Y-48276000D01*
G75*
G02*
X55503000Y-48051000I225000J0D01*
G01*
G37*
G36*
G01*
X55503000Y-49601000D02*
X56003000Y-49601000D01*
G75*
G02*
X56228000Y-49826000I0J-225000D01*
G01*
X56228000Y-50276000D01*
G75*
G02*
X56003000Y-50501000I-225000J0D01*
G01*
X55503000Y-50501000D01*
G75*
G02*
X55278000Y-50276000I0J225000D01*
G01*
X55278000Y-49826000D01*
G75*
G02*
X55503000Y-49601000I225000J0D01*
G01*
G37*
G36*
G01*
X56003000Y-44633000D02*
X55503000Y-44633000D01*
G75*
G02*
X55278000Y-44408000I0J225000D01*
G01*
X55278000Y-43958000D01*
G75*
G02*
X55503000Y-43733000I225000J0D01*
G01*
X56003000Y-43733000D01*
G75*
G02*
X56228000Y-43958000I0J-225000D01*
G01*
X56228000Y-44408000D01*
G75*
G02*
X56003000Y-44633000I-225000J0D01*
G01*
G37*
G36*
G01*
X56003000Y-46183000D02*
X55503000Y-46183000D01*
G75*
G02*
X55278000Y-45958000I0J225000D01*
G01*
X55278000Y-45508000D01*
G75*
G02*
X55503000Y-45283000I225000J0D01*
G01*
X56003000Y-45283000D01*
G75*
G02*
X56228000Y-45508000I0J-225000D01*
G01*
X56228000Y-45958000D01*
G75*
G02*
X56003000Y-46183000I-225000J0D01*
G01*
G37*
G36*
G01*
X53142000Y-59313000D02*
X53142000Y-59813000D01*
G75*
G02*
X52917000Y-60038000I-225000J0D01*
G01*
X52467000Y-60038000D01*
G75*
G02*
X52242000Y-59813000I0J225000D01*
G01*
X52242000Y-59313000D01*
G75*
G02*
X52467000Y-59088000I225000J0D01*
G01*
X52917000Y-59088000D01*
G75*
G02*
X53142000Y-59313000I0J-225000D01*
G01*
G37*
G36*
G01*
X54692000Y-59313000D02*
X54692000Y-59813000D01*
G75*
G02*
X54467000Y-60038000I-225000J0D01*
G01*
X54017000Y-60038000D01*
G75*
G02*
X53792000Y-59813000I0J225000D01*
G01*
X53792000Y-59313000D01*
G75*
G02*
X54017000Y-59088000I225000J0D01*
G01*
X54467000Y-59088000D01*
G75*
G02*
X54692000Y-59313000I0J-225000D01*
G01*
G37*
G36*
G01*
X49358000Y-32516000D02*
X49358000Y-33016000D01*
G75*
G02*
X49133000Y-33241000I-225000J0D01*
G01*
X48683000Y-33241000D01*
G75*
G02*
X48458000Y-33016000I0J225000D01*
G01*
X48458000Y-32516000D01*
G75*
G02*
X48683000Y-32291000I225000J0D01*
G01*
X49133000Y-32291000D01*
G75*
G02*
X49358000Y-32516000I0J-225000D01*
G01*
G37*
G36*
G01*
X47808000Y-32516000D02*
X47808000Y-33016000D01*
G75*
G02*
X47583000Y-33241000I-225000J0D01*
G01*
X47133000Y-33241000D01*
G75*
G02*
X46908000Y-33016000I0J225000D01*
G01*
X46908000Y-32516000D01*
G75*
G02*
X47133000Y-32291000I225000J0D01*
G01*
X47583000Y-32291000D01*
G75*
G02*
X47808000Y-32516000I0J-225000D01*
G01*
G37*
G36*
G01*
X47580000Y-40898000D02*
X47580000Y-41398000D01*
G75*
G02*
X47355000Y-41623000I-225000J0D01*
G01*
X46905000Y-41623000D01*
G75*
G02*
X46680000Y-41398000I0J225000D01*
G01*
X46680000Y-40898000D01*
G75*
G02*
X46905000Y-40673000I225000J0D01*
G01*
X47355000Y-40673000D01*
G75*
G02*
X47580000Y-40898000I0J-225000D01*
G01*
G37*
G36*
G01*
X46030000Y-40898000D02*
X46030000Y-41398000D01*
G75*
G02*
X45805000Y-41623000I-225000J0D01*
G01*
X45355000Y-41623000D01*
G75*
G02*
X45130000Y-41398000I0J225000D01*
G01*
X45130000Y-40898000D01*
G75*
G02*
X45355000Y-40673000I225000J0D01*
G01*
X45805000Y-40673000D01*
G75*
G02*
X46030000Y-40898000I0J-225000D01*
G01*
G37*
G36*
G01*
X45765000Y-56155000D02*
X45765000Y-55605000D01*
G75*
G02*
X45965000Y-55405000I200000J0D01*
G01*
X46365000Y-55405000D01*
G75*
G02*
X46565000Y-55605000I0J-200000D01*
G01*
X46565000Y-56155000D01*
G75*
G02*
X46365000Y-56355000I-200000J0D01*
G01*
X45965000Y-56355000D01*
G75*
G02*
X45765000Y-56155000I0J200000D01*
G01*
G37*
G36*
G01*
X47415000Y-56155000D02*
X47415000Y-55605000D01*
G75*
G02*
X47615000Y-55405000I200000J0D01*
G01*
X48015000Y-55405000D01*
G75*
G02*
X48215000Y-55605000I0J-200000D01*
G01*
X48215000Y-56155000D01*
G75*
G02*
X48015000Y-56355000I-200000J0D01*
G01*
X47615000Y-56355000D01*
G75*
G02*
X47415000Y-56155000I0J200000D01*
G01*
G37*
G36*
G01*
X46579000Y-59161000D02*
X46579000Y-59711000D01*
G75*
G02*
X46379000Y-59911000I-200000J0D01*
G01*
X45979000Y-59911000D01*
G75*
G02*
X45779000Y-59711000I0J200000D01*
G01*
X45779000Y-59161000D01*
G75*
G02*
X45979000Y-58961000I200000J0D01*
G01*
X46379000Y-58961000D01*
G75*
G02*
X46579000Y-59161000I0J-200000D01*
G01*
G37*
G36*
G01*
X48229000Y-59161000D02*
X48229000Y-59711000D01*
G75*
G02*
X48029000Y-59911000I-200000J0D01*
G01*
X47629000Y-59911000D01*
G75*
G02*
X47429000Y-59711000I0J200000D01*
G01*
X47429000Y-59161000D01*
G75*
G02*
X47629000Y-58961000I200000J0D01*
G01*
X48029000Y-58961000D01*
G75*
G02*
X48229000Y-59161000I0J-200000D01*
G01*
G37*
G36*
G01*
X54867000Y-55642500D02*
X54867000Y-56117500D01*
G75*
G02*
X54629500Y-56355000I-237500J0D01*
G01*
X54129500Y-56355000D01*
G75*
G02*
X53892000Y-56117500I0J237500D01*
G01*
X53892000Y-55642500D01*
G75*
G02*
X54129500Y-55405000I237500J0D01*
G01*
X54629500Y-55405000D01*
G75*
G02*
X54867000Y-55642500I0J-237500D01*
G01*
G37*
G36*
G01*
X53042000Y-55642500D02*
X53042000Y-56117500D01*
G75*
G02*
X52804500Y-56355000I-237500J0D01*
G01*
X52304500Y-56355000D01*
G75*
G02*
X52067000Y-56117500I0J237500D01*
G01*
X52067000Y-55642500D01*
G75*
G02*
X52304500Y-55405000I237500J0D01*
G01*
X52804500Y-55405000D01*
G75*
G02*
X53042000Y-55642500I0J-237500D01*
G01*
G37*
G36*
G01*
X54400000Y-36597000D02*
X54400000Y-36047000D01*
G75*
G02*
X54600000Y-35847000I200000J0D01*
G01*
X55000000Y-35847000D01*
G75*
G02*
X55200000Y-36047000I0J-200000D01*
G01*
X55200000Y-36597000D01*
G75*
G02*
X55000000Y-36797000I-200000J0D01*
G01*
X54600000Y-36797000D01*
G75*
G02*
X54400000Y-36597000I0J200000D01*
G01*
G37*
G36*
G01*
X52750000Y-36597000D02*
X52750000Y-36047000D01*
G75*
G02*
X52950000Y-35847000I200000J0D01*
G01*
X53350000Y-35847000D01*
G75*
G02*
X53550000Y-36047000I0J-200000D01*
G01*
X53550000Y-36597000D01*
G75*
G02*
X53350000Y-36797000I-200000J0D01*
G01*
X52950000Y-36797000D01*
G75*
G02*
X52750000Y-36597000I0J200000D01*
G01*
G37*
G36*
G01*
X52750000Y-39645000D02*
X52750000Y-39095000D01*
G75*
G02*
X52950000Y-38895000I200000J0D01*
G01*
X53350000Y-38895000D01*
G75*
G02*
X53550000Y-39095000I0J-200000D01*
G01*
X53550000Y-39645000D01*
G75*
G02*
X53350000Y-39845000I-200000J0D01*
G01*
X52950000Y-39845000D01*
G75*
G02*
X52750000Y-39645000I0J200000D01*
G01*
G37*
G36*
G01*
X54400000Y-39645000D02*
X54400000Y-39095000D01*
G75*
G02*
X54600000Y-38895000I200000J0D01*
G01*
X55000000Y-38895000D01*
G75*
G02*
X55200000Y-39095000I0J-200000D01*
G01*
X55200000Y-39645000D01*
G75*
G02*
X55000000Y-39845000I-200000J0D01*
G01*
X54600000Y-39845000D01*
G75*
G02*
X54400000Y-39645000I0J200000D01*
G01*
G37*
D11*
X46779000Y-35880000D03*
X46779000Y-36830000D03*
X46779000Y-37780000D03*
X48979000Y-37780000D03*
X48979000Y-35880000D03*
X48979000Y-36830000D03*
M02*
