G04 #@! TF.GenerationSoftware,KiCad,Pcbnew,5.1.7-a382d34a8~87~ubuntu18.04.1*
G04 #@! TF.CreationDate,2021-10-03T14:59:54-07:00*
G04 #@! TF.ProjectId,potentiostat_featherwing,706f7465-6e74-4696-9f73-7461745f6665,rev?*
G04 #@! TF.SameCoordinates,Original*
G04 #@! TF.FileFunction,Copper,L1,Top*
G04 #@! TF.FilePolarity,Positive*
%FSLAX46Y46*%
G04 Gerber Fmt 4.6, Leading zero omitted, Abs format (unit mm)*
G04 Created by KiCad (PCBNEW 5.1.7-a382d34a8~87~ubuntu18.04.1) date 2021-10-03 14:59:54*
%MOMM*%
%LPD*%
G01*
G04 APERTURE LIST*
G04 #@! TA.AperFunction,ComponentPad*
%ADD10C,1.778000*%
G04 #@! TD*
G04 #@! TA.AperFunction,ComponentPad*
%ADD11C,3.048000*%
G04 #@! TD*
G04 #@! TA.AperFunction,WasherPad*
%ADD12C,3.048000*%
G04 #@! TD*
G04 #@! TA.AperFunction,ComponentPad*
%ADD13C,2.000000*%
G04 #@! TD*
G04 #@! TA.AperFunction,ComponentPad*
%ADD14R,2.000000X2.000000*%
G04 #@! TD*
G04 #@! TA.AperFunction,ComponentPad*
%ADD15R,1.700000X1.700000*%
G04 #@! TD*
G04 #@! TA.AperFunction,ComponentPad*
%ADD16O,1.700000X1.700000*%
G04 #@! TD*
G04 #@! TA.AperFunction,SMDPad,CuDef*
%ADD17R,1.500000X0.600000*%
G04 #@! TD*
G04 #@! TA.AperFunction,SMDPad,CuDef*
%ADD18R,1.060000X0.650000*%
G04 #@! TD*
G04 #@! TA.AperFunction,ViaPad*
%ADD19C,0.800000*%
G04 #@! TD*
G04 #@! TA.AperFunction,Conductor*
%ADD20C,0.250000*%
G04 #@! TD*
G04 APERTURE END LIST*
D10*
X60960000Y-31750000D03*
X60960000Y-34290000D03*
X60960000Y-36830000D03*
X60960000Y-39370000D03*
X60960000Y-41910000D03*
X60960000Y-44450000D03*
X60960000Y-46990000D03*
X60960000Y-49530000D03*
X60960000Y-52070000D03*
X60960000Y-54610000D03*
X60960000Y-57150000D03*
X60960000Y-59690000D03*
X60960000Y-62230000D03*
X60960000Y-64770000D03*
X60960000Y-67310000D03*
X60960000Y-69850000D03*
X40640000Y-59690000D03*
X40640000Y-57150000D03*
X40640000Y-54610000D03*
X40640000Y-52070000D03*
X40640000Y-49530000D03*
X40640000Y-46990000D03*
X40640000Y-44450000D03*
X40640000Y-41910000D03*
X40640000Y-39370000D03*
X40640000Y-36830000D03*
X40640000Y-34290000D03*
X40640000Y-31750000D03*
D11*
X41910000Y-73660000D03*
X59690000Y-73660000D03*
D12*
X59690000Y-27940000D03*
X41910000Y-27940000D03*
D13*
X50800000Y-72644000D03*
D14*
X47299880Y-72644000D03*
D13*
X54300120Y-72644000D03*
D15*
X48260000Y-64262000D03*
D16*
X50800000Y-64262000D03*
X53340000Y-64262000D03*
D15*
X49530000Y-27686000D03*
D16*
X52070000Y-27686000D03*
D17*
X46830000Y-51816000D03*
X46830000Y-50546000D03*
X46830000Y-49276000D03*
X46830000Y-48006000D03*
X46830000Y-46736000D03*
X46830000Y-45466000D03*
X46830000Y-44196000D03*
X52230000Y-44196000D03*
X52230000Y-45466000D03*
X52230000Y-46736000D03*
X52230000Y-48006000D03*
X52230000Y-49276000D03*
X52230000Y-50546000D03*
X52230000Y-51816000D03*
G04 #@! TA.AperFunction,SMDPad,CuDef*
G36*
G01*
X55503000Y-48051000D02*
X56003000Y-48051000D01*
G75*
G02*
X56228000Y-48276000I0J-225000D01*
G01*
X56228000Y-48726000D01*
G75*
G02*
X56003000Y-48951000I-225000J0D01*
G01*
X55503000Y-48951000D01*
G75*
G02*
X55278000Y-48726000I0J225000D01*
G01*
X55278000Y-48276000D01*
G75*
G02*
X55503000Y-48051000I225000J0D01*
G01*
G37*
G04 #@! TD.AperFunction*
G04 #@! TA.AperFunction,SMDPad,CuDef*
G36*
G01*
X55503000Y-49601000D02*
X56003000Y-49601000D01*
G75*
G02*
X56228000Y-49826000I0J-225000D01*
G01*
X56228000Y-50276000D01*
G75*
G02*
X56003000Y-50501000I-225000J0D01*
G01*
X55503000Y-50501000D01*
G75*
G02*
X55278000Y-50276000I0J225000D01*
G01*
X55278000Y-49826000D01*
G75*
G02*
X55503000Y-49601000I225000J0D01*
G01*
G37*
G04 #@! TD.AperFunction*
G04 #@! TA.AperFunction,SMDPad,CuDef*
G36*
G01*
X56003000Y-44633000D02*
X55503000Y-44633000D01*
G75*
G02*
X55278000Y-44408000I0J225000D01*
G01*
X55278000Y-43958000D01*
G75*
G02*
X55503000Y-43733000I225000J0D01*
G01*
X56003000Y-43733000D01*
G75*
G02*
X56228000Y-43958000I0J-225000D01*
G01*
X56228000Y-44408000D01*
G75*
G02*
X56003000Y-44633000I-225000J0D01*
G01*
G37*
G04 #@! TD.AperFunction*
G04 #@! TA.AperFunction,SMDPad,CuDef*
G36*
G01*
X56003000Y-46183000D02*
X55503000Y-46183000D01*
G75*
G02*
X55278000Y-45958000I0J225000D01*
G01*
X55278000Y-45508000D01*
G75*
G02*
X55503000Y-45283000I225000J0D01*
G01*
X56003000Y-45283000D01*
G75*
G02*
X56228000Y-45508000I0J-225000D01*
G01*
X56228000Y-45958000D01*
G75*
G02*
X56003000Y-46183000I-225000J0D01*
G01*
G37*
G04 #@! TD.AperFunction*
G04 #@! TA.AperFunction,SMDPad,CuDef*
G36*
G01*
X53142000Y-59313000D02*
X53142000Y-59813000D01*
G75*
G02*
X52917000Y-60038000I-225000J0D01*
G01*
X52467000Y-60038000D01*
G75*
G02*
X52242000Y-59813000I0J225000D01*
G01*
X52242000Y-59313000D01*
G75*
G02*
X52467000Y-59088000I225000J0D01*
G01*
X52917000Y-59088000D01*
G75*
G02*
X53142000Y-59313000I0J-225000D01*
G01*
G37*
G04 #@! TD.AperFunction*
G04 #@! TA.AperFunction,SMDPad,CuDef*
G36*
G01*
X54692000Y-59313000D02*
X54692000Y-59813000D01*
G75*
G02*
X54467000Y-60038000I-225000J0D01*
G01*
X54017000Y-60038000D01*
G75*
G02*
X53792000Y-59813000I0J225000D01*
G01*
X53792000Y-59313000D01*
G75*
G02*
X54017000Y-59088000I225000J0D01*
G01*
X54467000Y-59088000D01*
G75*
G02*
X54692000Y-59313000I0J-225000D01*
G01*
G37*
G04 #@! TD.AperFunction*
G04 #@! TA.AperFunction,SMDPad,CuDef*
G36*
G01*
X49358000Y-32516000D02*
X49358000Y-33016000D01*
G75*
G02*
X49133000Y-33241000I-225000J0D01*
G01*
X48683000Y-33241000D01*
G75*
G02*
X48458000Y-33016000I0J225000D01*
G01*
X48458000Y-32516000D01*
G75*
G02*
X48683000Y-32291000I225000J0D01*
G01*
X49133000Y-32291000D01*
G75*
G02*
X49358000Y-32516000I0J-225000D01*
G01*
G37*
G04 #@! TD.AperFunction*
G04 #@! TA.AperFunction,SMDPad,CuDef*
G36*
G01*
X47808000Y-32516000D02*
X47808000Y-33016000D01*
G75*
G02*
X47583000Y-33241000I-225000J0D01*
G01*
X47133000Y-33241000D01*
G75*
G02*
X46908000Y-33016000I0J225000D01*
G01*
X46908000Y-32516000D01*
G75*
G02*
X47133000Y-32291000I225000J0D01*
G01*
X47583000Y-32291000D01*
G75*
G02*
X47808000Y-32516000I0J-225000D01*
G01*
G37*
G04 #@! TD.AperFunction*
G04 #@! TA.AperFunction,SMDPad,CuDef*
G36*
G01*
X47580000Y-40898000D02*
X47580000Y-41398000D01*
G75*
G02*
X47355000Y-41623000I-225000J0D01*
G01*
X46905000Y-41623000D01*
G75*
G02*
X46680000Y-41398000I0J225000D01*
G01*
X46680000Y-40898000D01*
G75*
G02*
X46905000Y-40673000I225000J0D01*
G01*
X47355000Y-40673000D01*
G75*
G02*
X47580000Y-40898000I0J-225000D01*
G01*
G37*
G04 #@! TD.AperFunction*
G04 #@! TA.AperFunction,SMDPad,CuDef*
G36*
G01*
X46030000Y-40898000D02*
X46030000Y-41398000D01*
G75*
G02*
X45805000Y-41623000I-225000J0D01*
G01*
X45355000Y-41623000D01*
G75*
G02*
X45130000Y-41398000I0J225000D01*
G01*
X45130000Y-40898000D01*
G75*
G02*
X45355000Y-40673000I225000J0D01*
G01*
X45805000Y-40673000D01*
G75*
G02*
X46030000Y-40898000I0J-225000D01*
G01*
G37*
G04 #@! TD.AperFunction*
G04 #@! TA.AperFunction,SMDPad,CuDef*
G36*
G01*
X45765000Y-56155000D02*
X45765000Y-55605000D01*
G75*
G02*
X45965000Y-55405000I200000J0D01*
G01*
X46365000Y-55405000D01*
G75*
G02*
X46565000Y-55605000I0J-200000D01*
G01*
X46565000Y-56155000D01*
G75*
G02*
X46365000Y-56355000I-200000J0D01*
G01*
X45965000Y-56355000D01*
G75*
G02*
X45765000Y-56155000I0J200000D01*
G01*
G37*
G04 #@! TD.AperFunction*
G04 #@! TA.AperFunction,SMDPad,CuDef*
G36*
G01*
X47415000Y-56155000D02*
X47415000Y-55605000D01*
G75*
G02*
X47615000Y-55405000I200000J0D01*
G01*
X48015000Y-55405000D01*
G75*
G02*
X48215000Y-55605000I0J-200000D01*
G01*
X48215000Y-56155000D01*
G75*
G02*
X48015000Y-56355000I-200000J0D01*
G01*
X47615000Y-56355000D01*
G75*
G02*
X47415000Y-56155000I0J200000D01*
G01*
G37*
G04 #@! TD.AperFunction*
G04 #@! TA.AperFunction,SMDPad,CuDef*
G36*
G01*
X46579000Y-59161000D02*
X46579000Y-59711000D01*
G75*
G02*
X46379000Y-59911000I-200000J0D01*
G01*
X45979000Y-59911000D01*
G75*
G02*
X45779000Y-59711000I0J200000D01*
G01*
X45779000Y-59161000D01*
G75*
G02*
X45979000Y-58961000I200000J0D01*
G01*
X46379000Y-58961000D01*
G75*
G02*
X46579000Y-59161000I0J-200000D01*
G01*
G37*
G04 #@! TD.AperFunction*
G04 #@! TA.AperFunction,SMDPad,CuDef*
G36*
G01*
X48229000Y-59161000D02*
X48229000Y-59711000D01*
G75*
G02*
X48029000Y-59911000I-200000J0D01*
G01*
X47629000Y-59911000D01*
G75*
G02*
X47429000Y-59711000I0J200000D01*
G01*
X47429000Y-59161000D01*
G75*
G02*
X47629000Y-58961000I200000J0D01*
G01*
X48029000Y-58961000D01*
G75*
G02*
X48229000Y-59161000I0J-200000D01*
G01*
G37*
G04 #@! TD.AperFunction*
G04 #@! TA.AperFunction,SMDPad,CuDef*
G36*
G01*
X54867000Y-55642500D02*
X54867000Y-56117500D01*
G75*
G02*
X54629500Y-56355000I-237500J0D01*
G01*
X54129500Y-56355000D01*
G75*
G02*
X53892000Y-56117500I0J237500D01*
G01*
X53892000Y-55642500D01*
G75*
G02*
X54129500Y-55405000I237500J0D01*
G01*
X54629500Y-55405000D01*
G75*
G02*
X54867000Y-55642500I0J-237500D01*
G01*
G37*
G04 #@! TD.AperFunction*
G04 #@! TA.AperFunction,SMDPad,CuDef*
G36*
G01*
X53042000Y-55642500D02*
X53042000Y-56117500D01*
G75*
G02*
X52804500Y-56355000I-237500J0D01*
G01*
X52304500Y-56355000D01*
G75*
G02*
X52067000Y-56117500I0J237500D01*
G01*
X52067000Y-55642500D01*
G75*
G02*
X52304500Y-55405000I237500J0D01*
G01*
X52804500Y-55405000D01*
G75*
G02*
X53042000Y-55642500I0J-237500D01*
G01*
G37*
G04 #@! TD.AperFunction*
G04 #@! TA.AperFunction,SMDPad,CuDef*
G36*
G01*
X54400000Y-36597000D02*
X54400000Y-36047000D01*
G75*
G02*
X54600000Y-35847000I200000J0D01*
G01*
X55000000Y-35847000D01*
G75*
G02*
X55200000Y-36047000I0J-200000D01*
G01*
X55200000Y-36597000D01*
G75*
G02*
X55000000Y-36797000I-200000J0D01*
G01*
X54600000Y-36797000D01*
G75*
G02*
X54400000Y-36597000I0J200000D01*
G01*
G37*
G04 #@! TD.AperFunction*
G04 #@! TA.AperFunction,SMDPad,CuDef*
G36*
G01*
X52750000Y-36597000D02*
X52750000Y-36047000D01*
G75*
G02*
X52950000Y-35847000I200000J0D01*
G01*
X53350000Y-35847000D01*
G75*
G02*
X53550000Y-36047000I0J-200000D01*
G01*
X53550000Y-36597000D01*
G75*
G02*
X53350000Y-36797000I-200000J0D01*
G01*
X52950000Y-36797000D01*
G75*
G02*
X52750000Y-36597000I0J200000D01*
G01*
G37*
G04 #@! TD.AperFunction*
G04 #@! TA.AperFunction,SMDPad,CuDef*
G36*
G01*
X52750000Y-39645000D02*
X52750000Y-39095000D01*
G75*
G02*
X52950000Y-38895000I200000J0D01*
G01*
X53350000Y-38895000D01*
G75*
G02*
X53550000Y-39095000I0J-200000D01*
G01*
X53550000Y-39645000D01*
G75*
G02*
X53350000Y-39845000I-200000J0D01*
G01*
X52950000Y-39845000D01*
G75*
G02*
X52750000Y-39645000I0J200000D01*
G01*
G37*
G04 #@! TD.AperFunction*
G04 #@! TA.AperFunction,SMDPad,CuDef*
G36*
G01*
X54400000Y-39645000D02*
X54400000Y-39095000D01*
G75*
G02*
X54600000Y-38895000I200000J0D01*
G01*
X55000000Y-38895000D01*
G75*
G02*
X55200000Y-39095000I0J-200000D01*
G01*
X55200000Y-39645000D01*
G75*
G02*
X55000000Y-39845000I-200000J0D01*
G01*
X54600000Y-39845000D01*
G75*
G02*
X54400000Y-39645000I0J200000D01*
G01*
G37*
G04 #@! TD.AperFunction*
D18*
X46779000Y-35880000D03*
X46779000Y-36830000D03*
X46779000Y-37780000D03*
X48979000Y-37780000D03*
X48979000Y-35880000D03*
X48979000Y-36830000D03*
D19*
X48330700Y-47849600D03*
X53305300Y-54082700D03*
X48835700Y-56103700D03*
X48513300Y-51803700D03*
X48123700Y-43237900D03*
D20*
X54800000Y-39370000D02*
X56021800Y-38148200D01*
X56021800Y-38148200D02*
X56021800Y-35624600D01*
X56021800Y-35624600D02*
X50721300Y-30324100D01*
X50721300Y-30324100D02*
X50482500Y-30324100D01*
X48330700Y-47849600D02*
X48061700Y-47849600D01*
X48061700Y-47849600D02*
X47905300Y-48006000D01*
X55753000Y-44183000D02*
X56568400Y-44998400D01*
X56568400Y-44998400D02*
X56568400Y-49235600D01*
X56568400Y-49235600D02*
X55753000Y-50051000D01*
X54800000Y-39370000D02*
X54800000Y-43230000D01*
X54800000Y-43230000D02*
X55753000Y-44183000D01*
X46830000Y-48006000D02*
X47905300Y-48006000D01*
X60960000Y-62230000D02*
X56203300Y-57473300D01*
X56203300Y-57473300D02*
X56203300Y-50501300D01*
X56203300Y-50501300D02*
X55753000Y-50051000D01*
X50482500Y-30324100D02*
X50076200Y-30324100D01*
X50076200Y-30324100D02*
X47634300Y-32766000D01*
X50482500Y-27686000D02*
X50482500Y-30324100D01*
X47634300Y-32766000D02*
X47358000Y-32766000D01*
X47634300Y-32766000D02*
X47634300Y-36830000D01*
X46779000Y-36830000D02*
X47634300Y-36830000D01*
X50482500Y-27686000D02*
X52070000Y-27686000D01*
X49530000Y-27686000D02*
X50482500Y-27686000D01*
X55753000Y-45733000D02*
X54047200Y-44027200D01*
X54047200Y-44027200D02*
X54047200Y-38902700D01*
X54047200Y-38902700D02*
X55571500Y-37378400D01*
X55571500Y-37378400D02*
X55571500Y-35811200D01*
X55571500Y-35811200D02*
X55254000Y-35493700D01*
X55254000Y-35493700D02*
X53978300Y-35493700D01*
X53978300Y-35493700D02*
X53150000Y-36322000D01*
X55753000Y-45733000D02*
X55753000Y-47371000D01*
X55753000Y-47371000D02*
X55118000Y-48006000D01*
X54324200Y-48006000D02*
X54829900Y-48511700D01*
X54829900Y-48511700D02*
X54829900Y-53225100D01*
X54829900Y-53225100D02*
X55527900Y-53923100D01*
X55527900Y-53923100D02*
X55527900Y-61877900D01*
X55527900Y-61877900D02*
X60960000Y-67310000D01*
X54324200Y-48006000D02*
X55118000Y-48006000D01*
X52230000Y-48006000D02*
X54324200Y-48006000D01*
X55118000Y-48006000D02*
X55258000Y-48006000D01*
X55258000Y-48006000D02*
X55753000Y-48501000D01*
X50395100Y-36830000D02*
X51181000Y-36830000D01*
X51181000Y-36830000D02*
X51689000Y-36322000D01*
X51689000Y-36322000D02*
X53150000Y-36322000D01*
X50395100Y-36830000D02*
X50395100Y-34253100D01*
X50395100Y-34253100D02*
X48908000Y-32766000D01*
X48979000Y-36830000D02*
X50395100Y-36830000D01*
X45754700Y-45466000D02*
X45304400Y-45916300D01*
X45304400Y-45916300D02*
X45304400Y-55019400D01*
X45304400Y-55019400D02*
X46165000Y-55880000D01*
X45580000Y-41148000D02*
X45580000Y-45291300D01*
X45580000Y-45291300D02*
X45754700Y-45466000D01*
X46179000Y-59436000D02*
X46165000Y-59422000D01*
X46165000Y-59422000D02*
X46165000Y-55880000D01*
X46830000Y-45466000D02*
X45754700Y-45466000D01*
X48260000Y-64262000D02*
X48260000Y-63086700D01*
X48979000Y-37780000D02*
X48979000Y-44827100D01*
X48979000Y-44827100D02*
X47714700Y-46091400D01*
X47714700Y-46091400D02*
X45945200Y-46091400D01*
X45945200Y-46091400D02*
X45754700Y-46281900D01*
X45754700Y-46281900D02*
X45754700Y-54167600D01*
X45754700Y-54167600D02*
X47084700Y-55497600D01*
X47084700Y-55497600D02*
X47084700Y-61911400D01*
X47084700Y-61911400D02*
X48260000Y-63086700D01*
X48260000Y-64849600D02*
X48260000Y-64262000D01*
X48260000Y-64849600D02*
X48260000Y-65437300D01*
X48260000Y-65437300D02*
X47299900Y-66397400D01*
X47299900Y-66397400D02*
X47299900Y-72644000D01*
X53340000Y-63674300D02*
X54300100Y-64634400D01*
X54300100Y-64634400D02*
X54300100Y-72644000D01*
X53340000Y-63674300D02*
X53340000Y-63086700D01*
X53340000Y-64262000D02*
X53340000Y-63674300D01*
X54242000Y-59563000D02*
X54242000Y-62184700D01*
X54242000Y-62184700D02*
X53340000Y-63086700D01*
X54379500Y-55880000D02*
X54242000Y-56017500D01*
X54242000Y-56017500D02*
X54242000Y-59563000D01*
X52230000Y-50546000D02*
X53305300Y-50546000D01*
X53305300Y-50546000D02*
X54379500Y-51620200D01*
X54379500Y-51620200D02*
X54379500Y-55880000D01*
X53305300Y-54082700D02*
X53305300Y-51816000D01*
X52554500Y-55880000D02*
X53305300Y-55129200D01*
X53305300Y-55129200D02*
X53305300Y-54082700D01*
X52554500Y-55880000D02*
X52692000Y-56017500D01*
X52692000Y-56017500D02*
X52692000Y-59563000D01*
X52230000Y-51816000D02*
X53305300Y-51816000D01*
X47815000Y-55880000D02*
X48612000Y-55880000D01*
X48612000Y-55880000D02*
X48835700Y-56103700D01*
X47829000Y-59436000D02*
X49580500Y-57684500D01*
X49580500Y-57684500D02*
X49580500Y-52883200D01*
X49580500Y-52883200D02*
X48513300Y-51816000D01*
X48513300Y-51816000D02*
X48513300Y-51803700D01*
X47792700Y-51816000D02*
X48513300Y-51816000D01*
X46830000Y-51816000D02*
X47792700Y-51816000D01*
X46830000Y-50546000D02*
X46830000Y-51816000D01*
X51154700Y-46736000D02*
X51154700Y-46003700D01*
X51154700Y-46003700D02*
X51692400Y-45466000D01*
X51154700Y-49276000D02*
X51154700Y-46736000D01*
X51154700Y-46736000D02*
X47905300Y-46736000D01*
X46830000Y-46736000D02*
X47905300Y-46736000D01*
X52230000Y-49276000D02*
X51154700Y-49276000D01*
X51692400Y-45466000D02*
X51154700Y-44928300D01*
X51154700Y-44928300D02*
X51154700Y-44196000D01*
X52230000Y-44196000D02*
X51154700Y-44196000D01*
X52230000Y-45466000D02*
X51692400Y-45466000D01*
X50800000Y-63086700D02*
X50800000Y-52170700D01*
X50800000Y-52170700D02*
X47905300Y-49276000D01*
X50800000Y-64262000D02*
X50800000Y-72644000D01*
X50800000Y-63674300D02*
X50800000Y-64262000D01*
X50800000Y-63674300D02*
X50800000Y-63086700D01*
X46830000Y-49276000D02*
X47905300Y-49276000D01*
X47130000Y-41148000D02*
X47130000Y-43896000D01*
X47130000Y-43896000D02*
X46830000Y-44196000D01*
X47634300Y-37780000D02*
X47634300Y-40643700D01*
X47634300Y-40643700D02*
X47130000Y-41148000D01*
X46779000Y-37780000D02*
X47634300Y-37780000D01*
X48123700Y-35880000D02*
X48123700Y-43237900D01*
X48979000Y-35880000D02*
X48123700Y-35880000D01*
X52230000Y-46736000D02*
X53305300Y-46736000D01*
X53150000Y-39370000D02*
X53305300Y-39525300D01*
X53305300Y-39525300D02*
X53305300Y-46736000D01*
X54800000Y-36322000D02*
X53150000Y-37972000D01*
X53150000Y-37972000D02*
X53150000Y-39370000D01*
M02*
