M48
; DRILL file {KiCad 5.1.7-a382d34a8~87~ubuntu18.04.1} date Sun Oct  3 15:00:26 2021
; FORMAT={-:-/ absolute / inch / decimal}
; #@! TF.CreationDate,2021-10-03T15:00:26-07:00
; #@! TF.GenerationSoftware,Kicad,Pcbnew,5.1.7-a382d34a8~87~ubuntu18.04.1
; #@! TF.FileFunction,Plated,1,2,PTH
FMAT,2
INCH
T1C0.0157
T2C0.0394
T3C0.0420
T4C0.0472
T5C0.1000
%
G90
G05
T1
X1.8946Y-1.7023
X1.9028Y-1.8838
X1.91Y-2.0395
X1.9227Y-2.2088
X2.0986Y-2.1292
T2
X1.95Y-1.09
X2.05Y-1.09
X1.9Y-2.53
X2.0Y-2.53
X2.1Y-2.53
T3
X1.6Y-1.25
X1.6Y-1.35
X1.6Y-1.45
X1.6Y-1.55
X1.6Y-1.65
X1.6Y-1.75
X1.6Y-1.85
X1.6Y-1.95
X1.6Y-2.05
X1.6Y-2.15
X1.6Y-2.25
X1.6Y-2.35
X2.4Y-1.25
X2.4Y-1.35
X2.4Y-1.45
X2.4Y-1.55
X2.4Y-1.65
X2.4Y-1.75
X2.4Y-1.85
X2.4Y-1.95
X2.4Y-2.05
X2.4Y-2.15
X2.4Y-2.25
X2.4Y-2.35
X2.4Y-2.45
X2.4Y-2.55
X2.4Y-2.65
X2.4Y-2.75
T4
X1.8622Y-2.86
X2.0Y-2.86
X2.1378Y-2.86
T5
X1.65Y-2.9
X2.35Y-2.9
T0
M30
