G04 #@! TF.GenerationSoftware,KiCad,Pcbnew,5.0.2-bee76a0~70~ubuntu18.04.1*
G04 #@! TF.CreationDate,2019-09-12T15:25:54-07:00*
G04 #@! TF.ProjectId,potentiostat_featherwing,706f7465-6e74-4696-9f73-7461745f6665,rev?*
G04 #@! TF.SameCoordinates,Original*
G04 #@! TF.FileFunction,Copper,L2,Bot*
G04 #@! TF.FilePolarity,Positive*
%FSLAX46Y46*%
G04 Gerber Fmt 4.6, Leading zero omitted, Abs format (unit mm)*
G04 Created by KiCad (PCBNEW 5.0.2-bee76a0~70~ubuntu18.04.1) date Thu 12 Sep 2019 03:25:54 PM PDT*
%MOMM*%
%LPD*%
G01*
G04 APERTURE LIST*
G04 #@! TA.AperFunction,ComponentPad*
%ADD10C,1.778000*%
G04 #@! TD*
G04 #@! TA.AperFunction,ComponentPad*
%ADD11C,3.048000*%
G04 #@! TD*
G04 #@! TA.AperFunction,WasherPad*
%ADD12C,3.048000*%
G04 #@! TD*
G04 #@! TA.AperFunction,ComponentPad*
%ADD13C,2.000000*%
G04 #@! TD*
G04 #@! TA.AperFunction,ComponentPad*
%ADD14R,2.000000X2.000000*%
G04 #@! TD*
G04 #@! TA.AperFunction,ComponentPad*
%ADD15R,1.700000X1.700000*%
G04 #@! TD*
G04 #@! TA.AperFunction,ComponentPad*
%ADD16O,1.700000X1.700000*%
G04 #@! TD*
G04 #@! TA.AperFunction,ViaPad*
%ADD17C,0.800000*%
G04 #@! TD*
G04 #@! TA.AperFunction,Conductor*
%ADD18C,0.250000*%
G04 #@! TD*
G04 APERTURE END LIST*
D10*
G04 #@! TO.P,U1,28*
G04 #@! TO.N,Net-(U1-Pad28)*
X60960000Y-31750000D03*
G04 #@! TO.P,U1,27*
G04 #@! TO.N,Net-(U1-Pad27)*
X60960000Y-34290000D03*
G04 #@! TO.P,U1,26*
G04 #@! TO.N,Net-(U1-Pad26)*
X60960000Y-36830000D03*
G04 #@! TO.P,U1,25*
G04 #@! TO.N,Net-(U1-Pad25)*
X60960000Y-39370000D03*
G04 #@! TO.P,U1,24*
G04 #@! TO.N,Net-(U1-Pad24)*
X60960000Y-41910000D03*
G04 #@! TO.P,U1,23*
G04 #@! TO.N,Net-(U1-Pad23)*
X60960000Y-44450000D03*
G04 #@! TO.P,U1,22*
G04 #@! TO.N,Net-(U1-Pad22)*
X60960000Y-46990000D03*
G04 #@! TO.P,U1,21*
G04 #@! TO.N,/AIN_TIA*
X60960000Y-49530000D03*
G04 #@! TO.P,U1,20*
G04 #@! TO.N,Net-(U1-Pad20)*
X60960000Y-52070000D03*
G04 #@! TO.P,U1,19*
G04 #@! TO.N,Net-(U1-Pad19)*
X60960000Y-54610000D03*
G04 #@! TO.P,U1,18*
G04 #@! TO.N,/DAC_VGND*
X60960000Y-57150000D03*
G04 #@! TO.P,U1,17*
G04 #@! TO.N,/DAC_SETPT*
X60960000Y-59690000D03*
G04 #@! TO.P,U1,16*
G04 #@! TO.N,GND*
X60960000Y-62230000D03*
G04 #@! TO.P,U1,15*
G04 #@! TO.N,Net-(U1-Pad15)*
X60960000Y-64770000D03*
G04 #@! TO.P,U1,14*
G04 #@! TO.N,/3V3*
X60960000Y-67310000D03*
G04 #@! TO.P,U1,13*
G04 #@! TO.N,Net-(U1-Pad13)*
X60960000Y-69850000D03*
G04 #@! TO.P,U1,12*
G04 #@! TO.N,Net-(U1-Pad12)*
X40640000Y-59690000D03*
G04 #@! TO.P,U1,11*
G04 #@! TO.N,Net-(U1-Pad11)*
X40640000Y-57150000D03*
G04 #@! TO.P,U1,10*
G04 #@! TO.N,Net-(U1-Pad10)*
X40640000Y-54610000D03*
G04 #@! TO.P,U1,9*
G04 #@! TO.N,Net-(U1-Pad9)*
X40640000Y-52070000D03*
G04 #@! TO.P,U1,8*
G04 #@! TO.N,Net-(U1-Pad8)*
X40640000Y-49530000D03*
G04 #@! TO.P,U1,7*
G04 #@! TO.N,Net-(U1-Pad7)*
X40640000Y-46990000D03*
G04 #@! TO.P,U1,6*
G04 #@! TO.N,Net-(U1-Pad6)*
X40640000Y-44450000D03*
G04 #@! TO.P,U1,5*
G04 #@! TO.N,Net-(U1-Pad5)*
X40640000Y-41910000D03*
G04 #@! TO.P,U1,4*
G04 #@! TO.N,Net-(U1-Pad4)*
X40640000Y-39370000D03*
G04 #@! TO.P,U1,3*
G04 #@! TO.N,Net-(U1-Pad3)*
X40640000Y-36830000D03*
G04 #@! TO.P,U1,2*
G04 #@! TO.N,Net-(U1-Pad2)*
X40640000Y-34290000D03*
G04 #@! TO.P,U1,1*
G04 #@! TO.N,Net-(U1-Pad1)*
X40640000Y-31750000D03*
D11*
G04 #@! TO.P,U1,*
G04 #@! TO.N,*
X41910000Y-73660000D03*
X59690000Y-73660000D03*
D12*
X59690000Y-27940000D03*
X41910000Y-27940000D03*
G04 #@! TD*
D13*
G04 #@! TO.P,J1,2*
G04 #@! TO.N,/REF_ELECT*
X50800000Y-72644000D03*
D14*
G04 #@! TO.P,J1,1*
G04 #@! TO.N,/CTR_ELECT*
X47299880Y-72644000D03*
D13*
G04 #@! TO.P,J1,3*
G04 #@! TO.N,/WRK_ELECT*
X54300120Y-72644000D03*
G04 #@! TD*
D15*
G04 #@! TO.P,P1,1*
G04 #@! TO.N,/CTR_ELECT*
X48260000Y-64897000D03*
D16*
G04 #@! TO.P,P1,2*
G04 #@! TO.N,/REF_ELECT*
X50800000Y-64897000D03*
G04 #@! TO.P,P1,3*
G04 #@! TO.N,/WRK_ELECT*
X53340000Y-64897000D03*
G04 #@! TD*
D17*
G04 #@! TO.N,/3V3*
X51689000Y-28321000D03*
X51435000Y-37846000D03*
X51435000Y-47879000D03*
X51435000Y-57912000D03*
G04 #@! TO.N,/CTR_ELECT*
X51424500Y-44665900D03*
G04 #@! TO.N,/AIN_TIA*
X54168200Y-45603200D03*
X50545900Y-52253500D03*
G04 #@! TO.N,/DAC_SETPT*
X52818000Y-41806400D03*
G04 #@! TD*
D18*
G04 #@! TO.N,/3V3*
X58166000Y-40132000D02*
X58166000Y-49911000D01*
X51435000Y-37846000D02*
X55880000Y-37846000D01*
X55880000Y-37846000D02*
X58166000Y-40132000D01*
X51689000Y-28321000D02*
X54483000Y-28321000D01*
X54483000Y-28321000D02*
X58166000Y-32004000D01*
X58166000Y-32004000D02*
X58166000Y-40132000D01*
X51435000Y-47879000D02*
X56134000Y-47879000D01*
X56134000Y-47879000D02*
X58166000Y-49911000D01*
X58166000Y-49911000D02*
X58166000Y-59436000D01*
X51435000Y-57912000D02*
X56642000Y-57912000D01*
X56642000Y-57912000D02*
X58166000Y-59436000D01*
X58166000Y-59436000D02*
X58166000Y-66167000D01*
X58166000Y-66167000D02*
X59309000Y-67310000D01*
X59309000Y-67310000D02*
X60960000Y-67310000D01*
G04 #@! TO.N,/CTR_ELECT*
X48260000Y-64897000D02*
X48260000Y-47830400D01*
X48260000Y-47830400D02*
X51424500Y-44665900D01*
G04 #@! TO.N,/AIN_TIA*
X52622700Y-45532900D02*
X52622700Y-44838300D01*
X52622700Y-44838300D02*
X50256200Y-42471800D01*
X50256200Y-42471800D02*
X50256200Y-28063800D01*
X50256200Y-28063800D02*
X51224000Y-27096000D01*
X51224000Y-27096000D02*
X54533200Y-27096000D01*
X54533200Y-27096000D02*
X59179200Y-31742000D01*
X59179200Y-31742000D02*
X59179200Y-47749200D01*
X59179200Y-47749200D02*
X60960000Y-49530000D01*
X54168200Y-45603200D02*
X52693000Y-45603200D01*
X52693000Y-45603200D02*
X52622700Y-45532900D01*
X52622700Y-45532900D02*
X50545900Y-47609700D01*
X50545900Y-47609700D02*
X50545900Y-52253500D01*
G04 #@! TO.N,/DAC_SETPT*
X52818000Y-41806400D02*
X50706500Y-39694900D01*
X50706500Y-39694900D02*
X50706500Y-28250400D01*
X50706500Y-28250400D02*
X51410600Y-27546300D01*
X51410600Y-27546300D02*
X54346600Y-27546300D01*
X54346600Y-27546300D02*
X58616400Y-31816100D01*
X58616400Y-31816100D02*
X58616400Y-57346400D01*
X58616400Y-57346400D02*
X60960000Y-59690000D01*
G04 #@! TD*
M02*
