G04 #@! TF.GenerationSoftware,KiCad,Pcbnew,5.0.2-bee76a0~70~ubuntu18.04.1*
G04 #@! TF.CreationDate,2019-09-12T15:25:54-07:00*
G04 #@! TF.ProjectId,potentiostat_featherwing,706f7465-6e74-4696-9f73-7461745f6665,rev?*
G04 #@! TF.SameCoordinates,Original*
G04 #@! TF.FileFunction,Paste,Top*
G04 #@! TF.FilePolarity,Positive*
%FSLAX46Y46*%
G04 Gerber Fmt 4.6, Leading zero omitted, Abs format (unit mm)*
G04 Created by KiCad (PCBNEW 5.0.2-bee76a0~70~ubuntu18.04.1) date Thu 12 Sep 2019 03:25:54 PM PDT*
%MOMM*%
%LPD*%
G01*
G04 APERTURE LIST*
%ADD10C,0.100000*%
%ADD11C,0.950000*%
%ADD12R,2.058000X0.600000*%
G04 APERTURE END LIST*
D10*
G04 #@! TO.C,C6*
G36*
X51378779Y-52866144D02*
X51401834Y-52869563D01*
X51424443Y-52875227D01*
X51446387Y-52883079D01*
X51467457Y-52893044D01*
X51487448Y-52905026D01*
X51506168Y-52918910D01*
X51523438Y-52934562D01*
X51539090Y-52951832D01*
X51552974Y-52970552D01*
X51564956Y-52990543D01*
X51574921Y-53011613D01*
X51582773Y-53033557D01*
X51588437Y-53056166D01*
X51591856Y-53079221D01*
X51593000Y-53102500D01*
X51593000Y-53577500D01*
X51591856Y-53600779D01*
X51588437Y-53623834D01*
X51582773Y-53646443D01*
X51574921Y-53668387D01*
X51564956Y-53689457D01*
X51552974Y-53709448D01*
X51539090Y-53728168D01*
X51523438Y-53745438D01*
X51506168Y-53761090D01*
X51487448Y-53774974D01*
X51467457Y-53786956D01*
X51446387Y-53796921D01*
X51424443Y-53804773D01*
X51401834Y-53810437D01*
X51378779Y-53813856D01*
X51355500Y-53815000D01*
X50780500Y-53815000D01*
X50757221Y-53813856D01*
X50734166Y-53810437D01*
X50711557Y-53804773D01*
X50689613Y-53796921D01*
X50668543Y-53786956D01*
X50648552Y-53774974D01*
X50629832Y-53761090D01*
X50612562Y-53745438D01*
X50596910Y-53728168D01*
X50583026Y-53709448D01*
X50571044Y-53689457D01*
X50561079Y-53668387D01*
X50553227Y-53646443D01*
X50547563Y-53623834D01*
X50544144Y-53600779D01*
X50543000Y-53577500D01*
X50543000Y-53102500D01*
X50544144Y-53079221D01*
X50547563Y-53056166D01*
X50553227Y-53033557D01*
X50561079Y-53011613D01*
X50571044Y-52990543D01*
X50583026Y-52970552D01*
X50596910Y-52951832D01*
X50612562Y-52934562D01*
X50629832Y-52918910D01*
X50648552Y-52905026D01*
X50668543Y-52893044D01*
X50689613Y-52883079D01*
X50711557Y-52875227D01*
X50734166Y-52869563D01*
X50757221Y-52866144D01*
X50780500Y-52865000D01*
X51355500Y-52865000D01*
X51378779Y-52866144D01*
X51378779Y-52866144D01*
G37*
D11*
X51068000Y-53340000D03*
D10*
G36*
X53128779Y-52866144D02*
X53151834Y-52869563D01*
X53174443Y-52875227D01*
X53196387Y-52883079D01*
X53217457Y-52893044D01*
X53237448Y-52905026D01*
X53256168Y-52918910D01*
X53273438Y-52934562D01*
X53289090Y-52951832D01*
X53302974Y-52970552D01*
X53314956Y-52990543D01*
X53324921Y-53011613D01*
X53332773Y-53033557D01*
X53338437Y-53056166D01*
X53341856Y-53079221D01*
X53343000Y-53102500D01*
X53343000Y-53577500D01*
X53341856Y-53600779D01*
X53338437Y-53623834D01*
X53332773Y-53646443D01*
X53324921Y-53668387D01*
X53314956Y-53689457D01*
X53302974Y-53709448D01*
X53289090Y-53728168D01*
X53273438Y-53745438D01*
X53256168Y-53761090D01*
X53237448Y-53774974D01*
X53217457Y-53786956D01*
X53196387Y-53796921D01*
X53174443Y-53804773D01*
X53151834Y-53810437D01*
X53128779Y-53813856D01*
X53105500Y-53815000D01*
X52530500Y-53815000D01*
X52507221Y-53813856D01*
X52484166Y-53810437D01*
X52461557Y-53804773D01*
X52439613Y-53796921D01*
X52418543Y-53786956D01*
X52398552Y-53774974D01*
X52379832Y-53761090D01*
X52362562Y-53745438D01*
X52346910Y-53728168D01*
X52333026Y-53709448D01*
X52321044Y-53689457D01*
X52311079Y-53668387D01*
X52303227Y-53646443D01*
X52297563Y-53623834D01*
X52294144Y-53600779D01*
X52293000Y-53577500D01*
X52293000Y-53102500D01*
X52294144Y-53079221D01*
X52297563Y-53056166D01*
X52303227Y-53033557D01*
X52311079Y-53011613D01*
X52321044Y-52990543D01*
X52333026Y-52970552D01*
X52346910Y-52951832D01*
X52362562Y-52934562D01*
X52379832Y-52918910D01*
X52398552Y-52905026D01*
X52418543Y-52893044D01*
X52439613Y-52883079D01*
X52461557Y-52875227D01*
X52484166Y-52869563D01*
X52507221Y-52866144D01*
X52530500Y-52865000D01*
X53105500Y-52865000D01*
X53128779Y-52866144D01*
X53128779Y-52866144D01*
G37*
D11*
X52818000Y-53340000D03*
G04 #@! TD*
D10*
G04 #@! TO.C,C2*
G36*
X45980779Y-44956144D02*
X46003834Y-44959563D01*
X46026443Y-44965227D01*
X46048387Y-44973079D01*
X46069457Y-44983044D01*
X46089448Y-44995026D01*
X46108168Y-45008910D01*
X46125438Y-45024562D01*
X46141090Y-45041832D01*
X46154974Y-45060552D01*
X46166956Y-45080543D01*
X46176921Y-45101613D01*
X46184773Y-45123557D01*
X46190437Y-45146166D01*
X46193856Y-45169221D01*
X46195000Y-45192500D01*
X46195000Y-45767500D01*
X46193856Y-45790779D01*
X46190437Y-45813834D01*
X46184773Y-45836443D01*
X46176921Y-45858387D01*
X46166956Y-45879457D01*
X46154974Y-45899448D01*
X46141090Y-45918168D01*
X46125438Y-45935438D01*
X46108168Y-45951090D01*
X46089448Y-45964974D01*
X46069457Y-45976956D01*
X46048387Y-45986921D01*
X46026443Y-45994773D01*
X46003834Y-46000437D01*
X45980779Y-46003856D01*
X45957500Y-46005000D01*
X45482500Y-46005000D01*
X45459221Y-46003856D01*
X45436166Y-46000437D01*
X45413557Y-45994773D01*
X45391613Y-45986921D01*
X45370543Y-45976956D01*
X45350552Y-45964974D01*
X45331832Y-45951090D01*
X45314562Y-45935438D01*
X45298910Y-45918168D01*
X45285026Y-45899448D01*
X45273044Y-45879457D01*
X45263079Y-45858387D01*
X45255227Y-45836443D01*
X45249563Y-45813834D01*
X45246144Y-45790779D01*
X45245000Y-45767500D01*
X45245000Y-45192500D01*
X45246144Y-45169221D01*
X45249563Y-45146166D01*
X45255227Y-45123557D01*
X45263079Y-45101613D01*
X45273044Y-45080543D01*
X45285026Y-45060552D01*
X45298910Y-45041832D01*
X45314562Y-45024562D01*
X45331832Y-45008910D01*
X45350552Y-44995026D01*
X45370543Y-44983044D01*
X45391613Y-44973079D01*
X45413557Y-44965227D01*
X45436166Y-44959563D01*
X45459221Y-44956144D01*
X45482500Y-44955000D01*
X45957500Y-44955000D01*
X45980779Y-44956144D01*
X45980779Y-44956144D01*
G37*
D11*
X45720000Y-45480000D03*
D10*
G36*
X45980779Y-46706144D02*
X46003834Y-46709563D01*
X46026443Y-46715227D01*
X46048387Y-46723079D01*
X46069457Y-46733044D01*
X46089448Y-46745026D01*
X46108168Y-46758910D01*
X46125438Y-46774562D01*
X46141090Y-46791832D01*
X46154974Y-46810552D01*
X46166956Y-46830543D01*
X46176921Y-46851613D01*
X46184773Y-46873557D01*
X46190437Y-46896166D01*
X46193856Y-46919221D01*
X46195000Y-46942500D01*
X46195000Y-47517500D01*
X46193856Y-47540779D01*
X46190437Y-47563834D01*
X46184773Y-47586443D01*
X46176921Y-47608387D01*
X46166956Y-47629457D01*
X46154974Y-47649448D01*
X46141090Y-47668168D01*
X46125438Y-47685438D01*
X46108168Y-47701090D01*
X46089448Y-47714974D01*
X46069457Y-47726956D01*
X46048387Y-47736921D01*
X46026443Y-47744773D01*
X46003834Y-47750437D01*
X45980779Y-47753856D01*
X45957500Y-47755000D01*
X45482500Y-47755000D01*
X45459221Y-47753856D01*
X45436166Y-47750437D01*
X45413557Y-47744773D01*
X45391613Y-47736921D01*
X45370543Y-47726956D01*
X45350552Y-47714974D01*
X45331832Y-47701090D01*
X45314562Y-47685438D01*
X45298910Y-47668168D01*
X45285026Y-47649448D01*
X45273044Y-47629457D01*
X45263079Y-47608387D01*
X45255227Y-47586443D01*
X45249563Y-47563834D01*
X45246144Y-47540779D01*
X45245000Y-47517500D01*
X45245000Y-46942500D01*
X45246144Y-46919221D01*
X45249563Y-46896166D01*
X45255227Y-46873557D01*
X45263079Y-46851613D01*
X45273044Y-46830543D01*
X45285026Y-46810552D01*
X45298910Y-46791832D01*
X45314562Y-46774562D01*
X45331832Y-46758910D01*
X45350552Y-46745026D01*
X45370543Y-46733044D01*
X45391613Y-46723079D01*
X45413557Y-46715227D01*
X45436166Y-46709563D01*
X45459221Y-46706144D01*
X45482500Y-46705000D01*
X45957500Y-46705000D01*
X45980779Y-46706144D01*
X45980779Y-46706144D01*
G37*
D11*
X45720000Y-47230000D03*
G04 #@! TD*
D10*
G04 #@! TO.C,C1*
G36*
X45980779Y-56640144D02*
X46003834Y-56643563D01*
X46026443Y-56649227D01*
X46048387Y-56657079D01*
X46069457Y-56667044D01*
X46089448Y-56679026D01*
X46108168Y-56692910D01*
X46125438Y-56708562D01*
X46141090Y-56725832D01*
X46154974Y-56744552D01*
X46166956Y-56764543D01*
X46176921Y-56785613D01*
X46184773Y-56807557D01*
X46190437Y-56830166D01*
X46193856Y-56853221D01*
X46195000Y-56876500D01*
X46195000Y-57451500D01*
X46193856Y-57474779D01*
X46190437Y-57497834D01*
X46184773Y-57520443D01*
X46176921Y-57542387D01*
X46166956Y-57563457D01*
X46154974Y-57583448D01*
X46141090Y-57602168D01*
X46125438Y-57619438D01*
X46108168Y-57635090D01*
X46089448Y-57648974D01*
X46069457Y-57660956D01*
X46048387Y-57670921D01*
X46026443Y-57678773D01*
X46003834Y-57684437D01*
X45980779Y-57687856D01*
X45957500Y-57689000D01*
X45482500Y-57689000D01*
X45459221Y-57687856D01*
X45436166Y-57684437D01*
X45413557Y-57678773D01*
X45391613Y-57670921D01*
X45370543Y-57660956D01*
X45350552Y-57648974D01*
X45331832Y-57635090D01*
X45314562Y-57619438D01*
X45298910Y-57602168D01*
X45285026Y-57583448D01*
X45273044Y-57563457D01*
X45263079Y-57542387D01*
X45255227Y-57520443D01*
X45249563Y-57497834D01*
X45246144Y-57474779D01*
X45245000Y-57451500D01*
X45245000Y-56876500D01*
X45246144Y-56853221D01*
X45249563Y-56830166D01*
X45255227Y-56807557D01*
X45263079Y-56785613D01*
X45273044Y-56764543D01*
X45285026Y-56744552D01*
X45298910Y-56725832D01*
X45314562Y-56708562D01*
X45331832Y-56692910D01*
X45350552Y-56679026D01*
X45370543Y-56667044D01*
X45391613Y-56657079D01*
X45413557Y-56649227D01*
X45436166Y-56643563D01*
X45459221Y-56640144D01*
X45482500Y-56639000D01*
X45957500Y-56639000D01*
X45980779Y-56640144D01*
X45980779Y-56640144D01*
G37*
D11*
X45720000Y-57164000D03*
D10*
G36*
X45980779Y-58390144D02*
X46003834Y-58393563D01*
X46026443Y-58399227D01*
X46048387Y-58407079D01*
X46069457Y-58417044D01*
X46089448Y-58429026D01*
X46108168Y-58442910D01*
X46125438Y-58458562D01*
X46141090Y-58475832D01*
X46154974Y-58494552D01*
X46166956Y-58514543D01*
X46176921Y-58535613D01*
X46184773Y-58557557D01*
X46190437Y-58580166D01*
X46193856Y-58603221D01*
X46195000Y-58626500D01*
X46195000Y-59201500D01*
X46193856Y-59224779D01*
X46190437Y-59247834D01*
X46184773Y-59270443D01*
X46176921Y-59292387D01*
X46166956Y-59313457D01*
X46154974Y-59333448D01*
X46141090Y-59352168D01*
X46125438Y-59369438D01*
X46108168Y-59385090D01*
X46089448Y-59398974D01*
X46069457Y-59410956D01*
X46048387Y-59420921D01*
X46026443Y-59428773D01*
X46003834Y-59434437D01*
X45980779Y-59437856D01*
X45957500Y-59439000D01*
X45482500Y-59439000D01*
X45459221Y-59437856D01*
X45436166Y-59434437D01*
X45413557Y-59428773D01*
X45391613Y-59420921D01*
X45370543Y-59410956D01*
X45350552Y-59398974D01*
X45331832Y-59385090D01*
X45314562Y-59369438D01*
X45298910Y-59352168D01*
X45285026Y-59333448D01*
X45273044Y-59313457D01*
X45263079Y-59292387D01*
X45255227Y-59270443D01*
X45249563Y-59247834D01*
X45246144Y-59224779D01*
X45245000Y-59201500D01*
X45245000Y-58626500D01*
X45246144Y-58603221D01*
X45249563Y-58580166D01*
X45255227Y-58557557D01*
X45263079Y-58535613D01*
X45273044Y-58514543D01*
X45285026Y-58494552D01*
X45298910Y-58475832D01*
X45314562Y-58458562D01*
X45331832Y-58442910D01*
X45350552Y-58429026D01*
X45370543Y-58417044D01*
X45391613Y-58407079D01*
X45413557Y-58399227D01*
X45436166Y-58393563D01*
X45459221Y-58390144D01*
X45482500Y-58389000D01*
X45957500Y-58389000D01*
X45980779Y-58390144D01*
X45980779Y-58390144D01*
G37*
D11*
X45720000Y-58914000D03*
G04 #@! TD*
D10*
G04 #@! TO.C,C3*
G36*
X45980779Y-34895144D02*
X46003834Y-34898563D01*
X46026443Y-34904227D01*
X46048387Y-34912079D01*
X46069457Y-34922044D01*
X46089448Y-34934026D01*
X46108168Y-34947910D01*
X46125438Y-34963562D01*
X46141090Y-34980832D01*
X46154974Y-34999552D01*
X46166956Y-35019543D01*
X46176921Y-35040613D01*
X46184773Y-35062557D01*
X46190437Y-35085166D01*
X46193856Y-35108221D01*
X46195000Y-35131500D01*
X46195000Y-35706500D01*
X46193856Y-35729779D01*
X46190437Y-35752834D01*
X46184773Y-35775443D01*
X46176921Y-35797387D01*
X46166956Y-35818457D01*
X46154974Y-35838448D01*
X46141090Y-35857168D01*
X46125438Y-35874438D01*
X46108168Y-35890090D01*
X46089448Y-35903974D01*
X46069457Y-35915956D01*
X46048387Y-35925921D01*
X46026443Y-35933773D01*
X46003834Y-35939437D01*
X45980779Y-35942856D01*
X45957500Y-35944000D01*
X45482500Y-35944000D01*
X45459221Y-35942856D01*
X45436166Y-35939437D01*
X45413557Y-35933773D01*
X45391613Y-35925921D01*
X45370543Y-35915956D01*
X45350552Y-35903974D01*
X45331832Y-35890090D01*
X45314562Y-35874438D01*
X45298910Y-35857168D01*
X45285026Y-35838448D01*
X45273044Y-35818457D01*
X45263079Y-35797387D01*
X45255227Y-35775443D01*
X45249563Y-35752834D01*
X45246144Y-35729779D01*
X45245000Y-35706500D01*
X45245000Y-35131500D01*
X45246144Y-35108221D01*
X45249563Y-35085166D01*
X45255227Y-35062557D01*
X45263079Y-35040613D01*
X45273044Y-35019543D01*
X45285026Y-34999552D01*
X45298910Y-34980832D01*
X45314562Y-34963562D01*
X45331832Y-34947910D01*
X45350552Y-34934026D01*
X45370543Y-34922044D01*
X45391613Y-34912079D01*
X45413557Y-34904227D01*
X45436166Y-34898563D01*
X45459221Y-34895144D01*
X45482500Y-34894000D01*
X45957500Y-34894000D01*
X45980779Y-34895144D01*
X45980779Y-34895144D01*
G37*
D11*
X45720000Y-35419000D03*
D10*
G36*
X45980779Y-33145144D02*
X46003834Y-33148563D01*
X46026443Y-33154227D01*
X46048387Y-33162079D01*
X46069457Y-33172044D01*
X46089448Y-33184026D01*
X46108168Y-33197910D01*
X46125438Y-33213562D01*
X46141090Y-33230832D01*
X46154974Y-33249552D01*
X46166956Y-33269543D01*
X46176921Y-33290613D01*
X46184773Y-33312557D01*
X46190437Y-33335166D01*
X46193856Y-33358221D01*
X46195000Y-33381500D01*
X46195000Y-33956500D01*
X46193856Y-33979779D01*
X46190437Y-34002834D01*
X46184773Y-34025443D01*
X46176921Y-34047387D01*
X46166956Y-34068457D01*
X46154974Y-34088448D01*
X46141090Y-34107168D01*
X46125438Y-34124438D01*
X46108168Y-34140090D01*
X46089448Y-34153974D01*
X46069457Y-34165956D01*
X46048387Y-34175921D01*
X46026443Y-34183773D01*
X46003834Y-34189437D01*
X45980779Y-34192856D01*
X45957500Y-34194000D01*
X45482500Y-34194000D01*
X45459221Y-34192856D01*
X45436166Y-34189437D01*
X45413557Y-34183773D01*
X45391613Y-34175921D01*
X45370543Y-34165956D01*
X45350552Y-34153974D01*
X45331832Y-34140090D01*
X45314562Y-34124438D01*
X45298910Y-34107168D01*
X45285026Y-34088448D01*
X45273044Y-34068457D01*
X45263079Y-34047387D01*
X45255227Y-34025443D01*
X45249563Y-34002834D01*
X45246144Y-33979779D01*
X45245000Y-33956500D01*
X45245000Y-33381500D01*
X45246144Y-33358221D01*
X45249563Y-33335166D01*
X45255227Y-33312557D01*
X45263079Y-33290613D01*
X45273044Y-33269543D01*
X45285026Y-33249552D01*
X45298910Y-33230832D01*
X45314562Y-33213562D01*
X45331832Y-33197910D01*
X45350552Y-33184026D01*
X45370543Y-33172044D01*
X45391613Y-33162079D01*
X45413557Y-33154227D01*
X45436166Y-33148563D01*
X45459221Y-33145144D01*
X45482500Y-33144000D01*
X45957500Y-33144000D01*
X45980779Y-33145144D01*
X45980779Y-33145144D01*
G37*
D11*
X45720000Y-33669000D03*
G04 #@! TD*
D10*
G04 #@! TO.C,C4*
G36*
X45980779Y-27783144D02*
X46003834Y-27786563D01*
X46026443Y-27792227D01*
X46048387Y-27800079D01*
X46069457Y-27810044D01*
X46089448Y-27822026D01*
X46108168Y-27835910D01*
X46125438Y-27851562D01*
X46141090Y-27868832D01*
X46154974Y-27887552D01*
X46166956Y-27907543D01*
X46176921Y-27928613D01*
X46184773Y-27950557D01*
X46190437Y-27973166D01*
X46193856Y-27996221D01*
X46195000Y-28019500D01*
X46195000Y-28594500D01*
X46193856Y-28617779D01*
X46190437Y-28640834D01*
X46184773Y-28663443D01*
X46176921Y-28685387D01*
X46166956Y-28706457D01*
X46154974Y-28726448D01*
X46141090Y-28745168D01*
X46125438Y-28762438D01*
X46108168Y-28778090D01*
X46089448Y-28791974D01*
X46069457Y-28803956D01*
X46048387Y-28813921D01*
X46026443Y-28821773D01*
X46003834Y-28827437D01*
X45980779Y-28830856D01*
X45957500Y-28832000D01*
X45482500Y-28832000D01*
X45459221Y-28830856D01*
X45436166Y-28827437D01*
X45413557Y-28821773D01*
X45391613Y-28813921D01*
X45370543Y-28803956D01*
X45350552Y-28791974D01*
X45331832Y-28778090D01*
X45314562Y-28762438D01*
X45298910Y-28745168D01*
X45285026Y-28726448D01*
X45273044Y-28706457D01*
X45263079Y-28685387D01*
X45255227Y-28663443D01*
X45249563Y-28640834D01*
X45246144Y-28617779D01*
X45245000Y-28594500D01*
X45245000Y-28019500D01*
X45246144Y-27996221D01*
X45249563Y-27973166D01*
X45255227Y-27950557D01*
X45263079Y-27928613D01*
X45273044Y-27907543D01*
X45285026Y-27887552D01*
X45298910Y-27868832D01*
X45314562Y-27851562D01*
X45331832Y-27835910D01*
X45350552Y-27822026D01*
X45370543Y-27810044D01*
X45391613Y-27800079D01*
X45413557Y-27792227D01*
X45436166Y-27786563D01*
X45459221Y-27783144D01*
X45482500Y-27782000D01*
X45957500Y-27782000D01*
X45980779Y-27783144D01*
X45980779Y-27783144D01*
G37*
D11*
X45720000Y-28307000D03*
D10*
G36*
X45980779Y-26033144D02*
X46003834Y-26036563D01*
X46026443Y-26042227D01*
X46048387Y-26050079D01*
X46069457Y-26060044D01*
X46089448Y-26072026D01*
X46108168Y-26085910D01*
X46125438Y-26101562D01*
X46141090Y-26118832D01*
X46154974Y-26137552D01*
X46166956Y-26157543D01*
X46176921Y-26178613D01*
X46184773Y-26200557D01*
X46190437Y-26223166D01*
X46193856Y-26246221D01*
X46195000Y-26269500D01*
X46195000Y-26844500D01*
X46193856Y-26867779D01*
X46190437Y-26890834D01*
X46184773Y-26913443D01*
X46176921Y-26935387D01*
X46166956Y-26956457D01*
X46154974Y-26976448D01*
X46141090Y-26995168D01*
X46125438Y-27012438D01*
X46108168Y-27028090D01*
X46089448Y-27041974D01*
X46069457Y-27053956D01*
X46048387Y-27063921D01*
X46026443Y-27071773D01*
X46003834Y-27077437D01*
X45980779Y-27080856D01*
X45957500Y-27082000D01*
X45482500Y-27082000D01*
X45459221Y-27080856D01*
X45436166Y-27077437D01*
X45413557Y-27071773D01*
X45391613Y-27063921D01*
X45370543Y-27053956D01*
X45350552Y-27041974D01*
X45331832Y-27028090D01*
X45314562Y-27012438D01*
X45298910Y-26995168D01*
X45285026Y-26976448D01*
X45273044Y-26956457D01*
X45263079Y-26935387D01*
X45255227Y-26913443D01*
X45249563Y-26890834D01*
X45246144Y-26867779D01*
X45245000Y-26844500D01*
X45245000Y-26269500D01*
X45246144Y-26246221D01*
X45249563Y-26223166D01*
X45255227Y-26200557D01*
X45263079Y-26178613D01*
X45273044Y-26157543D01*
X45285026Y-26137552D01*
X45298910Y-26118832D01*
X45314562Y-26101562D01*
X45331832Y-26085910D01*
X45350552Y-26072026D01*
X45370543Y-26060044D01*
X45391613Y-26050079D01*
X45413557Y-26042227D01*
X45436166Y-26036563D01*
X45459221Y-26033144D01*
X45482500Y-26032000D01*
X45957500Y-26032000D01*
X45980779Y-26033144D01*
X45980779Y-26033144D01*
G37*
D11*
X45720000Y-26557000D03*
G04 #@! TD*
D10*
G04 #@! TO.C,C5*
G36*
X51378779Y-33054144D02*
X51401834Y-33057563D01*
X51424443Y-33063227D01*
X51446387Y-33071079D01*
X51467457Y-33081044D01*
X51487448Y-33093026D01*
X51506168Y-33106910D01*
X51523438Y-33122562D01*
X51539090Y-33139832D01*
X51552974Y-33158552D01*
X51564956Y-33178543D01*
X51574921Y-33199613D01*
X51582773Y-33221557D01*
X51588437Y-33244166D01*
X51591856Y-33267221D01*
X51593000Y-33290500D01*
X51593000Y-33765500D01*
X51591856Y-33788779D01*
X51588437Y-33811834D01*
X51582773Y-33834443D01*
X51574921Y-33856387D01*
X51564956Y-33877457D01*
X51552974Y-33897448D01*
X51539090Y-33916168D01*
X51523438Y-33933438D01*
X51506168Y-33949090D01*
X51487448Y-33962974D01*
X51467457Y-33974956D01*
X51446387Y-33984921D01*
X51424443Y-33992773D01*
X51401834Y-33998437D01*
X51378779Y-34001856D01*
X51355500Y-34003000D01*
X50780500Y-34003000D01*
X50757221Y-34001856D01*
X50734166Y-33998437D01*
X50711557Y-33992773D01*
X50689613Y-33984921D01*
X50668543Y-33974956D01*
X50648552Y-33962974D01*
X50629832Y-33949090D01*
X50612562Y-33933438D01*
X50596910Y-33916168D01*
X50583026Y-33897448D01*
X50571044Y-33877457D01*
X50561079Y-33856387D01*
X50553227Y-33834443D01*
X50547563Y-33811834D01*
X50544144Y-33788779D01*
X50543000Y-33765500D01*
X50543000Y-33290500D01*
X50544144Y-33267221D01*
X50547563Y-33244166D01*
X50553227Y-33221557D01*
X50561079Y-33199613D01*
X50571044Y-33178543D01*
X50583026Y-33158552D01*
X50596910Y-33139832D01*
X50612562Y-33122562D01*
X50629832Y-33106910D01*
X50648552Y-33093026D01*
X50668543Y-33081044D01*
X50689613Y-33071079D01*
X50711557Y-33063227D01*
X50734166Y-33057563D01*
X50757221Y-33054144D01*
X50780500Y-33053000D01*
X51355500Y-33053000D01*
X51378779Y-33054144D01*
X51378779Y-33054144D01*
G37*
D11*
X51068000Y-33528000D03*
D10*
G36*
X53128779Y-33054144D02*
X53151834Y-33057563D01*
X53174443Y-33063227D01*
X53196387Y-33071079D01*
X53217457Y-33081044D01*
X53237448Y-33093026D01*
X53256168Y-33106910D01*
X53273438Y-33122562D01*
X53289090Y-33139832D01*
X53302974Y-33158552D01*
X53314956Y-33178543D01*
X53324921Y-33199613D01*
X53332773Y-33221557D01*
X53338437Y-33244166D01*
X53341856Y-33267221D01*
X53343000Y-33290500D01*
X53343000Y-33765500D01*
X53341856Y-33788779D01*
X53338437Y-33811834D01*
X53332773Y-33834443D01*
X53324921Y-33856387D01*
X53314956Y-33877457D01*
X53302974Y-33897448D01*
X53289090Y-33916168D01*
X53273438Y-33933438D01*
X53256168Y-33949090D01*
X53237448Y-33962974D01*
X53217457Y-33974956D01*
X53196387Y-33984921D01*
X53174443Y-33992773D01*
X53151834Y-33998437D01*
X53128779Y-34001856D01*
X53105500Y-34003000D01*
X52530500Y-34003000D01*
X52507221Y-34001856D01*
X52484166Y-33998437D01*
X52461557Y-33992773D01*
X52439613Y-33984921D01*
X52418543Y-33974956D01*
X52398552Y-33962974D01*
X52379832Y-33949090D01*
X52362562Y-33933438D01*
X52346910Y-33916168D01*
X52333026Y-33897448D01*
X52321044Y-33877457D01*
X52311079Y-33856387D01*
X52303227Y-33834443D01*
X52297563Y-33811834D01*
X52294144Y-33788779D01*
X52293000Y-33765500D01*
X52293000Y-33290500D01*
X52294144Y-33267221D01*
X52297563Y-33244166D01*
X52303227Y-33221557D01*
X52311079Y-33199613D01*
X52321044Y-33178543D01*
X52333026Y-33158552D01*
X52346910Y-33139832D01*
X52362562Y-33122562D01*
X52379832Y-33106910D01*
X52398552Y-33093026D01*
X52418543Y-33081044D01*
X52439613Y-33071079D01*
X52461557Y-33063227D01*
X52484166Y-33057563D01*
X52507221Y-33054144D01*
X52530500Y-33053000D01*
X53105500Y-33053000D01*
X53128779Y-33054144D01*
X53128779Y-33054144D01*
G37*
D11*
X52818000Y-33528000D03*
G04 #@! TD*
D10*
G04 #@! TO.C,R1*
G36*
X51378779Y-42452144D02*
X51401834Y-42455563D01*
X51424443Y-42461227D01*
X51446387Y-42469079D01*
X51467457Y-42479044D01*
X51487448Y-42491026D01*
X51506168Y-42504910D01*
X51523438Y-42520562D01*
X51539090Y-42537832D01*
X51552974Y-42556552D01*
X51564956Y-42576543D01*
X51574921Y-42597613D01*
X51582773Y-42619557D01*
X51588437Y-42642166D01*
X51591856Y-42665221D01*
X51593000Y-42688500D01*
X51593000Y-43163500D01*
X51591856Y-43186779D01*
X51588437Y-43209834D01*
X51582773Y-43232443D01*
X51574921Y-43254387D01*
X51564956Y-43275457D01*
X51552974Y-43295448D01*
X51539090Y-43314168D01*
X51523438Y-43331438D01*
X51506168Y-43347090D01*
X51487448Y-43360974D01*
X51467457Y-43372956D01*
X51446387Y-43382921D01*
X51424443Y-43390773D01*
X51401834Y-43396437D01*
X51378779Y-43399856D01*
X51355500Y-43401000D01*
X50780500Y-43401000D01*
X50757221Y-43399856D01*
X50734166Y-43396437D01*
X50711557Y-43390773D01*
X50689613Y-43382921D01*
X50668543Y-43372956D01*
X50648552Y-43360974D01*
X50629832Y-43347090D01*
X50612562Y-43331438D01*
X50596910Y-43314168D01*
X50583026Y-43295448D01*
X50571044Y-43275457D01*
X50561079Y-43254387D01*
X50553227Y-43232443D01*
X50547563Y-43209834D01*
X50544144Y-43186779D01*
X50543000Y-43163500D01*
X50543000Y-42688500D01*
X50544144Y-42665221D01*
X50547563Y-42642166D01*
X50553227Y-42619557D01*
X50561079Y-42597613D01*
X50571044Y-42576543D01*
X50583026Y-42556552D01*
X50596910Y-42537832D01*
X50612562Y-42520562D01*
X50629832Y-42504910D01*
X50648552Y-42491026D01*
X50668543Y-42479044D01*
X50689613Y-42469079D01*
X50711557Y-42461227D01*
X50734166Y-42455563D01*
X50757221Y-42452144D01*
X50780500Y-42451000D01*
X51355500Y-42451000D01*
X51378779Y-42452144D01*
X51378779Y-42452144D01*
G37*
D11*
X51068000Y-42926000D03*
D10*
G36*
X53128779Y-42452144D02*
X53151834Y-42455563D01*
X53174443Y-42461227D01*
X53196387Y-42469079D01*
X53217457Y-42479044D01*
X53237448Y-42491026D01*
X53256168Y-42504910D01*
X53273438Y-42520562D01*
X53289090Y-42537832D01*
X53302974Y-42556552D01*
X53314956Y-42576543D01*
X53324921Y-42597613D01*
X53332773Y-42619557D01*
X53338437Y-42642166D01*
X53341856Y-42665221D01*
X53343000Y-42688500D01*
X53343000Y-43163500D01*
X53341856Y-43186779D01*
X53338437Y-43209834D01*
X53332773Y-43232443D01*
X53324921Y-43254387D01*
X53314956Y-43275457D01*
X53302974Y-43295448D01*
X53289090Y-43314168D01*
X53273438Y-43331438D01*
X53256168Y-43347090D01*
X53237448Y-43360974D01*
X53217457Y-43372956D01*
X53196387Y-43382921D01*
X53174443Y-43390773D01*
X53151834Y-43396437D01*
X53128779Y-43399856D01*
X53105500Y-43401000D01*
X52530500Y-43401000D01*
X52507221Y-43399856D01*
X52484166Y-43396437D01*
X52461557Y-43390773D01*
X52439613Y-43382921D01*
X52418543Y-43372956D01*
X52398552Y-43360974D01*
X52379832Y-43347090D01*
X52362562Y-43331438D01*
X52346910Y-43314168D01*
X52333026Y-43295448D01*
X52321044Y-43275457D01*
X52311079Y-43254387D01*
X52303227Y-43232443D01*
X52297563Y-43209834D01*
X52294144Y-43186779D01*
X52293000Y-43163500D01*
X52293000Y-42688500D01*
X52294144Y-42665221D01*
X52297563Y-42642166D01*
X52303227Y-42619557D01*
X52311079Y-42597613D01*
X52321044Y-42576543D01*
X52333026Y-42556552D01*
X52346910Y-42537832D01*
X52362562Y-42520562D01*
X52379832Y-42504910D01*
X52398552Y-42491026D01*
X52418543Y-42479044D01*
X52439613Y-42469079D01*
X52461557Y-42461227D01*
X52484166Y-42455563D01*
X52507221Y-42452144D01*
X52530500Y-42451000D01*
X53105500Y-42451000D01*
X53128779Y-42452144D01*
X53128779Y-42452144D01*
G37*
D11*
X52818000Y-42926000D03*
G04 #@! TD*
D10*
G04 #@! TO.C,R2*
G36*
X45980779Y-40737144D02*
X46003834Y-40740563D01*
X46026443Y-40746227D01*
X46048387Y-40754079D01*
X46069457Y-40764044D01*
X46089448Y-40776026D01*
X46108168Y-40789910D01*
X46125438Y-40805562D01*
X46141090Y-40822832D01*
X46154974Y-40841552D01*
X46166956Y-40861543D01*
X46176921Y-40882613D01*
X46184773Y-40904557D01*
X46190437Y-40927166D01*
X46193856Y-40950221D01*
X46195000Y-40973500D01*
X46195000Y-41548500D01*
X46193856Y-41571779D01*
X46190437Y-41594834D01*
X46184773Y-41617443D01*
X46176921Y-41639387D01*
X46166956Y-41660457D01*
X46154974Y-41680448D01*
X46141090Y-41699168D01*
X46125438Y-41716438D01*
X46108168Y-41732090D01*
X46089448Y-41745974D01*
X46069457Y-41757956D01*
X46048387Y-41767921D01*
X46026443Y-41775773D01*
X46003834Y-41781437D01*
X45980779Y-41784856D01*
X45957500Y-41786000D01*
X45482500Y-41786000D01*
X45459221Y-41784856D01*
X45436166Y-41781437D01*
X45413557Y-41775773D01*
X45391613Y-41767921D01*
X45370543Y-41757956D01*
X45350552Y-41745974D01*
X45331832Y-41732090D01*
X45314562Y-41716438D01*
X45298910Y-41699168D01*
X45285026Y-41680448D01*
X45273044Y-41660457D01*
X45263079Y-41639387D01*
X45255227Y-41617443D01*
X45249563Y-41594834D01*
X45246144Y-41571779D01*
X45245000Y-41548500D01*
X45245000Y-40973500D01*
X45246144Y-40950221D01*
X45249563Y-40927166D01*
X45255227Y-40904557D01*
X45263079Y-40882613D01*
X45273044Y-40861543D01*
X45285026Y-40841552D01*
X45298910Y-40822832D01*
X45314562Y-40805562D01*
X45331832Y-40789910D01*
X45350552Y-40776026D01*
X45370543Y-40764044D01*
X45391613Y-40754079D01*
X45413557Y-40746227D01*
X45436166Y-40740563D01*
X45459221Y-40737144D01*
X45482500Y-40736000D01*
X45957500Y-40736000D01*
X45980779Y-40737144D01*
X45980779Y-40737144D01*
G37*
D11*
X45720000Y-41261000D03*
D10*
G36*
X45980779Y-38987144D02*
X46003834Y-38990563D01*
X46026443Y-38996227D01*
X46048387Y-39004079D01*
X46069457Y-39014044D01*
X46089448Y-39026026D01*
X46108168Y-39039910D01*
X46125438Y-39055562D01*
X46141090Y-39072832D01*
X46154974Y-39091552D01*
X46166956Y-39111543D01*
X46176921Y-39132613D01*
X46184773Y-39154557D01*
X46190437Y-39177166D01*
X46193856Y-39200221D01*
X46195000Y-39223500D01*
X46195000Y-39798500D01*
X46193856Y-39821779D01*
X46190437Y-39844834D01*
X46184773Y-39867443D01*
X46176921Y-39889387D01*
X46166956Y-39910457D01*
X46154974Y-39930448D01*
X46141090Y-39949168D01*
X46125438Y-39966438D01*
X46108168Y-39982090D01*
X46089448Y-39995974D01*
X46069457Y-40007956D01*
X46048387Y-40017921D01*
X46026443Y-40025773D01*
X46003834Y-40031437D01*
X45980779Y-40034856D01*
X45957500Y-40036000D01*
X45482500Y-40036000D01*
X45459221Y-40034856D01*
X45436166Y-40031437D01*
X45413557Y-40025773D01*
X45391613Y-40017921D01*
X45370543Y-40007956D01*
X45350552Y-39995974D01*
X45331832Y-39982090D01*
X45314562Y-39966438D01*
X45298910Y-39949168D01*
X45285026Y-39930448D01*
X45273044Y-39910457D01*
X45263079Y-39889387D01*
X45255227Y-39867443D01*
X45249563Y-39844834D01*
X45246144Y-39821779D01*
X45245000Y-39798500D01*
X45245000Y-39223500D01*
X45246144Y-39200221D01*
X45249563Y-39177166D01*
X45255227Y-39154557D01*
X45263079Y-39132613D01*
X45273044Y-39111543D01*
X45285026Y-39091552D01*
X45298910Y-39072832D01*
X45314562Y-39055562D01*
X45331832Y-39039910D01*
X45350552Y-39026026D01*
X45370543Y-39014044D01*
X45391613Y-39004079D01*
X45413557Y-38996227D01*
X45436166Y-38990563D01*
X45459221Y-38987144D01*
X45482500Y-38986000D01*
X45957500Y-38986000D01*
X45980779Y-38987144D01*
X45980779Y-38987144D01*
G37*
D11*
X45720000Y-39511000D03*
G04 #@! TD*
D10*
G04 #@! TO.C,R3*
G36*
X45980779Y-50417144D02*
X46003834Y-50420563D01*
X46026443Y-50426227D01*
X46048387Y-50434079D01*
X46069457Y-50444044D01*
X46089448Y-50456026D01*
X46108168Y-50469910D01*
X46125438Y-50485562D01*
X46141090Y-50502832D01*
X46154974Y-50521552D01*
X46166956Y-50541543D01*
X46176921Y-50562613D01*
X46184773Y-50584557D01*
X46190437Y-50607166D01*
X46193856Y-50630221D01*
X46195000Y-50653500D01*
X46195000Y-51228500D01*
X46193856Y-51251779D01*
X46190437Y-51274834D01*
X46184773Y-51297443D01*
X46176921Y-51319387D01*
X46166956Y-51340457D01*
X46154974Y-51360448D01*
X46141090Y-51379168D01*
X46125438Y-51396438D01*
X46108168Y-51412090D01*
X46089448Y-51425974D01*
X46069457Y-51437956D01*
X46048387Y-51447921D01*
X46026443Y-51455773D01*
X46003834Y-51461437D01*
X45980779Y-51464856D01*
X45957500Y-51466000D01*
X45482500Y-51466000D01*
X45459221Y-51464856D01*
X45436166Y-51461437D01*
X45413557Y-51455773D01*
X45391613Y-51447921D01*
X45370543Y-51437956D01*
X45350552Y-51425974D01*
X45331832Y-51412090D01*
X45314562Y-51396438D01*
X45298910Y-51379168D01*
X45285026Y-51360448D01*
X45273044Y-51340457D01*
X45263079Y-51319387D01*
X45255227Y-51297443D01*
X45249563Y-51274834D01*
X45246144Y-51251779D01*
X45245000Y-51228500D01*
X45245000Y-50653500D01*
X45246144Y-50630221D01*
X45249563Y-50607166D01*
X45255227Y-50584557D01*
X45263079Y-50562613D01*
X45273044Y-50541543D01*
X45285026Y-50521552D01*
X45298910Y-50502832D01*
X45314562Y-50485562D01*
X45331832Y-50469910D01*
X45350552Y-50456026D01*
X45370543Y-50444044D01*
X45391613Y-50434079D01*
X45413557Y-50426227D01*
X45436166Y-50420563D01*
X45459221Y-50417144D01*
X45482500Y-50416000D01*
X45957500Y-50416000D01*
X45980779Y-50417144D01*
X45980779Y-50417144D01*
G37*
D11*
X45720000Y-50941000D03*
D10*
G36*
X45980779Y-52167144D02*
X46003834Y-52170563D01*
X46026443Y-52176227D01*
X46048387Y-52184079D01*
X46069457Y-52194044D01*
X46089448Y-52206026D01*
X46108168Y-52219910D01*
X46125438Y-52235562D01*
X46141090Y-52252832D01*
X46154974Y-52271552D01*
X46166956Y-52291543D01*
X46176921Y-52312613D01*
X46184773Y-52334557D01*
X46190437Y-52357166D01*
X46193856Y-52380221D01*
X46195000Y-52403500D01*
X46195000Y-52978500D01*
X46193856Y-53001779D01*
X46190437Y-53024834D01*
X46184773Y-53047443D01*
X46176921Y-53069387D01*
X46166956Y-53090457D01*
X46154974Y-53110448D01*
X46141090Y-53129168D01*
X46125438Y-53146438D01*
X46108168Y-53162090D01*
X46089448Y-53175974D01*
X46069457Y-53187956D01*
X46048387Y-53197921D01*
X46026443Y-53205773D01*
X46003834Y-53211437D01*
X45980779Y-53214856D01*
X45957500Y-53216000D01*
X45482500Y-53216000D01*
X45459221Y-53214856D01*
X45436166Y-53211437D01*
X45413557Y-53205773D01*
X45391613Y-53197921D01*
X45370543Y-53187956D01*
X45350552Y-53175974D01*
X45331832Y-53162090D01*
X45314562Y-53146438D01*
X45298910Y-53129168D01*
X45285026Y-53110448D01*
X45273044Y-53090457D01*
X45263079Y-53069387D01*
X45255227Y-53047443D01*
X45249563Y-53024834D01*
X45246144Y-53001779D01*
X45245000Y-52978500D01*
X45245000Y-52403500D01*
X45246144Y-52380221D01*
X45249563Y-52357166D01*
X45255227Y-52334557D01*
X45263079Y-52312613D01*
X45273044Y-52291543D01*
X45285026Y-52271552D01*
X45298910Y-52252832D01*
X45314562Y-52235562D01*
X45331832Y-52219910D01*
X45350552Y-52206026D01*
X45370543Y-52194044D01*
X45391613Y-52184079D01*
X45413557Y-52176227D01*
X45436166Y-52170563D01*
X45459221Y-52167144D01*
X45482500Y-52166000D01*
X45957500Y-52166000D01*
X45980779Y-52167144D01*
X45980779Y-52167144D01*
G37*
D11*
X45720000Y-52691000D03*
G04 #@! TD*
D12*
G04 #@! TO.C,U2*
X48989000Y-40386000D03*
X48989000Y-39116000D03*
X48989000Y-37846000D03*
X48989000Y-36576000D03*
X54897000Y-36576000D03*
X54897000Y-37846000D03*
X54897000Y-39116000D03*
X54897000Y-40386000D03*
G04 #@! TD*
G04 #@! TO.C,U3*
X54897000Y-60452000D03*
X54897000Y-59182000D03*
X54897000Y-57912000D03*
X54897000Y-56642000D03*
X48989000Y-56642000D03*
X48989000Y-57912000D03*
X48989000Y-59182000D03*
X48989000Y-60452000D03*
G04 #@! TD*
G04 #@! TO.C,U4*
X48989000Y-50419000D03*
X48989000Y-49149000D03*
X48989000Y-47879000D03*
X48989000Y-46609000D03*
X54897000Y-46609000D03*
X54897000Y-47879000D03*
X54897000Y-49149000D03*
X54897000Y-50419000D03*
G04 #@! TD*
G04 #@! TO.C,U5*
X54897000Y-30861000D03*
X54897000Y-29591000D03*
X54897000Y-28321000D03*
X54897000Y-27051000D03*
X48989000Y-27051000D03*
X48989000Y-28321000D03*
X48989000Y-29591000D03*
X48989000Y-30861000D03*
G04 #@! TD*
M02*
