G04 #@! TF.GenerationSoftware,KiCad,Pcbnew,5.0.2-bee76a0~70~ubuntu18.04.1*
G04 #@! TF.CreationDate,2019-09-12T15:25:54-07:00*
G04 #@! TF.ProjectId,potentiostat_featherwing,706f7465-6e74-4696-9f73-7461745f6665,rev?*
G04 #@! TF.SameCoordinates,Original*
G04 #@! TF.FileFunction,Legend,Top*
G04 #@! TF.FilePolarity,Positive*
%FSLAX46Y46*%
G04 Gerber Fmt 4.6, Leading zero omitted, Abs format (unit mm)*
G04 Created by KiCad (PCBNEW 5.0.2-bee76a0~70~ubuntu18.04.1) date Thu 12 Sep 2019 03:25:54 PM PDT*
%MOMM*%
%LPD*%
G01*
G04 APERTURE LIST*
%ADD10C,0.203200*%
%ADD11C,0.150000*%
%ADD12C,0.381000*%
%ADD13C,0.120000*%
%ADD14C,0.152400*%
G04 APERTURE END LIST*
D10*
X53031571Y-67642619D02*
X53273476Y-68658619D01*
X53467000Y-67932904D01*
X53660523Y-68658619D01*
X53902428Y-67642619D01*
X54870047Y-68658619D02*
X54531380Y-68174809D01*
X54289476Y-68658619D02*
X54289476Y-67642619D01*
X54676523Y-67642619D01*
X54773285Y-67691000D01*
X54821666Y-67739380D01*
X54870047Y-67836142D01*
X54870047Y-67981285D01*
X54821666Y-68078047D01*
X54773285Y-68126428D01*
X54676523Y-68174809D01*
X54289476Y-68174809D01*
X55305476Y-68658619D02*
X55305476Y-67642619D01*
X55886047Y-68658619D02*
X55450619Y-68078047D01*
X55886047Y-67642619D02*
X55305476Y-68223190D01*
X50219428Y-68658619D02*
X49880761Y-68174809D01*
X49638857Y-68658619D02*
X49638857Y-67642619D01*
X50025904Y-67642619D01*
X50122666Y-67691000D01*
X50171047Y-67739380D01*
X50219428Y-67836142D01*
X50219428Y-67981285D01*
X50171047Y-68078047D01*
X50122666Y-68126428D01*
X50025904Y-68174809D01*
X49638857Y-68174809D01*
X50654857Y-68126428D02*
X50993523Y-68126428D01*
X51138666Y-68658619D02*
X50654857Y-68658619D01*
X50654857Y-67642619D01*
X51138666Y-67642619D01*
X51912761Y-68126428D02*
X51574095Y-68126428D01*
X51574095Y-68658619D02*
X51574095Y-67642619D01*
X52057904Y-67642619D01*
X46663428Y-68561857D02*
X46615047Y-68610238D01*
X46469904Y-68658619D01*
X46373142Y-68658619D01*
X46228000Y-68610238D01*
X46131238Y-68513476D01*
X46082857Y-68416714D01*
X46034476Y-68223190D01*
X46034476Y-68078047D01*
X46082857Y-67884523D01*
X46131238Y-67787761D01*
X46228000Y-67691000D01*
X46373142Y-67642619D01*
X46469904Y-67642619D01*
X46615047Y-67691000D01*
X46663428Y-67739380D01*
X46953714Y-67642619D02*
X47534285Y-67642619D01*
X47244000Y-68658619D02*
X47244000Y-67642619D01*
X48453523Y-68658619D02*
X48114857Y-68174809D01*
X47872952Y-68658619D02*
X47872952Y-67642619D01*
X48260000Y-67642619D01*
X48356761Y-67691000D01*
X48405142Y-67739380D01*
X48453523Y-67836142D01*
X48453523Y-67981285D01*
X48405142Y-68078047D01*
X48356761Y-68126428D01*
X48260000Y-68174809D01*
X47872952Y-68174809D01*
D11*
G04 #@! TO.C,U1*
X39370000Y-27940000D02*
X39370000Y-73660000D01*
X59690000Y-76200000D02*
X41910000Y-76200000D01*
X62230000Y-27940000D02*
X62230000Y-73660000D01*
X59690000Y-25400000D02*
X41910000Y-25400000D01*
X41910000Y-76200000D02*
G75*
G02X39370000Y-73660000I0J2540000D01*
G01*
X62230000Y-73660000D02*
G75*
G02X59690000Y-76200000I-2540000J0D01*
G01*
X59690000Y-25400000D02*
G75*
G02X62230000Y-27940000I0J-2540000D01*
G01*
X39370000Y-27940000D02*
G75*
G02X41910000Y-25400000I2540000J0D01*
G01*
D12*
G04 #@! TO.C,J1*
X45001180Y-69242940D02*
X45001180Y-76045060D01*
X45001180Y-76045060D02*
X56598820Y-76045060D01*
X56598820Y-76045060D02*
X56598820Y-69242940D01*
X56598820Y-69242940D02*
X45001180Y-69242940D01*
D13*
G04 #@! TO.C,C6*
X52114267Y-52830000D02*
X51771733Y-52830000D01*
X52114267Y-53850000D02*
X51771733Y-53850000D01*
G04 #@! TO.C,C2*
X46230000Y-46526267D02*
X46230000Y-46183733D01*
X45210000Y-46526267D02*
X45210000Y-46183733D01*
G04 #@! TO.C,C1*
X46230000Y-58210267D02*
X46230000Y-57867733D01*
X45210000Y-58210267D02*
X45210000Y-57867733D01*
G04 #@! TO.C,C3*
X45210000Y-34715267D02*
X45210000Y-34372733D01*
X46230000Y-34715267D02*
X46230000Y-34372733D01*
G04 #@! TO.C,C4*
X45210000Y-27603267D02*
X45210000Y-27260733D01*
X46230000Y-27603267D02*
X46230000Y-27260733D01*
G04 #@! TO.C,C5*
X52114267Y-33018000D02*
X51771733Y-33018000D01*
X52114267Y-34038000D02*
X51771733Y-34038000D01*
G04 #@! TO.C,P1*
X54670000Y-66227000D02*
X54670000Y-63567000D01*
X49530000Y-66227000D02*
X54670000Y-66227000D01*
X49530000Y-63567000D02*
X54670000Y-63567000D01*
X49530000Y-66227000D02*
X49530000Y-63567000D01*
X48260000Y-66227000D02*
X46930000Y-66227000D01*
X46930000Y-66227000D02*
X46930000Y-64897000D01*
G04 #@! TO.C,R1*
X51771733Y-42416000D02*
X52114267Y-42416000D01*
X51771733Y-43436000D02*
X52114267Y-43436000D01*
G04 #@! TO.C,R2*
X45210000Y-40214733D02*
X45210000Y-40557267D01*
X46230000Y-40214733D02*
X46230000Y-40557267D01*
G04 #@! TO.C,R3*
X46230000Y-51644733D02*
X46230000Y-51987267D01*
X45210000Y-51644733D02*
X45210000Y-51987267D01*
D11*
G04 #@! TO.C,U2*
X54018000Y-41006000D02*
X55418000Y-41006000D01*
X54018000Y-35906000D02*
X49868000Y-35906000D01*
X54018000Y-41056000D02*
X49868000Y-41056000D01*
X54018000Y-35906000D02*
X54018000Y-36051000D01*
X49868000Y-35906000D02*
X49868000Y-36051000D01*
X49868000Y-41056000D02*
X49868000Y-40911000D01*
X54018000Y-41056000D02*
X54018000Y-41006000D01*
G04 #@! TO.C,U3*
X54018000Y-61122000D02*
X54018000Y-61072000D01*
X49868000Y-61122000D02*
X49868000Y-60977000D01*
X49868000Y-55972000D02*
X49868000Y-56117000D01*
X54018000Y-55972000D02*
X54018000Y-56117000D01*
X54018000Y-61122000D02*
X49868000Y-61122000D01*
X54018000Y-55972000D02*
X49868000Y-55972000D01*
X54018000Y-61072000D02*
X55418000Y-61072000D01*
G04 #@! TO.C,U4*
X54018000Y-51039000D02*
X55418000Y-51039000D01*
X54018000Y-45939000D02*
X49868000Y-45939000D01*
X54018000Y-51089000D02*
X49868000Y-51089000D01*
X54018000Y-45939000D02*
X54018000Y-46084000D01*
X49868000Y-45939000D02*
X49868000Y-46084000D01*
X49868000Y-51089000D02*
X49868000Y-50944000D01*
X54018000Y-51089000D02*
X54018000Y-51039000D01*
G04 #@! TO.C,U5*
X54018000Y-31531000D02*
X54018000Y-31481000D01*
X49868000Y-31531000D02*
X49868000Y-31386000D01*
X49868000Y-26381000D02*
X49868000Y-26526000D01*
X54018000Y-26381000D02*
X54018000Y-26526000D01*
X54018000Y-31531000D02*
X49868000Y-31531000D01*
X54018000Y-26381000D02*
X49868000Y-26381000D01*
X54018000Y-31481000D02*
X55418000Y-31481000D01*
G04 #@! TO.C,U1*
D10*
X57863619Y-70309619D02*
X57524952Y-69825809D01*
X57283047Y-70309619D02*
X57283047Y-69293619D01*
X57670095Y-69293619D01*
X57766857Y-69342000D01*
X57815238Y-69390380D01*
X57863619Y-69487142D01*
X57863619Y-69632285D01*
X57815238Y-69729047D01*
X57766857Y-69777428D01*
X57670095Y-69825809D01*
X57283047Y-69825809D01*
X58250666Y-70261238D02*
X58395809Y-70309619D01*
X58637714Y-70309619D01*
X58734476Y-70261238D01*
X58782857Y-70212857D01*
X58831238Y-70116095D01*
X58831238Y-70019333D01*
X58782857Y-69922571D01*
X58734476Y-69874190D01*
X58637714Y-69825809D01*
X58444190Y-69777428D01*
X58347428Y-69729047D01*
X58299047Y-69680666D01*
X58250666Y-69583904D01*
X58250666Y-69487142D01*
X58299047Y-69390380D01*
X58347428Y-69342000D01*
X58444190Y-69293619D01*
X58686095Y-69293619D01*
X58831238Y-69342000D01*
X59121523Y-69293619D02*
X59702095Y-69293619D01*
X59411809Y-70309619D02*
X59411809Y-69293619D01*
X57899904Y-66753619D02*
X58528857Y-66753619D01*
X58190190Y-67140666D01*
X58335333Y-67140666D01*
X58432095Y-67189047D01*
X58480476Y-67237428D01*
X58528857Y-67334190D01*
X58528857Y-67576095D01*
X58480476Y-67672857D01*
X58432095Y-67721238D01*
X58335333Y-67769619D01*
X58045047Y-67769619D01*
X57948285Y-67721238D01*
X57899904Y-67672857D01*
X58819142Y-66753619D02*
X59157809Y-67769619D01*
X59496476Y-66753619D01*
X56267047Y-64939333D02*
X56750857Y-64939333D01*
X56170285Y-65229619D02*
X56508952Y-64213619D01*
X56847619Y-65229619D01*
X57766857Y-65229619D02*
X57428190Y-64745809D01*
X57186285Y-65229619D02*
X57186285Y-64213619D01*
X57573333Y-64213619D01*
X57670095Y-64262000D01*
X57718476Y-64310380D01*
X57766857Y-64407142D01*
X57766857Y-64552285D01*
X57718476Y-64649047D01*
X57670095Y-64697428D01*
X57573333Y-64745809D01*
X57186285Y-64745809D01*
X58202285Y-64697428D02*
X58540952Y-64697428D01*
X58686095Y-65229619D02*
X58202285Y-65229619D01*
X58202285Y-64213619D01*
X58686095Y-64213619D01*
X59460190Y-64697428D02*
X59121523Y-64697428D01*
X59121523Y-65229619D02*
X59121523Y-64213619D01*
X59605333Y-64213619D01*
X57391904Y-61722000D02*
X57295142Y-61673619D01*
X57150000Y-61673619D01*
X57004857Y-61722000D01*
X56908095Y-61818761D01*
X56859714Y-61915523D01*
X56811333Y-62109047D01*
X56811333Y-62254190D01*
X56859714Y-62447714D01*
X56908095Y-62544476D01*
X57004857Y-62641238D01*
X57150000Y-62689619D01*
X57246761Y-62689619D01*
X57391904Y-62641238D01*
X57440285Y-62592857D01*
X57440285Y-62254190D01*
X57246761Y-62254190D01*
X57875714Y-62689619D02*
X57875714Y-61673619D01*
X58456285Y-62689619D01*
X58456285Y-61673619D01*
X58940095Y-62689619D02*
X58940095Y-61673619D01*
X59182000Y-61673619D01*
X59327142Y-61722000D01*
X59423904Y-61818761D01*
X59472285Y-61915523D01*
X59520666Y-62109047D01*
X59520666Y-62254190D01*
X59472285Y-62447714D01*
X59423904Y-62544476D01*
X59327142Y-62641238D01*
X59182000Y-62689619D01*
X58940095Y-62689619D01*
X57948285Y-59859333D02*
X58432095Y-59859333D01*
X57851523Y-60149619D02*
X58190190Y-59133619D01*
X58528857Y-60149619D01*
X59061047Y-59133619D02*
X59157809Y-59133619D01*
X59254571Y-59182000D01*
X59302952Y-59230380D01*
X59351333Y-59327142D01*
X59399714Y-59520666D01*
X59399714Y-59762571D01*
X59351333Y-59956095D01*
X59302952Y-60052857D01*
X59254571Y-60101238D01*
X59157809Y-60149619D01*
X59061047Y-60149619D01*
X58964285Y-60101238D01*
X58915904Y-60052857D01*
X58867523Y-59956095D01*
X58819142Y-59762571D01*
X58819142Y-59520666D01*
X58867523Y-59327142D01*
X58915904Y-59230380D01*
X58964285Y-59182000D01*
X59061047Y-59133619D01*
X57948285Y-57319333D02*
X58432095Y-57319333D01*
X57851523Y-57609619D02*
X58190190Y-56593619D01*
X58528857Y-57609619D01*
X59399714Y-57609619D02*
X58819142Y-57609619D01*
X59109428Y-57609619D02*
X59109428Y-56593619D01*
X59012666Y-56738761D01*
X58915904Y-56835523D01*
X58819142Y-56883904D01*
X57948285Y-54779333D02*
X58432095Y-54779333D01*
X57851523Y-55069619D02*
X58190190Y-54053619D01*
X58528857Y-55069619D01*
X58819142Y-54150380D02*
X58867523Y-54102000D01*
X58964285Y-54053619D01*
X59206190Y-54053619D01*
X59302952Y-54102000D01*
X59351333Y-54150380D01*
X59399714Y-54247142D01*
X59399714Y-54343904D01*
X59351333Y-54489047D01*
X58770761Y-55069619D01*
X59399714Y-55069619D01*
X57948285Y-52239333D02*
X58432095Y-52239333D01*
X57851523Y-52529619D02*
X58190190Y-51513619D01*
X58528857Y-52529619D01*
X58770761Y-51513619D02*
X59399714Y-51513619D01*
X59061047Y-51900666D01*
X59206190Y-51900666D01*
X59302952Y-51949047D01*
X59351333Y-51997428D01*
X59399714Y-52094190D01*
X59399714Y-52336095D01*
X59351333Y-52432857D01*
X59302952Y-52481238D01*
X59206190Y-52529619D01*
X58915904Y-52529619D01*
X58819142Y-52481238D01*
X58770761Y-52432857D01*
X57948285Y-49699333D02*
X58432095Y-49699333D01*
X57851523Y-49989619D02*
X58190190Y-48973619D01*
X58528857Y-49989619D01*
X59302952Y-49312285D02*
X59302952Y-49989619D01*
X59061047Y-48925238D02*
X58819142Y-49650952D01*
X59448095Y-49650952D01*
X57948285Y-47159333D02*
X58432095Y-47159333D01*
X57851523Y-47449619D02*
X58190190Y-46433619D01*
X58528857Y-47449619D01*
X59351333Y-46433619D02*
X58867523Y-46433619D01*
X58819142Y-46917428D01*
X58867523Y-46869047D01*
X58964285Y-46820666D01*
X59206190Y-46820666D01*
X59302952Y-46869047D01*
X59351333Y-46917428D01*
X59399714Y-47014190D01*
X59399714Y-47256095D01*
X59351333Y-47352857D01*
X59302952Y-47401238D01*
X59206190Y-47449619D01*
X58964285Y-47449619D01*
X58867523Y-47401238D01*
X58819142Y-47352857D01*
X57113714Y-44861238D02*
X57258857Y-44909619D01*
X57500761Y-44909619D01*
X57597523Y-44861238D01*
X57645904Y-44812857D01*
X57694285Y-44716095D01*
X57694285Y-44619333D01*
X57645904Y-44522571D01*
X57597523Y-44474190D01*
X57500761Y-44425809D01*
X57307238Y-44377428D01*
X57210476Y-44329047D01*
X57162095Y-44280666D01*
X57113714Y-44183904D01*
X57113714Y-44087142D01*
X57162095Y-43990380D01*
X57210476Y-43942000D01*
X57307238Y-43893619D01*
X57549142Y-43893619D01*
X57694285Y-43942000D01*
X58710285Y-44812857D02*
X58661904Y-44861238D01*
X58516761Y-44909619D01*
X58420000Y-44909619D01*
X58274857Y-44861238D01*
X58178095Y-44764476D01*
X58129714Y-44667714D01*
X58081333Y-44474190D01*
X58081333Y-44329047D01*
X58129714Y-44135523D01*
X58178095Y-44038761D01*
X58274857Y-43942000D01*
X58420000Y-43893619D01*
X58516761Y-43893619D01*
X58661904Y-43942000D01*
X58710285Y-43990380D01*
X59145714Y-44909619D02*
X59145714Y-43893619D01*
X59726285Y-44909619D02*
X59290857Y-44329047D01*
X59726285Y-43893619D02*
X59145714Y-44474190D01*
X56315428Y-42623619D02*
X56315428Y-41607619D01*
X56654095Y-42333333D01*
X56992761Y-41607619D01*
X56992761Y-42623619D01*
X57670095Y-41607619D02*
X57863619Y-41607619D01*
X57960380Y-41656000D01*
X58057142Y-41752761D01*
X58105523Y-41946285D01*
X58105523Y-42284952D01*
X58057142Y-42478476D01*
X57960380Y-42575238D01*
X57863619Y-42623619D01*
X57670095Y-42623619D01*
X57573333Y-42575238D01*
X57476571Y-42478476D01*
X57428190Y-42284952D01*
X57428190Y-41946285D01*
X57476571Y-41752761D01*
X57573333Y-41656000D01*
X57670095Y-41607619D01*
X58492571Y-42575238D02*
X58637714Y-42623619D01*
X58879619Y-42623619D01*
X58976380Y-42575238D01*
X59024761Y-42526857D01*
X59073142Y-42430095D01*
X59073142Y-42333333D01*
X59024761Y-42236571D01*
X58976380Y-42188190D01*
X58879619Y-42139809D01*
X58686095Y-42091428D01*
X58589333Y-42043047D01*
X58540952Y-41994666D01*
X58492571Y-41897904D01*
X58492571Y-41801142D01*
X58540952Y-41704380D01*
X58589333Y-41656000D01*
X58686095Y-41607619D01*
X58928000Y-41607619D01*
X59073142Y-41656000D01*
X59508571Y-42623619D02*
X59508571Y-41607619D01*
X56315428Y-39829619D02*
X56315428Y-38813619D01*
X56654095Y-39539333D01*
X56992761Y-38813619D01*
X56992761Y-39829619D01*
X57476571Y-39829619D02*
X57476571Y-38813619D01*
X57912000Y-39781238D02*
X58057142Y-39829619D01*
X58299047Y-39829619D01*
X58395809Y-39781238D01*
X58444190Y-39732857D01*
X58492571Y-39636095D01*
X58492571Y-39539333D01*
X58444190Y-39442571D01*
X58395809Y-39394190D01*
X58299047Y-39345809D01*
X58105523Y-39297428D01*
X58008761Y-39249047D01*
X57960380Y-39200666D01*
X57912000Y-39103904D01*
X57912000Y-39007142D01*
X57960380Y-38910380D01*
X58008761Y-38862000D01*
X58105523Y-38813619D01*
X58347428Y-38813619D01*
X58492571Y-38862000D01*
X59121523Y-38813619D02*
X59315047Y-38813619D01*
X59411809Y-38862000D01*
X59508571Y-38958761D01*
X59556952Y-39152285D01*
X59556952Y-39490952D01*
X59508571Y-39684476D01*
X59411809Y-39781238D01*
X59315047Y-39829619D01*
X59121523Y-39829619D01*
X59024761Y-39781238D01*
X58927999Y-39684476D01*
X58879619Y-39490952D01*
X58879619Y-39152285D01*
X58927999Y-38958761D01*
X59024761Y-38862000D01*
X59121523Y-38813619D01*
X58758666Y-37543619D02*
X58420000Y-37059809D01*
X58178095Y-37543619D02*
X58178095Y-36527619D01*
X58565142Y-36527619D01*
X58661904Y-36576000D01*
X58710285Y-36624380D01*
X58758666Y-36721142D01*
X58758666Y-36866285D01*
X58710285Y-36963047D01*
X58661904Y-37011428D01*
X58565142Y-37059809D01*
X58178095Y-37059809D01*
X59097333Y-36527619D02*
X59774666Y-37543619D01*
X59774666Y-36527619D02*
X59097333Y-37543619D01*
X58153904Y-33733619D02*
X58734476Y-33733619D01*
X58444190Y-34749619D02*
X58444190Y-33733619D01*
X58976380Y-33733619D02*
X59653714Y-34749619D01*
X59653714Y-33733619D02*
X58976380Y-34749619D01*
X57285420Y-29063648D02*
X57316092Y-29213535D01*
X57298383Y-29279625D01*
X57238775Y-29369905D01*
X57113078Y-29442477D01*
X57005089Y-29448958D01*
X56939000Y-29431250D01*
X56848720Y-29371642D01*
X56655196Y-29036449D01*
X57535078Y-28528449D01*
X57704411Y-28821743D01*
X57710893Y-28929732D01*
X57693184Y-28995821D01*
X57633576Y-29086101D01*
X57549778Y-29134482D01*
X57441789Y-29140964D01*
X57375700Y-29123255D01*
X57285420Y-29063648D01*
X57116086Y-28770354D01*
X57180904Y-29850241D02*
X57211577Y-30000129D01*
X57332529Y-30209625D01*
X57422809Y-30269232D01*
X57488899Y-30286941D01*
X57596888Y-30280459D01*
X57680686Y-30232078D01*
X57740294Y-30141798D01*
X57758002Y-30075709D01*
X57751520Y-29967720D01*
X57696658Y-29775933D01*
X57690176Y-29667944D01*
X57707885Y-29601854D01*
X57767492Y-29511574D01*
X57851291Y-29463193D01*
X57959279Y-29456712D01*
X58025369Y-29474420D01*
X58115649Y-29534028D01*
X58236601Y-29743524D01*
X58267274Y-29893412D01*
X57647005Y-30754313D02*
X58526887Y-30246313D01*
X58720411Y-30581506D01*
X58726893Y-30689495D01*
X58709184Y-30755585D01*
X58649576Y-30845865D01*
X58523879Y-30918436D01*
X58415890Y-30924918D01*
X58349801Y-30907209D01*
X58259520Y-30847602D01*
X58065997Y-30512409D01*
X58615896Y-31368100D02*
X58785229Y-31661394D01*
X58396910Y-32053187D02*
X58155005Y-31634195D01*
X59034887Y-31126195D01*
X59276792Y-31545187D01*
X58988708Y-32884687D02*
X58922619Y-32866979D01*
X58808148Y-32765472D01*
X58759767Y-32681674D01*
X58729095Y-32531786D01*
X58764512Y-32399606D01*
X58824120Y-32309326D01*
X58967526Y-32170665D01*
X59093224Y-32098094D01*
X59285011Y-32043231D01*
X59392999Y-32036749D01*
X59525179Y-32072167D01*
X59639649Y-32173674D01*
X59688030Y-32257472D01*
X59718702Y-32407360D01*
X59700994Y-32473449D01*
X42303095Y-59617428D02*
X42448238Y-59665809D01*
X42496619Y-59714190D01*
X42545000Y-59810952D01*
X42545000Y-59956095D01*
X42496619Y-60052857D01*
X42448238Y-60101238D01*
X42351476Y-60149619D01*
X41964428Y-60149619D01*
X41964428Y-59133619D01*
X42303095Y-59133619D01*
X42399857Y-59182000D01*
X42448238Y-59230380D01*
X42496619Y-59327142D01*
X42496619Y-59423904D01*
X42448238Y-59520666D01*
X42399857Y-59569047D01*
X42303095Y-59617428D01*
X41964428Y-59617428D01*
X42932047Y-59859333D02*
X43415857Y-59859333D01*
X42835285Y-60149619D02*
X43173952Y-59133619D01*
X43512619Y-60149619D01*
X43706142Y-59133619D02*
X44286714Y-59133619D01*
X43996428Y-60149619D02*
X43996428Y-59133619D01*
X41922095Y-57077428D02*
X42260761Y-57077428D01*
X42405904Y-57609619D02*
X41922095Y-57609619D01*
X41922095Y-56593619D01*
X42405904Y-56593619D01*
X42841333Y-57609619D02*
X42841333Y-56593619D01*
X43421904Y-57609619D01*
X43421904Y-56593619D01*
X41897904Y-54053619D02*
X41897904Y-54876095D01*
X41946285Y-54972857D01*
X41994666Y-55021238D01*
X42091428Y-55069619D01*
X42284952Y-55069619D01*
X42381714Y-55021238D01*
X42430095Y-54972857D01*
X42478476Y-54876095D01*
X42478476Y-54053619D01*
X42913904Y-55021238D02*
X43059047Y-55069619D01*
X43300952Y-55069619D01*
X43397714Y-55021238D01*
X43446095Y-54972857D01*
X43494476Y-54876095D01*
X43494476Y-54779333D01*
X43446095Y-54682571D01*
X43397714Y-54634190D01*
X43300952Y-54585809D01*
X43107428Y-54537428D01*
X43010666Y-54489047D01*
X42962285Y-54440666D01*
X42913904Y-54343904D01*
X42913904Y-54247142D01*
X42962285Y-54150380D01*
X43010666Y-54102000D01*
X43107428Y-54053619D01*
X43349333Y-54053619D01*
X43494476Y-54102000D01*
X44268571Y-54537428D02*
X44413714Y-54585809D01*
X44462095Y-54634190D01*
X44510476Y-54730952D01*
X44510476Y-54876095D01*
X44462095Y-54972857D01*
X44413714Y-55021238D01*
X44316952Y-55069619D01*
X43929904Y-55069619D01*
X43929904Y-54053619D01*
X44268571Y-54053619D01*
X44365333Y-54102000D01*
X44413714Y-54150380D01*
X44462095Y-54247142D01*
X44462095Y-54343904D01*
X44413714Y-54440666D01*
X44365333Y-54489047D01*
X44268571Y-54537428D01*
X43929904Y-54537428D01*
X41946285Y-52529619D02*
X41946285Y-51513619D01*
X42188190Y-51513619D01*
X42333333Y-51562000D01*
X42430095Y-51658761D01*
X42478476Y-51755523D01*
X42526857Y-51949047D01*
X42526857Y-52094190D01*
X42478476Y-52287714D01*
X42430095Y-52384476D01*
X42333333Y-52481238D01*
X42188190Y-52529619D01*
X41946285Y-52529619D01*
X43494476Y-52529619D02*
X42913904Y-52529619D01*
X43204190Y-52529619D02*
X43204190Y-51513619D01*
X43107428Y-51658761D01*
X43010666Y-51755523D01*
X42913904Y-51803904D01*
X43833142Y-51513619D02*
X44462095Y-51513619D01*
X44123428Y-51900666D01*
X44268571Y-51900666D01*
X44365333Y-51949047D01*
X44413714Y-51997428D01*
X44462095Y-52094190D01*
X44462095Y-52336095D01*
X44413714Y-52432857D01*
X44365333Y-52481238D01*
X44268571Y-52529619D01*
X43978285Y-52529619D01*
X43881523Y-52481238D01*
X43833142Y-52432857D01*
X41946285Y-50243619D02*
X41946285Y-49227619D01*
X42188190Y-49227619D01*
X42333333Y-49276000D01*
X42430095Y-49372761D01*
X42478476Y-49469523D01*
X42526857Y-49663047D01*
X42526857Y-49808190D01*
X42478476Y-50001714D01*
X42430095Y-50098476D01*
X42333333Y-50195238D01*
X42188190Y-50243619D01*
X41946285Y-50243619D01*
X43494476Y-50243619D02*
X42913904Y-50243619D01*
X43204190Y-50243619D02*
X43204190Y-49227619D01*
X43107428Y-49372761D01*
X43010666Y-49469523D01*
X42913904Y-49517904D01*
X43881523Y-49324380D02*
X43929904Y-49276000D01*
X44026666Y-49227619D01*
X44268571Y-49227619D01*
X44365333Y-49276000D01*
X44413714Y-49324380D01*
X44462095Y-49421142D01*
X44462095Y-49517904D01*
X44413714Y-49663047D01*
X43833142Y-50243619D01*
X44462095Y-50243619D01*
X41946285Y-47449619D02*
X41946285Y-46433619D01*
X42188190Y-46433619D01*
X42333333Y-46482000D01*
X42430095Y-46578761D01*
X42478476Y-46675523D01*
X42526857Y-46869047D01*
X42526857Y-47014190D01*
X42478476Y-47207714D01*
X42430095Y-47304476D01*
X42333333Y-47401238D01*
X42188190Y-47449619D01*
X41946285Y-47449619D01*
X43494476Y-47449619D02*
X42913904Y-47449619D01*
X43204190Y-47449619D02*
X43204190Y-46433619D01*
X43107428Y-46578761D01*
X43010666Y-46675523D01*
X42913904Y-46723904D01*
X44462095Y-47449619D02*
X43881523Y-47449619D01*
X44171809Y-47449619D02*
X44171809Y-46433619D01*
X44075047Y-46578761D01*
X43978285Y-46675523D01*
X43881523Y-46723904D01*
X41946285Y-44909619D02*
X41946285Y-43893619D01*
X42188190Y-43893619D01*
X42333333Y-43942000D01*
X42430095Y-44038761D01*
X42478476Y-44135523D01*
X42526857Y-44329047D01*
X42526857Y-44474190D01*
X42478476Y-44667714D01*
X42430095Y-44764476D01*
X42333333Y-44861238D01*
X42188190Y-44909619D01*
X41946285Y-44909619D01*
X43494476Y-44909619D02*
X42913904Y-44909619D01*
X43204190Y-44909619D02*
X43204190Y-43893619D01*
X43107428Y-44038761D01*
X43010666Y-44135523D01*
X42913904Y-44183904D01*
X44123428Y-43893619D02*
X44220190Y-43893619D01*
X44316952Y-43942000D01*
X44365333Y-43990380D01*
X44413714Y-44087142D01*
X44462095Y-44280666D01*
X44462095Y-44522571D01*
X44413714Y-44716095D01*
X44365333Y-44812857D01*
X44316952Y-44861238D01*
X44220190Y-44909619D01*
X44123428Y-44909619D01*
X44026666Y-44861238D01*
X43978285Y-44812857D01*
X43929904Y-44716095D01*
X43881523Y-44522571D01*
X43881523Y-44280666D01*
X43929904Y-44087142D01*
X43978285Y-43990380D01*
X44026666Y-43942000D01*
X44123428Y-43893619D01*
X41922095Y-42369619D02*
X41922095Y-41353619D01*
X42164000Y-41353619D01*
X42309142Y-41402000D01*
X42405904Y-41498761D01*
X42454285Y-41595523D01*
X42502666Y-41789047D01*
X42502666Y-41934190D01*
X42454285Y-42127714D01*
X42405904Y-42224476D01*
X42309142Y-42321238D01*
X42164000Y-42369619D01*
X41922095Y-42369619D01*
X42986476Y-42369619D02*
X43180000Y-42369619D01*
X43276761Y-42321238D01*
X43325142Y-42272857D01*
X43421904Y-42127714D01*
X43470285Y-41934190D01*
X43470285Y-41547142D01*
X43421904Y-41450380D01*
X43373523Y-41402000D01*
X43276761Y-41353619D01*
X43083238Y-41353619D01*
X42986476Y-41402000D01*
X42938095Y-41450380D01*
X42889714Y-41547142D01*
X42889714Y-41789047D01*
X42938095Y-41885809D01*
X42986476Y-41934190D01*
X43083238Y-41982571D01*
X43276761Y-41982571D01*
X43373523Y-41934190D01*
X43421904Y-41885809D01*
X43470285Y-41789047D01*
X41922095Y-39829619D02*
X41922095Y-38813619D01*
X42164000Y-38813619D01*
X42309142Y-38862000D01*
X42405904Y-38958761D01*
X42454285Y-39055523D01*
X42502666Y-39249047D01*
X42502666Y-39394190D01*
X42454285Y-39587714D01*
X42405904Y-39684476D01*
X42309142Y-39781238D01*
X42164000Y-39829619D01*
X41922095Y-39829619D01*
X43373523Y-38813619D02*
X43180000Y-38813619D01*
X43083238Y-38862000D01*
X43034857Y-38910380D01*
X42938095Y-39055523D01*
X42889714Y-39249047D01*
X42889714Y-39636095D01*
X42938095Y-39732857D01*
X42986476Y-39781238D01*
X43083238Y-39829619D01*
X43276761Y-39829619D01*
X43373523Y-39781238D01*
X43421904Y-39732857D01*
X43470285Y-39636095D01*
X43470285Y-39394190D01*
X43421904Y-39297428D01*
X43373523Y-39249047D01*
X43276761Y-39200666D01*
X43083238Y-39200666D01*
X42986476Y-39249047D01*
X42938095Y-39297428D01*
X42889714Y-39394190D01*
X41922095Y-37416619D02*
X41922095Y-36400619D01*
X42164000Y-36400619D01*
X42309142Y-36449000D01*
X42405904Y-36545761D01*
X42454285Y-36642523D01*
X42502666Y-36836047D01*
X42502666Y-36981190D01*
X42454285Y-37174714D01*
X42405904Y-37271476D01*
X42309142Y-37368238D01*
X42164000Y-37416619D01*
X41922095Y-37416619D01*
X43421904Y-36400619D02*
X42938095Y-36400619D01*
X42889714Y-36884428D01*
X42938095Y-36836047D01*
X43034857Y-36787666D01*
X43276761Y-36787666D01*
X43373523Y-36836047D01*
X43421904Y-36884428D01*
X43470285Y-36981190D01*
X43470285Y-37223095D01*
X43421904Y-37319857D01*
X43373523Y-37368238D01*
X43276761Y-37416619D01*
X43034857Y-37416619D01*
X42938095Y-37368238D01*
X42889714Y-37319857D01*
X41970476Y-34701238D02*
X42115619Y-34749619D01*
X42357523Y-34749619D01*
X42454285Y-34701238D01*
X42502666Y-34652857D01*
X42551047Y-34556095D01*
X42551047Y-34459333D01*
X42502666Y-34362571D01*
X42454285Y-34314190D01*
X42357523Y-34265809D01*
X42164000Y-34217428D01*
X42067238Y-34169047D01*
X42018857Y-34120666D01*
X41970476Y-34023904D01*
X41970476Y-33927142D01*
X42018857Y-33830380D01*
X42067238Y-33782000D01*
X42164000Y-33733619D01*
X42405904Y-33733619D01*
X42551047Y-33782000D01*
X43567047Y-34652857D02*
X43518666Y-34701238D01*
X43373523Y-34749619D01*
X43276761Y-34749619D01*
X43131619Y-34701238D01*
X43034857Y-34604476D01*
X42986476Y-34507714D01*
X42938095Y-34314190D01*
X42938095Y-34169047D01*
X42986476Y-33975523D01*
X43034857Y-33878761D01*
X43131619Y-33782000D01*
X43276761Y-33733619D01*
X43373523Y-33733619D01*
X43518666Y-33782000D01*
X43567047Y-33830380D01*
X44486285Y-34749619D02*
X44002476Y-34749619D01*
X44002476Y-33733619D01*
X41946285Y-32161238D02*
X42091428Y-32209619D01*
X42333333Y-32209619D01*
X42430095Y-32161238D01*
X42478476Y-32112857D01*
X42526857Y-32016095D01*
X42526857Y-31919333D01*
X42478476Y-31822571D01*
X42430095Y-31774190D01*
X42333333Y-31725809D01*
X42139809Y-31677428D01*
X42043047Y-31629047D01*
X41994666Y-31580666D01*
X41946285Y-31483904D01*
X41946285Y-31387142D01*
X41994666Y-31290380D01*
X42043047Y-31242000D01*
X42139809Y-31193619D01*
X42381714Y-31193619D01*
X42526857Y-31242000D01*
X42962285Y-32209619D02*
X42962285Y-31193619D01*
X43204190Y-31193619D01*
X43349333Y-31242000D01*
X43446095Y-31338761D01*
X43494476Y-31435523D01*
X43542857Y-31629047D01*
X43542857Y-31774190D01*
X43494476Y-31967714D01*
X43446095Y-32064476D01*
X43349333Y-32161238D01*
X43204190Y-32209619D01*
X42962285Y-32209619D01*
X43929904Y-31919333D02*
X44413714Y-31919333D01*
X43833142Y-32209619D02*
X44171809Y-31193619D01*
X44510476Y-32209619D01*
G04 #@! TO.C,J1*
D14*
X43815000Y-70702714D02*
X43815000Y-71247000D01*
X43778714Y-71355857D01*
X43706142Y-71428428D01*
X43597285Y-71464714D01*
X43524714Y-71464714D01*
X44577000Y-71464714D02*
X44141571Y-71464714D01*
X44359285Y-71464714D02*
X44359285Y-70702714D01*
X44286714Y-70811571D01*
X44214142Y-70884142D01*
X44141571Y-70920428D01*
G04 #@! TO.C,C6*
X49403000Y-53612142D02*
X49366714Y-53648428D01*
X49257857Y-53684714D01*
X49185285Y-53684714D01*
X49076428Y-53648428D01*
X49003857Y-53575857D01*
X48967571Y-53503285D01*
X48931285Y-53358142D01*
X48931285Y-53249285D01*
X48967571Y-53104142D01*
X49003857Y-53031571D01*
X49076428Y-52959000D01*
X49185285Y-52922714D01*
X49257857Y-52922714D01*
X49366714Y-52959000D01*
X49403000Y-52995285D01*
X50056142Y-52922714D02*
X49911000Y-52922714D01*
X49838428Y-52959000D01*
X49802142Y-52995285D01*
X49729571Y-53104142D01*
X49693285Y-53249285D01*
X49693285Y-53539571D01*
X49729571Y-53612142D01*
X49765857Y-53648428D01*
X49838428Y-53684714D01*
X49983571Y-53684714D01*
X50056142Y-53648428D01*
X50092428Y-53612142D01*
X50128714Y-53539571D01*
X50128714Y-53358142D01*
X50092428Y-53285571D01*
X50056142Y-53249285D01*
X49983571Y-53213000D01*
X49838428Y-53213000D01*
X49765857Y-53249285D01*
X49729571Y-53285571D01*
X49693285Y-53358142D01*
X51090285Y-54192714D02*
X50727428Y-54192714D01*
X50691142Y-54555571D01*
X50727428Y-54519285D01*
X50800000Y-54483000D01*
X50981428Y-54483000D01*
X51054000Y-54519285D01*
X51090285Y-54555571D01*
X51126571Y-54628142D01*
X51126571Y-54809571D01*
X51090285Y-54882142D01*
X51054000Y-54918428D01*
X50981428Y-54954714D01*
X50800000Y-54954714D01*
X50727428Y-54918428D01*
X50691142Y-54882142D01*
X51779714Y-54192714D02*
X51634571Y-54192714D01*
X51562000Y-54229000D01*
X51525714Y-54265285D01*
X51453142Y-54374142D01*
X51416857Y-54519285D01*
X51416857Y-54809571D01*
X51453142Y-54882142D01*
X51489428Y-54918428D01*
X51562000Y-54954714D01*
X51707142Y-54954714D01*
X51779714Y-54918428D01*
X51816000Y-54882142D01*
X51852285Y-54809571D01*
X51852285Y-54628142D01*
X51816000Y-54555571D01*
X51779714Y-54519285D01*
X51707142Y-54483000D01*
X51562000Y-54483000D01*
X51489428Y-54519285D01*
X51453142Y-54555571D01*
X51416857Y-54628142D01*
X52178857Y-54446714D02*
X52178857Y-54954714D01*
X52178857Y-54519285D02*
X52215142Y-54483000D01*
X52287714Y-54446714D01*
X52396571Y-54446714D01*
X52469142Y-54483000D01*
X52505428Y-54555571D01*
X52505428Y-54954714D01*
X53122285Y-54555571D02*
X52868285Y-54555571D01*
X52868285Y-54954714D02*
X52868285Y-54192714D01*
X53231142Y-54192714D01*
G04 #@! TO.C,C2*
X45992142Y-48895000D02*
X46028428Y-48931285D01*
X46064714Y-49040142D01*
X46064714Y-49112714D01*
X46028428Y-49221571D01*
X45955857Y-49294142D01*
X45883285Y-49330428D01*
X45738142Y-49366714D01*
X45629285Y-49366714D01*
X45484142Y-49330428D01*
X45411571Y-49294142D01*
X45339000Y-49221571D01*
X45302714Y-49112714D01*
X45302714Y-49040142D01*
X45339000Y-48931285D01*
X45375285Y-48895000D01*
X45375285Y-48604714D02*
X45339000Y-48568428D01*
X45302714Y-48495857D01*
X45302714Y-48314428D01*
X45339000Y-48241857D01*
X45375285Y-48205571D01*
X45447857Y-48169285D01*
X45520428Y-48169285D01*
X45629285Y-48205571D01*
X46064714Y-48641000D01*
X46064714Y-48169285D01*
X46732714Y-47606857D02*
X46732714Y-47534285D01*
X46769000Y-47461714D01*
X46805285Y-47425428D01*
X46877857Y-47389142D01*
X47023000Y-47352857D01*
X47204428Y-47352857D01*
X47349571Y-47389142D01*
X47422142Y-47425428D01*
X47458428Y-47461714D01*
X47494714Y-47534285D01*
X47494714Y-47606857D01*
X47458428Y-47679428D01*
X47422142Y-47715714D01*
X47349571Y-47752000D01*
X47204428Y-47788285D01*
X47023000Y-47788285D01*
X46877857Y-47752000D01*
X46805285Y-47715714D01*
X46769000Y-47679428D01*
X46732714Y-47606857D01*
X47422142Y-47026285D02*
X47458428Y-46990000D01*
X47494714Y-47026285D01*
X47458428Y-47062571D01*
X47422142Y-47026285D01*
X47494714Y-47026285D01*
X47494714Y-46264285D02*
X47494714Y-46699714D01*
X47494714Y-46482000D02*
X46732714Y-46482000D01*
X46841571Y-46554571D01*
X46914142Y-46627142D01*
X46950428Y-46699714D01*
X46986714Y-45611142D02*
X47494714Y-45611142D01*
X46986714Y-45937714D02*
X47385857Y-45937714D01*
X47458428Y-45901428D01*
X47494714Y-45828857D01*
X47494714Y-45720000D01*
X47458428Y-45647428D01*
X47422142Y-45611142D01*
X47095571Y-44994285D02*
X47095571Y-45248285D01*
X47494714Y-45248285D02*
X46732714Y-45248285D01*
X46732714Y-44885428D01*
G04 #@! TO.C,C1*
X46119142Y-60452000D02*
X46155428Y-60488285D01*
X46191714Y-60597142D01*
X46191714Y-60669714D01*
X46155428Y-60778571D01*
X46082857Y-60851142D01*
X46010285Y-60887428D01*
X45865142Y-60923714D01*
X45756285Y-60923714D01*
X45611142Y-60887428D01*
X45538571Y-60851142D01*
X45466000Y-60778571D01*
X45429714Y-60669714D01*
X45429714Y-60597142D01*
X45466000Y-60488285D01*
X45502285Y-60452000D01*
X46191714Y-59726285D02*
X46191714Y-60161714D01*
X46191714Y-59944000D02*
X45429714Y-59944000D01*
X45538571Y-60016571D01*
X45611142Y-60089142D01*
X45647428Y-60161714D01*
X46572714Y-59290857D02*
X46572714Y-59218285D01*
X46609000Y-59145714D01*
X46645285Y-59109428D01*
X46717857Y-59073142D01*
X46863000Y-59036857D01*
X47044428Y-59036857D01*
X47189571Y-59073142D01*
X47262142Y-59109428D01*
X47298428Y-59145714D01*
X47334714Y-59218285D01*
X47334714Y-59290857D01*
X47298428Y-59363428D01*
X47262142Y-59399714D01*
X47189571Y-59436000D01*
X47044428Y-59472285D01*
X46863000Y-59472285D01*
X46717857Y-59436000D01*
X46645285Y-59399714D01*
X46609000Y-59363428D01*
X46572714Y-59290857D01*
X47262142Y-58710285D02*
X47298428Y-58674000D01*
X47334714Y-58710285D01*
X47298428Y-58746571D01*
X47262142Y-58710285D01*
X47334714Y-58710285D01*
X47334714Y-57948285D02*
X47334714Y-58383714D01*
X47334714Y-58166000D02*
X46572714Y-58166000D01*
X46681571Y-58238571D01*
X46754142Y-58311142D01*
X46790428Y-58383714D01*
X46826714Y-57295142D02*
X47334714Y-57295142D01*
X46826714Y-57621714D02*
X47225857Y-57621714D01*
X47298428Y-57585428D01*
X47334714Y-57512857D01*
X47334714Y-57404000D01*
X47298428Y-57331428D01*
X47262142Y-57295142D01*
X46935571Y-56678285D02*
X46935571Y-56932285D01*
X47334714Y-56932285D02*
X46572714Y-56932285D01*
X46572714Y-56569428D01*
G04 #@! TO.C,C3*
X45992142Y-37211000D02*
X46028428Y-37247285D01*
X46064714Y-37356142D01*
X46064714Y-37428714D01*
X46028428Y-37537571D01*
X45955857Y-37610142D01*
X45883285Y-37646428D01*
X45738142Y-37682714D01*
X45629285Y-37682714D01*
X45484142Y-37646428D01*
X45411571Y-37610142D01*
X45339000Y-37537571D01*
X45302714Y-37428714D01*
X45302714Y-37356142D01*
X45339000Y-37247285D01*
X45375285Y-37211000D01*
X45302714Y-36957000D02*
X45302714Y-36485285D01*
X45593000Y-36739285D01*
X45593000Y-36630428D01*
X45629285Y-36557857D01*
X45665571Y-36521571D01*
X45738142Y-36485285D01*
X45919571Y-36485285D01*
X45992142Y-36521571D01*
X46028428Y-36557857D01*
X46064714Y-36630428D01*
X46064714Y-36848142D01*
X46028428Y-36920714D01*
X45992142Y-36957000D01*
X46732714Y-35795857D02*
X46732714Y-35723285D01*
X46769000Y-35650714D01*
X46805285Y-35614428D01*
X46877857Y-35578142D01*
X47023000Y-35541857D01*
X47204428Y-35541857D01*
X47349571Y-35578142D01*
X47422142Y-35614428D01*
X47458428Y-35650714D01*
X47494714Y-35723285D01*
X47494714Y-35795857D01*
X47458428Y-35868428D01*
X47422142Y-35904714D01*
X47349571Y-35941000D01*
X47204428Y-35977285D01*
X47023000Y-35977285D01*
X46877857Y-35941000D01*
X46805285Y-35904714D01*
X46769000Y-35868428D01*
X46732714Y-35795857D01*
X47422142Y-35215285D02*
X47458428Y-35179000D01*
X47494714Y-35215285D01*
X47458428Y-35251571D01*
X47422142Y-35215285D01*
X47494714Y-35215285D01*
X47494714Y-34453285D02*
X47494714Y-34888714D01*
X47494714Y-34671000D02*
X46732714Y-34671000D01*
X46841571Y-34743571D01*
X46914142Y-34816142D01*
X46950428Y-34888714D01*
X46986714Y-33800142D02*
X47494714Y-33800142D01*
X46986714Y-34126714D02*
X47385857Y-34126714D01*
X47458428Y-34090428D01*
X47494714Y-34017857D01*
X47494714Y-33909000D01*
X47458428Y-33836428D01*
X47422142Y-33800142D01*
X47095571Y-33183285D02*
X47095571Y-33437285D01*
X47494714Y-33437285D02*
X46732714Y-33437285D01*
X46732714Y-33074428D01*
G04 #@! TO.C,C4*
X45992142Y-29972000D02*
X46028428Y-30008285D01*
X46064714Y-30117142D01*
X46064714Y-30189714D01*
X46028428Y-30298571D01*
X45955857Y-30371142D01*
X45883285Y-30407428D01*
X45738142Y-30443714D01*
X45629285Y-30443714D01*
X45484142Y-30407428D01*
X45411571Y-30371142D01*
X45339000Y-30298571D01*
X45302714Y-30189714D01*
X45302714Y-30117142D01*
X45339000Y-30008285D01*
X45375285Y-29972000D01*
X45556714Y-29318857D02*
X46064714Y-29318857D01*
X45266428Y-29500285D02*
X45810714Y-29681714D01*
X45810714Y-29210000D01*
X46572714Y-28810857D02*
X46572714Y-28738285D01*
X46609000Y-28665714D01*
X46645285Y-28629428D01*
X46717857Y-28593142D01*
X46863000Y-28556857D01*
X47044428Y-28556857D01*
X47189571Y-28593142D01*
X47262142Y-28629428D01*
X47298428Y-28665714D01*
X47334714Y-28738285D01*
X47334714Y-28810857D01*
X47298428Y-28883428D01*
X47262142Y-28919714D01*
X47189571Y-28956000D01*
X47044428Y-28992285D01*
X46863000Y-28992285D01*
X46717857Y-28956000D01*
X46645285Y-28919714D01*
X46609000Y-28883428D01*
X46572714Y-28810857D01*
X47262142Y-28230285D02*
X47298428Y-28194000D01*
X47334714Y-28230285D01*
X47298428Y-28266571D01*
X47262142Y-28230285D01*
X47334714Y-28230285D01*
X47334714Y-27468285D02*
X47334714Y-27903714D01*
X47334714Y-27686000D02*
X46572714Y-27686000D01*
X46681571Y-27758571D01*
X46754142Y-27831142D01*
X46790428Y-27903714D01*
X46826714Y-26815142D02*
X47334714Y-26815142D01*
X46826714Y-27141714D02*
X47225857Y-27141714D01*
X47298428Y-27105428D01*
X47334714Y-27032857D01*
X47334714Y-26924000D01*
X47298428Y-26851428D01*
X47262142Y-26815142D01*
X46935571Y-26198285D02*
X46935571Y-26452285D01*
X47334714Y-26452285D02*
X46572714Y-26452285D01*
X46572714Y-26089428D01*
G04 #@! TO.C,C5*
X49403000Y-33800142D02*
X49366714Y-33836428D01*
X49257857Y-33872714D01*
X49185285Y-33872714D01*
X49076428Y-33836428D01*
X49003857Y-33763857D01*
X48967571Y-33691285D01*
X48931285Y-33546142D01*
X48931285Y-33437285D01*
X48967571Y-33292142D01*
X49003857Y-33219571D01*
X49076428Y-33147000D01*
X49185285Y-33110714D01*
X49257857Y-33110714D01*
X49366714Y-33147000D01*
X49403000Y-33183285D01*
X50092428Y-33110714D02*
X49729571Y-33110714D01*
X49693285Y-33473571D01*
X49729571Y-33437285D01*
X49802142Y-33401000D01*
X49983571Y-33401000D01*
X50056142Y-33437285D01*
X50092428Y-33473571D01*
X50128714Y-33546142D01*
X50128714Y-33727571D01*
X50092428Y-33800142D01*
X50056142Y-33836428D01*
X49983571Y-33872714D01*
X49802142Y-33872714D01*
X49729571Y-33836428D01*
X49693285Y-33800142D01*
X51253571Y-35015714D02*
X50818142Y-35015714D01*
X51035857Y-35015714D02*
X51035857Y-34253714D01*
X50963285Y-34362571D01*
X50890714Y-34435142D01*
X50818142Y-34471428D01*
X51725285Y-34253714D02*
X51797857Y-34253714D01*
X51870428Y-34290000D01*
X51906714Y-34326285D01*
X51943000Y-34398857D01*
X51979285Y-34544000D01*
X51979285Y-34725428D01*
X51943000Y-34870571D01*
X51906714Y-34943142D01*
X51870428Y-34979428D01*
X51797857Y-35015714D01*
X51725285Y-35015714D01*
X51652714Y-34979428D01*
X51616428Y-34943142D01*
X51580142Y-34870571D01*
X51543857Y-34725428D01*
X51543857Y-34544000D01*
X51580142Y-34398857D01*
X51616428Y-34326285D01*
X51652714Y-34290000D01*
X51725285Y-34253714D01*
X52305857Y-34507714D02*
X52305857Y-35015714D01*
X52305857Y-34580285D02*
X52342142Y-34544000D01*
X52414714Y-34507714D01*
X52523571Y-34507714D01*
X52596142Y-34544000D01*
X52632428Y-34616571D01*
X52632428Y-35015714D01*
X53249285Y-34616571D02*
X52995285Y-34616571D01*
X52995285Y-35015714D02*
X52995285Y-34253714D01*
X53358142Y-34253714D01*
G04 #@! TO.C,P1*
D11*
X46172380Y-65635095D02*
X45172380Y-65635095D01*
X45172380Y-65254142D01*
X45220000Y-65158904D01*
X45267619Y-65111285D01*
X45362857Y-65063666D01*
X45505714Y-65063666D01*
X45600952Y-65111285D01*
X45648571Y-65158904D01*
X45696190Y-65254142D01*
X45696190Y-65635095D01*
X46172380Y-64111285D02*
X46172380Y-64682714D01*
X46172380Y-64397000D02*
X45172380Y-64397000D01*
X45315238Y-64492238D01*
X45410476Y-64587476D01*
X45458095Y-64682714D01*
G04 #@! TO.C,R1*
D14*
X49403000Y-43270714D02*
X49149000Y-42907857D01*
X48967571Y-43270714D02*
X48967571Y-42508714D01*
X49257857Y-42508714D01*
X49330428Y-42545000D01*
X49366714Y-42581285D01*
X49403000Y-42653857D01*
X49403000Y-42762714D01*
X49366714Y-42835285D01*
X49330428Y-42871571D01*
X49257857Y-42907857D01*
X48967571Y-42907857D01*
X50128714Y-43270714D02*
X49693285Y-43270714D01*
X49911000Y-43270714D02*
X49911000Y-42508714D01*
X49838428Y-42617571D01*
X49765857Y-42690142D01*
X49693285Y-42726428D01*
X51489428Y-44700714D02*
X51054000Y-44700714D01*
X51271714Y-44700714D02*
X51271714Y-43938714D01*
X51199142Y-44047571D01*
X51126571Y-44120142D01*
X51054000Y-44156428D01*
X51961142Y-43938714D02*
X52033714Y-43938714D01*
X52106285Y-43975000D01*
X52142571Y-44011285D01*
X52178857Y-44083857D01*
X52215142Y-44229000D01*
X52215142Y-44410428D01*
X52178857Y-44555571D01*
X52142571Y-44628142D01*
X52106285Y-44664428D01*
X52033714Y-44700714D01*
X51961142Y-44700714D01*
X51888571Y-44664428D01*
X51852285Y-44628142D01*
X51816000Y-44555571D01*
X51779714Y-44410428D01*
X51779714Y-44229000D01*
X51816000Y-44083857D01*
X51852285Y-44011285D01*
X51888571Y-43975000D01*
X51961142Y-43938714D01*
X52541714Y-44700714D02*
X52541714Y-43938714D01*
X52614285Y-44410428D02*
X52832000Y-44700714D01*
X52832000Y-44192714D02*
X52541714Y-44483000D01*
G04 #@! TO.C,R2*
X46064714Y-42926000D02*
X45701857Y-43180000D01*
X46064714Y-43361428D02*
X45302714Y-43361428D01*
X45302714Y-43071142D01*
X45339000Y-42998571D01*
X45375285Y-42962285D01*
X45447857Y-42926000D01*
X45556714Y-42926000D01*
X45629285Y-42962285D01*
X45665571Y-42998571D01*
X45701857Y-43071142D01*
X45701857Y-43361428D01*
X45375285Y-42635714D02*
X45339000Y-42599428D01*
X45302714Y-42526857D01*
X45302714Y-42345428D01*
X45339000Y-42272857D01*
X45375285Y-42236571D01*
X45447857Y-42200285D01*
X45520428Y-42200285D01*
X45629285Y-42236571D01*
X46064714Y-42672000D01*
X46064714Y-42200285D01*
X47334714Y-40712571D02*
X47334714Y-41148000D01*
X47334714Y-40930285D02*
X46572714Y-40930285D01*
X46681571Y-41002857D01*
X46754142Y-41075428D01*
X46790428Y-41148000D01*
X46572714Y-40240857D02*
X46572714Y-40168285D01*
X46609000Y-40095714D01*
X46645285Y-40059428D01*
X46717857Y-40023142D01*
X46863000Y-39986857D01*
X47044428Y-39986857D01*
X47189571Y-40023142D01*
X47262142Y-40059428D01*
X47298428Y-40095714D01*
X47334714Y-40168285D01*
X47334714Y-40240857D01*
X47298428Y-40313428D01*
X47262142Y-40349714D01*
X47189571Y-40386000D01*
X47044428Y-40422285D01*
X46863000Y-40422285D01*
X46717857Y-40386000D01*
X46645285Y-40349714D01*
X46609000Y-40313428D01*
X46572714Y-40240857D01*
X47334714Y-39660285D02*
X46572714Y-39660285D01*
X47044428Y-39587714D02*
X47334714Y-39370000D01*
X46826714Y-39370000D02*
X47117000Y-39660285D01*
G04 #@! TO.C,R3*
X46064714Y-54356000D02*
X45701857Y-54610000D01*
X46064714Y-54791428D02*
X45302714Y-54791428D01*
X45302714Y-54501142D01*
X45339000Y-54428571D01*
X45375285Y-54392285D01*
X45447857Y-54356000D01*
X45556714Y-54356000D01*
X45629285Y-54392285D01*
X45665571Y-54428571D01*
X45701857Y-54501142D01*
X45701857Y-54791428D01*
X45302714Y-54102000D02*
X45302714Y-53630285D01*
X45593000Y-53884285D01*
X45593000Y-53775428D01*
X45629285Y-53702857D01*
X45665571Y-53666571D01*
X45738142Y-53630285D01*
X45919571Y-53630285D01*
X45992142Y-53666571D01*
X46028428Y-53702857D01*
X46064714Y-53775428D01*
X46064714Y-53993142D01*
X46028428Y-54065714D01*
X45992142Y-54102000D01*
X47334714Y-52813857D02*
X47334714Y-53249285D01*
X47334714Y-53031571D02*
X46572714Y-53031571D01*
X46681571Y-53104142D01*
X46754142Y-53176714D01*
X46790428Y-53249285D01*
X46572714Y-52160714D02*
X46572714Y-52305857D01*
X46609000Y-52378428D01*
X46645285Y-52414714D01*
X46754142Y-52487285D01*
X46899285Y-52523571D01*
X47189571Y-52523571D01*
X47262142Y-52487285D01*
X47298428Y-52451000D01*
X47334714Y-52378428D01*
X47334714Y-52233285D01*
X47298428Y-52160714D01*
X47262142Y-52124428D01*
X47189571Y-52088142D01*
X47008142Y-52088142D01*
X46935571Y-52124428D01*
X46899285Y-52160714D01*
X46863000Y-52233285D01*
X46863000Y-52378428D01*
X46899285Y-52451000D01*
X46935571Y-52487285D01*
X47008142Y-52523571D01*
X47262142Y-51761571D02*
X47298428Y-51725285D01*
X47334714Y-51761571D01*
X47298428Y-51797857D01*
X47262142Y-51761571D01*
X47334714Y-51761571D01*
X46572714Y-51035857D02*
X46572714Y-51398714D01*
X46935571Y-51435000D01*
X46899285Y-51398714D01*
X46863000Y-51326142D01*
X46863000Y-51144714D01*
X46899285Y-51072142D01*
X46935571Y-51035857D01*
X47008142Y-50999571D01*
X47189571Y-50999571D01*
X47262142Y-51035857D01*
X47298428Y-51072142D01*
X47334714Y-51144714D01*
X47334714Y-51326142D01*
X47298428Y-51398714D01*
X47262142Y-51435000D01*
X47334714Y-50673000D02*
X46572714Y-50673000D01*
X47044428Y-50600428D02*
X47334714Y-50382714D01*
X46826714Y-50382714D02*
X47117000Y-50673000D01*
G04 #@! TO.C,U2*
X53775428Y-41365714D02*
X53775428Y-41982571D01*
X53811714Y-42055142D01*
X53848000Y-42091428D01*
X53920571Y-42127714D01*
X54065714Y-42127714D01*
X54138285Y-42091428D01*
X54174571Y-42055142D01*
X54210857Y-41982571D01*
X54210857Y-41365714D01*
X54537428Y-41438285D02*
X54573714Y-41402000D01*
X54646285Y-41365714D01*
X54827714Y-41365714D01*
X54900285Y-41402000D01*
X54936571Y-41438285D01*
X54972857Y-41510857D01*
X54972857Y-41583428D01*
X54936571Y-41692285D01*
X54501142Y-42127714D01*
X54972857Y-42127714D01*
G04 #@! TO.C,U3*
X54283428Y-61558714D02*
X54283428Y-62175571D01*
X54319714Y-62248142D01*
X54356000Y-62284428D01*
X54428571Y-62320714D01*
X54573714Y-62320714D01*
X54646285Y-62284428D01*
X54682571Y-62248142D01*
X54718857Y-62175571D01*
X54718857Y-61558714D01*
X55009142Y-61558714D02*
X55480857Y-61558714D01*
X55226857Y-61849000D01*
X55335714Y-61849000D01*
X55408285Y-61885285D01*
X55444571Y-61921571D01*
X55480857Y-61994142D01*
X55480857Y-62175571D01*
X55444571Y-62248142D01*
X55408285Y-62284428D01*
X55335714Y-62320714D01*
X55118000Y-62320714D01*
X55045428Y-62284428D01*
X55009142Y-62248142D01*
G04 #@! TO.C,U4*
X53902428Y-51525714D02*
X53902428Y-52142571D01*
X53938714Y-52215142D01*
X53975000Y-52251428D01*
X54047571Y-52287714D01*
X54192714Y-52287714D01*
X54265285Y-52251428D01*
X54301571Y-52215142D01*
X54337857Y-52142571D01*
X54337857Y-51525714D01*
X55027285Y-51779714D02*
X55027285Y-52287714D01*
X54845857Y-51489428D02*
X54664428Y-52033714D01*
X55136142Y-52033714D01*
G04 #@! TO.C,U5*
X53902428Y-31840714D02*
X53902428Y-32457571D01*
X53938714Y-32530142D01*
X53975000Y-32566428D01*
X54047571Y-32602714D01*
X54192714Y-32602714D01*
X54265285Y-32566428D01*
X54301571Y-32530142D01*
X54337857Y-32457571D01*
X54337857Y-31840714D01*
X55063571Y-31840714D02*
X54700714Y-31840714D01*
X54664428Y-32203571D01*
X54700714Y-32167285D01*
X54773285Y-32131000D01*
X54954714Y-32131000D01*
X55027285Y-32167285D01*
X55063571Y-32203571D01*
X55099857Y-32276142D01*
X55099857Y-32457571D01*
X55063571Y-32530142D01*
X55027285Y-32566428D01*
X54954714Y-32602714D01*
X54773285Y-32602714D01*
X54700714Y-32566428D01*
X54664428Y-32530142D01*
G04 #@! TD*
M02*
