G04 #@! TF.GenerationSoftware,KiCad,Pcbnew,5.0.2-bee76a0~70~ubuntu18.04.1*
G04 #@! TF.CreationDate,2020-02-06T10:53:29-08:00*
G04 #@! TF.ProjectId,potentiostat_featherwing,706f7465-6e74-4696-9f73-7461745f6665,rev?*
G04 #@! TF.SameCoordinates,Original*
G04 #@! TF.FileFunction,Legend,Bot*
G04 #@! TF.FilePolarity,Positive*
%FSLAX46Y46*%
G04 Gerber Fmt 4.6, Leading zero omitted, Abs format (unit mm)*
G04 Created by KiCad (PCBNEW 5.0.2-bee76a0~70~ubuntu18.04.1) date Thu 06 Feb 2020 10:53:29 AM PST*
%MOMM*%
%LPD*%
G01*
G04 APERTURE LIST*
%ADD10C,0.203200*%
%ADD11C,0.120000*%
G04 APERTURE END LIST*
D10*
X51031019Y-33201428D02*
X50015019Y-33201428D01*
X50015019Y-33588476D01*
X50063400Y-33685238D01*
X50111780Y-33733619D01*
X50208542Y-33782000D01*
X50353685Y-33782000D01*
X50450447Y-33733619D01*
X50498828Y-33685238D01*
X50547209Y-33588476D01*
X50547209Y-33201428D01*
X51031019Y-34362571D02*
X50982638Y-34265809D01*
X50934257Y-34217428D01*
X50837495Y-34169047D01*
X50547209Y-34169047D01*
X50450447Y-34217428D01*
X50402066Y-34265809D01*
X50353685Y-34362571D01*
X50353685Y-34507714D01*
X50402066Y-34604476D01*
X50450447Y-34652857D01*
X50547209Y-34701238D01*
X50837495Y-34701238D01*
X50934257Y-34652857D01*
X50982638Y-34604476D01*
X51031019Y-34507714D01*
X51031019Y-34362571D01*
X50353685Y-34991523D02*
X50353685Y-35378571D01*
X50015019Y-35136666D02*
X50885876Y-35136666D01*
X50982638Y-35185047D01*
X51031019Y-35281809D01*
X51031019Y-35378571D01*
X50982638Y-36104285D02*
X51031019Y-36007523D01*
X51031019Y-35814000D01*
X50982638Y-35717238D01*
X50885876Y-35668857D01*
X50498828Y-35668857D01*
X50402066Y-35717238D01*
X50353685Y-35814000D01*
X50353685Y-36007523D01*
X50402066Y-36104285D01*
X50498828Y-36152666D01*
X50595590Y-36152666D01*
X50692352Y-35668857D01*
X50353685Y-36588095D02*
X51031019Y-36588095D01*
X50450447Y-36588095D02*
X50402066Y-36636476D01*
X50353685Y-36733238D01*
X50353685Y-36878380D01*
X50402066Y-36975142D01*
X50498828Y-37023523D01*
X51031019Y-37023523D01*
X50353685Y-37362190D02*
X50353685Y-37749238D01*
X50015019Y-37507333D02*
X50885876Y-37507333D01*
X50982638Y-37555714D01*
X51031019Y-37652476D01*
X51031019Y-37749238D01*
X51031019Y-38087904D02*
X50353685Y-38087904D01*
X50015019Y-38087904D02*
X50063400Y-38039523D01*
X50111780Y-38087904D01*
X50063400Y-38136285D01*
X50015019Y-38087904D01*
X50111780Y-38087904D01*
X51031019Y-38716857D02*
X50982638Y-38620095D01*
X50934257Y-38571714D01*
X50837495Y-38523333D01*
X50547209Y-38523333D01*
X50450447Y-38571714D01*
X50402066Y-38620095D01*
X50353685Y-38716857D01*
X50353685Y-38862000D01*
X50402066Y-38958761D01*
X50450447Y-39007142D01*
X50547209Y-39055523D01*
X50837495Y-39055523D01*
X50934257Y-39007142D01*
X50982638Y-38958761D01*
X51031019Y-38862000D01*
X51031019Y-38716857D01*
X50982638Y-39442571D02*
X51031019Y-39539333D01*
X51031019Y-39732857D01*
X50982638Y-39829619D01*
X50885876Y-39877999D01*
X50837495Y-39877999D01*
X50740733Y-39829619D01*
X50692352Y-39732857D01*
X50692352Y-39587714D01*
X50643971Y-39490952D01*
X50547209Y-39442571D01*
X50498828Y-39442571D01*
X50402066Y-39490952D01*
X50353685Y-39587714D01*
X50353685Y-39732857D01*
X50402066Y-39829619D01*
X50353685Y-40168285D02*
X50353685Y-40555333D01*
X50015019Y-40313428D02*
X50885876Y-40313428D01*
X50982638Y-40361809D01*
X51031019Y-40458571D01*
X51031019Y-40555333D01*
X51031019Y-41329428D02*
X50498828Y-41329428D01*
X50402066Y-41281047D01*
X50353685Y-41184285D01*
X50353685Y-40990761D01*
X50402066Y-40893999D01*
X50982638Y-41329428D02*
X51031019Y-41232666D01*
X51031019Y-40990761D01*
X50982638Y-40893999D01*
X50885876Y-40845619D01*
X50789114Y-40845619D01*
X50692352Y-40893999D01*
X50643971Y-40990761D01*
X50643971Y-41232666D01*
X50595590Y-41329428D01*
X50353685Y-41668095D02*
X50353685Y-42055142D01*
X50015019Y-41813238D02*
X50885876Y-41813238D01*
X50982638Y-41861619D01*
X51031019Y-41958380D01*
X51031019Y-42055142D01*
X50498828Y-43506571D02*
X50498828Y-43167904D01*
X51031019Y-43167904D02*
X50015019Y-43167904D01*
X50015019Y-43651714D01*
X50982638Y-44425809D02*
X51031019Y-44329047D01*
X51031019Y-44135523D01*
X50982638Y-44038761D01*
X50885876Y-43990380D01*
X50498828Y-43990380D01*
X50402066Y-44038761D01*
X50353685Y-44135523D01*
X50353685Y-44329047D01*
X50402066Y-44425809D01*
X50498828Y-44474190D01*
X50595590Y-44474190D01*
X50692352Y-43990380D01*
X51031019Y-45345047D02*
X50498828Y-45345047D01*
X50402066Y-45296666D01*
X50353685Y-45199904D01*
X50353685Y-45006380D01*
X50402066Y-44909619D01*
X50982638Y-45345047D02*
X51031019Y-45248285D01*
X51031019Y-45006380D01*
X50982638Y-44909619D01*
X50885876Y-44861238D01*
X50789114Y-44861238D01*
X50692352Y-44909619D01*
X50643971Y-45006380D01*
X50643971Y-45248285D01*
X50595590Y-45345047D01*
X50353685Y-45683714D02*
X50353685Y-46070761D01*
X50015019Y-45828857D02*
X50885876Y-45828857D01*
X50982638Y-45877238D01*
X51031019Y-45974000D01*
X51031019Y-46070761D01*
X51031019Y-46409428D02*
X50015019Y-46409428D01*
X51031019Y-46844857D02*
X50498828Y-46844857D01*
X50402066Y-46796476D01*
X50353685Y-46699714D01*
X50353685Y-46554571D01*
X50402066Y-46457809D01*
X50450447Y-46409428D01*
X50982638Y-47715714D02*
X51031019Y-47618952D01*
X51031019Y-47425428D01*
X50982638Y-47328666D01*
X50885876Y-47280285D01*
X50498828Y-47280285D01*
X50402066Y-47328666D01*
X50353685Y-47425428D01*
X50353685Y-47618952D01*
X50402066Y-47715714D01*
X50498828Y-47764095D01*
X50595590Y-47764095D01*
X50692352Y-47280285D01*
X51031019Y-48199523D02*
X50353685Y-48199523D01*
X50547209Y-48199523D02*
X50450447Y-48247904D01*
X50402066Y-48296285D01*
X50353685Y-48393047D01*
X50353685Y-48489809D01*
X50353685Y-48731714D02*
X51031019Y-48925238D01*
X50547209Y-49118761D01*
X51031019Y-49312285D01*
X50353685Y-49505809D01*
X51031019Y-49892857D02*
X50353685Y-49892857D01*
X50015019Y-49892857D02*
X50063400Y-49844476D01*
X50111780Y-49892857D01*
X50063400Y-49941238D01*
X50015019Y-49892857D01*
X50111780Y-49892857D01*
X50353685Y-50376666D02*
X51031019Y-50376666D01*
X50450447Y-50376666D02*
X50402066Y-50425047D01*
X50353685Y-50521809D01*
X50353685Y-50666952D01*
X50402066Y-50763714D01*
X50498828Y-50812095D01*
X51031019Y-50812095D01*
X50353685Y-51731333D02*
X51176161Y-51731333D01*
X51272923Y-51682952D01*
X51321304Y-51634571D01*
X51369685Y-51537809D01*
X51369685Y-51392666D01*
X51321304Y-51295904D01*
X50982638Y-51731333D02*
X51031019Y-51634571D01*
X51031019Y-51441047D01*
X50982638Y-51344285D01*
X50934257Y-51295904D01*
X50837495Y-51247523D01*
X50547209Y-51247523D01*
X50450447Y-51295904D01*
X50402066Y-51344285D01*
X50353685Y-51441047D01*
X50353685Y-51634571D01*
X50402066Y-51731333D01*
X50353685Y-52892476D02*
X51031019Y-53134380D01*
X50353685Y-53376285D01*
X50015019Y-53956857D02*
X50015019Y-54053619D01*
X50063400Y-54150380D01*
X50111780Y-54198761D01*
X50208542Y-54247142D01*
X50402066Y-54295523D01*
X50643971Y-54295523D01*
X50837495Y-54247142D01*
X50934257Y-54198761D01*
X50982638Y-54150380D01*
X51031019Y-54053619D01*
X51031019Y-53956857D01*
X50982638Y-53860095D01*
X50934257Y-53811714D01*
X50837495Y-53763333D01*
X50643971Y-53714952D01*
X50402066Y-53714952D01*
X50208542Y-53763333D01*
X50111780Y-53811714D01*
X50063400Y-53860095D01*
X50015019Y-53956857D01*
X50934257Y-54730952D02*
X50982638Y-54779333D01*
X51031019Y-54730952D01*
X50982638Y-54682571D01*
X50934257Y-54730952D01*
X51031019Y-54730952D01*
X51031019Y-55746952D02*
X51031019Y-55166380D01*
X51031019Y-55456666D02*
X50015019Y-55456666D01*
X50160161Y-55359904D01*
X50256923Y-55263142D01*
X50305304Y-55166380D01*
X52080885Y-38112095D02*
X52758219Y-38305619D01*
X52274409Y-38499142D01*
X52758219Y-38692666D01*
X52080885Y-38886190D01*
X52080885Y-39176476D02*
X52758219Y-39370000D01*
X52274409Y-39563523D01*
X52758219Y-39757047D01*
X52080885Y-39950571D01*
X52080885Y-40240857D02*
X52758219Y-40434380D01*
X52274409Y-40627904D01*
X52758219Y-40821428D01*
X52080885Y-41014952D01*
X52661457Y-41401999D02*
X52709838Y-41450380D01*
X52758219Y-41401999D01*
X52709838Y-41353619D01*
X52661457Y-41401999D01*
X52758219Y-41401999D01*
X52758219Y-41885809D02*
X52080885Y-41885809D01*
X51742219Y-41885809D02*
X51790600Y-41837428D01*
X51838980Y-41885809D01*
X51790600Y-41934190D01*
X51742219Y-41885809D01*
X51838980Y-41885809D01*
X52758219Y-42514761D02*
X52709838Y-42418000D01*
X52661457Y-42369619D01*
X52564695Y-42321238D01*
X52274409Y-42321238D01*
X52177647Y-42369619D01*
X52129266Y-42418000D01*
X52080885Y-42514761D01*
X52080885Y-42659904D01*
X52129266Y-42756666D01*
X52177647Y-42805047D01*
X52274409Y-42853428D01*
X52564695Y-42853428D01*
X52661457Y-42805047D01*
X52709838Y-42756666D01*
X52758219Y-42659904D01*
X52758219Y-42514761D01*
X52758219Y-43288857D02*
X52080885Y-43288857D01*
X52274409Y-43288857D02*
X52177647Y-43337238D01*
X52129266Y-43385619D01*
X52080885Y-43482380D01*
X52080885Y-43579142D01*
X52758219Y-44062952D02*
X52709838Y-43966190D01*
X52661457Y-43917809D01*
X52564695Y-43869428D01*
X52274409Y-43869428D01*
X52177647Y-43917809D01*
X52129266Y-43966190D01*
X52080885Y-44062952D01*
X52080885Y-44208095D01*
X52129266Y-44304857D01*
X52177647Y-44353238D01*
X52274409Y-44401619D01*
X52564695Y-44401619D01*
X52661457Y-44353238D01*
X52709838Y-44304857D01*
X52758219Y-44208095D01*
X52758219Y-44062952D01*
X52758219Y-45272476D02*
X51742219Y-45272476D01*
X52709838Y-45272476D02*
X52758219Y-45175714D01*
X52758219Y-44982190D01*
X52709838Y-44885428D01*
X52661457Y-44837047D01*
X52564695Y-44788666D01*
X52274409Y-44788666D01*
X52177647Y-44837047D01*
X52129266Y-44885428D01*
X52080885Y-44982190D01*
X52080885Y-45175714D01*
X52129266Y-45272476D01*
X52709838Y-46143333D02*
X52758219Y-46046571D01*
X52758219Y-45853047D01*
X52709838Y-45756285D01*
X52613076Y-45707904D01*
X52226028Y-45707904D01*
X52129266Y-45756285D01*
X52080885Y-45853047D01*
X52080885Y-46046571D01*
X52129266Y-46143333D01*
X52226028Y-46191714D01*
X52322790Y-46191714D01*
X52419552Y-45707904D01*
X52758219Y-46772285D02*
X52709838Y-46675523D01*
X52661457Y-46627142D01*
X52564695Y-46578761D01*
X52274409Y-46578761D01*
X52177647Y-46627142D01*
X52129266Y-46675523D01*
X52080885Y-46772285D01*
X52080885Y-46917428D01*
X52129266Y-47014190D01*
X52177647Y-47062571D01*
X52274409Y-47110952D01*
X52564695Y-47110952D01*
X52661457Y-47062571D01*
X52709838Y-47014190D01*
X52758219Y-46917428D01*
X52758219Y-46772285D01*
X52661457Y-47546380D02*
X52709838Y-47594761D01*
X52758219Y-47546380D01*
X52709838Y-47497999D01*
X52661457Y-47546380D01*
X52758219Y-47546380D01*
X52709838Y-48465619D02*
X52758219Y-48368857D01*
X52758219Y-48175333D01*
X52709838Y-48078571D01*
X52661457Y-48030190D01*
X52564695Y-47981809D01*
X52274409Y-47981809D01*
X52177647Y-48030190D01*
X52129266Y-48078571D01*
X52080885Y-48175333D01*
X52080885Y-48368857D01*
X52129266Y-48465619D01*
X52758219Y-49046190D02*
X52709838Y-48949428D01*
X52661457Y-48901047D01*
X52564695Y-48852666D01*
X52274409Y-48852666D01*
X52177647Y-48901047D01*
X52129266Y-48949428D01*
X52080885Y-49046190D01*
X52080885Y-49191333D01*
X52129266Y-49288095D01*
X52177647Y-49336476D01*
X52274409Y-49384857D01*
X52564695Y-49384857D01*
X52661457Y-49336476D01*
X52709838Y-49288095D01*
X52758219Y-49191333D01*
X52758219Y-49046190D01*
X52758219Y-49820285D02*
X52080885Y-49820285D01*
X52177647Y-49820285D02*
X52129266Y-49868666D01*
X52080885Y-49965428D01*
X52080885Y-50110571D01*
X52129266Y-50207333D01*
X52226028Y-50255714D01*
X52758219Y-50255714D01*
X52226028Y-50255714D02*
X52129266Y-50304095D01*
X52080885Y-50400857D01*
X52080885Y-50545999D01*
X52129266Y-50642761D01*
X52226028Y-50691142D01*
X52758219Y-50691142D01*
D11*
G04 #@! TO.C,JP1*
X47882000Y-53070000D02*
X47882000Y-51070000D01*
X45082000Y-53070000D02*
X47882000Y-53070000D01*
X45082000Y-51070000D02*
X45082000Y-53070000D01*
X47882000Y-51070000D02*
X45082000Y-51070000D01*
G04 #@! TO.C,JP2*
X47882000Y-48530000D02*
X45082000Y-48530000D01*
X45082000Y-48530000D02*
X45082000Y-50530000D01*
X45082000Y-50530000D02*
X47882000Y-50530000D01*
X47882000Y-50530000D02*
X47882000Y-48530000D01*
G04 #@! TO.C,JP3*
X47882000Y-47990000D02*
X47882000Y-45990000D01*
X45082000Y-47990000D02*
X47882000Y-47990000D01*
X45082000Y-45990000D02*
X45082000Y-47990000D01*
X47882000Y-45990000D02*
X45082000Y-45990000D01*
G04 #@! TO.C,JP4*
X47882000Y-45450000D02*
X47882000Y-43450000D01*
X45082000Y-45450000D02*
X47882000Y-45450000D01*
X45082000Y-43450000D02*
X45082000Y-45450000D01*
X47882000Y-43450000D02*
X45082000Y-43450000D01*
G04 #@! TO.C,U1*
D10*
X58976380Y-70309619D02*
X59315047Y-69825809D01*
X59556952Y-70309619D02*
X59556952Y-69293619D01*
X59169904Y-69293619D01*
X59073142Y-69342000D01*
X59024761Y-69390380D01*
X58976380Y-69487142D01*
X58976380Y-69632285D01*
X59024761Y-69729047D01*
X59073142Y-69777428D01*
X59169904Y-69825809D01*
X59556952Y-69825809D01*
X58589333Y-70261238D02*
X58444190Y-70309619D01*
X58202285Y-70309619D01*
X58105523Y-70261238D01*
X58057142Y-70212857D01*
X58008761Y-70116095D01*
X58008761Y-70019333D01*
X58057142Y-69922571D01*
X58105523Y-69874190D01*
X58202285Y-69825809D01*
X58395809Y-69777428D01*
X58492571Y-69729047D01*
X58540952Y-69680666D01*
X58589333Y-69583904D01*
X58589333Y-69487142D01*
X58540952Y-69390380D01*
X58492571Y-69342000D01*
X58395809Y-69293619D01*
X58153904Y-69293619D01*
X58008761Y-69342000D01*
X57718476Y-69293619D02*
X57137904Y-69293619D01*
X57428190Y-70309619D02*
X57428190Y-69293619D01*
X59448095Y-66753619D02*
X58819142Y-66753619D01*
X59157809Y-67140666D01*
X59012666Y-67140666D01*
X58915904Y-67189047D01*
X58867523Y-67237428D01*
X58819142Y-67334190D01*
X58819142Y-67576095D01*
X58867523Y-67672857D01*
X58915904Y-67721238D01*
X59012666Y-67769619D01*
X59302952Y-67769619D01*
X59399714Y-67721238D01*
X59448095Y-67672857D01*
X58528857Y-66753619D02*
X58190190Y-67769619D01*
X57851523Y-66753619D01*
X59556952Y-64939333D02*
X59073142Y-64939333D01*
X59653714Y-65229619D02*
X59315047Y-64213619D01*
X58976380Y-65229619D01*
X58057142Y-65229619D02*
X58395809Y-64745809D01*
X58637714Y-65229619D02*
X58637714Y-64213619D01*
X58250666Y-64213619D01*
X58153904Y-64262000D01*
X58105523Y-64310380D01*
X58057142Y-64407142D01*
X58057142Y-64552285D01*
X58105523Y-64649047D01*
X58153904Y-64697428D01*
X58250666Y-64745809D01*
X58637714Y-64745809D01*
X57621714Y-64697428D02*
X57283047Y-64697428D01*
X57137904Y-65229619D02*
X57621714Y-65229619D01*
X57621714Y-64213619D01*
X57137904Y-64213619D01*
X56363809Y-64697428D02*
X56702476Y-64697428D01*
X56702476Y-65229619D02*
X56702476Y-64213619D01*
X56218666Y-64213619D01*
X58940095Y-61722000D02*
X59036857Y-61673619D01*
X59182000Y-61673619D01*
X59327142Y-61722000D01*
X59423904Y-61818761D01*
X59472285Y-61915523D01*
X59520666Y-62109047D01*
X59520666Y-62254190D01*
X59472285Y-62447714D01*
X59423904Y-62544476D01*
X59327142Y-62641238D01*
X59182000Y-62689619D01*
X59085238Y-62689619D01*
X58940095Y-62641238D01*
X58891714Y-62592857D01*
X58891714Y-62254190D01*
X59085238Y-62254190D01*
X58456285Y-62689619D02*
X58456285Y-61673619D01*
X57875714Y-62689619D01*
X57875714Y-61673619D01*
X57391904Y-62689619D02*
X57391904Y-61673619D01*
X57150000Y-61673619D01*
X57004857Y-61722000D01*
X56908095Y-61818761D01*
X56859714Y-61915523D01*
X56811333Y-62109047D01*
X56811333Y-62254190D01*
X56859714Y-62447714D01*
X56908095Y-62544476D01*
X57004857Y-62641238D01*
X57150000Y-62689619D01*
X57391904Y-62689619D01*
X59399714Y-59859333D02*
X58915904Y-59859333D01*
X59496476Y-60149619D02*
X59157809Y-59133619D01*
X58819142Y-60149619D01*
X58286952Y-59133619D02*
X58190190Y-59133619D01*
X58093428Y-59182000D01*
X58045047Y-59230380D01*
X57996666Y-59327142D01*
X57948285Y-59520666D01*
X57948285Y-59762571D01*
X57996666Y-59956095D01*
X58045047Y-60052857D01*
X58093428Y-60101238D01*
X58190190Y-60149619D01*
X58286952Y-60149619D01*
X58383714Y-60101238D01*
X58432095Y-60052857D01*
X58480476Y-59956095D01*
X58528857Y-59762571D01*
X58528857Y-59520666D01*
X58480476Y-59327142D01*
X58432095Y-59230380D01*
X58383714Y-59182000D01*
X58286952Y-59133619D01*
X59399714Y-57319333D02*
X58915904Y-57319333D01*
X59496476Y-57609619D02*
X59157809Y-56593619D01*
X58819142Y-57609619D01*
X57948285Y-57609619D02*
X58528857Y-57609619D01*
X58238571Y-57609619D02*
X58238571Y-56593619D01*
X58335333Y-56738761D01*
X58432095Y-56835523D01*
X58528857Y-56883904D01*
X59399714Y-54779333D02*
X58915904Y-54779333D01*
X59496476Y-55069619D02*
X59157809Y-54053619D01*
X58819142Y-55069619D01*
X58528857Y-54150380D02*
X58480476Y-54102000D01*
X58383714Y-54053619D01*
X58141809Y-54053619D01*
X58045047Y-54102000D01*
X57996666Y-54150380D01*
X57948285Y-54247142D01*
X57948285Y-54343904D01*
X57996666Y-54489047D01*
X58577238Y-55069619D01*
X57948285Y-55069619D01*
X59399714Y-52239333D02*
X58915904Y-52239333D01*
X59496476Y-52529619D02*
X59157809Y-51513619D01*
X58819142Y-52529619D01*
X58577238Y-51513619D02*
X57948285Y-51513619D01*
X58286952Y-51900666D01*
X58141809Y-51900666D01*
X58045047Y-51949047D01*
X57996666Y-51997428D01*
X57948285Y-52094190D01*
X57948285Y-52336095D01*
X57996666Y-52432857D01*
X58045047Y-52481238D01*
X58141809Y-52529619D01*
X58432095Y-52529619D01*
X58528857Y-52481238D01*
X58577238Y-52432857D01*
X59399714Y-49699333D02*
X58915904Y-49699333D01*
X59496476Y-49989619D02*
X59157809Y-48973619D01*
X58819142Y-49989619D01*
X58045047Y-49312285D02*
X58045047Y-49989619D01*
X58286952Y-48925238D02*
X58528857Y-49650952D01*
X57899904Y-49650952D01*
X59399714Y-47159333D02*
X58915904Y-47159333D01*
X59496476Y-47449619D02*
X59157809Y-46433619D01*
X58819142Y-47449619D01*
X57996666Y-46433619D02*
X58480476Y-46433619D01*
X58528857Y-46917428D01*
X58480476Y-46869047D01*
X58383714Y-46820666D01*
X58141809Y-46820666D01*
X58045047Y-46869047D01*
X57996666Y-46917428D01*
X57948285Y-47014190D01*
X57948285Y-47256095D01*
X57996666Y-47352857D01*
X58045047Y-47401238D01*
X58141809Y-47449619D01*
X58383714Y-47449619D01*
X58480476Y-47401238D01*
X58528857Y-47352857D01*
X59726285Y-44861238D02*
X59581142Y-44909619D01*
X59339238Y-44909619D01*
X59242476Y-44861238D01*
X59194095Y-44812857D01*
X59145714Y-44716095D01*
X59145714Y-44619333D01*
X59194095Y-44522571D01*
X59242476Y-44474190D01*
X59339238Y-44425809D01*
X59532761Y-44377428D01*
X59629523Y-44329047D01*
X59677904Y-44280666D01*
X59726285Y-44183904D01*
X59726285Y-44087142D01*
X59677904Y-43990380D01*
X59629523Y-43942000D01*
X59532761Y-43893619D01*
X59290857Y-43893619D01*
X59145714Y-43942000D01*
X58129714Y-44812857D02*
X58178095Y-44861238D01*
X58323238Y-44909619D01*
X58420000Y-44909619D01*
X58565142Y-44861238D01*
X58661904Y-44764476D01*
X58710285Y-44667714D01*
X58758666Y-44474190D01*
X58758666Y-44329047D01*
X58710285Y-44135523D01*
X58661904Y-44038761D01*
X58565142Y-43942000D01*
X58420000Y-43893619D01*
X58323238Y-43893619D01*
X58178095Y-43942000D01*
X58129714Y-43990380D01*
X57694285Y-44909619D02*
X57694285Y-43893619D01*
X57113714Y-44909619D02*
X57549142Y-44329047D01*
X57113714Y-43893619D02*
X57694285Y-44474190D01*
X59508571Y-42623619D02*
X59508571Y-41607619D01*
X59169904Y-42333333D01*
X58831238Y-41607619D01*
X58831238Y-42623619D01*
X58153904Y-41607619D02*
X57960380Y-41607619D01*
X57863619Y-41656000D01*
X57766857Y-41752761D01*
X57718476Y-41946285D01*
X57718476Y-42284952D01*
X57766857Y-42478476D01*
X57863619Y-42575238D01*
X57960380Y-42623619D01*
X58153904Y-42623619D01*
X58250666Y-42575238D01*
X58347428Y-42478476D01*
X58395809Y-42284952D01*
X58395809Y-41946285D01*
X58347428Y-41752761D01*
X58250666Y-41656000D01*
X58153904Y-41607619D01*
X57331428Y-42575238D02*
X57186285Y-42623619D01*
X56944380Y-42623619D01*
X56847619Y-42575238D01*
X56799238Y-42526857D01*
X56750857Y-42430095D01*
X56750857Y-42333333D01*
X56799238Y-42236571D01*
X56847619Y-42188190D01*
X56944380Y-42139809D01*
X57137904Y-42091428D01*
X57234666Y-42043047D01*
X57283047Y-41994666D01*
X57331428Y-41897904D01*
X57331428Y-41801142D01*
X57283047Y-41704380D01*
X57234666Y-41656000D01*
X57137904Y-41607619D01*
X56895999Y-41607619D01*
X56750857Y-41656000D01*
X56315428Y-42623619D02*
X56315428Y-41607619D01*
X59508571Y-39829619D02*
X59508571Y-38813619D01*
X59169904Y-39539333D01*
X58831238Y-38813619D01*
X58831238Y-39829619D01*
X58347428Y-39829619D02*
X58347428Y-38813619D01*
X57911999Y-39781238D02*
X57766857Y-39829619D01*
X57524952Y-39829619D01*
X57428190Y-39781238D01*
X57379809Y-39732857D01*
X57331428Y-39636095D01*
X57331428Y-39539333D01*
X57379809Y-39442571D01*
X57428190Y-39394190D01*
X57524952Y-39345809D01*
X57718476Y-39297428D01*
X57815238Y-39249047D01*
X57863619Y-39200666D01*
X57911999Y-39103904D01*
X57911999Y-39007142D01*
X57863619Y-38910380D01*
X57815238Y-38862000D01*
X57718476Y-38813619D01*
X57476571Y-38813619D01*
X57331428Y-38862000D01*
X56702476Y-38813619D02*
X56508952Y-38813619D01*
X56412190Y-38862000D01*
X56315428Y-38958761D01*
X56267047Y-39152285D01*
X56267047Y-39490952D01*
X56315428Y-39684476D01*
X56412190Y-39781238D01*
X56508952Y-39829619D01*
X56702476Y-39829619D01*
X56799238Y-39781238D01*
X56895999Y-39684476D01*
X56944380Y-39490952D01*
X56944380Y-39152285D01*
X56895999Y-38958761D01*
X56799238Y-38862000D01*
X56702476Y-38813619D01*
X59097333Y-37543619D02*
X59436000Y-37059809D01*
X59677904Y-37543619D02*
X59677904Y-36527619D01*
X59290857Y-36527619D01*
X59194095Y-36576000D01*
X59145714Y-36624380D01*
X59097333Y-36721142D01*
X59097333Y-36866285D01*
X59145714Y-36963047D01*
X59194095Y-37011428D01*
X59290857Y-37059809D01*
X59677904Y-37059809D01*
X58758666Y-36527619D02*
X58081333Y-37543619D01*
X58081333Y-36527619D02*
X58758666Y-37543619D01*
X59702095Y-33733619D02*
X59121523Y-33733619D01*
X59411809Y-34749619D02*
X59411809Y-33733619D01*
X58879619Y-33733619D02*
X58202285Y-34749619D01*
X58202285Y-33733619D02*
X58879619Y-34749619D01*
X59290857Y-31677428D02*
X59145714Y-31725809D01*
X59097333Y-31774190D01*
X59048952Y-31870952D01*
X59048952Y-32016095D01*
X59097333Y-32112857D01*
X59145714Y-32161238D01*
X59242476Y-32209619D01*
X59629523Y-32209619D01*
X59629523Y-31193619D01*
X59290857Y-31193619D01*
X59194095Y-31242000D01*
X59145714Y-31290380D01*
X59097333Y-31387142D01*
X59097333Y-31483904D01*
X59145714Y-31580666D01*
X59194095Y-31629047D01*
X59290857Y-31677428D01*
X59629523Y-31677428D01*
X58661904Y-32161238D02*
X58516761Y-32209619D01*
X58274857Y-32209619D01*
X58178095Y-32161238D01*
X58129714Y-32112857D01*
X58081333Y-32016095D01*
X58081333Y-31919333D01*
X58129714Y-31822571D01*
X58178095Y-31774190D01*
X58274857Y-31725809D01*
X58468380Y-31677428D01*
X58565142Y-31629047D01*
X58613523Y-31580666D01*
X58661904Y-31483904D01*
X58661904Y-31387142D01*
X58613523Y-31290380D01*
X58565142Y-31242000D01*
X58468380Y-31193619D01*
X58226476Y-31193619D01*
X58081333Y-31242000D01*
X57645904Y-32209619D02*
X57645904Y-31193619D01*
X57258857Y-31193619D01*
X57162095Y-31242000D01*
X57113714Y-31290380D01*
X57065333Y-31387142D01*
X57065333Y-31532285D01*
X57113714Y-31629047D01*
X57162095Y-31677428D01*
X57258857Y-31725809D01*
X57645904Y-31725809D01*
X56629904Y-31677428D02*
X56291238Y-31677428D01*
X56146095Y-32209619D02*
X56629904Y-32209619D01*
X56629904Y-31193619D01*
X56146095Y-31193619D01*
X55130095Y-32112857D02*
X55178476Y-32161238D01*
X55323619Y-32209619D01*
X55420380Y-32209619D01*
X55565523Y-32161238D01*
X55662285Y-32064476D01*
X55710666Y-31967714D01*
X55759047Y-31774190D01*
X55759047Y-31629047D01*
X55710666Y-31435523D01*
X55662285Y-31338761D01*
X55565523Y-31242000D01*
X55420380Y-31193619D01*
X55323619Y-31193619D01*
X55178476Y-31242000D01*
X55130095Y-31290380D01*
X43929904Y-59617428D02*
X43784761Y-59665809D01*
X43736380Y-59714190D01*
X43688000Y-59810952D01*
X43688000Y-59956095D01*
X43736380Y-60052857D01*
X43784761Y-60101238D01*
X43881523Y-60149619D01*
X44268571Y-60149619D01*
X44268571Y-59133619D01*
X43929904Y-59133619D01*
X43833142Y-59182000D01*
X43784761Y-59230380D01*
X43736380Y-59327142D01*
X43736380Y-59423904D01*
X43784761Y-59520666D01*
X43833142Y-59569047D01*
X43929904Y-59617428D01*
X44268571Y-59617428D01*
X43300952Y-59859333D02*
X42817142Y-59859333D01*
X43397714Y-60149619D02*
X43059047Y-59133619D01*
X42720380Y-60149619D01*
X42526857Y-59133619D02*
X41946285Y-59133619D01*
X42236571Y-60149619D02*
X42236571Y-59133619D01*
X43421904Y-57077428D02*
X43083238Y-57077428D01*
X42938095Y-57609619D02*
X43421904Y-57609619D01*
X43421904Y-56593619D01*
X42938095Y-56593619D01*
X42502666Y-57609619D02*
X42502666Y-56593619D01*
X41922095Y-57609619D01*
X41922095Y-56593619D01*
X44462095Y-54053619D02*
X44462095Y-54876095D01*
X44413714Y-54972857D01*
X44365333Y-55021238D01*
X44268571Y-55069619D01*
X44075047Y-55069619D01*
X43978285Y-55021238D01*
X43929904Y-54972857D01*
X43881523Y-54876095D01*
X43881523Y-54053619D01*
X43446095Y-55021238D02*
X43300952Y-55069619D01*
X43059047Y-55069619D01*
X42962285Y-55021238D01*
X42913904Y-54972857D01*
X42865523Y-54876095D01*
X42865523Y-54779333D01*
X42913904Y-54682571D01*
X42962285Y-54634190D01*
X43059047Y-54585809D01*
X43252571Y-54537428D01*
X43349333Y-54489047D01*
X43397714Y-54440666D01*
X43446095Y-54343904D01*
X43446095Y-54247142D01*
X43397714Y-54150380D01*
X43349333Y-54102000D01*
X43252571Y-54053619D01*
X43010666Y-54053619D01*
X42865523Y-54102000D01*
X42091428Y-54537428D02*
X41946285Y-54585809D01*
X41897904Y-54634190D01*
X41849523Y-54730952D01*
X41849523Y-54876095D01*
X41897904Y-54972857D01*
X41946285Y-55021238D01*
X42043047Y-55069619D01*
X42430095Y-55069619D01*
X42430095Y-54053619D01*
X42091428Y-54053619D01*
X41994666Y-54102000D01*
X41946285Y-54150380D01*
X41897904Y-54247142D01*
X41897904Y-54343904D01*
X41946285Y-54440666D01*
X41994666Y-54489047D01*
X42091428Y-54537428D01*
X42430095Y-54537428D01*
X44413714Y-52529619D02*
X44413714Y-51513619D01*
X44171809Y-51513619D01*
X44026666Y-51562000D01*
X43929904Y-51658761D01*
X43881523Y-51755523D01*
X43833142Y-51949047D01*
X43833142Y-52094190D01*
X43881523Y-52287714D01*
X43929904Y-52384476D01*
X44026666Y-52481238D01*
X44171809Y-52529619D01*
X44413714Y-52529619D01*
X42865523Y-52529619D02*
X43446095Y-52529619D01*
X43155809Y-52529619D02*
X43155809Y-51513619D01*
X43252571Y-51658761D01*
X43349333Y-51755523D01*
X43446095Y-51803904D01*
X42526857Y-51513619D02*
X41897904Y-51513619D01*
X42236571Y-51900666D01*
X42091428Y-51900666D01*
X41994666Y-51949047D01*
X41946285Y-51997428D01*
X41897904Y-52094190D01*
X41897904Y-52336095D01*
X41946285Y-52432857D01*
X41994666Y-52481238D01*
X42091428Y-52529619D01*
X42381714Y-52529619D01*
X42478476Y-52481238D01*
X42526857Y-52432857D01*
X44413714Y-50243619D02*
X44413714Y-49227619D01*
X44171809Y-49227619D01*
X44026666Y-49276000D01*
X43929904Y-49372761D01*
X43881523Y-49469523D01*
X43833142Y-49663047D01*
X43833142Y-49808190D01*
X43881523Y-50001714D01*
X43929904Y-50098476D01*
X44026666Y-50195238D01*
X44171809Y-50243619D01*
X44413714Y-50243619D01*
X42865523Y-50243619D02*
X43446095Y-50243619D01*
X43155809Y-50243619D02*
X43155809Y-49227619D01*
X43252571Y-49372761D01*
X43349333Y-49469523D01*
X43446095Y-49517904D01*
X42478476Y-49324380D02*
X42430095Y-49276000D01*
X42333333Y-49227619D01*
X42091428Y-49227619D01*
X41994666Y-49276000D01*
X41946285Y-49324380D01*
X41897904Y-49421142D01*
X41897904Y-49517904D01*
X41946285Y-49663047D01*
X42526857Y-50243619D01*
X41897904Y-50243619D01*
X44413714Y-47449619D02*
X44413714Y-46433619D01*
X44171809Y-46433619D01*
X44026666Y-46482000D01*
X43929904Y-46578761D01*
X43881523Y-46675523D01*
X43833142Y-46869047D01*
X43833142Y-47014190D01*
X43881523Y-47207714D01*
X43929904Y-47304476D01*
X44026666Y-47401238D01*
X44171809Y-47449619D01*
X44413714Y-47449619D01*
X42865523Y-47449619D02*
X43446095Y-47449619D01*
X43155809Y-47449619D02*
X43155809Y-46433619D01*
X43252571Y-46578761D01*
X43349333Y-46675523D01*
X43446095Y-46723904D01*
X41897904Y-47449619D02*
X42478476Y-47449619D01*
X42188190Y-47449619D02*
X42188190Y-46433619D01*
X42284952Y-46578761D01*
X42381714Y-46675523D01*
X42478476Y-46723904D01*
X44413714Y-44909619D02*
X44413714Y-43893619D01*
X44171809Y-43893619D01*
X44026666Y-43942000D01*
X43929904Y-44038761D01*
X43881523Y-44135523D01*
X43833142Y-44329047D01*
X43833142Y-44474190D01*
X43881523Y-44667714D01*
X43929904Y-44764476D01*
X44026666Y-44861238D01*
X44171809Y-44909619D01*
X44413714Y-44909619D01*
X42865523Y-44909619D02*
X43446095Y-44909619D01*
X43155809Y-44909619D02*
X43155809Y-43893619D01*
X43252571Y-44038761D01*
X43349333Y-44135523D01*
X43446095Y-44183904D01*
X42236571Y-43893619D02*
X42139809Y-43893619D01*
X42043047Y-43942000D01*
X41994666Y-43990380D01*
X41946285Y-44087142D01*
X41897904Y-44280666D01*
X41897904Y-44522571D01*
X41946285Y-44716095D01*
X41994666Y-44812857D01*
X42043047Y-44861238D01*
X42139809Y-44909619D01*
X42236571Y-44909619D01*
X42333333Y-44861238D01*
X42381714Y-44812857D01*
X42430095Y-44716095D01*
X42478476Y-44522571D01*
X42478476Y-44280666D01*
X42430095Y-44087142D01*
X42381714Y-43990380D01*
X42333333Y-43942000D01*
X42236571Y-43893619D01*
X43421904Y-42369619D02*
X43421904Y-41353619D01*
X43180000Y-41353619D01*
X43034857Y-41402000D01*
X42938095Y-41498761D01*
X42889714Y-41595523D01*
X42841333Y-41789047D01*
X42841333Y-41934190D01*
X42889714Y-42127714D01*
X42938095Y-42224476D01*
X43034857Y-42321238D01*
X43180000Y-42369619D01*
X43421904Y-42369619D01*
X42357523Y-42369619D02*
X42164000Y-42369619D01*
X42067238Y-42321238D01*
X42018857Y-42272857D01*
X41922095Y-42127714D01*
X41873714Y-41934190D01*
X41873714Y-41547142D01*
X41922095Y-41450380D01*
X41970476Y-41402000D01*
X42067238Y-41353619D01*
X42260761Y-41353619D01*
X42357523Y-41402000D01*
X42405904Y-41450380D01*
X42454285Y-41547142D01*
X42454285Y-41789047D01*
X42405904Y-41885809D01*
X42357523Y-41934190D01*
X42260761Y-41982571D01*
X42067238Y-41982571D01*
X41970476Y-41934190D01*
X41922095Y-41885809D01*
X41873714Y-41789047D01*
X43421904Y-39829619D02*
X43421904Y-38813619D01*
X43180000Y-38813619D01*
X43034857Y-38862000D01*
X42938095Y-38958761D01*
X42889714Y-39055523D01*
X42841333Y-39249047D01*
X42841333Y-39394190D01*
X42889714Y-39587714D01*
X42938095Y-39684476D01*
X43034857Y-39781238D01*
X43180000Y-39829619D01*
X43421904Y-39829619D01*
X41970476Y-38813619D02*
X42164000Y-38813619D01*
X42260761Y-38862000D01*
X42309142Y-38910380D01*
X42405904Y-39055523D01*
X42454285Y-39249047D01*
X42454285Y-39636095D01*
X42405904Y-39732857D01*
X42357523Y-39781238D01*
X42260761Y-39829619D01*
X42067238Y-39829619D01*
X41970476Y-39781238D01*
X41922095Y-39732857D01*
X41873714Y-39636095D01*
X41873714Y-39394190D01*
X41922095Y-39297428D01*
X41970476Y-39249047D01*
X42067238Y-39200666D01*
X42260761Y-39200666D01*
X42357523Y-39249047D01*
X42405904Y-39297428D01*
X42454285Y-39394190D01*
X43421904Y-37416619D02*
X43421904Y-36400619D01*
X43180000Y-36400619D01*
X43034857Y-36449000D01*
X42938095Y-36545761D01*
X42889714Y-36642523D01*
X42841333Y-36836047D01*
X42841333Y-36981190D01*
X42889714Y-37174714D01*
X42938095Y-37271476D01*
X43034857Y-37368238D01*
X43180000Y-37416619D01*
X43421904Y-37416619D01*
X41922095Y-36400619D02*
X42405904Y-36400619D01*
X42454285Y-36884428D01*
X42405904Y-36836047D01*
X42309142Y-36787666D01*
X42067238Y-36787666D01*
X41970476Y-36836047D01*
X41922095Y-36884428D01*
X41873714Y-36981190D01*
X41873714Y-37223095D01*
X41922095Y-37319857D01*
X41970476Y-37368238D01*
X42067238Y-37416619D01*
X42309142Y-37416619D01*
X42405904Y-37368238D01*
X42454285Y-37319857D01*
X44389523Y-34701238D02*
X44244380Y-34749619D01*
X44002476Y-34749619D01*
X43905714Y-34701238D01*
X43857333Y-34652857D01*
X43808952Y-34556095D01*
X43808952Y-34459333D01*
X43857333Y-34362571D01*
X43905714Y-34314190D01*
X44002476Y-34265809D01*
X44196000Y-34217428D01*
X44292761Y-34169047D01*
X44341142Y-34120666D01*
X44389523Y-34023904D01*
X44389523Y-33927142D01*
X44341142Y-33830380D01*
X44292761Y-33782000D01*
X44196000Y-33733619D01*
X43954095Y-33733619D01*
X43808952Y-33782000D01*
X42792952Y-34652857D02*
X42841333Y-34701238D01*
X42986476Y-34749619D01*
X43083238Y-34749619D01*
X43228380Y-34701238D01*
X43325142Y-34604476D01*
X43373523Y-34507714D01*
X43421904Y-34314190D01*
X43421904Y-34169047D01*
X43373523Y-33975523D01*
X43325142Y-33878761D01*
X43228380Y-33782000D01*
X43083238Y-33733619D01*
X42986476Y-33733619D01*
X42841333Y-33782000D01*
X42792952Y-33830380D01*
X41873714Y-34749619D02*
X42357523Y-34749619D01*
X42357523Y-33733619D01*
X44413714Y-32161238D02*
X44268571Y-32209619D01*
X44026666Y-32209619D01*
X43929904Y-32161238D01*
X43881523Y-32112857D01*
X43833142Y-32016095D01*
X43833142Y-31919333D01*
X43881523Y-31822571D01*
X43929904Y-31774190D01*
X44026666Y-31725809D01*
X44220190Y-31677428D01*
X44316952Y-31629047D01*
X44365333Y-31580666D01*
X44413714Y-31483904D01*
X44413714Y-31387142D01*
X44365333Y-31290380D01*
X44316952Y-31242000D01*
X44220190Y-31193619D01*
X43978285Y-31193619D01*
X43833142Y-31242000D01*
X43397714Y-32209619D02*
X43397714Y-31193619D01*
X43155809Y-31193619D01*
X43010666Y-31242000D01*
X42913904Y-31338761D01*
X42865523Y-31435523D01*
X42817142Y-31629047D01*
X42817142Y-31774190D01*
X42865523Y-31967714D01*
X42913904Y-32064476D01*
X43010666Y-32161238D01*
X43155809Y-32209619D01*
X43397714Y-32209619D01*
X42430095Y-31919333D02*
X41946285Y-31919333D01*
X42526857Y-32209619D02*
X42188190Y-31193619D01*
X41849523Y-32209619D01*
G04 #@! TD*
M02*
